<?xml version="1.0" encoding="UTF-8"?>
<svg width="32px" height="32px" viewBox="0 0 32 32" version="1.1" xmlns="http://www.w3.org/2000/svg" xmlns:xlink="http://www.w3.org/1999/xlink">
    <title>icon/add</title>
    <defs>
        <path d="M14.1705999,-3.6429193e-17 L14.3168729,0.00757760541 C14.5113621,0.0277845532 14.7026027,0.0884053964 14.8776,0.189440135 C15.3150931,0.442026982 15.5845999,0.908826713 15.5845999,1.41400034 L15.584,12.725 L26.9005999,12.7250003 C27.4145588,12.7113288 27.8954369,12.9777102 28.1564442,13.4206728 C28.4174516,13.8636354 28.4174516,14.4133652 28.1564442,14.8563278 C27.9191649,15.2590211 27.5001741,15.5157796 27.03981,15.5488632 L26.9005999,15.5520003 L26.9005999,15.5520003 L15.584,15.552 L15.5845999,26.8630003 C15.5845999,27.5979939 15.0238187,28.20201 14.3067775,28.2705274 L14.1705999,28.2770003 L14.1705999,28.2770003 C13.3896692,28.2770003 12.7565999,27.643931 12.7565999,26.8630003 L12.756,15.552 L1.45159987,15.5520003 C0.937640936,15.5656719 0.456762822,15.2992904 0.195755495,14.8563278 C-0.0652518318,14.4133652 -0.0652518318,13.8636354 0.195755495,13.4206728 C0.456762822,12.9777102 0.937640936,12.7113288 1.45159987,12.7250003 L12.756,12.725 L12.7565999,1.41400034 C12.7565999,0.908826713 13.0261066,0.442026982 13.4635998,0.189440135 C13.6823464,0.0631467117 13.9264731,-6.9388939e-18 14.1705999,-6.9388939e-18 Z" id="path-1"></path>
    </defs>
    <g id="icon/add" stroke="none" stroke-width="1" fill="none" fill-rule="evenodd">
        <g id="color/primary/500" transform="translate(2.000000, 2.000000)">
            <mask id="mask-2" fill="white">
                <use xlink:href="#path-1"></use>
            </mask>
            <g id="Mask" fill-rule="nonzero"></g>
            <g id="Group" mask="url(#mask-2)">
                <g transform="translate(-2.000000, -2.000000)" id="color/primary/500">
                    <rect id="Rectangle-Copy-4" fill="#9DAAB7" x="0" y="2.27373675e-15" width="32" height="32"></rect>
                </g>
            </g>
        </g>
    </g>
</svg>