<?xml version="1.0" encoding="UTF-8"?>
<svg width="32px" height="32px" viewBox="0 0 32 32" version="1.1" xmlns="http://www.w3.org/2000/svg" xmlns:xlink="http://www.w3.org/1999/xlink">
    <title>icon/alert</title>
    <defs>
        <path d="M9.00342556,1.24066435 L9.81289028,2.04966693 C12.3799373,1.16691552 15.1699729,1.16703029 17.7369619,2.05001121 L18.5464256,1.24166435 C20.2038188,-0.413888118 22.8890323,-0.413888118 24.5464256,1.24166435 L26.3094256,3.00466435 C27.9638764,4.66251339 27.9638764,7.34681532 26.3094256,9.00466435 L25.3907942,9.92451637 C26.4957983,13.4426392 25.9472986,17.2943585 23.8623566,20.3776506 C23.2489691,21.2847516 22.5243281,22.0932075 21.7133662,22.7898008 L24.2884256,26.1246644 C24.6178067,26.5513846 24.6759103,27.1282605 24.4382411,27.6120946 C24.2005719,28.0959287 23.7084822,28.4025385 23.1694256,28.4026644 L23.1674256,28.4036647 C22.729224,28.403959 22.3156111,28.2012148 22.0474256,27.8546644 L19.3612265,24.3742195 C17.6585999,25.2519336 15.7476991,25.728201 13.7744256,25.7256744 C11.8008176,25.7275895 9.88971503,25.2506444 8.18704248,24.3722222 L5.49942556,27.8536644 C5.232385,28.2001195 4.81985176,28.4032469 4.38242556,28.4036644 C3.84336891,28.4035385 3.35127918,28.0969287 3.11361,27.6130946 C2.87594083,27.1292605 2.93404439,26.5523846 3.26342556,26.1256644 L5.83705197,22.7885421 C5.02648326,22.0921491 4.30216324,21.2840105 3.68898421,20.3773264 C1.6037467,17.2939666 1.05479337,13.4420461 2.15943629,9.92344536 L1.24042556,9.00366435 C-0.413475187,7.34558782 -0.413475187,4.66174089 1.24042556,3.00366435 L3.00342556,1.24066435 C4.6615021,-0.413236395 7.34534902,-0.413236395 9.00342556,1.24066435 Z M10.343518,4.86721791 L10.0304256,4.99766435 C7.79045249,5.98841983 6.02408567,7.81217115 5.10542556,10.0826644 L5.093,10.107 L5.00275549,10.344532 C3.59310463,14.1814057 4.84250076,18.506421 8.11157107,20.997132 C11.4566663,23.5457665 16.0921849,23.5457665 19.4372801,20.997132 C22.7738331,18.4550058 24.0064679,14.0020632 22.4553933,10.107565 C22.4504028,10.0998081 22.4468751,10.09126 22.4434256,10.0826644 C21.5250352,7.81199558 19.7585827,5.98815578 17.5184256,4.99766435 C15.235679,3.99757495 12.652398,3.9540928 10.343518,4.86721791 Z M13.7774256,6.07766435 C14.5583562,6.07766435 15.1914256,6.71073372 15.1914256,7.49166435 L15.1914256,12.6636644 L19.1724256,14.5696644 C19.7676204,14.8550629 20.0861677,15.5142947 19.9399105,16.1579702 C19.7936533,16.8016456 19.2215083,17.2584925 18.5614256,17.2586655 L18.5584256,17.2586655 C18.3472102,17.258939 18.1386702,17.2114193 17.9484256,17.1196644 L13.1634256,14.8296644 C12.6737469,14.5938849 12.3626975,14.09815 12.3634243,13.5546644 L12.3634243,7.49166435 C12.3634243,6.71073372 12.9964949,6.07766435 13.7774256,6.07766435 Z M20.5454256,3.24166435 L20.4188929,3.3678568 C21.9202986,4.35182499 23.1878203,5.65372724 24.131193,7.18037202 L24.3074256,7.00366435 C24.8581766,6.45074519 24.8581766,5.55658352 24.3074256,5.00366435 L22.5454256,3.24166435 C21.9852227,2.70883838 21.1056284,2.70883838 20.5454256,3.24166435 Z M5.00342556,3.24066435 L3.24142556,5.00266435 C2.69067456,5.55558352 2.69067456,6.44974519 3.24142556,7.00266435 L3.41827138,7.17937974 C4.36163951,5.653067 5.62903738,4.35144788 7.13024179,3.36767097 L7.00342556,3.24066435 C6.45050639,2.68991336 5.55634473,2.68991336 5.00342556,3.24066435 Z" id="path-1"></path>
    </defs>
    <g id="icon/alert" stroke="none" stroke-width="1" fill="none" fill-rule="evenodd">
        <g id="color/primary/500" transform="translate(2.000000, 2.000000)">
            <mask id="mask-2" fill="white">
                <use xlink:href="#path-1"></use>
            </mask>
            <g id="Mask" fill-rule="nonzero"></g>
            <g id="Group" mask="url(#mask-2)">
                <g transform="translate(-2.000000, -2.000000)" id="color/primary/500">
                    <rect id="Rectangle-Copy-4" fill="#9DAAB7" x="0" y="2.27373675e-15" width="32" height="32"></rect>
                </g>
            </g>
        </g>
    </g>
</svg>