<?xml version="1.0" encoding="UTF-8"?>
<svg width="32px" height="32px" viewBox="0 0 32 32" version="1.1" xmlns="http://www.w3.org/2000/svg" xmlns:xlink="http://www.w3.org/1999/xlink">
    <title>icon/android</title>
    <defs>
        <path d="M18.28,9.07247333 L18.28,18.2534733 C18.28,19.3934733 17.356,20.3174733 16.216,20.3174733 L16.216,20.3174733 L16.041,20.3174733 L16.041,25.0454733 C16.041,25.9854733 15.275,26.7514733 14.335,26.7514733 C13.394,26.7514733 12.629,25.9854733 12.629,25.0454733 L12.629,25.0454733 L12.629,20.3174733 L10.061,20.3174733 L10.061,25.0454733 C10.061,25.9854733 9.296,26.7514733 8.355,26.7514733 C7.415,26.7514733 6.649,25.9854733 6.649,25.0454733 L6.649,25.0454733 L6.649,20.3174733 L6.475,20.3174733 C5.335,20.3174733 4.411,19.3934733 4.411,18.2534733 L4.411,18.2534733 L4.411,9.07247333 L18.28,9.07247333 Z M1.706,9.07297333 C2.646,9.07297333 3.411,9.83897333 3.411,10.7789733 L3.411,10.7789733 L3.411,16.6179733 C3.411,17.5579733 2.646,18.3239733 1.706,18.3239733 C0.766,18.3239733 0,17.5579733 0,16.6179733 L0,16.6179733 L0,10.7789733 C0,9.83897333 0.766,9.07297333 1.706,9.07297333 Z M20.9862,9.07297333 C21.9262,9.07297333 22.6922,9.83797333 22.6922,10.7779733 L22.6922,10.7779733 L22.6922,16.6179733 C22.6922,17.5579733 21.9262,18.3239733 20.9862,18.3239733 C20.0462,18.3239733 19.2802,17.5579733 19.2802,16.6179733 L19.2802,16.6179733 L19.2802,10.7779733 C19.2802,9.83797333 20.0462,9.07297333 20.9862,9.07297333 Z M15.1458,0.250673331 C15.2838,0.011673331 15.5898,-0.070326669 15.8278,0.067673331 C16.0678,0.205673331 16.1498,0.511673331 16.0108,0.750673331 L16.0108,0.750673331 L14.8278,2.79767333 C16.6598,3.86567333 17.9608,5.74567333 18.2298,7.94867333 L18.2298,7.94867333 L4.4618,7.94867333 C4.7298,5.74567333 6.0308,3.86567333 7.8638,2.79767333 L7.8638,2.79767333 L6.6808,0.750673331 C6.5418,0.511673331 6.6238,0.205673331 6.8628,0.067673331 C7.1028,-0.071326669 7.4058,0.010673331 7.5458,0.250673331 L7.5458,0.250673331 L8.7318,2.30267333 C8.7418,2.32067333 8.7428,2.34067333 8.7508,2.35967333 C9.5528,2.03567333 10.4268,1.85467333 11.3458,1.85467333 C12.2638,1.85467333 13.1388,2.03567333 13.9398,2.36067333 C13.9488,2.34067333 13.9488,2.32067333 13.9598,2.30267333 L13.9598,2.30267333 Z" id="path-1"></path>
    </defs>
    <g id="icon/android" stroke="none" stroke-width="1" fill="none" fill-rule="evenodd">
        <g id="color/primary/500" transform="translate(5.000000, 3.000000)">
            <mask id="mask-2" fill="white">
                <use xlink:href="#path-1"></use>
            </mask>
            <use id="Mask" fill="#000000" xlink:href="#path-1"></use>
            <g id="Group" mask="url(#mask-2)">
                <g transform="translate(-5.000000, -3.000000)" id="color/primary/500">
                    <rect id="Rectangle-Copy-4" fill="#9DAAB7" x="0" y="2.27373675e-15" width="32" height="32"></rect>
                </g>
            </g>
        </g>
    </g>
</svg>