<?xml version="1.0" encoding="UTF-8"?>
<svg width="32px" height="32px" viewBox="0 0 32 32" version="1.1" xmlns="http://www.w3.org/2000/svg" xmlns:xlink="http://www.w3.org/1999/xlink">
    <title>icon/app</title>
    <defs>
        <path d="M15.3632537,22.1774997 C16.5523763,22.6702693 17.3274974,23.8309121 17.3270931,25.1180929 C17.3248891,26.873997 15.9019971,28.2968891 14.146093,28.2990931 C12.8589122,28.2994974 11.6982694,27.5243762 11.2054998,26.3352536 C10.7127302,25.146131 10.984905,23.7772536 11.8950793,22.8670793 C12.8052536,21.956905 14.174131,21.6847301 15.3632537,22.1774997 Z M26.3342537,22.1774997 C27.5233763,22.6702693 28.2984974,23.8309121 28.2980931,25.1180929 C28.2958891,26.873997 26.8729971,28.2968891 25.117093,28.2990931 C23.8299122,28.2994974 22.6692694,27.5243762 22.1764998,26.3352536 C21.6837302,25.146131 21.955905,23.7772536 22.8660793,22.8670793 C23.7762536,21.956905 25.145131,21.6847301 26.3342537,22.1774997 Z M4.40048471,22.1775953 C5.58948455,22.6704236 6.36449745,23.8310031 6.36409312,25.1180929 C6.36188803,26.8743869 4.9383876,28.29744 3.18209296,28.2990929 C1.89500311,28.2990929 0.734667233,27.5237152 0.242212741,26.3345605 C-0.25024175,25.1454058 0.0221799979,23.7766925 0.93243298,22.8667255 C1.84268596,21.9567586 3.21148488,21.6847671 4.40048471,22.1775953 Z M14.1454265,10.9700929 C15.9021141,10.9697248 17.3265407,12.3934054 17.327093,14.1500929 C17.3254401,15.9063875 15.902387,17.329888 14.146093,17.3320929 C12.3894054,17.3320929 10.9652772,15.9081137 10.9650931,14.1514261 C10.9649091,12.3947385 12.3887389,10.9704611 14.1454265,10.9700929 Z M25.1164265,10.9700929 C26.8731141,10.9697248 28.2975407,12.3934054 28.298093,14.1500929 C28.2964401,15.9063875 26.873387,17.329888 25.117093,17.3320929 C23.3604054,17.3320929 21.9362772,15.9081137 21.9360931,14.1514261 C21.9359091,12.3947385 23.3597389,10.9704611 25.1164265,10.9700929 Z M3.18275974,10.9700931 C4.93931713,10.969909 6.36354067,12.3935356 6.36409296,14.1500929 C6.36243909,15.9067775 4.93877753,17.330439 3.18209296,17.3320929 C1.42553565,17.3315406 0.00190904174,15.9073171 0.00209313832,14.1507597 C0.00227723489,12.3942023 1.42620234,10.9702772 3.18275974,10.9700931 Z M15.3632537,0.242499733 C16.5523763,0.735269343 17.3274974,1.89591212 17.3270931,3.1830929 C17.3248891,4.93899702 15.9019971,6.36188906 14.146093,6.36409306 C12.8589122,6.36449736 11.6982694,5.58937622 11.2054998,4.40025359 C10.7127302,3.21113096 10.984905,1.84225358 11.8950793,0.93207928 C12.8052536,0.0219049792 14.174131,-0.250269877 15.3632537,0.242499733 Z M26.3342537,0.242499733 C27.5233763,0.735269343 28.2984974,1.89591212 28.2980931,3.1830929 C28.2958891,4.93899702 26.8729971,6.36188906 25.117093,6.36409306 C23.8299122,6.36449736 22.6692694,5.58937622 22.1764998,4.40025359 C21.6837302,3.21113096 21.955905,1.84225358 22.8660793,0.93207928 C23.7762536,0.0219049792 25.145131,-0.250269877 26.3342537,0.242499733 Z M4.40048471,0.242595337 C5.58948455,0.735423576 6.36449745,1.89600311 6.36409312,3.1830929 C6.36188803,4.93938693 4.9383876,6.36244 3.18209296,6.3640929 C1.89500311,6.3640929 0.734667233,5.58871518 0.242212741,4.3995605 C-0.25024175,3.21040582 0.0221799979,1.84169246 0.93243298,0.931725541 C1.84268596,0.0217586227 3.21148488,-0.250232901 4.40048471,0.242595337 Z" id="path-1"></path>
    </defs>
    <g id="icon/app" stroke="none" stroke-width="1" fill="none" fill-rule="evenodd">
        <g id="color/primary/500" transform="translate(2.000000, 2.000000)">
            <mask id="mask-2" fill="white">
                <use xlink:href="#path-1"></use>
            </mask>
            <g id="Mask" fill-rule="nonzero"></g>
            <g id="Group" mask="url(#mask-2)">
                <g transform="translate(-2.000000, -2.000000)" id="color/primary/500">
                    <rect id="Rectangle-Copy-4" fill="#9DAAB7" x="0" y="2.27373675e-15" width="32" height="32"></rect>
                </g>
            </g>
        </g>
    </g>
</svg>