<?xml version="1.0" encoding="UTF-8"?>
<svg width="32px" height="32px" viewBox="0 0 32 32" version="1.1" xmlns="http://www.w3.org/2000/svg" xmlns:xlink="http://www.w3.org/1999/xlink">
    <title>icon/apple</title>
    <defs>
        <path d="M15.135,0.479 C15.135,1.677 14.697,2.796 13.825,3.832 C12.772,5.063 11.498,5.774 10.117,5.662 C10.099,5.518 10.089,5.367 10.089,5.208 C10.089,4.057 10.59,2.826 11.479,1.82 C11.923,1.31 12.488,0.886 13.172,0.548 C13.856,0.215 14.502,0.031 15.11,0 C15.128,0.16 15.135,0.32 15.135,0.479 Z M19.758,18.671 C19.396,19.508 18.967,20.279 18.47,20.987 C17.793,21.953 17.238,22.621 16.811,22.992 C16.148,23.602 15.438,23.914 14.678,23.932 C14.132,23.932 13.474,23.776 12.708,23.461 C11.94,23.148 11.233,22.992 10.587,22.992 C9.91,22.992 9.184,23.148 8.407,23.461 C7.628,23.776 7.001,23.94 6.522,23.957 C5.793,23.988 5.067,23.667 4.341,22.992 C3.878,22.589 3.299,21.897 2.606,20.916 C1.862,19.869 1.25,18.655 0.771,17.271 C0.257,15.775 0,14.327 0,12.926 C0,11.32 0.347,9.935 1.042,8.775 C1.588,7.843 2.314,7.107 3.224,6.568 C4.133,6.028 5.116,5.753 6.174,5.735 C6.753,5.735 7.512,5.914 8.456,6.266 C9.397,6.619 10.001,6.798 10.266,6.798 C10.464,6.798 11.135,6.589 12.273,6.171 C13.348,5.784 14.257,5.624 15,5.687 C17.016,5.85 18.531,6.644 19.538,8.076 C17.735,9.168 16.843,10.698 16.861,12.661 C16.877,14.19 17.432,15.462 18.522,16.472 C19.016,16.941 19.567,17.303 20.181,17.56 C20.048,17.946 19.907,18.316 19.758,18.671 Z" id="path-1"></path>
    </defs>
    <g id="icon/apple" stroke="none" stroke-width="1" fill="none" fill-rule="evenodd">
        <g id="color/primary/500" transform="translate(6.000000, 4.000000)">
            <mask id="mask-2" fill="white">
                <use xlink:href="#path-1"></use>
            </mask>
            <use id="Mask" fill="#B3B3B3" xlink:href="#path-1"></use>
            <g id="Group" mask="url(#mask-2)">
                <g transform="translate(-6.000000, -4.000000)" id="color/primary/500">
                    <rect id="Rectangle-Copy-4" fill="#9DAAB7" x="0" y="2.27373675e-15" width="32" height="32"></rect>
                </g>
            </g>
        </g>
    </g>
</svg>