<?xml version="1.0" encoding="UTF-8"?>
<svg width="32px" height="32px" viewBox="0 0 32 32" version="1.1" xmlns="http://www.w3.org/2000/svg" xmlns:xlink="http://www.w3.org/1999/xlink">
    <title>icon/arrow_up</title>
    <defs>
        <path d="M14.3264266,0.107675211 C14.4993417,0.178350597 14.6565025,0.282436361 14.7897105,0.415927367 L14.817,0.446 L27.1572136,12.785302 C27.5617422,13.1897085 27.6827772,13.7980019 27.4638644,14.3264573 C27.2449516,14.8549128 26.729217,15.1994242 26.1572136,15.199302 L26.1572136,15.2003045 C25.7818471,15.2010025 25.4217853,15.0515768 25.1572136,14.785302 L15.199,4.827 L15.1772136,26.157302 C15.176694,26.891928 14.6160255,27.4953826 13.8993248,27.5638353 L13.7632136,27.570302 C12.9825118,27.5691986 12.3502136,26.9360046 12.3502136,26.155302 L12.372,4.827 L2.41421356,14.785302 C1.86192881,15.3375868 0.966498312,15.3375868 0.414213562,14.785302 C-0.138071187,14.2330173 -0.138071187,13.3375868 0.414213562,12.785302 L12.7852136,0.414302046 C13.0504023,0.149033215 13.4101234,0 13.7852136,0 C13.8800358,0 13.9738758,0.00952427838 14.0654547,0.0280429697 C14.1113372,0.0374982011 14.156739,0.0488988433 14.2014148,0.0624999978 L14.3264266,0.107675211 L14.3264266,0.107675211 Z" id="path-1"></path>
    </defs>
    <g id="icon/arrow_up" stroke="none" stroke-width="1" fill="none" fill-rule="evenodd">
        <g id="color/primary/500" transform="translate(2.000000, 2.000000)">
            <mask id="mask-2" fill="white">
                <use xlink:href="#path-1"></use>
            </mask>
            <g id="Mask" fill-rule="nonzero"></g>
            <g id="Group" mask="url(#mask-2)">
                <g transform="translate(-2.000000, -2.000000)" id="color/primary/500">
                    <rect id="Rectangle-Copy-4" fill="#9DAAB7" x="0" y="2.27373675e-15" width="32" height="32"></rect>
                </g>
            </g>
        </g>
    </g>
</svg>