<?xml version="1.0" encoding="UTF-8"?>
<svg width="32px" height="32px" viewBox="0 0 32 32" version="1.1" xmlns="http://www.w3.org/2000/svg" xmlns:xlink="http://www.w3.org/1999/xlink">
    <title>icon/arrow_right</title>
    <defs>
        <path d="M14.784,0.414213562 L27.156,12.7862136 C27.4215142,13.0512719 27.570717,13.4110419 27.570717,13.7862136 L27.564,13.899 L27.5630294,13.924843 C27.5497153,14.0641762 27.5161741,14.1976071 27.465376,14.3221655 C27.4613413,14.331415 27.4572195,14.3411679 27.4529884,14.3508737 C27.4390133,14.3837417 27.4238492,14.4153347 27.4075731,14.4462511 C27.4034122,14.4532193 27.3992226,14.460986 27.3949595,14.4687147 C27.3550879,14.5420816 27.3089498,14.6107486 27.2573354,14.6748185 C27.2508831,14.6815597 27.2453584,14.6882626 27.2397683,14.6949186 C27.2170842,14.7233203 27.1922894,14.7507211 27.1664689,14.7771144 C27.1623658,14.7798283 27.1591913,14.7830278 27.156,14.7862136 L14.784,27.1582136 C14.5190744,27.4238392 14.1591562,27.5728453 13.784,27.5722156 C13.2119965,27.5722156 12.696262,27.2278243 12.4773492,26.6993688 C12.2584364,26.1709134 12.3794714,25.56262 12.784,25.1582136 L22.743,15.199 L1.414,15.1772136 C0.633069364,15.1772136 0,14.5441442 0,13.7632136 C0,13.02822 0.560781166,12.4242039 1.27782236,12.3556865 L1.414,12.3492136 L22.741,12.371 L12.784,2.41421356 C12.2317153,1.86192881 12.2317153,0.966498312 12.784,0.414213562 C13.3362847,-0.138071187 14.2317153,-0.138071187 14.784,0.414213562 Z" id="path-1"></path>
    </defs>
    <g id="icon/arrow_right" stroke="none" stroke-width="1" fill="none" fill-rule="evenodd">
        <g id="그룹-11088-+-color/primary/500-Mask" transform="translate(2.002214, 2.000088)">
            <mask id="mask-2" fill="white">
                <use xlink:href="#path-1"></use>
            </mask>
            <g id="Mask" fill-rule="nonzero"></g>
            <g id="그룹-11088" mask="url(#mask-2)" fill-rule="nonzero">
                <g transform="translate(-0.002214, -0.000088)" id="Combined-Shape">
                    <path d="M19.5522501,1.07704365 C24.8359739,3.26596207 28.2808179,8.42222608 28.2804134,14.1414132 C28.2715949,21.946902 21.9459028,28.2721467 14.1404134,28.2804132 C8.42122625,28.2804132 3.26520589,24.8352046 1.07666115,19.5513259 C-1.11188358,14.2674473 0.0980580955,8.18550276 4.14227711,4.14156976 C8.18649612,0.097636756 14.2685262,-1.11187478 19.5522501,1.07704365 Z M14.1404134,11.5564132 C13.3594828,11.5564132 12.7264134,12.1894826 12.7264134,12.9704132 L12.7264134,12.9704132 L12.7264134,20.1424132 C12.7269649,20.9231153 13.3597113,21.5558617 14.1404134,21.5564132 C14.9211155,21.5558617 15.5538618,20.9231153 15.5544134,20.1424132 L15.5544134,20.1424132 L15.5544134,12.9704132 C15.5544134,12.1894826 14.921344,11.5564132 14.1404134,11.5564132 Z M14.1404134,6.6154132 C13.3186137,6.6154132 12.6524134,7.28161349 12.6524134,8.1034132 C12.6524134,8.92521291 13.3186137,9.5914132 14.1404134,9.5914132 C14.9617563,9.59031147 15.6273117,8.92475612 15.6284134,8.1034132 C15.6284134,7.28161349 14.9622131,6.6154132 14.1404134,6.6154132 Z"></path>
                </g>
            </g>
            <g id="Group" mask="url(#mask-2)">
                <g transform="translate(-2.002214, -2.000088)" id="color/primary/500">
                    <rect id="Rectangle-Copy-4" fill="#9DAAB7" x="0" y="2.27373675e-15" width="32" height="32"></rect>
                </g>
            </g>
        </g>
    </g>
</svg>