<?xml version="1.0" encoding="UTF-8"?>
<svg width="32px" height="32px" viewBox="0 0 32 32" version="1.1" xmlns="http://www.w3.org/2000/svg" xmlns:xlink="http://www.w3.org/1999/xlink">
    <title>icon/arrow_down</title>
    <defs>
        <path d="M13.8092136,0 C14.1842196,0 14.5438227,0.149174755 14.8087105,0.414625321 C15.0735983,0.680075887 15.2220103,1.0399948 15.2212168,1.415 L15.199,22.74 L25.1572136,12.783 C25.7094983,12.2307153 26.6049288,12.2307153 27.1572136,12.783 C27.7094983,13.3352847 27.7094983,14.2307153 27.1572136,14.783 L14.7862136,27.155 C14.5210435,27.4208718 14.1607161,27.5698983 13.7852136,27.569004 C13.7277881,27.5690832 13.6707202,27.5656589 13.6142954,27.5588494 C13.5330754,27.5489638 13.4543654,27.5323877 13.378349,27.5095884 C13.3615029,27.5045709 13.3443543,27.4990746 13.3273219,27.493254 C13.3021876,27.4846055 13.2779459,27.4755403 13.25403,27.4658397 C13.2383832,27.4595882 13.2221761,27.4526791 13.2061019,27.4454678 C13.1792724,27.4332836 13.1534011,27.4206692 13.1279865,27.407304 C13.1134117,27.3998436 13.0989343,27.3919192 13.0845931,27.3837387 C13.0627914,27.3710444 13.0412777,27.3579735 13.0201504,27.3443551 C12.9950828,27.3285219 12.9706584,27.3116882 12.9467461,27.2940652 C12.9382117,27.2874063 12.9296246,27.280922 12.9211145,27.2743428 C12.8955573,27.2549663 12.8707487,27.2344016 12.8466066,27.2129446 C12.8346009,27.2019153 12.822548,27.1908372 12.8106908,27.1795553 C12.8020306,27.1716408 12.7935748,27.1633784 12.7852136,27.155 L0.414213562,14.783 C-0.138071187,14.2307153 -0.138071187,13.3352847 0.414213562,12.783 C0.966498312,12.2307153 1.86192881,12.2307153 2.41421356,12.783 L12.374,22.742 L12.3962136,1.412 C12.3967331,0.677893837 12.957005,0.0748664029 13.6731986,0.00646215869 L13.8092136,0 Z" id="path-1"></path>
    </defs>
    <g id="icon/arrow_down" stroke="none" stroke-width="1" fill="none" fill-rule="evenodd">
        <g id="color/primary/500" transform="translate(2.001000, 2.001302)">
            <mask id="mask-2" fill="white">
                <use xlink:href="#path-1"></use>
            </mask>
            <g id="Mask" fill-rule="nonzero"></g>
            <g id="Group" mask="url(#mask-2)">
                <g transform="translate(-2.001000, -2.001302)" id="color/primary/500">
                    <rect id="Rectangle-Copy-4" fill="#9DAAB7" x="0" y="2.27373675e-15" width="32" height="32"></rect>
                </g>
            </g>
        </g>
    </g>
</svg>