<?xml version="1.0" encoding="UTF-8"?>
<svg width="32px" height="32px" viewBox="0 0 32 32" version="1.1" xmlns="http://www.w3.org/2000/svg" xmlns:xlink="http://www.w3.org/1999/xlink">
    <title>icon/arrow_left</title>
    <defs>
        <path d="M14.7861329,0.414213562 C15.3384177,0.966498312 15.3384177,1.86192881 14.7861329,2.41421356 L4.828,12.372 L26.1561329,12.3502136 C26.9370635,12.3502136 27.5701329,12.9832829 27.5701329,13.7642136 C27.5701329,14.5451442 26.9370635,15.1782136 26.1561329,15.1782136 L4.829,15.2 L14.7861329,25.1572136 C15.1906615,25.56162 15.3116965,26.1699134 15.0927837,26.6983688 C14.8738709,27.2268243 14.3581364,27.5713358 13.7861329,27.5712136 L13.7861329,27.5722149 C13.4109986,27.5727346 13.0511213,27.4237454 12.7861329,27.1582136 L0.472045053,14.8436829 C0.182428572,14.5847538 0.000132907555,14.2082724 0.000132907555,13.7892136 L0.00660580181,13.6530359 L0.00660580181,13.6530359 L0,13.7862136 C0,13.6195145 0.0294773571,13.4558612 0.085540423,13.3022194 C0.0909836698,13.2892688 0.0958996811,13.2764557 0.100995209,13.2637339 C0.129559579,13.1901137 0.164967241,13.1191749 0.206201369,13.0514984 C0.211211129,13.0455775 0.215550244,13.0386185 0.219947821,13.0317004 C0.27472685,12.9428946 0.340318063,12.860794 0.415132908,12.7862136 L12.7861329,0.414213562 C13.3384177,-0.138071187 14.2338482,-0.138071187 14.7861329,0.414213562 Z" id="path-1"></path>
    </defs>
    <g id="icon/arrow_left" stroke="none" stroke-width="1" fill="none" fill-rule="evenodd">
        <g id="color/primary/500" transform="translate(2.001081, 2.000088)">
            <mask id="mask-2" fill="white">
                <use xlink:href="#path-1"></use>
            </mask>
            <g id="Mask" fill-rule="nonzero"></g>
            <g id="Group" mask="url(#mask-2)">
                <g transform="translate(-2.001081, -2.000088)" id="color/primary/500">
                    <rect id="Rectangle-Copy-4" fill="#9DAAB7" x="0" y="2.27373675e-15" width="32" height="32"></rect>
                </g>
            </g>
        </g>
    </g>
</svg>