<?xml version="1.0" encoding="UTF-8"?>
<svg width="32px" height="32px" viewBox="0 0 32 32" version="1.1" xmlns="http://www.w3.org/2000/svg" xmlns:xlink="http://www.w3.org/1999/xlink">
    <title>icon/article</title>
    <defs>
        <path d="M22.622,0 C24.9633256,0.00220515862 26.8607948,1.89967439 26.863,4.241 L26.863,24.036 C26.8607958,26.3774879 24.9634874,28.2752437 22.622,28.2780005 L6.297,28.2780005 C5.5160695,28.2780005 4.88300034,27.6449305 4.88300034,26.864 C4.88300034,26.0830695 5.5160695,25.4500002 6.297,25.45 L22.622,25.45 C23.4024739,25.4488984 24.0348984,24.8164739 24.036,24.036 L24.036,4.241 C24.0348984,3.46052611 23.4024739,2.82810159 22.622,2.827 L4.242,2.827 C3.46152611,2.82810159 2.82910159,3.46052611 2.828,4.241 L2.828,26.864 C2.82800017,27.3691737 2.55849333,27.8359734 2.12100014,28.0885603 C1.68350695,28.3411472 1.14449305,28.3411472 0.706999862,28.0885603 C0.26950667,27.8359734 0,27.3691737 0,26.864 L0,4.241 C0.00275625053,1.89951264 1.90051206,0.00220420817 4.242,0 L22.622,0 Z M11.828,17.637 C12.6089306,17.637 13.242,18.2700694 13.242,19.051 C13.242,19.8319306 12.6089306,20.465 11.828,20.465 L8.228,20.465 C7.44706936,20.465 6.814,19.8319306 6.814,19.051 C6.814,18.2700694 7.44706936,17.637 8.228,17.637 L11.828,17.637 Z M18.453,12.725 C19.2339306,12.725 19.867,13.3580694 19.867,14.139 C19.867,14.9199306 19.2339306,15.553 18.453,15.553 L8.231,15.553 C7.72582638,15.553 7.25902665,15.2834933 7.0064398,14.8460001 C6.75385295,14.4085069 6.75385295,13.8694931 7.0064398,13.4319999 C7.25902665,12.9945067 7.72582638,12.725 8.231,12.725 L18.453,12.725 Z M18.634,7.813 C19.4149305,7.813 20.0479997,8.4460695 20.0479997,9.227 C20.0479997,10.0079305 19.4149305,10.641 18.634,10.641 L8.234,10.641 C7.45306936,10.641 6.82,10.0079306 6.82,9.227 C6.82,8.44606936 7.45306936,7.813 8.234,7.813 L18.634,7.813 Z" id="path-1"></path>
    </defs>
    <g id="icon/article" stroke="none" stroke-width="1" fill="none" fill-rule="evenodd">
        <g id="color/primary/500" transform="translate(3.000000, 2.000000)">
            <mask id="mask-2" fill="white">
                <use xlink:href="#path-1"></use>
            </mask>
            <g id="Mask" fill-rule="nonzero"></g>
            <g id="Group" mask="url(#mask-2)">
                <g transform="translate(-3.000000, -2.000000)" id="color/primary/500">
                    <rect id="Rectangle-Copy-4" fill="#9DAAB7" x="0" y="2.27373675e-15" width="32" height="32"></rect>
                </g>
            </g>
        </g>
    </g>
</svg>