<?xml version="1.0" encoding="UTF-8"?>
<svg width="32px" height="32px" viewBox="0 0 32 32" version="1.1" xmlns="http://www.w3.org/2000/svg" xmlns:xlink="http://www.w3.org/1999/xlink">
    <title>icon/beat</title>
    <defs>
        <path d="M13.886,20.1513242 C13.2644428,20.151634 12.7156724,19.7457387 12.534,19.1513242 L9.782,10.0993242 L7.73,13.7453242 C7.47909567,14.1902944 7.00783401,14.4654837 6.497,14.4653242 L1.414,14.4653242 C0.633069364,14.4653242 0,13.8322549 0,13.0513242 C0,12.2703936 0.633069364,11.6373242 1.414,11.6373242 L5.671,11.6373242 L8.942,5.82632422 C9.21983458,5.33303667 9.76511879,5.0530228 10.3279052,5.11463539 C10.8906916,5.17624798 11.3624753,5.56760817 11.527,6.10932422 L13.886,13.8693242 L17.786,1.00332422 C17.9683799,0.402440362 18.5251941,-0.0061761777 19.1531151,0 C19.7810361,0.00631746081 20.3296107,0.425930868 20.5,1.03032422 L23.487,11.6373242 L26.865,11.6373242 C27.6459306,11.6373242 28.279,12.2703936 28.279,13.0513242 C28.279,13.8322549 27.6459306,14.4653242 26.865,14.4653242 L22.416,14.4653242 C21.7827691,14.4654919 21.2268647,14.0440673 21.056,13.4343242 L19.089,6.45232422 L15.241,19.1523242 C15.0587688,19.7463434 14.5103429,20.1519839 13.889,20.1523242 L13.886,20.1513242 Z" id="path-1"></path>
    </defs>
    <g id="icon/beat" stroke="none" stroke-width="1" fill="none" fill-rule="evenodd">
        <g id="color/primary/500" transform="translate(2.000000, 6.000000)">
            <mask id="mask-2" fill="white">
                <use xlink:href="#path-1"></use>
            </mask>
            <g id="Mask" fill-rule="nonzero"></g>
            <g id="Group" mask="url(#mask-2)">
                <g transform="translate(-2.000000, -6.000000)" id="color/primary/500">
                    <rect id="Rectangle-Copy-4" fill="#9DAAB7" x="0" y="2.27373675e-15" width="32" height="32"></rect>
                </g>
            </g>
        </g>
    </g>
</svg>