<?xml version="1.0" encoding="UTF-8"?>
<svg width="32px" height="32px" viewBox="0 0 32 32" version="1.1" xmlns="http://www.w3.org/2000/svg" xmlns:xlink="http://www.w3.org/1999/xlink">
    <title>icon/bedtime</title>
    <defs>
        <path d="M14.1757777,28.2828742 C12.9317386,28.2817476 11.6932051,28.1176856 10.4917777,27.7948742 C3.30389125,25.8758133 -1.16639005,18.7139102 0.26702488,11.4136479 C1.70043981,4.11338569 8.54691339,-0.826459549 15.9267777,0.114874236 C16.459075,0.18296102 16.9070513,0.54630035 17.0835356,1.05308376 C17.26002,1.55986717 17.1346386,2.12287494 16.7597777,2.50687424 C13.9111825,5.42892636 13.3470262,9.88625117 15.3777777,13.4258742 L15.3777777,13.4258742 C17.4274514,16.9547118 21.5698434,18.6950308 25.5247777,17.6888742 C26.0445503,17.5557825 26.5948724,17.7283368 26.9455998,18.1343753 C27.2963271,18.5404138 27.3870305,19.1099771 27.1797777,19.6048742 C24.9867022,24.8492968 19.8642609,28.2687234 14.1797777,28.2828742 L14.1757777,28.2828742 Z M12.9467777,2.88887424 C9.14221019,3.29528992 5.80107764,5.59773563 4.06673417,9.00830167 C2.33239071,12.4188677 2.44001512,16.4750778 4.35277774,19.7888742 C6.26467062,23.1054676 9.72488848,25.2294272 13.5476781,25.4329109 C17.3704677,25.6363947 21.0366072,23.8917649 23.2897777,20.7968742 L23.2807777,20.7968742 C19.0146417,20.7966705 15.0708217,18.5266788 12.9277777,14.8378742 L12.9277777,14.8378742 C10.8045207,11.1360248 10.8117589,6.58395267 12.9467777,2.88887424 L12.9467777,2.88887424 Z" id="path-1"></path>
    </defs>
    <g id="icon/bedtime" stroke="none" stroke-width="1" fill="none" fill-rule="evenodd">
        <g id="color/primary/500" transform="translate(2.000000, 2.000000)">
            <mask id="mask-2" fill="white">
                <use xlink:href="#path-1"></use>
            </mask>
            <g id="Mask" fill-rule="nonzero"></g>
            <g id="Group" mask="url(#mask-2)">
                <g transform="translate(-2.000000, -2.000000)" id="color/primary/500">
                    <rect id="Rectangle-Copy-4" fill="#9DAAB7" x="0" y="2.27373675e-15" width="32" height="32"></rect>
                </g>
            </g>
        </g>
    </g>
</svg>