<?xml version="1.0" encoding="UTF-8"?>
<svg width="32px" height="32px" viewBox="0 0 32 32" version="1.1" xmlns="http://www.w3.org/2000/svg" xmlns:xlink="http://www.w3.org/1999/xlink">
    <title>icon/block</title>
    <defs>
        <path d="M25.888474,6.28925278 C29.6304781,11.8969067 28.890513,19.3669221 24.1210613,24.131448 C21.4705057,26.7850347 17.8716497,28.2728018 14.1210613,28.2654751 C10.2819357,28.2621098 6.7485671,26.7147484 4.17580619,24.1617162 C4.14449707,24.1346938 4.11486323,24.1048683 4.08655209,24.0737004 C2.18826811,22.1548975 0.826154648,19.6831503 0.270778814,16.879608 C-1.03924907,10.2665751 2.50421829,3.64898357 8.73438069,1.07343444 C14.9645431,-1.5021147 22.14647,0.681598846 25.888474,6.28925278 Z M23.059886,7.19695799 L7.19297442,23.0620921 C7.97867721,23.6724596 8.85570501,24.186686 9.81182171,24.5819207 C14.796208,26.6423414 20.5419564,24.8951449 23.5355503,20.4087393 C26.2636858,16.3201678 26.0137687,10.9942588 23.059886,7.19695799 Z M14.1220613,2.82742863 L14.1210613,2.82742863 C8.72760071,2.83217056 4.08845323,6.64591305 3.04045078,11.9365775 C2.38629024,15.2389972 3.24503003,18.542817 5.19505846,21.0606892 L21.0591507,5.19724114 C19.0859365,3.66502441 16.6470102,2.82276619 14.1220613,2.82742863 Z" id="path-1"></path>
    </defs>
    <g id="icon/block" stroke="none" stroke-width="1" fill="none" fill-rule="evenodd">
        <g id="color/primary/500" transform="translate(2.000000, 2.000000)">
            <mask id="mask-2" fill="white">
                <use xlink:href="#path-1"></use>
            </mask>
            <g id="Mask" fill-rule="nonzero"></g>
            <g id="Group" mask="url(#mask-2)">
                <g transform="translate(-2.000000, -2.000000)" id="color/primary/500">
                    <rect id="Rectangle-Copy-4" fill="#9DAAB7" x="0" y="2.27373675e-15" width="32" height="32"></rect>
                </g>
            </g>
        </g>
    </g>
</svg>