<?xml version="1.0" encoding="UTF-8"?>
<svg width="32px" height="32px" viewBox="0 0 32 32" version="1.1" xmlns="http://www.w3.org/2000/svg" xmlns:xlink="http://www.w3.org/1999/xlink">
    <title>icon/bookmark-fill</title>
    <defs>
        <path d="M19.208,28.107 L10.65,23.434 L2.091,28.107 C1.88357886,28.2200346 1.65122046,28.2794991 1.415,28.28 C1.16080259,28.2789239 0.91152026,28.2098706 0.693,28.08 C0.263369049,27.8251035 0,27.3625548 0,26.863 L0,4.242 C0.00275520902,1.90035029 1.90035029,0.00275520902 4.242,0 L17.765,0 C19.7160222,0.00275521854 21.2967968,1.58397705 21.2990002,3.535 L21.2990002,26.862 C21.2992401,27.361096 21.0367146,27.8234601 20.608,28.079 C20.3890726,28.2087724 20.1394969,28.2778113 19.885,28.279 C19.6485796,28.2785525 19.4159639,28.2194537 19.208,28.107 L19.208,28.107 Z" id="path-1"></path>
    </defs>
    <g id="icon/bookmark-fill" stroke="none" stroke-width="1" fill="none" fill-rule="evenodd">
        <g id="color/primary/500" transform="translate(5.000000, 2.000000)">
            <mask id="mask-2" fill="white">
                <use xlink:href="#path-1"></use>
            </mask>
            <g id="Mask" fill-rule="nonzero"></g>
            <g id="Group" mask="url(#mask-2)">
                <g transform="translate(-5.000000, -2.000000)" id="color/primary/500">
                    <rect id="Rectangle-Copy-4" fill="#9DAAB7" x="0" y="2.27373675e-15" width="32" height="32"></rect>
                </g>
            </g>
        </g>
    </g>
</svg>