<?xml version="1.0" encoding="UTF-8"?>
<svg width="32px" height="32px" viewBox="0 0 32 32" version="1.1" xmlns="http://www.w3.org/2000/svg" xmlns:xlink="http://www.w3.org/1999/xlink">
    <title>icon/book</title>
    <defs>
        <path d="M13.9970064,23.4982869 L13.8710666,23.4801742 C13.8684123,23.4796627 13.8657597,23.4791438 13.8631091,23.4786172 C13.8466183,23.4748011 13.8301748,23.4712016 13.8138259,23.4673161 C13.6945918,23.4397361 13.5797656,23.3962261 13.4721015,23.3385356 C13.4629037,23.3325599 13.4533632,23.3273004 13.4438864,23.3219326 C13.3357801,23.2618201 13.2355665,23.1863253 13.1460106,23.0976099 C12.4040106,22.3646099 10.4550106,21.6256099 7.77701063,21.6256099 C6.17083806,21.5780232 4.57606023,21.9096548 3.12201063,22.5936099 C2.46552991,22.9477052 1.67114937,22.9301999 1.03090432,22.5475294 C0.390659265,22.1648589 -0.000962089245,21.4734983 5.29377968e-06,20.7276099 L5.29377968e-06,4.43460988 C-0.0014773981,3.66785395 0.308552682,2.93338223 0.859010626,2.39960988 C2.78752378,0.770299979 5.25402528,-0.0818160371 7.77701063,0.00960988072 C9.01074645,0.00343345976 10.2382031,0.185528683 11.4170106,0.549609881 C12.1625949,0.784054855 12.5769552,1.57852549 12.3425104,2.32410981 C12.1080655,3.06969413 11.313595,3.4840546 10.5680106,3.24960988 C9.66351039,2.97371665 8.72264315,2.83550255 7.77701063,2.83960988 C5.98473555,2.75666542 4.22297036,3.32497677 2.81701063,4.43960988 L2.82701063,19.6286099 C4.41404126,19.0580339 6.09067649,18.7772398 7.77701063,18.7996099 C10.2735989,18.7996099 12.5847602,19.365582 14.1382022,20.3204376 C15.6900615,19.364945 18.002235,18.7976099 20.5020106,18.7976099 C22.1879979,18.7755117 23.8642569,19.0562995 25.4510106,19.6266099 L25.4510106,4.43460988 C24.0495589,3.31951119 22.2910097,2.7509764 20.5020106,2.83460988 C18.1968474,2.83460988 16.436425,3.59080128 15.5531758,4.42716847 L15.5530106,17.2176099 C15.5524911,17.9522358 14.9918226,18.5556904 14.2751218,18.6241431 L14.1390106,18.6306099 L14.1390106,18.6306099 C13.3584703,18.6306099 12.7255626,17.99815 12.7250106,17.2176099 L12.7250106,3.88860988 C12.7250106,3.83680113 12.727797,3.78564315 12.7332279,3.73527764 L12.7250106,3.88860988 C12.7250106,3.8162809 12.7304413,3.74522031 12.740917,3.67581362 C12.7457247,3.64389687 12.7516884,3.61192951 12.7587075,3.58035961 C12.7618849,3.56609122 12.7651608,3.5523629 12.7686353,3.53871389 C12.776435,3.50802555 12.7853999,3.477247 12.7953628,3.44692117 C12.8009825,3.4298023 12.8070319,3.41252729 12.8134035,3.39540905 C12.8261679,3.36115639 12.8399895,3.32803307 12.8550055,3.29557536 C12.8592888,3.28630968 12.8638499,3.27672982 12.8685147,3.2672101 C12.896833,3.20945488 12.9287866,3.15419243 12.9641983,3.10144615 L13.0210106,3.02060988 C14.4580106,1.16160988 17.3210106,0.00660988072 20.5020106,0.00660988072 C23.0249382,-0.0844292723 25.4913042,0.767639918 27.4200106,2.39660988 C27.9701978,2.93048452 28.2798761,3.66497794 28.278019,4.43160988 L28.278019,20.7246099 C28.2793846,21.4704449 27.8880077,22.1619214 27.2478619,22.5446551 C26.6077162,22.9273889 25.8133543,22.9448481 25.1570106,22.5906099 C23.7028652,21.9069416 22.1081567,21.5753244 20.5020106,21.6226099 C17.8606306,21.6226099 15.9298646,22.3410007 15.1649815,23.0637288 C14.9050943,23.3420714 14.5356227,23.5076099 14.1390106,23.5076099 L14.1390106,23.5056099 L13.9970064,23.4982869 L13.9970064,23.4982869 Z" id="path-1"></path>
    </defs>
    <g id="icon/book" stroke="none" stroke-width="1" fill="none" fill-rule="evenodd">
        <g id="color/primary/500" transform="translate(1.999995, 4.000000)">
            <mask id="mask-2" fill="white">
                <use xlink:href="#path-1"></use>
            </mask>
            <g id="Mask" fill-rule="nonzero"></g>
            <g id="Group" mask="url(#mask-2)">
                <g transform="translate(-1.999995, -4.000000)" id="color/primary/500">
                    <rect id="Rectangle-Copy-4" fill="#9DAAB7" x="0" y="2.27373675e-15" width="32" height="32"></rect>
                </g>
            </g>
        </g>
    </g>
</svg>