<?xml version="1.0" encoding="UTF-8"?>
<svg width="32px" height="32px" viewBox="0 0 32 32" version="1.1" xmlns="http://www.w3.org/2000/svg" xmlns:xlink="http://www.w3.org/1999/xlink">
    <title>icon/box_add</title>
    <defs>
        <path d="M14.067,4.326 C14.8479306,4.326 15.481,4.95906936 15.481,5.74 C15.481,6.52093064 14.8479306,7.154 14.067,7.154 L4.242,7.154 C3.46129793,7.15455154 2.82855154,7.78729793 2.828,8.568 L2.828,24.168 C2.82910159,24.9484739 3.46152611,25.5808984 4.242,25.582 L19.842,25.582 C20.6224739,25.5808984 21.2548984,24.9484739 21.256,24.168 L21.256,14.229 C21.256,13.4480694 21.8890694,12.815 22.67,12.815 C23.4509306,12.815 24.084,13.4480694 24.084,14.229 L24.084,24.168 C24.0812437,26.5094874 22.1834879,28.4067958 19.842,28.409 L4.242,28.409 C1.90051206,28.4067958 0.00275625053,26.5094874 0,24.168 L0,8.568 C0.00275520902,6.22635029 1.90035029,4.32875521 4.242,4.326 L14.067,4.326 Z M22.669,0 C23.4499306,0 24.083,0.633069364 24.083,1.414 L24.082,4.256 L26.867,4.257 C27.6479306,4.257 28.281,4.89006936 28.281,5.671 C28.281,6.45193064 27.6479306,7.085 26.867,7.085 L24.082,7.085 L24.083,9.932 C24.083,10.7129306 23.4499306,11.346 22.669,11.346 C21.8880694,11.346 21.255,10.7129306 21.255,9.932 L21.254,7.085 L18.467,7.085 C17.6860694,7.085 17.053,6.45193064 17.053,5.671 C17.053,4.89006936 17.6860694,4.257 18.467,4.257 L21.254,4.256 L21.255,1.414 C21.255,0.633069364 21.8880694,0 22.669,0 Z" id="path-1"></path>
    </defs>
    <g id="icon/box_add" stroke="none" stroke-width="1" fill="none" fill-rule="evenodd">
        <g id="color/primary/500" transform="translate(2.000000, 2.000000)">
            <mask id="mask-2" fill="white">
                <use xlink:href="#path-1"></use>
            </mask>
            <g id="Mask" fill-rule="nonzero"></g>
            <g id="Group" mask="url(#mask-2)">
                <g transform="translate(-2.000000, -2.000000)" id="color/primary/500">
                    <rect id="Rectangle-Copy-4" fill="#9DAAB7" x="0" y="2.27373675e-15" width="32" height="32"></rect>
                </g>
            </g>
        </g>
    </g>
</svg>