<?xml version="1.0" encoding="UTF-8"?>
<svg width="32px" height="32px" viewBox="0 0 32 32" version="1.1" xmlns="http://www.w3.org/2000/svg" xmlns:xlink="http://www.w3.org/1999/xlink">
    <title>icon/cached</title>
    <defs>
        <path d="M22.0313089,3.34806812 L27.2313089,4.63006812 C27.9895956,4.81701672 28.4527567,5.58328122 28.2658084,6.341568 C28.0788601,7.09985477 27.3125957,7.56301619 26.5543089,7.37606812 L24.731113,6.92790371 C26.0094572,9.86570615 26.0289262,13.2628542 24.6641552,16.280073 C22.7977071,20.4063935 18.6881221,23.0576115 14.1593089,23.0571054 C12.4966273,23.0613147 10.8530512,22.7026355 9.34330888,22.0060681 C8.87373774,21.8014992 8.55150606,21.3589885 8.50095674,20.8492922 C8.45040742,20.339596 8.6794446,19.842413 9.09968734,19.5495964 C9.51993007,19.2567798 10.065667,19.214116 10.5263089,19.4380681 C14.2606369,21.1600667 18.6906579,20.0322305 21.1469324,16.7341705 C22.9897005,14.2598706 23.3439429,11.071102 22.2575918,8.33003462 L21.7803089,10.2630681 C21.6238157,10.891376 21.0608066,11.333299 20.4133089,11.3360681 C19.9787705,11.3351918 19.568624,11.1351234 19.3004406,10.7932141 C19.0322573,10.4513047 18.9356489,10.0053065 19.0383089,9.58306812 L20.3203089,4.38306812 C20.5079455,3.62549085 21.2732028,3.16257948 22.0313089,3.34806812 Z M14.1633089,3.3789819e-05 C15.9411182,-0.00429116226 17.6953757,0.406622174 19.2863089,1.20006812 C19.9857773,1.54745532 20.2711957,2.39609945 19.9238086,3.09556798 C19.5764215,3.79503651 18.7277775,4.08045502 18.0283089,3.73306812 C16.8275672,3.13638453 15.5041252,2.82820916 14.1633089,2.83306812 C9.36094412,2.83912858 5.46936935,6.73070336 5.46330888,11.5330681 C5.45861595,12.6465721 5.6700865,13.7418692 6.07750436,14.7612051 L6.56230888,12.7980681 C6.68167026,12.3060227 7.05500861,11.9153506 7.54113447,11.7737967 C8.02726034,11.6322428 8.55197071,11.761414 8.9168301,12.1124603 C9.2816895,12.4635066 9.43100521,12.9828436 9.30830888,13.4740681 L8.02630888,18.6740681 C7.870368,19.3055421 7.30375255,19.7491777 6.65330888,19.7490681 L6.65030888,19.7530706 C6.53638897,19.7532838 6.42287338,19.7395141 6.31230888,19.7120681 L1.11230888,18.4300681 C0.610065582,18.3203713 0.206928223,17.9467303 0.0594591189,17.4542523 C-0.0880099854,16.9617743 0.0434258911,16.4280591 0.402722347,16.0603802 C0.762018802,15.6927012 1.29256145,15.5489938 1.78830888,15.6850681 L3.59250736,16.1305371 C2.27351652,13.1010126 2.29943639,9.59522766 3.77413157,6.53009468 C5.69480377,2.5380048 9.73321146,-0.000301040863 14.1633089,3.3789819e-05 Z" id="path-1"></path>
    </defs>
    <g id="icon/cached" stroke="none" stroke-width="1" fill="none" fill-rule="evenodd">
        <g id="color/primary/500" transform="translate(2.000000, 3.999966)">
            <mask id="mask-2" fill="white">
                <use xlink:href="#path-1"></use>
            </mask>
            <g id="Mask" fill-rule="nonzero"></g>
            <g id="Group" mask="url(#mask-2)">
                <g transform="translate(-2.000000, -3.999966)" id="color/primary/500">
                    <rect id="Rectangle-Copy-4" fill="#9DAAB7" x="0" y="2.27373675e-15" width="32" height="32"></rect>
                </g>
            </g>
        </g>
    </g>
</svg>