<?xml version="1.0" encoding="UTF-8"?>
<svg width="32px" height="32px" viewBox="0 0 32 32" version="1.1" xmlns="http://www.w3.org/2000/svg" xmlns:xlink="http://www.w3.org/1999/xlink">
    <title>icon/calendar</title>
    <defs>
        <path d="M19.569,2.82938703e-06 C20.3499306,2.82938703e-06 20.983,0.633072193 20.983,1.41400283 L20.983,6.73800283 C20.983,7.47299637 20.4222188,8.07701371 19.7051776,8.14553134 L19.569,8.15200425 C19.1939946,8.15253409 18.834181,8.00386747 18.5689181,7.73879214 C18.3036552,7.47371681 18.154734,7.11400854 18.1549996,6.73900283 L18.154,5.412 L10.124,5.412 L10.124,6.73800283 C10.124,7.11301895 9.97502543,7.47267538 9.70984899,7.73785182 C9.4778196,7.9698812 9.17345397,8.11294462 8.84975653,8.14508501 L8.71,8.15200425 C8.33499457,8.15253409 7.97518104,8.00386747 7.70991811,7.73879214 C7.44465518,7.47371681 7.29573404,7.11400854 7.29599964,6.73900283 L7.295,5.412 L3.535,5.41200283 C3.14476306,5.41255362 2.82855079,5.72876589 2.828,6.11900283 L2.828,23.2240028 C2.82855079,23.6142398 3.14476306,23.930452 3.535,23.9310028 L24.743,23.9310028 C25.1332369,23.930452 25.4494492,23.6142398 25.45,23.2240028 L25.45,6.11900283 C25.4494492,5.72876589 25.1332369,5.41255362 24.743,5.41200283 L23.552,5.41200283 C22.7859856,5.39162643 22.1755999,4.76478819 22.1755999,3.99850283 C22.1755999,3.23221747 22.7859856,2.60537923 23.552,2.58500283 L24.743,2.58500283 C26.6938605,2.58720719 28.2747956,4.16814233 28.277,6.11900283 L28.277,23.2240028 C28.2747956,25.1748633 26.6938605,26.7557985 24.743,26.7580028 L3.535,26.7580028 C1.58374899,26.7563495 0.00220535014,25.1752533 0,23.2240028 L0,6.11900283 C0.00220535014,4.16775236 1.58374899,2.58665612 3.535,2.58500283 L7.295,2.585 L7.29599964,1.41400283 C7.29599964,0.679009289 7.85678113,0.0749919523 8.57382236,0.00647431931 L8.71,1.41091533e-06 C9.08483209,-0.000528094782 9.44449383,0.148001349 9.70972792,0.412860282 C9.97496201,0.677719215 10.124,1.03717037 10.124,1.41200283 L10.124,2.585 L18.154,2.585 L18.1549996,1.41400283 C18.1549996,0.679009289 18.7157811,0.0749932088 19.4328224,0.00647572364 L19.569,2.82938703e-06 Z M15.111,17.6310028 C15.5299626,18.0322332 15.6632014,18.6477321 15.447682,19.1863107 C15.2321626,19.7248892 14.7110977,20.0785597 14.131,20.0800028 L14.131,20.0850028 C13.7691946,20.0840237 13.4223992,19.9402743 13.166,19.6850028 L13.133,19.6520028 C12.5834217,19.1042622 12.5779022,18.2159677 13.1206315,17.66144 C13.6633607,17.1069123 14.5515685,17.0933296 15.111,17.6310028 Z M8.71854609,17.2470428 C9.49736089,17.2529015 10.1248041,17.8874445 10.1219097,18.6662759 C10.1189952,19.4451073 9.48683683,20.074953 8.708,20.0750028 L8.708,20.0770028 C8.33427717,20.0807402 7.97457449,19.9348922 7.70898782,19.6719351 C7.44340114,19.408978 7.294,19.0507443 7.294,18.6770028 L7.294,18.6450028 C7.30281287,17.8662159 7.9397313,17.2411841 8.71854609,17.2470428 Z M19.5818796,17.2470457 C20.360823,17.2530891 20.9881692,17.887983 20.9849097,18.666943 C20.9816248,19.445903 20.3489667,20.0755039 19.57,20.0750028 L19.57,20.0770028 C19.1964496,20.0804717 18.8370053,19.9345049 18.571636,19.671577 C18.3062667,19.4086492 18.157,19.0505693 18.157,18.6770028 L18.157,18.6450028 C18.1658145,17.8660858 18.8029362,17.2410023 19.5818796,17.2470457 Z M15.111,12.1170028 C15.5302883,12.517957 15.6637343,13.1335328 15.4481226,13.6721222 C15.2325108,14.2107115 14.7111433,14.5641479 14.131,14.5650028 L14.131,14.5700028 C13.7691946,14.5690237 13.4223992,14.4252743 13.166,14.1700028 L13.133,14.1370028 C12.7576164,13.7868416 12.6014979,13.2607369 12.7251235,12.7624976 C12.848749,12.2642583 13.2326972,11.8721575 13.7282294,11.7380922 C14.2237616,11.6040268 14.7530299,11.7490584 15.111,12.1170028 Z M8.71854609,11.7300428 C9.49736089,11.7359015 10.1248041,12.3704445 10.1219097,13.1492759 C10.1189952,13.9281073 9.48683683,14.557953 8.708,14.5580028 L8.708,14.5610028 C8.33427717,14.5647402 7.97457449,14.4188922 7.70898782,14.1559351 C7.44340114,13.892978 7.294,13.5347443 7.294,13.1610028 L7.294,13.1280028 C7.30281287,12.3492159 7.9397313,11.7241841 8.71854609,11.7300428 Z M19.5818796,11.7300457 C20.360823,11.7360891 20.9881692,12.370983 20.9849097,13.149943 C20.9816248,13.928903 20.3489667,14.5585039 19.57,14.5580028 L19.57,14.5610028 C19.1964496,14.5644717 18.8370053,14.4185049 18.571636,14.155577 C18.3062667,13.8926492 18.157,13.5345693 18.157,13.1610028 L18.157,13.1280028 C18.1658145,12.3490858 18.8029362,11.7240023 19.5818796,11.7300457 Z" id="path-1"></path>
    </defs>
    <g id="icon/calendar" stroke="none" stroke-width="1" fill="none" fill-rule="evenodd">
        <g id="color/primary/500" transform="translate(2.000000, 2.999999)">
            <mask id="mask-2" fill="white">
                <use xlink:href="#path-1"></use>
            </mask>
            <g id="Mask" fill-rule="nonzero"></g>
            <g id="Group" mask="url(#mask-2)">
                <g transform="translate(-2.000000, -2.999999)" id="color/primary/500">
                    <rect id="Rectangle-Copy-4" fill="#9DAAB7" x="0" y="2.27373675e-15" width="32" height="32"></rect>
                </g>
            </g>
        </g>
    </g>
</svg>