<?xml version="1.0" encoding="UTF-8"?>
<svg width="32px" height="32px" viewBox="0 0 32 32" version="1.1" xmlns="http://www.w3.org/2000/svg" xmlns:xlink="http://www.w3.org/1999/xlink">
    <title>icon/call</title>
    <defs>
        <path d="M18.3534065,28.2706805 C15.1061339,28.276312 11.990414,26.9879916 9.69540652,24.6906557 L3.58140652,18.5756557 C-1.19380217,13.7912951 -1.19380217,6.0440163 3.58140652,1.25965569 C5.26361987,-0.419885228 7.98819318,-0.419885228 9.67040652,1.25965569 L11.6354065,3.22465569 C13.3166018,4.90618422 13.3166018,7.63212715 11.6354065,9.31365569 L10.5714065,10.3756557 C10.158297,10.7883059 9.92617588,11.3482553 9.92617588,11.9321557 C9.92617588,12.516056 10.158297,13.0760055 10.5714065,13.4886557 L14.7824065,17.6996557 C15.1950567,18.1127652 15.7550062,18.3448863 16.3389065,18.3448863 C16.9228069,18.3448863 17.4827564,18.1127652 17.8954065,17.6996557 L18.9584065,16.6366557 C20.6402782,14.955346 23.3665349,14.955346 25.0484065,16.6366557 L27.0124065,18.6006557 L27.0124065,18.6006557 C28.6913969,20.2830968 28.6913969,23.0072146 27.0124065,24.6896557 C24.7178202,26.9883547 21.6013445,28.2771986 18.3534065,28.2706805 Z M6.63040652,2.82564994 C6.23821806,2.82460359 5.861915,2.98052629 5.58540652,3.25865569 C1.91378393,6.93842993 1.91378393,12.8958814 5.58540652,16.5756557 L11.7004065,22.6916557 C15.3806356,26.3621783 21.3371774,26.3621783 25.0174065,22.6916557 C25.5941414,22.1135706 25.5941414,21.1777408 25.0174065,20.5996557 L23.0524065,18.6356557 C22.4675933,18.0783222 21.5482198,18.0783222 20.9634065,18.6356557 L19.8994065,19.6986557 C17.9346708,21.6596775 14.7531422,21.6596775 12.7884065,19.6986557 L8.57740652,15.4886557 C6.61626984,13.5235772 6.61626984,10.3417342 8.57740652,8.37665569 L9.64040652,7.31365569 C9.9177063,7.03678637 10.0735279,6.66101253 10.0735279,6.26915569 C10.0735279,5.87729884 9.9177063,5.501525 9.64040652,5.22465569 L7.67640652,3.25865569 C7.39952742,2.98046837 7.02289731,2.82455935 6.63040652,2.82564994 L6.63040652,2.82564994 Z" id="path-1"></path>
    </defs>
    <g id="icon/call" stroke="none" stroke-width="1" fill="none" fill-rule="evenodd">
        <g id="color/primary/500" transform="translate(2.000000, 2.000000)">
            <mask id="mask-2" fill="white">
                <use xlink:href="#path-1"></use>
            </mask>
            <g id="Mask" fill-rule="nonzero"></g>
            <g id="Group" mask="url(#mask-2)">
                <g transform="translate(-2.000000, -2.000000)" id="color/primary/500">
                    <rect id="Rectangle-Copy-4" fill="#9DAAB7" x="0" y="2.27373675e-15" width="32" height="32"></rect>
                </g>
            </g>
        </g>
    </g>
</svg>