<?xml version="1.0" encoding="UTF-8"?>
<svg width="32px" height="32px" viewBox="0 0 32 32" version="1.1" xmlns="http://www.w3.org/2000/svg" xmlns:xlink="http://www.w3.org/1999/xlink">
    <title>icon/call_disabled</title>
    <defs>
        <path d="M25.5594258,2.7141848 C26.0592107,3.21396971 26.0646266,4.02259495 25.571581,4.52902953 L13.59,16.51 L14.781581,17.7010295 C15.652493,18.5320154 17.022669,18.5320154 17.893581,17.7010295 L18.957581,16.6380295 C20.6400221,14.9590392 23.3641399,14.9590392 25.046581,16.6380295 L27.010581,18.6020295 C28.6917763,20.2835581 28.6917763,23.009501 27.010581,24.6910295 C24.7166481,26.9896033 21.6009702,28.2787748 18.353581,28.2730543 C15.1061334,28.279571 11.9900871,26.9911158 9.69558103,24.6930295 L7.551,22.549 L2.32158103,27.7780295 C2.07983473,28.0208645 1.75123248,28.1570299 1.40858103,28.1570299 C0.886377284,28.1565595 0.415801593,27.8417794 0.216026462,27.3592995 C0.0162513316,26.8768196 0.126562077,26.3215183 0.495581029,25.9520295 L10.6389405,15.8069666 C10.6746134,15.7611973 10.7134935,15.717117 10.755581,15.6750295 C10.7985032,15.6321074 10.8434979,15.5925211 10.8902431,15.5562705 L23.744581,2.70202953 C24.2510156,2.20898397 25.0596408,2.2143999 25.5594258,2.7141848 Z M20.955581,18.6380295 L19.892581,19.7010295 C17.9275025,21.6621662 14.7456596,21.6621662 12.780581,19.7010295 L11.589,18.51 L9.55,20.549 L11.694581,22.6940295 C15.37424,26.364987 21.3309221,26.364987 25.010581,22.6940295 C25.5873159,22.1159444 25.5873159,21.1801146 25.010581,20.6020295 L23.046581,18.6380295 C22.4612994,18.0799338 21.5408626,18.0799338 20.955581,18.6380295 Z M6.62458103,1.4690671e-05 C7.76712191,-0.00297837257 8.86332473,0.451492045 9.66858103,1.26202953 L11.633581,3.22702953 C13.3124564,4.90912781 13.3124564,7.63293125 11.633581,9.31502953 L10.570581,10.3780295 C9.81237498,11.1318834 9.70764221,12.322374 10.322581,13.1970295 C10.6132167,13.6103858 10.6612521,14.1473951 10.4485929,14.605771 C10.2359336,15.064147 9.79488764,15.3742515 9.29159275,15.4192711 C8.78829787,15.4642907 8.29921655,15.2373859 8.00858103,14.8240295 C6.60120893,12.8255491 6.83854763,10.1037557 8.57058103,8.37902953 L9.63358103,7.31602953 C10.2095359,6.73840256 10.2095359,5.80365649 9.63358103,5.22602953 L7.66858103,3.26102953 C7.08363549,2.70306041 6.16352657,2.70306041 5.57858103,3.26102953 C1.90750854,6.94103126 1.90750854,12.8980278 5.57858103,16.5780295 C5.98310967,16.982436 6.10414462,17.5907293 5.88523184,18.1191848 C5.68456179,18.6036023 5.23447899,18.9333548 4.72027042,18.9849495 L4.579,18.9920147 L4.44076751,18.985318 C4.11692956,18.9535876 3.81239093,18.810452 3.58058103,18.5780295 C-1.19352701,13.7932137 -1.19352701,6.04684538 3.58058103,1.26202953 C4.3283779,0.509475352 5.32695161,0.0638714557 6.38055422,0.00636033385 L6.62458103,1.4690671e-05 Z" id="path-1"></path>
    </defs>
    <g id="icon/call_disabled" stroke="none" stroke-width="1" fill="none" fill-rule="evenodd">
        <g id="color/primary/500" transform="translate(2.000000, 1.999985)">
            <mask id="mask-2" fill="white">
                <use xlink:href="#path-1"></use>
            </mask>
            <g id="Mask" fill-rule="nonzero"></g>
            <g id="Group" mask="url(#mask-2)">
                <g transform="translate(-2.000000, -1.999985)" id="color/primary/500">
                    <rect id="Rectangle-Copy-4" fill="#9DAAB7" x="0" y="2.27373675e-15" width="32" height="32"></rect>
                </g>
            </g>
        </g>
    </g>
</svg>