<?xml version="1.0" encoding="UTF-8"?>
<svg width="32px" height="32px" viewBox="0 0 32 32" version="1.1" xmlns="http://www.w3.org/2000/svg" xmlns:xlink="http://www.w3.org/1999/xlink">
    <title>icon/camera</title>
    <defs>
        <path d="M16.772,9.98361948e-06 C18.3537537,-0.00341913894 19.805006,0.876747448 20.533,2.28102003 L20.956,3.09202003 C21.1990411,3.55987271 21.6827865,3.85305173 22.21,3.85202003 L24.035,3.85202003 C26.3766497,3.85477523 28.2742448,5.75237031 28.277,8.09402003 L28.277,19.11302 C28.275347,21.4554508 26.3774297,23.3542629 24.035,23.35702 L4.242,23.35702 C1.90035029,23.3542648 0.00275520902,21.4566697 0,19.11502 L0,8.09402003 C0.00275520902,5.75237031 1.90035029,3.85477523 4.242,3.85202003 L6.067,3.85202003 C6.59421348,3.85305173 7.07795887,3.55987271 7.321,3.09202003 L7.742,2.28102003 C8.4708504,0.877074335 9.92214097,-0.00288148761 11.504,9.98361948e-06 L16.772,9.98361948e-06 Z M16.772,2.82801598 L11.504,2.82801598 C10.9767865,2.82698833 10.4930411,3.12016735 10.25,3.58802003 L9.829,4.39802003 C9.10025001,5.80219183 7.64901418,6.68250023 6.067,6.68002003 L4.242,6.68002003 C3.46129793,6.68057156 2.82855154,7.31331796 2.828,8.09402003 L2.828,19.11302 C2.82855154,19.8937221 3.46129793,20.5264685 4.242,20.52702 L24.035,20.52702 C24.8157021,20.5264685 25.4484485,19.8937221 25.449,19.11302 L25.449,8.09402003 C25.4484485,7.31331796 24.8157021,6.68057156 24.035,6.68002003 L22.21,6.68002003 C20.700326,6.68264985 19.3096847,5.88098072 18.5527648,4.58716506 L18.449,4.39902003 L18.026,3.58802003 C17.7831316,3.12000564 17.2992769,2.82676037 16.772,2.82801598 Z M14.139,6.50202003 C17.5349989,6.50202003 20.288,9.2550211 20.288,12.65102 C20.2841424,16.0454198 17.5333998,18.7961624 14.139,18.80002 C10.7430011,18.80002 7.99,16.047019 7.99,12.65102 C7.99,9.2550211 10.7430011,6.50202003 14.139,6.50202003 Z M14.139,9.33002003 C12.7957809,9.33002003 11.5848238,10.1391557 11.0707961,11.3801283 C10.5567684,12.621101 10.840899,14.0495223 11.7906984,14.9993216 C12.7404977,15.949121 14.168919,16.2332517 15.4098917,15.719224 C16.6508643,15.2051963 17.46,13.9942391 17.46,12.65102 C17.4577959,10.8177961 15.9722239,9.33222408 14.139,9.33002003 Z" id="path-1"></path>
    </defs>
    <g id="icon/camera" stroke="none" stroke-width="1" fill="none" fill-rule="evenodd">
        <g id="color/primary/500" transform="translate(2.000000, 4.000000)">
            <mask id="mask-2" fill="white">
                <use xlink:href="#path-1"></use>
            </mask>
            <g id="Mask" fill-rule="nonzero"></g>
            <g id="Group" mask="url(#mask-2)">
                <g transform="translate(-2.000000, -4.000000)" id="color/primary/500">
                    <rect id="Rectangle-Copy-4" fill="#9DAAB7" x="0" y="2.27373675e-15" width="32" height="32"></rect>
                </g>
            </g>
        </g>
    </g>
</svg>