<?xml version="1.0" encoding="UTF-8"?>
<svg width="32px" height="32px" viewBox="0 0 32 32" version="1.1" xmlns="http://www.w3.org/2000/svg" xmlns:xlink="http://www.w3.org/1999/xlink">
    <title>icon/campaign</title>
    <defs>
        <path d="M17.7272649,0.979118695 L27.9832649,17.8661187 C28.3864239,18.5300612 28.3764592,19.3655988 27.9575808,20.0197377 C27.5387024,20.6738766 26.78398,21.0325078 26.0122649,20.9441187 L16.4782649,19.8441187 L14.937,20.779 L16.0702649,22.6461187 C16.6346498,23.5754291 16.6545771,24.7367293 16.1224081,25.6848561 C15.5902391,26.6329828 14.5885289,27.2208535 13.5012649,27.2231187 L13.5012649,27.2261187 C13.2583296,27.2258513 13.016291,27.1966455 12.7802649,27.1391187 C12.0032359,26.9517199 11.3336834,26.4608108 10.9212649,25.7761187 L10.5752649,25.2061187 C10.2715084,24.7054726 10.431119,24.0533755 10.931765,23.7496189 C11.4324111,23.4458623 12.0845082,23.6054727 12.3882649,24.1061187 L12.7342649,24.6761187 C12.8566725,24.8776906 13.0547844,25.021772 13.2842649,25.0761187 C13.6343998,25.1609386 14.0011847,25.0268105 14.2140031,24.7361265 C14.4268215,24.4454424 14.4438884,24.0552754 14.2572649,23.7471187 L13.123,21.879 L7.57826489,25.2441187 C6.97124206,25.6185926 6.27249885,25.8179369 5.55926489,25.8201187 C4.19583636,25.8196811 2.93104253,25.1092292 2.22126489,23.9451187 L0.565264886,21.2181187 C-0.549668334,19.3784166 0.0355642679,16.9833477 1.87326489,15.8651187 L11.0992649,10.2651187 C11.531494,9.99005097 12.0787019,9.97030296 12.5296344,10.2134985 C12.7506448,10.3326932 12.9315813,10.5059114 13.0595305,10.7118772 C13.0615536,10.7164225 13.0649218,10.721257 13.0682649,10.7261187 L16.993,17.057 L24.7252649,17.9501187 L16.1622649,3.8501187 L14.4832649,8.3901187 C14.2123692,9.12272442 13.3988706,9.49701437 12.6662649,9.2261187 C11.9336592,8.95522303 11.5593692,8.14172442 11.8302649,7.4091187 L14.0802649,1.3291187 C14.3508415,0.596766254 15.0167335,0.0839189003 15.7939008,0.00933470808 C16.5710681,-0.0652494841 17.322343,0.31159336 17.7272649,0.979118695 Z M11.397,13.392 L3.34126489,18.2821187 C2.83729008,18.5892323 2.67674331,19.2461772 2.98226489,19.7511187 L4.63826489,22.4771187 C4.94499251,22.9809677 5.60162787,23.1415482 6.10626489,22.8361187 L14.203,17.918 L11.397,13.392 Z" id="path-1"></path>
    </defs>
    <g id="icon/campaign" stroke="none" stroke-width="1" fill="none" fill-rule="evenodd">
        <g id="color/primary/500" transform="translate(2.000000, 2.000000)">
            <mask id="mask-2" fill="white">
                <use xlink:href="#path-1"></use>
            </mask>
            <g id="Mask" fill-rule="nonzero"></g>
            <g id="Group" mask="url(#mask-2)">
                <g transform="translate(-2.000000, -2.000000)" id="color/primary/500">
                    <rect id="Rectangle-Copy-4" fill="#9DAAB7" x="0" y="2.27373675e-15" width="32" height="32"></rect>
                </g>
            </g>
        </g>
    </g>
</svg>