<?xml version="1.0" encoding="UTF-8"?>
<svg width="32px" height="32px" viewBox="0 0 32 32" version="1.1" xmlns="http://www.w3.org/2000/svg" xmlns:xlink="http://www.w3.org/1999/xlink">
    <title>icon/cancelcircle_outline</title>
    <defs>
        <path d="M25.8877471,6.2881624 C29.5657236,11.7987599 28.9151682,19.1084391 24.3651356,23.8815952 L24.1220619,24.1304484 C21.4718586,26.7846832 17.8728598,28.2728692 14.1220619,28.265476 C7.38056178,28.260043 1.58153046,23.4935824 0.270993761,16.8806899 C-1.03954294,10.2677975 2.50335935,3.6499614 8.73326584,1.07389507 C14.9631723,-1.50217127 22.1452448,0.680887784 25.8877471,6.2881624 Z M14.1220619,2.82642896 C8.72808465,2.83049649 4.08802755,6.64404967 3.0393114,11.9350988 C1.99059526,17.226148 4.82526782,22.5212352 9.80991099,24.5823852 C14.7945542,26.6435351 20.5410384,24.8967562 23.5353565,20.4102135 C26.5296746,15.9236707 25.9379652,9.94678209 22.1220619,6.13444835 C20.0016861,4.01137938 17.1226259,2.82088797 14.1220619,2.82642896 Z M10.3800619,8.39044835 L14.123,12.132 L17.8640619,8.39144835 C18.4163466,7.8391636 19.3117771,7.8391636 19.8640619,8.39144835 C20.4163466,8.9437331 20.4163466,9.8391636 19.8640619,10.3914484 L16.123,14.132 L19.8650619,17.8744484 C20.2688758,18.2789482 20.3894563,18.8867774 20.1706342,19.4147952 C19.9518121,19.9428129 19.4366262,20.2871666 18.8650619,20.2874484 L18.8640619,20.2884488 C18.4889714,20.2887486 18.1291754,20.139793 17.8640619,19.8744484 L14.123,16.133 L10.3800619,19.8754484 C10.1149093,20.1406135 9.75505225,20.2892344 9.38006187,20.2884515 C8.80849757,20.2881666 8.29331163,19.9438129 8.07448953,19.4157952 C7.85566743,18.8877774 7.97624794,18.2799482 8.38006187,17.8754484 L12.123,14.133 L8.38006187,10.3904484 C7.82777736,9.83816356 7.82777748,8.94273326 8.38006213,8.39044861 C8.93234678,7.83816396 9.82777708,7.83816384 10.3800619,8.39044835 Z" id="path-1"></path>
    </defs>
    <g id="icon/cancelcircle_outline" stroke="none" stroke-width="1" fill="none" fill-rule="evenodd">
        <g id="color/primary/500" transform="translate(2.000000, 2.000000)">
            <mask id="mask-2" fill="white">
                <use xlink:href="#path-1"></use>
            </mask>
            <g id="Mask" fill-rule="nonzero"></g>
            <g id="Group" mask="url(#mask-2)">
                <g transform="translate(-2.000000, -2.000000)" id="color/primary/500">
                    <rect id="Rectangle-Copy-4" fill="#9DAAB7" x="0" y="2.27373675e-15" width="32" height="32"></rect>
                </g>
            </g>
        </g>
    </g>
</svg>