<?xml version="1.0" encoding="UTF-8"?>
<svg width="32px" height="32px" viewBox="0 0 32 32" version="1.1" xmlns="http://www.w3.org/2000/svg" xmlns:xlink="http://www.w3.org/1999/xlink">
    <title>icon/cancelcircle_fill</title>
    <defs>
        <path d="M25.8877471,6.2881624 C29.5657236,11.7987599 28.9151682,19.1084391 24.3651356,23.8815952 L24.1220619,24.1304484 C21.4718586,26.7846832 17.8728598,28.2728692 14.1220619,28.265476 C7.38056178,28.260043 1.58153046,23.4935824 0.270993761,16.8806899 C-1.03954294,10.2677975 2.50335935,3.6499614 8.73326584,1.07389507 C14.9631723,-1.50217127 22.1452448,0.680887784 25.8877471,6.2881624 Z M10.3800619,8.39044835 C9.82777708,7.83816384 8.93234678,7.83816396 8.38006213,8.39044861 C7.82777748,8.94273326 7.82777736,9.83816356 8.38006187,10.3904484 L8.38006187,10.3904484 L12.1228486,14.133235 L8.38006187,17.8754484 C7.97624794,18.2799482 7.85566743,18.8877774 8.07448953,19.4157952 C8.29331163,19.9438129 8.80849757,20.2881666 9.38006187,20.2884515 C9.75505225,20.2892344 10.1149093,20.1406135 10.3800619,19.8754484 L10.3800619,19.8754484 L14.1228486,16.133235 L17.8640619,19.8744484 C18.1291754,20.139793 18.4889714,20.2887486 18.8640619,20.2884488 L18.8640619,20.2884488 C19.4366262,20.2871666 19.9518121,19.9428129 20.1706342,19.4147952 C20.3894563,18.8867774 20.2688758,18.2789482 19.8650619,17.8744484 L19.8650619,17.8744484 L16.1228486,14.132235 L19.8640619,10.3914484 C20.4163466,9.8391636 20.4163466,8.9437331 19.8640619,8.39144835 C19.3117771,7.8391636 18.4163466,7.8391636 17.8640619,8.39144835 L17.8640619,8.39144835 L14.1228486,12.132235 Z" id="path-1"></path>
    </defs>
    <g id="icon/cancelcircle_fill" stroke="none" stroke-width="1" fill="none" fill-rule="evenodd">
        <g id="color/primary/500" transform="translate(2.000000, 2.000000)">
            <mask id="mask-2" fill="white">
                <use xlink:href="#path-1"></use>
            </mask>
            <g id="Mask" fill-rule="nonzero"></g>
            <g id="Group" mask="url(#mask-2)">
                <g transform="translate(-2.000000, -2.000000)" id="color/primary/500">
                    <rect id="Rectangle-Copy-4" fill="#9DAAB7" x="0" y="2.27373675e-15" width="32" height="32"></rect>
                </g>
            </g>
        </g>
    </g>
</svg>