<?xml version="1.0" encoding="UTF-8"?>
<svg width="32px" height="32px" viewBox="0 0 32 32" version="1.1" xmlns="http://www.w3.org/2000/svg" xmlns:xlink="http://www.w3.org/1999/xlink">
    <title>icon/card</title>
    <defs>
        <path d="M24.036,0 C26.3776497,0.00275520902 28.2752448,1.90035029 28.278,4.242 L28.278,8.219 C28.278,8.99993064 27.6449306,9.633 26.864,9.633 L26.785,9.629 L2.828,9.629 L2.828,16.86 C2.82855068,17.6403121 3.46068849,18.2728973 4.241,18.274 L24.036,18.274 C24.8167021,18.2734485 25.4494485,17.6407021 25.45,16.86 L25.45,12.338 C25.4505515,11.5572979 26.0832979,10.9245515 26.864,10.924 C27.6447021,10.9245515 28.2774485,11.5572979 28.278,12.338 L28.278,16.86 C28.2757948,19.2018779 26.3778779,21.0997948 24.036,21.102 L4.241,21.102 C1.89928433,21.099794 0.00165388441,19.2017161 0,16.86 L0,4.242 C0.00220420817,1.90051206 1.89951264,0.00275625053 4.241,0 L24.036,0 Z M12.325,12.641 C13.1055403,12.641 13.738448,13.2734599 13.739,14.054 C13.739,14.8349306 13.1059306,15.468 12.325,15.468 L6.608,15.468 C5.82706936,15.468 5.194,14.8349306 5.194,14.054 C5.19455201,13.2734599 5.82745972,12.641 6.608,12.641 L12.325,12.641 Z M24.036,2.828 L4.241,2.828 C3.46091666,2.82965195 2.82910007,3.46191569 2.828,4.242 L2.828,6.801 L25.449,6.801 L25.45,4.242 C25.4488984,3.46152611 24.8164739,2.82910159 24.036,2.828 Z" id="path-1"></path>
    </defs>
    <g id="icon/card" stroke="none" stroke-width="1" fill="none" fill-rule="evenodd">
        <g id="color/primary/500" transform="translate(2.000000, 5.000000)">
            <mask id="mask-2" fill="white">
                <use xlink:href="#path-1"></use>
            </mask>
            <g id="Mask" fill-rule="nonzero"></g>
            <g id="Group" mask="url(#mask-2)">
                <g transform="translate(-2.000000, -5.000000)" id="color/primary/500">
                    <rect id="Rectangle-Copy-4" fill="#9DAAB7" x="0" y="2.27373675e-15" width="32" height="32"></rect>
                </g>
            </g>
        </g>
    </g>
</svg>