<?xml version="1.0" encoding="UTF-8"?>
<svg width="32px" height="32px" viewBox="0 0 32 32" version="1.1" xmlns="http://www.w3.org/2000/svg" xmlns:xlink="http://www.w3.org/1999/xlink">
    <title>icon/chart_pie</title>
    <defs>
        <path d="M11.527,4.946 C12.3079306,4.946 12.941,5.57906936 12.941,6.36 L12.941,15.06 L21.641,15.06 C22.4219306,15.06 23.055,15.6930694 23.055,16.474 C23.0474025,22.7393202 18.0476772,27.8344507 11.8198161,27.9960527 L11.527,28 C5.16081369,28 0,22.8391863 0,16.473 C0,10.1068137 5.16081369,4.946 11.527,4.946 Z M10.113,7.889 C5.73356942,8.61142702 2.60015774,12.5148424 2.84192312,16.9468693 C3.0836885,21.3788962 6.62310375,24.9183115 11.0551307,25.1600769 C15.4871576,25.4018423 19.390573,22.2684306 20.113,17.889 L11.528,17.889 C10.7470694,17.889 10.114,17.2559306 10.114,16.475 L10.113,7.889 Z M16.752,0 C23.1148259,0.00771517313 28.2708368,5.16417346 28.278,11.527 C28.2763466,12.3063686 27.6443702,12.9374506 26.865,12.938 L16.752,12.938 C15.9710694,12.938 15.338,12.3049306 15.338,11.524 L15.338,1.414 C15.338,0.633069364 15.9710694,0 16.752,0 Z M18.165,2.94 L18.165,10.11 L25.335,10.11 C24.7227501,6.43337827 21.8416217,3.55224987 18.165,2.94 Z" id="path-1"></path>
    </defs>
    <g id="icon/chart_pie" stroke="none" stroke-width="1" fill="none" fill-rule="evenodd">
        <g id="color/primary/500" transform="translate(2.000000, 2.000000)">
            <mask id="mask-2" fill="white">
                <use xlink:href="#path-1"></use>
            </mask>
            <g id="Mask" fill-rule="nonzero"></g>
            <g id="Group" mask="url(#mask-2)">
                <g transform="translate(-2.000000, -2.000000)" id="color/primary/500">
                    <rect id="Rectangle-Copy-4" fill="#9DAAB7" x="0" y="2.27373675e-15" width="32" height="32"></rect>
                </g>
            </g>
        </g>
    </g>
</svg>