<?xml version="1.0" encoding="UTF-8"?>
<svg width="32px" height="32px" viewBox="0 0 32 32" version="1.1" xmlns="http://www.w3.org/2000/svg" xmlns:xlink="http://www.w3.org/1999/xlink">
    <title>icon/chart</title>
    <defs>
        <path d="M8.582,0 C9.36293054,0 9.99599976,0.633069457 9.99599976,1.414 C9.99599976,2.19493054 9.36293054,2.82799987 8.582,2.828 L2.827,2.828 L2.826,14.941 L10.453,7.316 C10.7181887,7.05073117 11.0779099,6.90169795 11.453,6.90169795 C11.8280901,6.90169795 12.1878113,7.05073117 12.453,7.316 L15.709,10.572 L23.4526565,2.828 L19.534,2.828 C18.7530694,2.828 18.12,2.19493064 18.12,1.414 C18.12,0.633069364 18.7530694,0 19.534,0 L26.8720321,0.000799285406 C27.050602,0.00013126029 27.2278312,0.0360174842 27.390175,0.101141546 C27.4183114,0.112339003 27.4460331,0.124430445 27.4734226,0.137452476 C27.4844464,0.142979556 27.4952812,0.148336402 27.5060364,0.153826883 C27.5332585,0.167296722 27.560135,0.182056908 27.5866096,0.197755485 C27.5987941,0.205587559 27.6109991,0.213110285 27.6230793,0.220811419 C27.6484377,0.236251083 27.6730143,0.252973064 27.69716,0.270554404 C27.70801,0.279324252 27.719272,0.287802486 27.7304015,0.296443298 C27.7542563,0.314006133 27.7769861,0.332776543 27.7992473,0.352365535 C27.8108856,0.36371409 27.8228927,0.374671257 27.8347076,0.385829834 L27.8505383,0.399918877 L27.8505383,0.399918877 L27.8659999,0.415000063 C28.1536482,0.702648358 28.2914797,1.08338089 28.2794944,1.46023491 L28.278,8.744 C28.278,9.52454028 27.6455401,10.157448 26.865,10.158 C26.0840694,10.158 25.451,9.52493064 25.451,8.744 L25.4506565,4.829 L16.707,13.571 C16.4418113,13.8362688 16.0820901,13.985302 15.707,13.985302 C15.3319099,13.985302 14.9721887,13.8362688 14.707,13.571 L11.451,10.315 L2.826,18.94 L2.827,21.94 L25.45,21.94 L25.45,18.84 C25.45,18.0593455 26.0828455,17.4265 26.8635,17.4265 C27.6441545,17.4265 28.2770014,18.0593455 28.2770014,18.84 L28.2770014,23.352 C28.2775308,23.7270162 28.1290651,24.0868836 27.8642636,24.3524352 C27.5994622,24.6179868 27.2400162,24.7674699 26.865,24.768 L1.414,24.768 C0.633069364,24.768 0,24.1349306 0,23.354 L0,1.414 C0.000551538227,0.633297932 0.633297932,0.000551538227 1.414,0 L8.582,0 Z" id="path-1"></path>
    </defs>
    <g id="icon/chart" stroke="none" stroke-width="1" fill="none" fill-rule="evenodd">
        <g id="color/primary/500" transform="translate(2.000343, 4.000000)">
            <mask id="mask-2" fill="white">
                <use xlink:href="#path-1"></use>
            </mask>
            <g id="Mask" fill-rule="nonzero"></g>
            <g id="Group" mask="url(#mask-2)">
                <g transform="translate(-2.000343, -4.000000)" id="color/primary/500">
                    <rect id="Rectangle-Copy-4" fill="#9DAAB7" x="0" y="2.27373675e-15" width="32" height="32"></rect>
                </g>
            </g>
        </g>
    </g>
</svg>