<?xml version="1.0" encoding="UTF-8"?>
<svg width="32px" height="32px" viewBox="0 0 32 32" version="1.1" xmlns="http://www.w3.org/2000/svg" xmlns:xlink="http://www.w3.org/1999/xlink">
    <title>icon/checkcircle_outline</title>
    <defs>
        <path d="M25.8877471,6.2881624 C29.6302495,11.895437 28.8910095,19.3654729 24.1220619,24.1304484 C21.4713573,26.783933 17.8726849,28.2719841 14.1220619,28.2654698 C7.38056178,28.260043 1.58153046,23.4935824 0.270993761,16.8806899 C-1.03954294,10.2677975 2.50335935,3.6499614 8.73326584,1.07389507 C14.9631723,-1.50217127 22.1452448,0.680887784 25.8877471,6.2881624 Z M14.1220619,2.82742787 C8.72860128,2.8321709 4.0894538,6.64591338 3.04145135,11.9365778 C1.99344889,17.2272423 4.82843604,22.5215004 9.81282228,24.5819211 C14.7972085,26.6423417 20.542957,24.8951452 23.5365509,20.4087396 C26.5301447,15.922334 25.937937,9.94608007 22.1220619,6.13444835 C20.0014593,4.01183988 17.1224601,2.8217336 14.1220619,2.82742787 Z M20.9770619,8.99344835 C21.5293466,9.5457331 21.5293466,10.4411636 20.9770619,10.9934484 L13.4360619,18.5354484 C13.1705396,18.8006719 12.810355,18.9492796 12.4350619,18.9484518 L12.4340619,18.9484507 L12.4216104,18.9472348 L12.385,18.945 L12.293,18.94 L12.2506669,18.9367759 L12.2506669,18.9367759 C12.2149227,18.9316261 12.1792031,18.9255107 12.1438952,18.9180668 C12.065271,18.9022721 11.9885762,18.8792398 11.9143692,18.8498876 C11.9030397,18.8443678 11.8914592,18.8395951 11.8799503,18.8346723 C11.8526855,18.8241062 11.8261723,18.8118 11.80005,18.7986696 C11.7842464,18.7895624 11.7679868,18.7809836 11.751906,18.7720951 C11.7226099,18.7570954 11.6945014,18.7402515 11.6669691,18.7224121 L11.6386545,18.702362 L11.6386545,18.702362 C11.6104781,18.6843171 11.5834383,18.6643841 11.5570782,18.643447 L11.5214299,18.6130797 L11.5214299,18.6130797 C11.5078601,18.6026335 11.4948641,18.5911698 11.4820619,18.5794484 L7.31506187,14.7794484 C6.937242,14.4402763 6.77027019,13.9245753 6.87759954,13.4283234 C6.9849289,12.9320716 7.35008115,12.5314583 7.83429011,12.3787259 C8.31849907,12.2259935 8.8474242,12.3445909 9.22006187,12.6894484 L12.3896104,15.5802348 L18.9770619,8.99344835 C19.5293466,8.4411636 20.4247771,8.4411636 20.9770619,8.99344835 Z" id="path-1"></path>
    </defs>
    <g id="icon/checkcircle_outline" stroke="none" stroke-width="1" fill="none" fill-rule="evenodd">
        <g id="color/primary/500" transform="translate(2.000000, 2.000000)">
            <mask id="mask-2" fill="white">
                <use xlink:href="#path-1"></use>
            </mask>
            <g id="Mask" fill-rule="nonzero"></g>
            <g id="Group" mask="url(#mask-2)">
                <g transform="translate(-2.000000, -2.000000)" id="color/primary/500">
                    <rect id="Rectangle-Copy-4" fill="#9DAAB7" x="0" y="2.27373675e-15" width="32" height="32"></rect>
                </g>
            </g>
        </g>
    </g>
</svg>