<?xml version="1.0" encoding="UTF-8"?>
<svg width="32px" height="32px" viewBox="0 0 32 32" version="1.1" xmlns="http://www.w3.org/2000/svg" xmlns:xlink="http://www.w3.org/1999/xlink">
    <title>icon/cheveron_right</title>
    <defs>
        <path d="M1.41705333,27.5724733 C0.841338958,27.5732605 0.322711788,27.2246841 0.106020012,26.6913059 C-0.110671764,26.1579277 0.017907052,25.5464155 0.431053334,25.1454693 L12.1130533,13.7874693 L0.431053334,2.43046932 C0.0671936467,2.07858664 -0.0808180549,1.5590486 0.0429666117,1.06824044 C0.166751278,0.577432279 0.543448439,0.190228859 1.03066667,0.0529929665 C1.5178849,-0.0842429257 2.041297,0.0494246254 2.40305333,0.403469322 L15.1270533,12.7744693 C15.4006819,13.0406757 15.5550443,13.4062123 15.5550443,13.7879693 C15.5550443,14.1697264 15.4006819,14.5352629 15.1270533,14.8014693 L2.40305333,27.1724693 C2.13941875,27.429731 1.78540912,27.5733454 1.41705333,27.5724733 Z" id="path-1"></path>
    </defs>
    <g id="icon/cheveron_right" stroke="none" stroke-width="1" fill="none" fill-rule="evenodd">
        <g id="color/primary/500" transform="translate(8.000000, 2.000000)">
            <mask id="mask-2" fill="white">
                <use xlink:href="#path-1"></use>
            </mask>
            <g id="Mask" fill-rule="nonzero"></g>
            <g id="Group" mask="url(#mask-2)">
                <g transform="translate(-8.000000, -2.000000)" id="color/primary/500">
                    <rect id="Rectangle-Copy-4" fill="#9DAAB7" x="0" y="2.27373675e-15" width="32" height="32"></rect>
                </g>
            </g>
        </g>
    </g>
</svg>