<?xml version="1.0" encoding="UTF-8"?>
<svg width="32px" height="32px" viewBox="0 0 32 32" version="1.1" xmlns="http://www.w3.org/2000/svg" xmlns:xlink="http://www.w3.org/1999/xlink">
    <title>icon/circle</title>
    <g id="icon/circle" stroke="none" stroke-width="1" fill="none" fill-rule="evenodd">
        <g id="Group-5" transform="translate(3.000000, 3.000000)">
            <path d="M25,13.5 C25,19.8511364 19.8511364,25 13.5,25 C7.14886364,25 2,19.8511364 2,13.5 C2,7.14886364 7.14886364,2 13.5,2 C19.8511364,2 25,7.14886364 25,13.5" id="Fill-1" fill="#ABE9ED"></path>
            <path d="M13,2.65306122 C7.29485714,2.65306122 2.65306122,7.29485714 2.65306122,13 C2.65306122,18.7051429 7.29485714,23.3469388 13,23.3469388 C18.7051429,23.3469388 23.3469388,18.7051429 23.3469388,13 C23.3469388,7.29485714 18.7051429,2.65306122 13,2.65306122 M13,26 C5.83142857,26 0,20.1685714 0,13 C0,5.83142857 5.83142857,0 13,0 C20.1685714,0 26,5.83142857 26,13 C26,20.1685714 20.1685714,26 13,26" id="Fill-3" fill="#6CDAE2"></path>
        </g>
    </g>
</svg>