<?xml version="1.0" encoding="UTF-8"?>
<svg width="32px" height="32px" viewBox="0 0 32 32" version="1.1" xmlns="http://www.w3.org/2000/svg" xmlns:xlink="http://www.w3.org/1999/xlink">
    <title>icon/clip</title>
    <defs>
        <path d="M7.99579446,28.2741795 C5.88789939,28.2779381 3.86539394,27.4415853 2.37579446,25.9501668 C-0.791931488,22.7751595 -0.791931488,17.6351741 2.37579446,14.4601668 L15.0667945,1.7691668 C17.4261549,-0.589917513 21.2512102,-0.589693656 23.6102945,1.7696668 C25.9693788,4.12902725 25.9691549,7.95408249 23.6097945,10.3131668 L11.5097945,22.4131668 C9.92943165,23.9938057 7.36693342,23.9940296 5.78629446,22.4136668 C4.20565551,20.833304 4.20543165,18.2708057 5.78579446,16.6901668 L14.2637945,8.2131668 C14.8160792,7.66088205 15.7115097,7.66088205 16.2637945,8.2131668 C16.8160792,8.76545155 16.8160792,9.66088205 16.2637945,10.2131668 L7.78679446,18.6901668 C7.46749117,18.9957527 7.3386055,19.4502312 7.4499521,19.8779452 C7.56129869,20.3056592 7.89543318,20.6395999 8.32321171,20.7506983 C8.75099024,20.8617967 9.20539389,20.7326473 9.51079446,20.4131668 L21.6107945,8.3131668 C22.8420995,7.05410022 22.8308661,5.03862157 21.5856029,3.79335839 C20.3403397,2.5480952 18.324861,2.53686174 17.0657945,3.7681668 L4.37479446,16.4581668 C2.30790197,18.5274491 2.30790197,21.8798845 4.37479446,23.9491668 C5.33485981,24.9096675 6.63724917,25.4493078 7.99529446,25.4493078 C9.35333976,25.4493078 10.6557291,24.9096675 11.6157945,23.9491668 L20.8057945,14.7601668 C21.3580792,14.207882 22.2535097,14.207882 22.8057945,14.7601668 C23.3580792,15.3124515 23.3580792,16.207882 22.8057945,16.7601668 L13.6157945,25.9501668 C12.126195,27.4415853 10.1036895,28.2779381 7.99579446,28.2741795 Z" id="path-1"></path>
    </defs>
    <g id="icon/clip" stroke="none" stroke-width="1" fill="none" fill-rule="evenodd">
        <g id="color/primary/500" transform="translate(3.000000, 2.000000)">
            <mask id="mask-2" fill="white">
                <use xlink:href="#path-1"></use>
            </mask>
            <g id="Mask" fill-rule="nonzero"></g>
            <g id="Group" mask="url(#mask-2)">
                <g transform="translate(-3.000000, -2.000000)" id="color/primary/500">
                    <rect id="Rectangle-Copy-4" fill="#9DAAB7" x="0" y="2.27373675e-15" width="32" height="32"></rect>
                </g>
            </g>
        </g>
    </g>
</svg>