<?xml version="1.0" encoding="UTF-8"?>
<svg width="32px" height="32px" viewBox="0 0 32 32" version="1.1" xmlns="http://www.w3.org/2000/svg" xmlns:xlink="http://www.w3.org/1999/xlink">
    <title>icon/clock</title>
    <defs>
        <path d="M14.1416667,2.56825388e-07 C21.9501602,0.00147304165 28.2791045,6.33250614 28.2780003,14.1409997 C28.2680768,21.9468773 21.9408814,28.2713885 14.1350003,28.2779997 C6.32650694,28.2757906 -0.00184003282,21.9441604 4.01329771e-07,14.135667 C0.00184163849,6.3271736 6.33317325,-0.00147201417 14.1416667,2.56825388e-07 Z M14.1350003,2.8269997 C7.8890192,2.82920873 2.82708043,7.8936843 2.82800079,14.1396657 C2.82892115,20.3856471 7.89235221,25.4486306 14.1383337,25.448999 C20.3843151,25.4493673 25.4483433,20.3869809 25.4500003,14.1409997 C25.4439355,7.89457348 20.381427,2.83251236 14.1350003,2.8269997 Z M14.1350003,5.5529997 C14.9159309,5.5529997 15.5490003,6.18606906 15.5490003,6.9669997 L15.5490003,12.7249997 L20.8420003,12.7249997 C21.6229309,12.7249997 22.2560003,13.3580691 22.2560003,14.1389997 C22.2560003,14.9199303 21.6229309,15.5529997 20.8420003,15.5529997 L14.1350003,15.5529997 C13.3540696,15.5529997 12.7210003,14.9199303 12.7210003,14.1389997 L12.7210003,6.9669997 C12.7210003,6.18606906 13.3540696,5.5529997 14.1350003,5.5529997 Z" id="path-1"></path>
    </defs>
    <g id="icon/clock" stroke="none" stroke-width="1" fill="none" fill-rule="evenodd">
        <g id="color/primary/500" transform="translate(2.000000, 2.000000)">
            <mask id="mask-2" fill="white">
                <use xlink:href="#path-1"></use>
            </mask>
            <g id="Mask" fill-rule="nonzero"></g>
            <g id="Group" mask="url(#mask-2)">
                <g transform="translate(-2.000000, -2.000000)" id="color/primary/500">
                    <rect id="Rectangle-Copy-4" fill="#9DAAB7" x="0" y="2.27373675e-15" width="32" height="32"></rect>
                </g>
            </g>
        </g>
    </g>
</svg>