<?xml version="1.0" encoding="UTF-8"?>
<svg width="32px" height="32px" viewBox="0 0 32 32" version="1.1" xmlns="http://www.w3.org/2000/svg" xmlns:xlink="http://www.w3.org/1999/xlink">
    <title>icon/close</title>
    <defs>
        <path d="M26.2271947,0.00177449459 L26.3751741,0.0170462173 C26.4244352,0.0247696769 26.4735655,0.0351435413 26.5223689,0.0482203694 C27.0104027,0.178988651 27.3916006,0.560186498 27.5223689,1.04822037 C27.6531371,1.53625424 27.513609,2.05698018 27.1563435,2.41424577 L15.784,13.786 L27.1573435,25.1592458 C27.562184,25.5633904 27.6834109,26.1717543 27.4644071,26.7002106 C27.2636536,27.1846289 26.813323,27.5142832 26.2990466,27.5653266 L26.1573435,27.5722468 L26.1573435,27.5722468 L26.1573435,27.5692458 C25.7821434,27.5700995 25.4221432,27.4210594 25.1573435,27.1552458 L13.785,15.785 L2.41434346,27.1572458 C2.182335,27.3892652 1.87781835,27.5320556 1.55410006,27.5636034 L1.41434346,27.5702489 L1.41434346,27.5702489 C0.842339995,27.5702489 0.326605428,27.2258565 0.107692646,26.697401 C-0.111220137,26.1689456 0.00981481951,25.5606522 0.414343457,25.1562458 L11.785,13.785 L0.415343457,2.41724577 C-0.136941293,1.86496102 -0.136941293,0.969530523 0.415343457,0.417245773 C0.691485832,0.141103398 1.05341464,0.00303221085 1.41534346,0.00303221085 L1.55089921,0.00950429776 C1.86641406,0.03970737 2.17371888,0.175621195 2.41534346,0.417245773 L13.784,11.786 L25.1563435,0.414245773 C25.4421559,0.128433301 25.832583,-0.0180271743 26.2271947,0.00177449459 Z" id="path-1"></path>
    </defs>
    <g id="icon/close" stroke="none" stroke-width="1" fill="none" fill-rule="evenodd">
        <g id="color/primary/500" transform="translate(2.000000, 2.000000)">
            <mask id="mask-2" fill="white">
                <use xlink:href="#path-1"></use>
            </mask>
            <g id="Mask" fill-rule="nonzero"></g>
            <g id="Group" mask="url(#mask-2)">
                <g transform="translate(-2.000000, -2.000000)" id="color/primary/500">
                    <rect id="Rectangle-Copy-4" fill="#9DAAB7" x="0" y="2.27373675e-15" width="32" height="32"></rect>
                </g>
            </g>
        </g>
    </g>
</svg>