<?xml version="1.0" encoding="UTF-8"?>
<svg width="32px" height="32px" viewBox="0 0 32 32" version="1.1" xmlns="http://www.w3.org/2000/svg" xmlns:xlink="http://www.w3.org/1999/xlink">
    <title>icon/cloud</title>
    <defs>
        <path d="M22.2670332,21.2018087 L11.4670332,21.2018087 C10.6861026,21.2018087 10.0530332,20.5687393 10.0530332,19.7878087 C10.0530332,19.006878 10.6861026,18.3738087 11.4670332,18.3738087 L22.2670332,18.3738087 C23.8908946,18.3752199 25.2546165,17.1521976 25.4293443,15.5377633 C25.6040722,13.923329 24.5335951,12.4368569 22.9470332,12.0908087 C22.210878,11.930461 21.7297399,11.2210681 21.8530332,10.4778087 C21.9159808,10.1194851 21.9494263,9.75660142 21.9530332,9.39280868 C21.9542534,6.12612546 19.551785,3.35632099 16.3177175,2.89585616 C13.0836499,2.43539133 10.0035962,4.42459721 9.09303321,7.56180868 C8.91757377,8.18394743 8.33898497,8.60507742 7.69303321,8.58080868 C5.06084845,8.68760135 2.98415994,10.8564512 2.991692,13.4907907 C2.99922407,16.1251302 5.08828081,18.2820694 7.72103321,18.3738087 C8.50196366,18.3738089 9.13503274,19.0068782 9.13503274,19.7878087 C9.13503274,20.5687391 8.50196366,21.2018087 7.72103321,21.2018087 C3.65292119,21.1995937 0.283657576,18.0427737 0.0168690391,13.9834186 C-0.249919498,9.92406342 2.67720329,6.353433 6.71003321,5.81880868 C8.4149066,1.67164921 12.814772,-0.690711938 17.2134692,0.179338631 C21.6121664,1.0493892 24.7813639,4.90889081 24.7790332,9.39280868 C24.7790332,9.50680868 24.7790332,9.62180868 24.7710332,9.73780868 C27.337115,10.9138475 28.7377078,13.718353 28.1362771,16.4762732 C27.5348465,19.2341935 25.0937699,21.2009308 22.2710332,21.2018087 L22.2670332,21.2018087 Z" id="path-1"></path>
    </defs>
    <g id="icon/cloud" stroke="none" stroke-width="1" fill="none" fill-rule="evenodd">
        <g id="color/primary/500" transform="translate(2.000000, 5.000000)">
            <mask id="mask-2" fill="white">
                <use xlink:href="#path-1"></use>
            </mask>
            <g id="Mask" fill-rule="nonzero"></g>
            <g id="Group" mask="url(#mask-2)">
                <g transform="translate(-2.000000, -5.000000)" id="color/primary/500">
                    <rect id="Rectangle-Copy-4" fill="#9DAAB7" x="0" y="2.27373675e-15" width="32" height="32"></rect>
                </g>
            </g>
        </g>
    </g>
</svg>