<?xml version="1.0" encoding="UTF-8"?>
<svg width="32px" height="32px" viewBox="0 0 32 32" version="1.1" xmlns="http://www.w3.org/2000/svg" xmlns:xlink="http://www.w3.org/1999/xlink">
    <title>icon/cloud_download</title>
    <defs>
        <path d="M17.2211347,0.179337581 C21.619375,1.04924963 24.7886761,4.90773292 24.7876027,9.39117615 C24.7876027,9.50517615 24.7876027,9.62017615 24.7796027,9.73617615 C27.344906,10.9129842 28.7447484,13.7171955 28.1434503,16.4747485 C27.5421523,19.2323015 25.1019517,21.1991724 22.2796027,21.2011769 L18.1286027,21.2011769 C17.3476721,21.2011769 16.7146027,20.5681068 16.7146027,19.7871762 C16.7146027,19.0062455 17.3476721,18.3731762 18.1286027,18.3731762 L22.2756027,18.3731762 C23.8982069,18.3721971 25.2596688,17.149371 25.4342339,15.536184 C25.608799,13.9229969 24.5404369,12.4372364 22.9556027,12.0891762 C22.2161184,11.9315258 21.7315048,11.220025 21.8556027,10.4741762 C21.91924,10.1166182 21.9526912,9.7543413 21.9556027,9.39117615 C21.9568229,6.12449293 19.5543545,3.35468846 16.320287,2.89422364 C13.0862194,2.43375881 10.0061657,4.42296468 9.09560273,7.56017615 C8.93029777,8.18931813 8.34509736,8.61526043 7.69560273,8.57917615 C5.05779514,8.67851693 2.97274937,10.8495457 2.98002637,13.4892132 C2.98730338,16.1288807 5.08428752,18.2883805 7.72260273,18.3731762 L13.08,18.373 L13.0806027,13.7101762 C13.0806027,13.1244782 13.5554048,12.6496762 14.1411027,12.6496762 C14.7268007,12.6496762 15.2016027,13.1244782 15.2016027,13.7101762 L15.2009184,24.2446762 L17.2006027,22.2461762 C17.6148163,21.8319626 18.2863892,21.8319626 18.7006027,22.2461762 C19.1148163,22.6603897 19.1148163,23.3319626 18.7006027,23.7461762 L14.9006027,27.5461762 C14.6995372,27.7480336 14.4254971,27.8601737 14.1406027,27.8572347 C14.0625249,27.8571026 13.9864234,27.8485968 13.9131593,27.8325206 C13.8971009,27.8288596 13.8836789,27.8255939 13.870334,27.8220702 C13.8435015,27.8150892 13.8176533,27.8071717 13.7922454,27.7983152 L13.7644295,27.7880792 L13.7644295,27.7880792 C13.7400462,27.7788898 13.716536,27.7689347 13.6934768,27.7581749 C13.6770391,27.7504935 13.6608163,27.7424332 13.6448015,27.733958 C13.626647,27.7242822 13.6087087,27.7140761 13.5911065,27.7033721 C13.57642,27.6946018 13.5622621,27.6855471 13.5483117,27.6761498 C13.5314354,27.6645321 13.5144906,27.6523521 13.4979295,27.6396954 C13.48142,27.627429 13.4656947,27.6147047 13.4503122,27.6015094 L13.4147843,27.5691337 L13.4147843,27.5691337 C13.4064983,27.561833 13.3984947,27.5540732 13.3906027,27.5461762 L9.59060273,23.7461762 C9.32265354,23.478227 9.21800746,23.0876825 9.31608368,22.7216571 C9.41415989,22.3556317 9.70005827,22.0697333 10.0660837,21.9716571 C10.4321091,21.8735809 10.8226535,21.978227 11.0906027,22.2461762 L13.0799184,24.2356762 L13.079,21.201 L7.72860273,21.2011769 C3.657561,21.2029483 0.283830884,18.0450323 0.0168675106,13.9827528 C-0.250095863,9.92047338 2.68134195,6.34819668 6.71760273,5.81717615 C8.4233707,1.6708983 12.8228945,-0.690574467 17.2211347,0.179337581 Z" id="path-1"></path>
    </defs>
    <g id="icon/cloud_download" stroke="none" stroke-width="1" fill="none" fill-rule="evenodd">
        <g id="color/primary/500" transform="translate(2.000000, 2.000000)">
            <mask id="mask-2" fill="white">
                <use xlink:href="#path-1"></use>
            </mask>
            <g id="Mask" fill-rule="nonzero"></g>
            <g id="Group" mask="url(#mask-2)">
                <g transform="translate(-2.000000, -2.000000)" id="color/primary/500">
                    <rect id="Rectangle-Copy-4" fill="#9DAAB7" x="0" y="2.27373675e-15" width="32" height="32"></rect>
                </g>
            </g>
        </g>
    </g>
</svg>