<?xml version="1.0" encoding="UTF-8"?>
<svg width="32px" height="32px" viewBox="0 0 32 32" version="1.1" xmlns="http://www.w3.org/2000/svg" xmlns:xlink="http://www.w3.org/1999/xlink">
    <title>icon/cloud_upload</title>
    <defs>
        <path d="M17.2129783,0.179241219 C21.6115369,1.04902094 24.7808856,4.90807754 24.7790332,9.39180713 C24.7790332,9.50580713 24.7790332,9.62080713 24.7710332,9.73680713 C27.3363365,10.9136152 28.7361789,13.7178264 28.1348808,16.4753794 C27.5335827,19.2329324 25.0933822,21.1998034 22.2710332,21.2018071 L18.1210332,21.2018071 C17.3401028,21.2018071 16.7070337,20.5687376 16.7070337,19.7878071 C16.7070337,19.0068767 17.3401028,18.3738074 18.1210332,18.3738071 L22.2680332,18.3738071 C23.8904473,18.3723196 25.2514306,17.1493444 25.4257216,15.5363186 C25.6000125,13.9232927 24.5316825,12.4378249 22.9470332,12.0898071 C22.2107161,11.9303736 21.7292589,11.2209503 21.8530332,10.4778071 C21.9161025,10.1191634 21.9495487,9.75593747 21.9530332,9.39180713 C21.9537548,6.12531407 19.5511364,3.35597671 16.3172222,2.89578518 C13.083308,2.43559365 10.0035437,4.42477857 9.09303321,7.56180713 C8.92436902,8.18864721 8.34136996,8.61298724 7.69303321,8.58080713 C5.06084845,8.6875998 2.98415994,10.8564497 2.991692,13.4907892 C2.99922407,16.1251287 5.08828081,18.2820679 7.72103321,18.3738071 L13.071,18.373 L13.070068,12.481307 L11.0730335,14.479807 C10.875097,14.6776532 10.6068932,14.7891052 10.3270335,14.789807 C9.89801328,14.7901852 9.51106923,14.5319201 9.34683914,14.1355781 C9.18260906,13.7392362 9.27348116,13.282981 9.57703346,12.979807 L13.3770335,9.179807 L13.3928389,9.16389164 C13.416724,9.14069983 13.4416974,9.11862278 13.4676751,9.09774445 L13.445,9.117 L13.4808278,9.08862793 L13.4808278,9.08862793 C13.6595321,8.94790574 13.88577,8.864307 14.1315335,8.864307 C14.4631993,8.864307 14.7593045,9.01656026 14.953769,9.25498672 L18.6820335,12.979807 C19.0962468,13.3940206 19.0962468,14.0655933 18.6820333,14.4798068 C18.2678198,14.8940203 17.5962471,14.8940204 17.1820335,14.479807 L15.191068,12.490307 L15.1920335,23.013807 C15.1920335,23.2952017 15.0802499,23.5650712 14.8812738,23.7640473 C14.6822977,23.9630234 14.4124282,24.074807 14.1310335,24.074807 C13.5454499,24.0742551 13.0710335,23.5993908 13.0710335,23.013807 L13.071,21.201 L7.72103321,21.2018071 C3.65292119,21.1995921 0.283657576,18.0427722 0.0168690392,13.983417 C-0.249919498,9.92406187 2.67720329,6.35343144 6.71003321,5.81880713 C8.41483547,1.67182223 12.8144197,-0.690538507 17.2129783,0.179241219 Z" id="path-1"></path>
    </defs>
    <g id="icon/cloud_upload" stroke="none" stroke-width="1" fill="none" fill-rule="evenodd">
        <g id="color/primary/500" transform="translate(2.000000, 4.000000)">
            <mask id="mask-2" fill="white">
                <use xlink:href="#path-1"></use>
            </mask>
            <use id="Mask" fill="#9DAAB7" fill-rule="nonzero" xlink:href="#path-1"></use>
            <g id="Group" mask="url(#mask-2)">
                <g transform="translate(-2.000000, -4.000000)" id="color/primary/500">
                    <rect id="Rectangle-Copy-4" fill="#9DAAB7" x="0" y="2.27373675e-15" width="32" height="32"></rect>
                </g>
            </g>
        </g>
    </g>
</svg>