<?xml version="1.0" encoding="UTF-8"?>
<svg width="32px" height="32px" viewBox="0 0 32 32" version="1.1" xmlns="http://www.w3.org/2000/svg" xmlns:xlink="http://www.w3.org/1999/xlink">
    <title>icon/command</title>
    <defs>
        <path d="M22.3705,0 C25.62898,0 28.2705,2.64151998 28.2705,5.9 C28.2705,9.15848002 25.62898,11.8 22.3705,11.8 L22.3745,11.804 L19.298,11.804 L19.298,16.471 L22.3785,16.472 C25.638913,16.472 28.282,19.115087 28.282,22.3755 C28.282,25.635913 25.638913,28.279 22.3785,28.279 L22.3745,28.275 C19.1185307,28.2689465 16.4805535,25.6309693 16.4745,22.375 L16.474,19.296 L11.807,19.296 L11.8075,22.371 C11.8036428,25.6300901 9.1625901,28.2711428 5.9035,28.275 C2.64308698,28.275 0,25.631913 0,22.3715 C0,19.111087 2.64308698,16.468 5.9035,16.468 L8.979,16.468 L8.979,11.804 L5.9035,11.804 C2.64501998,11.804 0.0035,9.16248002 0.0035,5.904 C0.0035,2.64551998 2.64501998,0.004 5.9035,0.004 C9.16198002,0.004 11.8035,2.64551998 11.8035,5.904 L11.803,8.972 L16.47,8.972 L16.4705,5.9 C16.4705,2.64151998 19.11202,0 22.3705,0 Z M8.97950016,19.296 L5.9035,19.296 C4.65928315,19.296 3.53759872,20.0455517 3.06155101,21.1950968 C2.58550331,22.344642 2.84885615,23.6677629 3.72879334,24.547414 C4.60873054,25.4270652 5.93193696,25.6899878 7.08132731,25.2135663 C8.23071766,24.7371449 8.97990449,23.6152168 8.97950016,22.371 L8.97950016,19.296 Z M22.3745,19.296 L19.2984998,19.296 L19.2984998,22.371 C19.2980955,23.6152168 20.0472823,24.7371449 21.1966727,25.2135663 C22.346063,25.6899878 23.6692695,25.4270652 24.5492067,24.547414 C25.4291439,23.6677629 25.6924967,22.344642 25.216449,21.1950968 C24.7404013,20.0455517 23.6187169,19.296 22.3745,19.296 Z M16.4705,11.804 L11.8075,11.804 L11.8075,16.468 L16.4705,16.468 L16.4705,11.804 Z M5.9035,2.824 C4.20467211,2.824 2.8275,4.20117211 2.8275,5.9 C2.8275,7.59882789 4.20467211,8.976 5.9035,8.976 L8.9795,8.976 L8.9795,5.9 C8.97729634,4.20208573 7.60141427,2.82620366 5.9035,2.824 Z M22.3745,2.824 C20.6756721,2.824 19.2985,4.20117211 19.2985,5.9 L19.2985,8.976 L22.3745,8.976 C24.0733279,8.976 25.4505,7.59882789 25.4505,5.9 C25.4505,4.20117211 24.0733279,2.824 22.3745,2.824 Z" id="path-1"></path>
    </defs>
    <g id="icon/command" stroke="none" stroke-width="1" fill="none" fill-rule="evenodd">
        <g id="color/primary/500" transform="translate(2.000000, 2.000000)">
            <mask id="mask-2" fill="white">
                <use xlink:href="#path-1"></use>
            </mask>
            <g id="Mask" fill-rule="nonzero"></g>
            <g id="Group" mask="url(#mask-2)">
                <g transform="translate(-2.000000, -2.000000)" id="color/primary/500">
                    <rect id="Rectangle-Copy-4" fill="#9DAAB7" x="0" y="2.27373675e-15" width="32" height="32"></rect>
                </g>
            </g>
        </g>
    </g>
</svg>