<?xml version="1.0" encoding="UTF-8"?>
<svg width="32px" height="32px" viewBox="0 0 32 32" version="1.1" xmlns="http://www.w3.org/2000/svg" xmlns:xlink="http://www.w3.org/1999/xlink">
    <title>icon/compass</title>
    <defs>
        <path d="M21.2076601,1.8942943 C26.7495388,5.09358251 29.4518359,11.6161168 27.7963041,17.7973044 C26.1407724,23.978492 20.5401718,28.2772287 14.14112,28.2783305 L14.14012,28.2783305 C9.11124539,28.2776619 4.46101937,25.6064811 1.92685914,21.2627946 C-0.607301091,16.9191081 -0.644134722,11.5564173 1.83012002,7.17833054 C2.21832313,6.50630063 3.07563821,6.27276554 3.75104377,6.6550654 C4.42644933,7.03736525 4.66748728,7.89260118 4.29112002,8.57133054 C1.35644768,13.7521737 2.93738129,20.320867 7.90795851,23.5990982 C12.8785357,26.8773293 19.539085,25.7441185 23.1458729,21.0065539 C26.7526608,16.2689893 26.0723587,9.54706453 21.589487,5.62822554 C17.1066154,1.70938655 10.3540765,1.93366666 6.14112002,6.14133054 C5.58883523,6.69361505 4.69340493,6.69361494 4.14112028,6.14133029 C3.58883563,5.58904564 3.58883551,4.69361533 4.14112002,4.14133054 C8.66603142,-0.383384042 15.6657813,-1.30499391 21.2076601,1.8942943 Z M21.6842526,6.59519797 C22.0552565,6.96620186 22.1903283,7.51213381 22.03512,8.01333054 L18.93512,18.0043305 C18.7970132,18.4490286 18.4488181,18.7972238 18.00412,18.9353305 L8.01312002,22.0353305 C7.87751091,22.0778053 7.73622538,22.0993306 7.59412002,22.0993306 C7.14489714,22.0993306 6.7224759,21.8855688 6.45607808,21.5238598 C6.18968027,21.1621508 6.11100515,20.6953779 6.24412002,20.2663305 L9.34412002,10.2753305 C9.48192073,9.8304477 9.83023719,9.48213125 10.27512,9.34433054 L20.26612,6.24433054 C20.7673168,6.08912227 21.3132487,6.22419408 21.6842526,6.59519797 Z M18.53912,9.74033054 L11.82412,11.8243305 L9.74112002,18.5383305 L16.45512,16.4543305 L18.53912,9.74033054 Z M14.15412,12.3723305 C15.1300072,12.3723305 15.92112,13.1634434 15.92112,14.1393305 C15.92112,15.1152177 15.1300072,15.9063341 14.15412,15.9063341 C13.1782329,15.9082635 12.385553,15.1187177 12.3836165,14.1428305 C12.381687,13.1669434 13.1712329,12.3742635 14.14712,12.3723305 L14.15412,12.3723305 Z" id="path-1"></path>
    </defs>
    <g id="icon/compass" stroke="none" stroke-width="1" fill="none" fill-rule="evenodd">
        <g id="color/primary/500" transform="translate(2.000000, 2.000000)">
            <mask id="mask-2" fill="white">
                <use xlink:href="#path-1"></use>
            </mask>
            <g id="Mask" fill-rule="nonzero"></g>
            <g id="Group" mask="url(#mask-2)">
                <g transform="translate(-2.000000, -2.000000)" id="color/primary/500">
                    <rect id="Rectangle-Copy-4" fill="#9DAAB7" x="0" y="2.27373675e-15" width="32" height="32"></rect>
                </g>
            </g>
        </g>
    </g>
</svg>