<?xml version="1.0" encoding="UTF-8"?>
<svg width="32px" height="32px" viewBox="0 0 32 32" version="1.1" xmlns="http://www.w3.org/2000/svg" xmlns:xlink="http://www.w3.org/1999/xlink">
    <title>icon/crop</title>
    <defs>
        <path d="M7.96100057,10.3634395 C8.39849375,10.6160263 8.6680006,11.082826 8.66800048,11.5879997 L8.66800048,19.4419997 L26.6960005,19.4419997 C27.4769311,19.4419997 28.1100005,20.075069 28.1100005,20.8559997 C28.1100005,21.6369303 27.4769311,22.2699997 26.6960005,22.2699997 L22.268,22.269 L22.2680005,26.8489997 C22.2680005,27.6299303 21.6349311,28.2629997 20.8540005,28.2629997 C20.0730698,28.2629997 19.4400005,27.6299303 19.4400005,26.8489997 L19.44,22.269 L7.25400048,22.2699997 C6.47306984,22.2699997 5.84000048,21.6369303 5.84000048,20.8559997 L5.84000048,11.5879997 C5.84000048,11.082826 6.10950721,10.6160263 6.54700038,10.3634395 C6.98449355,10.1108526 7.5235074,10.1108526 7.96100057,10.3634395 Z M7.25400048,0 C8.03493098,0 8.66800048,0.633069158 8.66800048,1.41399966 L8.668,5.993 L20.8540005,5.99399966 C21.6349311,5.99399966 22.2680005,6.62706903 22.2680005,7.40799966 L22.2680005,16.6749997 C22.2680005,17.4559303 21.6349311,18.0889997 20.8540005,18.0889997 C20.0732984,18.0884481 19.440552,17.4557017 19.4400005,16.6749997 L19.4400005,8.82199966 L1.41400048,8.82199966 C0.908826819,8.82199983 0.442027037,8.55249299 0.189440159,8.1149998 C-0.0631467195,7.67750661 -0.0631467195,7.13849272 0.189440159,6.70099953 C0.442027037,6.26350633 0.908826819,5.99399966 1.41400048,5.99399966 L5.84,5.993 L5.84000048,1.41399966 C5.84000048,0.633069158 6.47306997,0 7.25400048,0 Z" id="path-1"></path>
    </defs>
    <g id="icon/crop" stroke="none" stroke-width="1" fill="none" fill-rule="evenodd">
        <g id="color/primary/500" transform="translate(2.000000, 2.000000)">
            <mask id="mask-2" fill="white">
                <use xlink:href="#path-1"></use>
            </mask>
            <g id="Mask" fill-rule="nonzero"></g>
            <g id="Group" mask="url(#mask-2)">
                <g transform="translate(-2.000000, -2.000000)" id="color/primary/500">
                    <rect id="Rectangle-Copy-4" fill="#9DAAB7" x="0" y="2.27373675e-15" width="32" height="32"></rect>
                </g>
            </g>
        </g>
    </g>
</svg>