<?xml version="1.0" encoding="UTF-8"?>
<svg width="32px" height="32px" viewBox="0 0 32 32" version="1.1" xmlns="http://www.w3.org/2000/svg" xmlns:xlink="http://www.w3.org/1999/xlink">
    <title>icon/crown</title>
    <defs>
        <path d="M14.1680058,0 C14.6739471,0 15.141391,0.270131948 15.3940058,0.708495223 L19.3090058,7.52049522 L26.0200058,2.25849522 C26.4171064,1.9402526 26.9545853,1.85993855 27.427371,2.04819636 C27.9001566,2.23645417 28.235315,2.66424237 28.3049687,3.1683412 C28.3214582,3.28767888 28.3224657,3.40693508 28.309037,3.52356537 L28.3070058,16.6154952 C28.3053528,18.9573737 26.4078832,20.8557381 24.0660058,20.8584952 L10.1590058,20.8584952 C9.37807518,20.8584952 8.74500582,20.2254259 8.74500582,19.4444952 C8.74500582,18.6635646 9.37807518,18.0304952 10.1590058,18.0304952 L24.0660058,18.0304952 C24.8463173,18.0293925 25.4784551,17.3968073 25.4790058,16.6164952 L25.479,6.274 L19.7640058,10.7504952 C19.5169956,10.9455613 19.2117489,11.0522392 18.8970058,11.0534952 C18.8063679,11.0537683 18.7159261,11.0450591 18.6270058,11.0274952 C18.2243596,10.9492638 17.8755261,10.7000449 17.6710058,10.3444952 L14.1710058,4.25049522 L10.6710058,10.3444952 C10.4665918,10.7006698 10.1174299,10.9503807 9.71430323,11.0287025 C9.31117656,11.1070243 8.89391428,11.0062186 8.57100582,10.7524952 L2.858,6.277 L2.85800582,16.6154952 C2.85855735,17.3961973 3.49130375,18.0289437 4.27200582,18.0294952 C5.05293645,18.0294952 5.68600582,18.6625646 5.68600582,19.4434952 C5.68600582,20.2244259 5.05293645,20.8574952 4.27200582,20.8574952 L4.27100582,20.8584952 C1.92951846,20.855739 0.0322100248,18.9579832 0.0300058167,16.6164952 L0.0293759574,3.63800629 C-0.00242083226,3.4845514 -0.00893223809,3.32466188 0.0124238849,3.16444912 C0.0803326095,2.65500065 0.419323048,2.22251572 0.897802381,2.0348808 C1.3477273,1.85844344 1.85436016,1.92463256 2.24256876,2.20544405 C2.27180992,2.22645282 2.30053261,2.24777753 2.32839053,2.27013549 L9.02700582,7.52049522 L12.9420058,0.708495223 C13.1946206,0.270131948 13.6620645,0 14.1680058,0 Z" id="path-1"></path>
    </defs>
    <g id="icon/crown" stroke="none" stroke-width="1" fill="none" fill-rule="evenodd">
        <g id="color/primary/500" transform="translate(2.000000, 6.000000)">
            <mask id="mask-2" fill="white">
                <use xlink:href="#path-1"></use>
            </mask>
            <g id="Mask" fill-rule="nonzero"></g>
            <g id="Group" mask="url(#mask-2)">
                <g transform="translate(-2.000000, -6.000000)" id="color/primary/500">
                    <rect id="Rectangle-Copy-4" fill="#9DAAB7" x="0" y="2.27373675e-15" width="32" height="32"></rect>
                </g>
            </g>
        </g>
    </g>
</svg>