<?xml version="1.0" encoding="UTF-8"?>
<svg width="32px" height="32px" viewBox="0 0 32 32" version="1.1" xmlns="http://www.w3.org/2000/svg" xmlns:xlink="http://www.w3.org/1999/xlink">
    <title>icon/description</title>
    <defs>
        <path d="M13.876,8.16585953e-07 C14.2413368,-0.000391834812 14.5926057,0.140832616 14.856,0.394001637 L22.376,7.62100164 C22.6533086,7.88745464 22.81,8.25542749 22.81,8.64000164 L22.8098603,9.69591622 C22.8099533,9.70260025 22.81,9.70929549 22.81,9.71600164 L22.809,9.735 L22.81,24.0400016 C22.8077958,26.3820419 20.9100396,28.2802454 18.568,28.2830016 L4.242,28.2830016 C1.90035029,28.2802464 0.00275520902,26.3826514 0,24.0410016 L0,4.24100164 C0.00275625053,1.89951428 1.90051206,0.00220584475 4.242,8.16585953e-07 L13.876,8.16585953e-07 Z M11.574,2.831 L4.242,2.83300164 C3.4616879,2.83355231 2.82910272,3.46569012 2.828,4.24600164 L2.828,24.0460016 C2.82855154,24.8267037 3.46129793,25.4594501 4.242,25.4600016 L18.568,25.4600016 C19.3487021,25.4594501 19.9814485,24.8267037 19.982,24.0460016 L19.982,11.13 L15.109,11.1300016 C13.1575872,11.1277973 11.5762044,9.54641442 11.574,7.59500164 L11.574,2.831 Z M17.192,19.3290016 C17.9729306,19.3290016 18.606,19.962071 18.606,20.7430016 C18.606,21.5239323 17.9729306,22.1570016 17.192,22.1570016 L5.355,22.1570016 C4.57406936,22.1570016 3.941,21.5239323 3.941,20.7430016 C3.941,19.962071 4.57406936,19.3290016 5.355,19.3290016 L17.192,19.3290016 Z M17.225,13.1020016 C17.7301737,13.1020016 18.1969734,13.3715083 18.4495603,13.8090015 C18.7021472,14.2464947 18.7021472,14.7855086 18.4495603,15.2230018 C18.1969734,15.660495 17.7301737,15.9300016 17.225,15.9300016 L5.388,15.9300016 C4.88282634,15.9300016 4.41602656,15.660495 4.16343968,15.2230018 C3.9108528,14.7855086 3.9108528,14.2464947 4.16343968,13.8090015 C4.41602656,13.3715083 4.88282634,13.1020016 5.388,13.1020016 L17.225,13.1020016 Z M8.664,6.87500164 C9.44493064,6.87500164 10.078,7.508071 10.078,8.28900164 C10.078,9.06993227 9.44493064,9.70300164 8.664,9.70300164 L5.355,9.70300164 C4.84982634,9.70300164 4.38302656,9.43349497 4.13043968,8.99600177 C3.8778528,8.55850858 3.8778528,8.01949469 4.13043968,7.5820015 C4.38302656,7.14450831 4.84982634,6.87500164 5.355,6.87500164 L8.664,6.87500164 Z M14.402,3.887 L14.402,7.59500164 C14.4025508,7.98523858 14.7187631,8.30145084 15.109,8.30200164 L18.993,8.302 L14.402,3.887 Z" id="path-1"></path>
    </defs>
    <g id="icon/description" stroke="none" stroke-width="1" fill="none" fill-rule="evenodd">
        <g id="color/primary/500" transform="translate(5.000000, 2.000000)">
            <mask id="mask-2" fill="white">
                <use xlink:href="#path-1"></use>
            </mask>
            <g id="Mask" fill-rule="nonzero"></g>
            <g id="Group" mask="url(#mask-2)">
                <g transform="translate(-5.000000, -2.000000)" id="color/primary/500">
                    <rect id="Rectangle-Copy-4" fill="#9DAAB7" x="0" y="2.27373675e-15" width="32" height="32"></rect>
                </g>
            </g>
        </g>
    </g>
</svg>