<?xml version="1.0" encoding="UTF-8"?>
<svg width="32px" height="32px" viewBox="0 0 32 32" version="1.1" xmlns="http://www.w3.org/2000/svg" xmlns:xlink="http://www.w3.org/1999/xlink">
    <title>icon/diamond</title>
    <defs>
        <path d="M17.3124313,0.000755165596 L24.9512496,0.00200226292 C25.4487742,0.00178834077 25.9098021,0.263062788 26.1652496,0.690002263 L31.4652496,9.55000226 C31.7787359,10.0748452 31.7194317,10.7417143 31.3182496,11.2030023 L16.9264929,27.7640711 C16.8543904,27.8518182 16.7723304,27.9300712 16.682408,27.9974841 C16.6762037,28.00038 16.6705905,28.0045437 16.6649486,28.008664 C16.6314634,28.0347027 16.5962831,28.0579445 16.5601256,28.0795783 C16.5534794,28.0822555 16.5474901,28.0857931 16.541476,28.0892857 C16.5066395,28.1106978 16.4701894,28.1297205 16.4329311,28.14714 C16.4228931,28.1508838 16.4125756,28.1555826 16.4022026,28.1601565 C16.3720216,28.1742941 16.3417389,28.186344 16.3110195,28.1973486 C16.3003503,28.2004735 16.2891768,28.2043437 16.2779528,28.2080739 L16.2671805,28.2123909 C16.128898,28.2571643 15.9821651,28.2810575 15.8312496,28.2810024 L15.719,28.274 L15.6929121,28.2734822 C15.6922354,28.2734169 15.6915588,28.2733513 15.6908823,28.2732851 L15.8312496,28.2810024 C15.7544412,28.2808118 15.6778958,28.2744468 15.6023437,28.2620263 C15.587589,28.2593947 15.5729939,28.2567892 15.5584647,28.253959 C15.5231725,28.2470775 15.491989,28.2397659 15.4610593,28.2314098 C15.4499981,28.2283926 15.4388144,28.2252302 15.4276805,28.221933 L15.4140315,28.2178387 C15.4037386,28.214677 15.3934772,28.2113981 15.3832496,28.2080023 L15.327995,28.1883221 C15.3190685,28.1849369 15.3101807,28.1814629 15.3013327,28.1779008 L15.273,28.164 L15.2521738,28.1569092 L15.2521738,28.1569092 L15.2295705,28.1466737 C15.2129477,28.1388862 15.196486,28.1307794 15.1801946,28.1223591 L15.1551047,28.108905 C15.1300639,28.0953028 15.1055512,28.0810043 15.0815839,28.0660421 C15.0760924,28.0628519 15.0705536,28.0593475 15.0650394,28.0558048 L15.0424884,28.0407261 C15.0248393,28.0288779 15.0075069,28.0166613 14.9904986,28.0040904 C14.9881645,28.0016625 14.9848506,27.9991932 14.9815468,27.9967087 C14.9646432,27.9851485 14.9486775,27.9726295 14.93298,27.9597655 C14.9155402,27.9448743 14.8985825,27.9302252 14.8820125,27.9152086 C14.8645321,27.9001581 14.8474854,27.8839885 14.8308335,27.8673828 C14.8183846,27.8539667 14.8059203,27.8409959 14.79372,27.827806 C14.7763699,27.8102563 14.7600963,27.791784 14.7442893,27.7728616 L0.346249593,11.2030023 C-0.054308613,10.7413598 -0.113190138,10.074708 0.200249593,9.55000226 L2.23924959,6.13900226 C2.63993222,5.46852868 3.50827588,5.24981985 4.17874951,5.65050241 C4.84922314,6.05118496 5.06793207,6.91952859 4.66724959,7.59000226 L3.15424959,10.1210023 L15.1311567,23.9025082 C15.5818442,22.1366389 16.2068106,19.6835369 16.8286788,17.2408486 L17.0068426,16.5409769 C17.450228,14.7991319 17.8833428,13.0967761 18.2412046,11.6894927 L16.3742496,11.6890023 C15.593319,11.6890023 14.9602496,11.0559329 14.9602496,10.2750023 C14.9602496,9.49407163 15.593319,8.86100226 16.3742496,8.86100226 L18.131,8.861 L16.228,2.829 L7.50724959,2.82900226 L6.61324959,4.32900226 C6.35740497,4.75303806 5.89848947,5.01245806 5.40324959,5.01300226 C4.89443058,5.01292072 4.42494856,4.73927826 4.17411005,4.29658554 C3.92327154,3.85389282 3.92981816,3.31052306 4.19124959,2.87400226 L5.49124959,0.690002263 C5.74669713,0.263062788 6.20772501,0.00178834077 6.70524959,0.00200226292 L17.2262121,0.000566882827 C17.2548823,-0.000245368212 17.2836348,-0.000186615133 17.3124313,0.000755165596 Z M27.147,11.689 L21.1598693,11.6898137 C20.0532271,16.0396327 19.2552641,19.1739545 18.6794286,21.4337889 L27.147,11.689 Z M12.8092496,8.86100226 C13.5901802,8.86100226 14.2232496,9.49407163 14.2232496,10.2750023 C14.2232496,11.0559329 13.5901802,11.6890023 12.8092496,11.6890023 L11.9742496,11.6890023 C11.193319,11.6890023 10.5602496,11.0559329 10.5602496,10.2750023 C10.5602496,9.49407163 11.193319,8.86100226 11.9742496,8.86100226 L12.8092496,8.86100226 Z M24.1502496,2.82900226 L19.197,2.829 L21.103,8.861 L27.757,8.861 L24.1502496,2.82900226 Z" id="path-1"></path>
    </defs>
    <g id="icon/diamond" stroke="none" stroke-width="1" fill="none" fill-rule="evenodd">
        <g id="color/primary/500" transform="translate(-0.000000, 2.000000)">
            <mask id="mask-2" fill="white">
                <use xlink:href="#path-1"></use>
            </mask>
            <g id="Mask" fill-rule="nonzero"></g>
            <g id="Group" mask="url(#mask-2)">
                <g transform="translate(0.000000, -2.000000)" id="color/primary/500">
                    <rect id="Rectangle-Copy-4" fill="#9DAAB7" x="0" y="2.27373675e-15" width="32" height="32"></rect>
                </g>
            </g>
        </g>
    </g>
</svg>