<?xml version="1.0" encoding="UTF-8"?>
<svg width="32px" height="32px" viewBox="0 0 32 32" version="1.1" xmlns="http://www.w3.org/2000/svg" xmlns:xlink="http://www.w3.org/1999/xlink">
    <title>icon/done_all</title>
    <defs>
        <path d="M21.3072135,0.414213562 C21.8594982,0.966498288 21.8594983,1.86192874 21.3072136,2.4142135 L12.997,10.723 L14.2762136,12.0022135 L25.8692136,0.416213499 C26.4214983,-0.136071251 27.3169288,-0.136071251 27.8692136,0.416213499 C28.4214983,0.968498249 28.4214983,1.86392875 27.8692136,2.4162135 L15.2762136,15.0082135 C15.0102427,15.2715461 14.6504863,15.4183268 14.2762136,15.416236 C13.9010574,15.4168453 13.5411392,15.2678391 13.2762136,15.0022135 L10.0178001,11.7453568 C10.0038504,11.7320026 9.99016312,11.7183521 9.97674883,11.7044122 L6.97621356,8.7022135 C6.42392881,8.14992875 6.42392881,7.25449825 6.97621356,6.7022135 C7.52849831,6.14992875 8.42392881,6.14992875 8.97621356,6.7022135 L10.997,8.723 L19.3072136,0.414213499 C19.8594983,-0.138071191 20.7549288,-0.138071163 21.3072135,0.414213562 Z M2.41421356,6.7022135 L8.71421356,13.0022135 C9.11905412,13.4063581 9.24028105,14.014722 9.0212772,14.5431783 C8.80227335,15.0716346 8.28625226,15.415909 7.71421356,15.4152135 L7.71421356,15.4162171 C7.33901348,15.4170672 6.97901333,15.2680272 6.71421356,15.0022135 L0.414213562,8.7022135 C-0.138071187,8.14992875 -0.138071187,7.25449825 0.414213562,6.7022135 C0.966498312,6.14992875 1.86192881,6.14992875 2.41421356,6.7022135 Z" id="path-1"></path>
    </defs>
    <g id="icon/done_all" stroke="none" stroke-width="1" fill="none" fill-rule="evenodd">
        <g id="color/primary/500" transform="translate(2.000000, 8.000000)">
            <mask id="mask-2" fill="white">
                <use xlink:href="#path-1"></use>
            </mask>
            <g id="Mask" fill-rule="nonzero"></g>
            <g id="Group" mask="url(#mask-2)">
                <g transform="translate(-2.000000, -8.000000)" id="color/primary/500">
                    <rect id="Rectangle-Copy-4" fill="#9DAAB7" x="0" y="2.27373675e-15" width="32" height="32"></rect>
                </g>
            </g>
        </g>
    </g>
</svg>