<?xml version="1.0" encoding="UTF-8"?>
<svg width="32px" height="32px" viewBox="0 0 32 32" version="1.1" xmlns="http://www.w3.org/2000/svg" xmlns:xlink="http://www.w3.org/1999/xlink">
    <title>icon/double_cheveron_left</title>
    <defs>
        <path d="M13.7954752,27.5692187 C13.4204412,27.5702211 13.0605024,27.4215664 12.7954752,27.1562136 L0.413475187,14.7852136 C-0.137825062,14.2325214 -0.137825062,13.3379057 0.413475187,12.7852136 L12.7954752,0.414213562 C13.3477599,-0.138071187 14.2431904,-0.138071187 14.7954752,0.414213562 C15.3477599,0.966498312 15.3477599,1.86192881 14.7954752,2.41421356 L3.41447519,13.7842136 L14.7954752,25.1552136 C15.2010337,25.5592629 15.3227176,26.1680929 15.1036224,26.6969887 C14.8845272,27.2258845 14.3679543,27.5703165 13.7954752,27.5692187 L13.7954752,27.5692187 Z" id="path-1"></path>
        <path d="M13.7954752,27.5692187 C13.4204412,27.5702211 13.0605024,27.4215664 12.7954752,27.1562136 L0.413475187,14.7852136 C-0.137825062,14.2325214 -0.137825062,13.3379057 0.413475187,12.7852136 L12.7954752,0.414213562 C13.3477599,-0.138071187 14.2431904,-0.138071187 14.7954752,0.414213562 C15.3477599,0.966498312 15.3477599,1.86192881 14.7954752,2.41421356 L3.41447519,13.7842136 L14.7954752,25.1552136 C15.2010337,25.5592629 15.3227176,26.1680929 15.1036224,26.6969887 C14.8845272,27.2258845 14.3679543,27.5703165 13.7954752,27.5692187 L13.7954752,27.5692187 Z" id="path-3"></path>
    </defs>
    <g id="icon/double_cheveron_left" stroke="none" stroke-width="1" fill="none" fill-rule="evenodd">
        <g id="Group" transform="translate(3.000000, 2.000000)">
            <g id="Mask" transform="translate(10.000000, 0.000000)">
                <mask id="mask-2" fill="white">
                    <use xlink:href="#path-1"></use>
                </mask>
                <g fill-rule="nonzero"></g>
                <g id="Group" mask="url(#mask-2)">
                    <g transform="translate(-8.000000, -2.000000)" id="color/primary/500">
                        <rect id="Rectangle-Copy-4" fill="#9DAAB7" x="0" y="2.27373675e-15" width="32" height="32"></rect>
                    </g>
                </g>
            </g>
            <g id="Mask-Copy">
                <mask id="mask-4" fill="white">
                    <use xlink:href="#path-3"></use>
                </mask>
                <g id="Mask" fill-rule="nonzero"></g>
                <g id="Group" mask="url(#mask-4)">
                    <g transform="translate(-8.000000, -2.000000)" id="color/primary/500">
                        <rect id="Rectangle-Copy-4" fill="#9DAAB7" x="0" y="2.27373675e-15" width="32" height="32"></rect>
                    </g>
                </g>
            </g>
        </g>
    </g>
</svg>