<?xml version="1.0" encoding="UTF-8"?>
<svg width="32px" height="32px" viewBox="0 0 32 32" version="1.1" xmlns="http://www.w3.org/2000/svg" xmlns:xlink="http://www.w3.org/1999/xlink">
    <title>icon/double_cheveron_Down</title>
    <defs>
        <path d="M13.7852136,15.2102136 C13.4101886,15.2102136 13.0505139,15.0612785 12.7852136,14.7962136 L0.414213562,2.41421356 C-0.138071187,1.86192881 -0.138071187,0.966498312 0.414213562,0.414213562 C0.966498312,-0.138071187 1.86192881,-0.138071187 2.41421356,0.414213562 L13.7852136,11.7952136 L25.1562136,0.414213562 C25.7084983,-0.138071187 26.6039288,-0.138071187 27.1562136,0.414213562 C27.7084983,0.966498312 27.7084983,1.86192881 27.1562136,2.41421356 L14.7852136,14.7962136 C14.5197892,15.0610928 14.1601949,15.2099648 13.7852136,15.2102136 L13.7852136,15.2102136 Z" id="path-1"></path>
        <path d="M13.7852136,15.2102136 C13.4101886,15.2102136 13.0505139,15.0612785 12.7852136,14.7962136 L0.414213562,2.41421356 C-0.138071187,1.86192881 -0.138071187,0.966498312 0.414213562,0.414213562 C0.966498312,-0.138071187 1.86192881,-0.138071187 2.41421356,0.414213562 L13.7852136,11.7952136 L25.1562136,0.414213562 C25.7084983,-0.138071187 26.6039288,-0.138071187 27.1562136,0.414213562 C27.7084983,0.966498312 27.7084983,1.86192881 27.1562136,2.41421356 L14.7852136,14.7962136 C14.5197892,15.0610928 14.1601949,15.2099648 13.7852136,15.2102136 L13.7852136,15.2102136 Z" id="path-3"></path>
    </defs>
    <g id="icon/double_cheveron_Down" stroke="none" stroke-width="1" fill="none" fill-rule="evenodd">
        <g id="Group" transform="translate(2.000000, 3.000000)">
            <g id="color/primary/500" transform="translate(0.000000, 10.000000)">
                <mask id="mask-2" fill="white">
                    <use xlink:href="#path-1"></use>
                </mask>
                <g id="Mask" fill-rule="nonzero"></g>
                <g id="Group" mask="url(#mask-2)">
                    <g transform="translate(-2.000000, -8.000000)" id="color/primary/500">
                        <rect id="Rectangle-Copy-4" fill="#9DAAB7" x="0" y="2.27373675e-15" width="32" height="32"></rect>
                    </g>
                </g>
            </g>
            <g id="color/primary/500-copy">
                <mask id="mask-4" fill="white">
                    <use xlink:href="#path-3"></use>
                </mask>
                <g id="Mask" fill-rule="nonzero"></g>
                <g id="Group" mask="url(#mask-4)">
                    <g transform="translate(-2.000000, -8.000000)" id="color/primary/500">
                        <rect id="Rectangle-Copy-4" fill="#9DAAB7" x="0" y="2.27373675e-15" width="32" height="32"></rect>
                    </g>
                </g>
            </g>
        </g>
    </g>
</svg>