<?xml version="1.0" encoding="UTF-8"?>
<svg width="32px" height="32px" viewBox="0 0 32 32" version="1.1" xmlns="http://www.w3.org/2000/svg" xmlns:xlink="http://www.w3.org/1999/xlink">
    <title>icon/download</title>
    <defs>
        <path d="M4.10516576,15.4682248 C4.60760627,15.5627491 5.01989069,15.9211313 5.18343626,16.4055218 C5.34698184,16.8899122 5.23631382,17.4248597 4.894,17.8045999 L3.157,19.8045999 C2.94505193,20.0492037 2.82826233,20.3619442 2.828,20.6855999 L2.828,24.6455999 C2.82855182,25.1102331 3.20536649,25.4866002 3.67,25.4865999 L23.97,25.4865999 C24.4346335,25.4866002 24.8114482,25.1102331 24.812,24.6455999 L24.812,20.6855999 C24.8118195,20.3617506 24.6946237,20.0488733 24.482,19.8045999 L22.746,17.8045999 C22.2507763,17.2136908 22.320206,16.3349825 22.9020847,15.8291789 C23.4839633,15.3233753 24.3637811,15.3769411 24.88,15.9495999 L26.617,17.9495999 C27.2758791,18.7088588 27.639,19.680316 27.639,20.6855999 L27.639,24.6455999 C27.6362446,26.6706282 25.995029,28.3113964 23.97,28.3135999 L3.67,28.3135999 C1.64419059,28.3119464 0.00220548924,26.6704087 0,24.6445999 L0,20.6845999 C0,19.679385 0.363277016,18.7080341 1.023,17.9495999 L2.76,15.9495999 C3.08839153,15.5577577 3.60272525,15.3737005 4.10516576,15.4682248 Z M14.5363275,0.195755495 C14.9792901,0.456762822 15.2456716,0.937640936 15.232,1.45159987 L15.231,14.103 L19.419,9.91659987 C19.9712847,9.36431512 20.8667153,9.36431512 21.419,9.91659987 C21.9712847,10.4688846 21.9712847,11.3643151 21.419,11.9165999 L14.819,18.5165999 C14.5540744,18.7822255 14.1941562,18.9312316 13.819,18.9306019 C13.4438657,18.9311209 13.0839883,18.7821317 12.819,18.5165999 L6.219,11.9165999 C5.66671525,11.3643151 5.66671525,10.4688846 6.219,9.91659987 C6.77128475,9.36431512 7.66671525,9.36431512 8.219,9.91659987 L12.404,14.102 L12.405,1.45159987 C12.3913284,0.937640936 12.6577099,0.456762822 13.1006725,0.195755495 C13.5436351,-0.0652518318 14.0933649,-0.0652518318 14.5363275,0.195755495 Z" id="path-1"></path>
    </defs>
    <g id="icon/download" stroke="none" stroke-width="1" fill="none" fill-rule="evenodd">
        <g id="color/primary/500" transform="translate(2.000000, 2.000000)">
            <mask id="mask-2" fill="white">
                <use xlink:href="#path-1"></use>
            </mask>
            <g id="Mask" fill-rule="nonzero"></g>
            <g id="Group" mask="url(#mask-2)">
                <g transform="translate(-2.000000, -2.000000)" id="color/primary/500">
                    <rect id="Rectangle-Copy-4" fill="#9DAAB7" x="0" y="2.27373675e-15" width="32" height="32"></rect>
                </g>
            </g>
        </g>
    </g>
</svg>