<svg width="12" height="13" viewBox="0 0 12 13" fill="none" xmlns="http://www.w3.org/2000/svg">
<path fill-rule="evenodd" clip-rule="evenodd" d="M6.21797 1.3627C3.77756 1.3627 1.79922 3.34104 1.79922 5.78145C1.79922 6.11972 1.52499 6.39395 1.18672 6.39395C0.848444 6.39395 0.574219 6.11972 0.574219 5.78145C0.574219 2.66449 3.10101 0.137695 6.21797 0.137695C9.33493 0.137695 11.8617 2.66449 11.8617 5.78145C11.8617 8.8984 9.33493 11.4252 6.21797 11.4252C4.99106 11.4252 3.85525 11.0333 2.9295 10.3686L3.10557 11.6011C3.15341 11.9359 2.92072 12.2462 2.58584 12.294C2.25097 12.3419 1.94072 12.1092 1.89288 11.7743L1.45538 8.71182C1.43027 8.53604 1.48267 8.35802 1.59901 8.22388C1.71534 8.08975 1.88416 8.0127 2.06172 8.0127H5.12422C5.4625 8.0127 5.73672 8.28692 5.73672 8.6252C5.73672 8.96347 5.4625 9.2377 5.12422 9.2377H3.46449C4.22 9.84054 5.17673 10.2002 6.21797 10.2002C8.65838 10.2002 10.6367 8.22185 10.6367 5.78145C10.6367 3.34104 8.65838 1.3627 6.21797 1.3627ZM6.61172 2.9377C6.61172 2.59942 6.33749 2.3252 5.99922 2.3252C5.66094 2.3252 5.38672 2.59942 5.38672 2.9377L5.38672 6.0002C5.38672 6.33847 5.66094 6.6127 5.99922 6.6127H9.06172C9.39999 6.6127 9.67422 6.33847 9.67422 6.0002C9.67422 5.66192 9.39999 5.3877 9.06172 5.3877H6.61172L6.61172 2.9377Z" fill="#1678FF"/>
</svg>
