<?xml version="1.0" encoding="UTF-8"?>
<svg width="32px" height="32px" viewBox="0 0 32 32" version="1.1" xmlns="http://www.w3.org/2000/svg" xmlns:xlink="http://www.w3.org/1999/xlink">
    <title>icon/edit</title>
    <defs>
        <path d="M26.6265254,1.65463675 C28.833179,3.86101413 28.833403,7.43848247 26.6270259,9.64513627 L10.3270259,25.9451363 C10.1436332,26.1286632 9.9131889,26.2580719 9.66102592,26.3191363 L1.74702592,28.2411363 C1.63807081,28.2681024 1.52626814,28.2821363 1.41402592,28.2821363 C0.980220245,28.2821363 0.57041869,28.0830158 0.302335263,27.7419606 C0.0342518348,27.4009054 -0.0624430268,26.9556662 0.0400259243,26.5341363 L0.68918027,23.8564184 C0.684229907,23.723958 0.697887089,23.5896896 0.731297148,23.4574261 C0.76254911,23.3337061 0.809844298,23.2166501 0.870875653,23.1085596 L1.96202592,18.6211363 C2.02381048,18.3692571 2.15311614,18.1389962 2.33602592,17.9551363 L18.6360259,1.65513627 C20.8424036,-0.551516999 24.4198719,-0.551740642 26.6265254,1.65463675 Z M26.8650259,25.4541363 C27.6459566,25.4541363 28.2790259,26.0872056 28.2790259,26.8681363 C28.2790259,27.6490669 27.6459566,28.2821363 26.8650259,28.2821363 L11.9910259,28.2821363 C11.2100953,28.2821363 10.5770259,27.6490669 10.5770259,26.8681363 C10.5770259,26.0872056 11.2100953,25.4541363 11.9910259,25.4541363 L26.8650259,25.4541363 Z M17.9313889,6.35534158 L4.61402592,19.6741363 L3.706,23.412 L4.864,24.575 L8.60502592,23.6661363 L21.543,10.727 L18.3360259,7.52013627 C18.0178955,7.20200582 17.8830165,6.77001753 17.9313889,6.35534158 Z M20.6290259,3.65813627 L19.1714476,5.11547405 C19.5860575,5.06717375 20.0179508,5.20206116 20.3360259,5.52013627 L23.543,8.728 L24.6210259,7.64913627 C25.3339495,6.93603417 25.6122826,5.89676044 25.3511798,4.92279948 C25.090077,3.94883852 24.329206,3.18815818 23.3551797,2.9272994 C22.3811534,2.66644062 21.3419494,2.94503406 20.6290259,3.65813627 Z" id="path-1"></path>
    </defs>
    <g id="icon/edit" stroke="none" stroke-width="1" fill="none" fill-rule="evenodd">
        <g id="color/primary/500" transform="translate(2.000000, 2.000000)">
            <mask id="mask-2" fill="white">
                <use xlink:href="#path-1"></use>
            </mask>
            <g id="Mask" fill-rule="nonzero"></g>
            <g id="Group" mask="url(#mask-2)">
                <g transform="translate(-2.000000, -2.000000)" id="color/primary/500">
                    <rect id="Rectangle-Copy-4" fill="#9DAAB7" x="0" y="2.27373675e-15" width="32" height="32"></rect>
                </g>
            </g>
        </g>
    </g>
</svg>