<?xml version="1.0" encoding="UTF-8"?>
<svg width="32px" height="32px" viewBox="0 0 32 32" version="1.1" xmlns="http://www.w3.org/2000/svg" xmlns:xlink="http://www.w3.org/1999/xlink">
    <title>icon/emoji_event</title>
    <defs>
        <path d="M19.5685021,0 C21.5199149,0.0022043656 23.1012977,1.58358722 23.1036683,3.535 L23.1036683,9.89 C23.1311495,14.6510995 19.7106707,18.6456478 15.1574803,19.4674877 L15.157,24.025 L18.1775021,24.026 C18.2422546,23.2926297 18.849412,22.726007 19.5855021,22.712 C19.9567872,22.704221 20.3156427,22.8458738 20.5815083,23.1051586 C20.8473739,23.3644434 20.9979748,23.7196366 20.9995021,24.091 L20.9995021,24.16 C20.9962024,25.6464862 19.7919883,26.8507004 18.3055021,26.854 L9.18150208,26.854 C7.69501587,26.8507004 6.49080173,25.6464862 6.48749218,24.16 C6.48461369,23.3722986 7.11395432,22.7278253 7.90150208,22.712 C8.64991523,22.6969382 9.27525548,23.2784648 9.31450208,24.026 L12.329,24.025 L12.3296368,19.4673588 C7.77683189,18.6451485 4.35685579,14.6507581 4.38450208,9.89 L4.38450208,2.627 C4.37083049,2.11304107 4.63721197,1.63216296 5.08017457,1.37115563 C5.52313718,1.1101483 6.07286698,1.1101483 6.51582958,1.37115563 C6.95879219,1.63216296 7.22517366,2.11304107 7.21150208,2.627 L7.21150208,9.89 C7.07754778,12.3099065 8.29241488,14.6055784 10.3686313,15.855865 C12.4448478,17.1061515 15.0421564,17.1061515 17.1183728,15.855865 C19.1945893,14.6055784 20.4094564,12.3099065 20.2755021,9.89 L20.2755021,3.535 C20.2749513,3.14476306 19.958739,2.82855079 19.5685021,2.828 L9.95250208,2.828 C9.17157144,2.828 8.53850208,2.19493064 8.53850208,1.414 C8.53850208,0.633069364 9.17157144,0 9.95250208,0 L19.5685021,0 Z M26.0735021,3.513 C26.8544327,3.513 27.4875021,4.14606936 27.4875021,4.927 L27.4875021,11.667 C27.4875021,12.0420161 27.3385275,12.4016725 27.0733511,12.666849 C26.8081746,12.9320254 26.4485182,13.081 26.0735021,13.081 C25.2925714,13.081 24.6595021,12.4479306 24.6595021,11.667 L24.6595021,4.927 C24.6595021,4.14606936 25.2925714,3.513 26.0735021,3.513 Z M2.13182958,3.67115563 C2.57479219,3.93216296 2.84117366,4.41304107 2.82750208,4.927 L2.82750208,11.667 C2.82750227,12.4475403 2.19504216,13.080448 1.41450208,13.081 C0.633571442,13.081 0.000502078055,12.4479306 0.000502078055,11.667 L0.000502078055,4.927 C-0.0131695084,4.41304107 0.253211968,3.93216296 0.696174573,3.67115563 C1.13913718,3.4101483 1.68886698,3.4101483 2.13182958,3.67115563 Z" id="path-1"></path>
    </defs>
    <g id="icon/emoji_event" stroke="none" stroke-width="1" fill="none" fill-rule="evenodd">
        <g id="color/primary/500" transform="translate(2.000000, 3.000000)">
            <mask id="mask-2" fill="white">
                <use xlink:href="#path-1"></use>
            </mask>
            <g id="Mask" fill-rule="nonzero"></g>
            <g id="Group" mask="url(#mask-2)">
                <g transform="translate(-2.000000, -3.000000)" id="color/primary/500">
                    <rect id="Rectangle-Copy-4" fill="#9DAAB7" x="0" y="2.27373675e-15" width="32" height="32"></rect>
                </g>
            </g>
        </g>
    </g>
</svg>