<?xml version="1.0" encoding="UTF-8"?>
<svg width="32px" height="32px" viewBox="0 0 32 32" version="1.1" xmlns="http://www.w3.org/2000/svg" xmlns:xlink="http://www.w3.org/1999/xlink">
    <title>icon/feed</title>
    <defs>
        <path d="M19.255,0 C21.2064128,0.0022043656 22.7877956,1.58358722 22.79,3.535 L22.79,18.347 C22.79,19.0513496 23.3371095,19.6279149 24.0295395,19.6749068 L24.123,19.673 L24.172,19.675 L24.2491842,19.6719071 C24.924136,19.6074115 25.452,19.0388504 25.452,18.347 L25.452,5.647 C24.6843278,5.61916801 24.079299,4.98353424 24.0893521,4.21542343 C24.0994052,3.44731262 24.7208623,2.82773119 25.489,2.82 L26.866,2.82 C27.6465401,2.82055201 28.279,3.45345972 28.279,4.234 L28.279,18.351 C28.2747267,20.5744973 26.5269245,22.3882871 24.330217,22.4986805 L24.123,22.504 L4.243,22.504 C1.90135029,22.5012448 0.00375520902,20.6036497 0.001,18.262 L0.001,7.159 C0.001,6.37806936 0.634069364,5.745 1.415,5.745 C2.19593064,5.745 2.829,6.37806936 2.829,7.159 L2.829,18.259 C2.82955154,19.0397021 3.46229793,19.6724485 4.243,19.673 L20.1800185,19.6740696 C20.0392613,19.2573651 19.9626688,18.8110927 19.962,18.347 L19.962,3.535 C19.9614492,3.14476306 19.6452369,2.82855079 19.255,2.828 L3.535,2.828 C3.14476306,2.82855079 2.82855079,3.14476306 2.828,3.535 C2.828,4.31593064 2.19493064,4.949 1.414,4.949 C0.633069364,4.949 0,4.31593064 0,3.535 C0.0022043656,1.58358722 1.58358722,0.0022043656 3.535,0 L19.255,0 Z M15.887,14.487 C16.6676545,14.487 17.3005,15.1198455 17.3005,15.9005 C17.3005,16.6811545 16.6676545,17.314 15.887,17.314 L6.726,17.314 C5.94534551,17.314 5.3125,16.6811545 5.3125,15.9005 C5.3125,15.1198455 5.94534551,14.487 6.726,14.487 L15.887,14.487 Z M15.976,9.838 C16.7569305,9.838 17.3899998,10.4710695 17.3899998,11.252 C17.3899998,12.0329305 16.7569305,12.666 15.976,12.666 L6.815,12.666 C6.03406946,12.666 5.40100024,12.0329305 5.40100024,11.252 C5.40100024,10.4710695 6.03406946,9.838 6.815,9.838 L15.976,9.838 Z M15.935,5.19 C16.7159306,5.19 17.349,5.82306936 17.349,6.604 C17.349,7.38493064 16.7159306,8.018 15.935,8.018 L6.774,8.018 C5.99306946,8.018 5.36000024,7.38493054 5.36000024,6.604 C5.36000024,5.82306946 5.99306946,5.19 6.774,5.19 L15.935,5.19 Z" id="path-1"></path>
    </defs>
    <g id="icon/feed" stroke="none" stroke-width="1" fill="none" fill-rule="evenodd">
        <g id="color/primary/500" transform="translate(2.028006, 5.002002)">
            <mask id="mask-2" fill="white">
                <use xlink:href="#path-1"></use>
            </mask>
            <g id="Mask" fill-rule="nonzero"></g>
            <g id="Group" mask="url(#mask-2)">
                <g transform="translate(-2.028006, -5.002002)" id="color/primary/500">
                    <rect id="Rectangle-Copy-4" fill="#9DAAB7" x="0" y="2.27373675e-15" width="32" height="32"></rect>
                </g>
            </g>
        </g>
    </g>
</svg>