<?xml version="1.0" encoding="UTF-8"?>
<svg width="32px" height="32px" viewBox="0 0 32 32" version="1.1" xmlns="http://www.w3.org/2000/svg" xmlns:xlink="http://www.w3.org/1999/xlink">
    <title>icon/file_add</title>
    <defs>
        <path d="M13.877,0 C14.2422965,0 14.5934905,0.141009414 14.857,0.394000182 L22.376,7.62100018 C22.6532113,7.88752033 22.81,8.25544968 22.81,8.64000018 L22.81,11.3550002 C22.81,12.1359308 22.1769306,12.7690002 21.396,12.7690002 C20.6150694,12.7690002 19.982,12.1359308 19.982,11.3550002 L19.981,11.13 L15.109,11.1300002 C13.1575872,11.1277958 11.5762044,9.54641296 11.574,7.59500018 L11.573,2.828 L4.242,2.82800018 C3.46191569,2.82910025 2.82965195,3.46091685 2.828,4.24100018 L2.828,24.0410002 C2.82910159,24.8214741 3.46152611,25.4538986 4.242,25.4550002 L18.569,25.4550002 C19.3499306,25.4550002 19.983,26.0880695 19.983,26.8690002 C19.983,27.6499308 19.3499306,28.2830002 18.569,28.2830002 L4.242,28.2830002 C1.90035029,28.280245 0.00275520902,26.3826499 0,24.0410002 L0,4.24100018 C0.00275625053,1.89951282 1.90051206,0.00220438989 4.242,0 L13.877,0 Z M22.1410001,13.88444 C22.5784933,14.1370268 22.848,14.6038266 22.848,15.1090002 L22.847,18.355 L25.931,18.3550002 C26.7119306,18.3550002 27.345,18.9880695 27.345,19.7690002 C27.345,20.5499308 26.7119306,21.1830002 25.931,21.1830002 L22.847,21.183 L22.848,24.4270002 C22.848,25.2079308 22.2149306,25.8410002 21.434,25.8410002 C20.6530694,25.8410002 20.02,25.2079308 20.02,24.4270002 L20.019,21.183 L16.745,21.1830002 C15.9640694,21.1830002 15.331,20.5499308 15.331,19.7690002 C15.331,18.9880695 15.9640694,18.3550002 16.745,18.3550002 L20.019,18.355 L20.02,15.1090002 C20.02,14.6038266 20.2895067,14.1370268 20.7269999,13.88444 C21.1644931,13.6318531 21.7035069,13.6318531 22.1410001,13.88444 Z M14.401,3.879 L14.402,7.59500018 C14.4025508,7.98523713 14.7187631,8.30144939 15.109,8.30200018 L19.003,8.302 L14.401,3.879 Z" id="path-1"></path>
    </defs>
    <g id="icon/file_add" stroke="none" stroke-width="1" fill="none" fill-rule="evenodd">
        <g id="color/primary/500" transform="translate(2.000000, 2.000000)">
            <mask id="mask-2" fill="white">
                <use xlink:href="#path-1"></use>
            </mask>
            <g id="Mask" fill-rule="nonzero"></g>
            <g id="Group" mask="url(#mask-2)">
                <g transform="translate(-2.000000, -2.000000)" id="color/primary/500">
                    <rect id="Rectangle-Copy-4" fill="#9DAAB7" x="0" y="2.27373675e-15" width="32" height="32"></rect>
                </g>
            </g>
        </g>
    </g>
</svg>