<?xml version="1.0" encoding="UTF-8"?>
<svg width="32px" height="32px" viewBox="0 0 32 32" version="1.1" xmlns="http://www.w3.org/2000/svg" xmlns:xlink="http://www.w3.org/1999/xlink">
    <title>icon/file</title>
    <defs>
        <path d="M13.877,0 C14.2422965,0 14.5934905,0.141009414 14.857,0.394000182 L22.376,7.62100018 C22.6531141,7.88758735 22.81,8.25547331 22.81,8.64000018 L22.81,24.0400002 C22.8077958,26.3820404 20.9100396,28.2802439 18.568,28.2830002 L4.242,28.2830002 C1.90035029,28.280245 0.00275520902,26.3826499 0,24.0410002 L0,4.24100018 C0.00275625053,1.89951282 1.90051206,0.00220438989 4.242,0 L13.877,0 Z M4.242,2.83300018 C3.4616879,2.83355086 2.82910272,3.46568867 2.828,4.24600018 L2.828,24.0460002 C2.82855154,24.8267022 3.46129793,25.4594486 4.242,25.4600002 L18.568,25.4600002 C19.3487021,25.4594486 19.9814485,24.8267022 19.982,24.0460002 L19.981,11.13 L15.105,11.1300002 C13.1535872,11.1277958 11.5722044,9.54641296 11.57,7.59500018 L11.569,2.837 L4.242,2.83300018 Z M18.992,8.302 L14.397,3.886 L14.398,7.59500018 C14.3985508,7.98523713 14.7147631,8.30144939 15.105,8.30200018 L18.992,8.302 Z" id="path-1"></path>
    </defs>
    <g id="icon/file" stroke="none" stroke-width="1" fill="none" fill-rule="evenodd">
        <g id="color/primary/500" transform="translate(5.000000, 2.000000)">
            <mask id="mask-2" fill="white">
                <use xlink:href="#path-1"></use>
            </mask>
            <g id="Mask" fill-rule="nonzero"></g>
            <g id="Group" mask="url(#mask-2)">
                <g transform="translate(-5.000000, -2.000000)" id="color/primary/500">
                    <rect id="Rectangle-Copy-4" fill="#9DAAB7" x="0" y="2.27373675e-15" width="32" height="32"></rect>
                </g>
            </g>
        </g>
    </g>
</svg>