<?xml version="1.0" encoding="UTF-8"?>
<svg width="32px" height="32px" viewBox="0 0 32 32" version="1.1" xmlns="http://www.w3.org/2000/svg" xmlns:xlink="http://www.w3.org/1999/xlink">
    <title>icon/filter</title>
    <defs>
        <path d="M9.059,28.284 C8.27806936,28.284 7.645,27.6509306 7.645,26.87 L7.645,15.595 C7.64404914,15.206478 7.48394614,14.8353137 7.202,14.568 L1.329,9.016 C0.482265648,8.21385479 0.00183577529,7.0993587 0,5.933 L0,1.418 C0,0.637069364 0.633069364,0.004 1.414,0.004 C2.19493064,0.004 2.828,0.637069364 2.828,1.418 L2.828,5.933 C2.82902866,6.32179676 2.9890968,6.69324158 3.271,6.961 L9.144,12.512 C9.99053756,13.3142827 10.4709292,14.42869 10.473,15.595 L10.473,24.784 L14.357,23.238 L14.357,15.6 C14.3586247,14.4294399 14.8426335,13.3112998 15.695,12.509 L21.603,6.959 C21.8866905,6.69107329 22.0476251,6.3182113 22.048,5.928 L22.048,2.828 L5.915,2.828 C5.13406936,2.828 4.501,2.19493064 4.501,1.414 C4.501,0.633069364 5.13406936,0 5.915,0 L23.462,0 C24.2429306,0 24.876,0.633069364 24.876,1.414 L24.876,5.924 C24.8741761,7.09480923 24.3902224,8.21318341 23.538,9.016 L17.631,14.566 C17.3471929,14.8335158 17.1859094,15.2059867 17.185,15.596 L17.185,24.196 C17.184836,24.7750499 16.8318824,25.2955674 16.294,25.51 L9.582,28.182 C9.41569244,28.2487908 9.23821736,28.2834035 9.059,28.284 Z" id="path-1"></path>
    </defs>
    <g id="icon/filter" stroke="none" stroke-width="1" fill="none" fill-rule="evenodd">
        <g id="color/primary/500" transform="translate(4.000000, 2.000000)">
            <mask id="mask-2" fill="white">
                <use xlink:href="#path-1"></use>
            </mask>
            <g id="Mask" fill-rule="nonzero"></g>
            <g id="Group" mask="url(#mask-2)">
                <g transform="translate(-4.000000, -2.000000)" id="color/primary/500">
                    <rect id="Rectangle-Copy-4" fill="#9DAAB7" x="0" y="2.27373675e-15" width="32" height="32"></rect>
                </g>
            </g>
        </g>
    </g>
</svg>