<?xml version="1.0" encoding="UTF-8"?>
<svg width="32px" height="32px" viewBox="0 0 32 32" version="1.1" xmlns="http://www.w3.org/2000/svg" xmlns:xlink="http://www.w3.org/1999/xlink">
    <title>icon/fire</title>
    <defs>
        <path d="M11.4728884,28.2797433 C5.14020936,28.2731301 0.00805358375,23.1414217 0.000888378473,16.8087433 C-0.0222441012,14.9985716 0.406715104,13.2112416 1.24888838,11.6087433 C1.62388838,10.9197433 2.03488838,10.3087433 2.39788838,9.77774331 C3.32888838,8.40074331 3.94688838,7.48674331 3.82588838,5.84374331 C3.82588838,5.81174331 3.81888838,5.77974331 3.81788838,5.74374331 C3.77648502,4.96935273 4.36069444,4.30346054 5.13388838,4.24374331 C5.39028845,4.22718105 5.64630167,4.28149737 5.87388838,4.40074331 C7.01164144,4.83423225 8.04835169,5.496556 8.91988838,6.34674331 C8.91988838,6.13940998 8.92155505,5.92107665 8.92488838,5.69174331 C8.9772889,4.39055663 8.88505721,3.08757438 8.64988838,1.80674331 C8.51126175,1.31168458 8.65044116,0.780345599 9.01396591,0.416820847 C9.37749066,0.0532960954 9.90882965,-0.0858833126 10.4038884,0.0527433143 C18.3738884,2.38874331 22.9448884,8.49374331 22.9448884,16.8027433 C22.9410304,23.1377648 17.8079076,28.2731248 11.4728884,28.2797433 Z M6.46488838,7.95974331 C6.10254608,9.19132561 5.51754829,10.3460692 4.73888838,11.3667433 C4.39688838,11.8737433 4.03888838,12.3967433 3.73188838,12.9667433 C3.11767125,14.1528663 2.80837223,15.4732294 2.83188838,16.8087433 C2.83188838,21.5829688 6.70216286,25.4532433 11.4763884,25.4532433 C16.2506139,25.4532433 20.1208884,21.5829688 20.1208884,16.8087433 C20.1208884,8.82574331 15.5038884,5.17674331 11.6988884,3.52574331 C11.7338884,4.12574331 11.7558884,4.83874331 11.7558884,5.69774331 C11.8588448,7.38122185 11.7197614,9.07076439 11.3428884,10.7147433 C11.1479658,11.2625784 10.6375363,11.635231 10.0563602,11.6540071 C9.4751842,11.6727832 8.94176549,11.3338544 8.71188838,10.7997433 C8.27863407,9.90957477 7.69431285,9.10126938 6.98488838,8.41074331 L6.98488838,8.41074331 C6.81555505,8.24874331 6.64288838,8.09840998 6.46688838,7.95974331 L6.46488838,7.95974331 Z" id="path-1"></path>
    </defs>
    <g id="icon/fire" stroke="none" stroke-width="1" fill="none" fill-rule="evenodd">
        <g id="color/primary/500" transform="translate(5.000000, 2.000000)">
            <mask id="mask-2" fill="white">
                <use xlink:href="#path-1"></use>
            </mask>
            <g id="Mask" fill-rule="nonzero"></g>
            <g id="Group" mask="url(#mask-2)">
                <g transform="translate(-5.000000, -2.000000)" id="color/primary/500">
                    <rect id="Rectangle-Copy-4" fill="#9DAAB7" x="0" y="2.27373675e-15" width="32" height="32"></rect>
                </g>
            </g>
        </g>
    </g>
</svg>