<?xml version="1.0" encoding="UTF-8"?>
<svg width="32px" height="32px" viewBox="0 0 32 32" version="1.1" xmlns="http://www.w3.org/2000/svg" xmlns:xlink="http://www.w3.org/1999/xlink">
    <title>icon/flag</title>
    <defs>
        <path d="M1.414,28.277 C0.633069364,28.277 0,27.6439306 0,26.863 L0,5.655 C0.00385797144,2.53303881 2.53403818,0.00330594925 5.656,0 L20.818,0 C21.3021241,0 21.7524755,0.248117437 22.0114444,0.657154421 C22.2704133,1.0661914 22.3019434,1.57933509 22.095,2.017 L18.995,8.56 L22.095,15.103 C22.3033334,15.5409385 22.2725192,16.0551208 22.0133747,16.465044 C21.7542301,16.8749673 21.3029669,17.1233508 20.818,17.123 L6.727,17.123 C5.94606936,17.123 5.313,16.4899306 5.313,15.709 C5.313,14.9280694 5.94606936,14.295 6.727,14.295 L18.584,14.295 L16.152,9.166 C15.9700802,8.78247946 15.9700802,8.33752054 16.152,7.954 L18.584,2.825 L5.656,2.825 C4.09482414,2.8266535 2.8296535,4.09182414 2.828,5.653 L2.828,26.861 C2.82853092,27.2363625 2.67979077,27.596533 2.41455676,27.8621421 C2.14932275,28.1277513 1.7893629,28.277 1.414,28.277 Z" id="path-1"></path>
    </defs>
    <g id="icon/flag" stroke="none" stroke-width="1" fill="none" fill-rule="evenodd">
        <g id="color/primary/500" transform="translate(5.000000, 2.000000)">
            <mask id="mask-2" fill="white">
                <use xlink:href="#path-1"></use>
            </mask>
            <g id="Mask" fill-rule="nonzero"></g>
            <g id="Group" mask="url(#mask-2)">
                <g transform="translate(-5.000000, -2.000000)" id="color/primary/500">
                    <rect id="Rectangle-Copy-4" fill="#9DAAB7" x="0" y="2.27373675e-15" width="32" height="32"></rect>
                </g>
            </g>
        </g>
    </g>
</svg>