<?xml version="1.0" encoding="UTF-8"?>
<svg width="32px" height="32px" viewBox="0 0 32 32" version="1.1" xmlns="http://www.w3.org/2000/svg" xmlns:xlink="http://www.w3.org/1999/xlink">
    <title>icon/folder-fill</title>
    <defs>
        <path d="M9.447,0 C9.712,0 9.966,0.105 10.154,0.293 L10.154,0.293 L13.91,4.05 L23.866,4.05 C25.043,4.05 26,5.007 26,6.184 L26,6.184 L26,19.916 C26,21.093 25.043,22.05 23.866,22.05 L23.866,22.05 L2.134,22.05 C0.957,22.05 0,21.093 0,19.916 L0,19.916 L0,2.089 C0,0.937 0.938,0 2.089,0 L2.089,0 Z M12.0346392,16.7680654 C12.1198758,16.7682335 12.2043269,16.7606715 12.2870558,16.7457673 C12.2905034,16.7448768 12.2947913,16.7440834 12.2990733,16.7432705 C12.3271905,16.7382112 12.3541896,16.7322549 12.3809632,16.725518 C12.3984122,16.7207891 12.4160158,16.7159862 12.4334952,16.710852 C12.4573087,16.7042358 12.4810822,16.6965763 12.5046276,16.6882937 C12.5233537,16.681294 12.5416063,16.6744307 12.5596911,16.6672008 C12.5817595,16.6588153 12.6039953,16.6492705 12.6259756,16.639157 C12.6439477,16.6304431 12.6615227,16.6219043 12.6789036,16.6130108 C12.701123,16.6020768 12.7229116,16.5901871 12.7443884,16.5777186 C12.7636299,16.5661425 12.7829181,16.5543348 12.8019104,16.5420743 C12.8202223,16.5306155 12.8382957,16.5183263 12.8560955,16.5056055 C12.8713775,16.4943932 12.8863123,16.4832904 12.9010262,16.4718948 L12.931014,16.4481727 L12.931014,16.4481727 L12.9608929,16.4228554 C12.9783169,16.4077686 12.995383,16.3922471 13.0120734,16.3763032 L13.0346392,16.3540626 L18.8806392,10.5090626 C19.4329239,9.95677787 19.4329239,9.06134737 18.8806392,8.50906262 C18.3283544,7.95677787 17.4329239,7.95677787 16.8806392,8.50906262 L16.8806392,8.50906262 L11.989,13.399 L9.75663916,11.3640626 C9.4204701,11.0577967 8.96023164,10.9338785 8.52055758,11.0239359 L8.3749596,11.0619234 C7.89349448,11.2152545 7.53040354,11.6137969 7.4224596,12.1074234 C7.31451566,12.60105 7.47811798,13.1147671 7.85163916,13.4550626 L7.85163916,13.4550626 L11.0816392,16.3990626 C11.0986191,16.4145661 11.1159374,16.4296185 11.1335757,16.4442125 C11.1385621,16.4464763 11.1425615,16.4497484 11.1465783,16.4529981 C11.1757934,16.4784774 11.2068912,16.5015743 11.2388079,16.5233103 C11.2473458,16.5274415 11.255299,16.5327488 11.2633054,16.5379751 C11.3723056,16.6106555 11.4911216,16.6663434 11.6155591,16.7048894 C11.6248402,16.7068903 11.6344425,16.7097758 11.644082,16.7125607 C11.7698417,16.7494488 11.9008391,16.7681198 12.0336392,16.7680634 L12.0336392,16.7680634 Z" id="path-1"></path>
    </defs>
    <g id="icon/folder-fill" stroke="none" stroke-width="1" fill="none" fill-rule="evenodd">
        <g id="color/primary/500" transform="translate(3.000000, 5.000000)">
            <mask id="mask-2" fill="white">
                <use xlink:href="#path-1"></use>
            </mask>
            <use id="Mask" fill="#000000" xlink:href="#path-1"></use>
            <g id="Group" mask="url(#mask-2)">
                <g transform="translate(-3.000000, -5.000000)" id="color/primary/500">
                    <rect id="Rectangle-Copy-4" fill="#9DAAB7" x="0" y="2.27373675e-15" width="32" height="32"></rect>
                </g>
            </g>
        </g>
    </g>
</svg>