<?xml version="1.0" encoding="UTF-8"?>
<svg width="32px" height="32px" viewBox="0 0 32 32" version="1.1" xmlns="http://www.w3.org/2000/svg" xmlns:xlink="http://www.w3.org/1999/xlink">
    <title>icon/folder</title>
    <defs>
        <path d="M24,19.916 C24,19.99 23.94,20.05 23.866,20.05 L2.134,20.05 C2.06,20.05 2,19.99 2,19.916 L2,6.434 L2.174,6.107 L13.554,6.107 C13.666,6.107 13.773,6.085 13.876,6.05 L23.866,6.05 C23.94,6.05 24,6.109 24,6.184 L24,19.916 Z M2.089,2 L9.033,2 L11.082,4.05 L2.134,4.05 C2.088,4.05 2.045,4.06 2,4.063 L2,2.089 C2,2.04 2.04,2 2.089,2 L2.089,2 Z M23.866,4.05 L13.91,4.05 L10.154,0.293 C9.966,0.105 9.712,0 9.447,0 L2.089,0 C0.938,0 0,0.937 0,2.089 L0,6.184 L0,19.916 C0,21.093 0.957,22.05 2.134,22.05 L23.866,22.05 C25.043,22.05 26,21.093 26,19.916 L26,6.184 C26,5.007 25.043,4.05 23.866,4.05 L23.866,4.05 Z" id="path-1"></path>
    </defs>
    <g id="icon/folder" stroke="none" stroke-width="1" fill="none" fill-rule="evenodd">
        <g id="color/primary/500" transform="translate(3.000000, 5.000000)">
            <mask id="mask-2" fill="white">
                <use xlink:href="#path-1"></use>
            </mask>
            <use id="Mask" fill="#000000" xlink:href="#path-1"></use>
            <g id="Group" mask="url(#mask-2)">
                <g transform="translate(-3.000000, -5.000000)" id="color/primary/500">
                    <rect id="Rectangle-Copy-4" fill="#9DAAB7" x="0" y="2.27373675e-15" width="32" height="32"></rect>
                </g>
            </g>
        </g>
    </g>
</svg>