<?xml version="1.0" encoding="UTF-8"?>
<svg width="32px" height="32px" viewBox="0 0 32 32" version="1.1" xmlns="http://www.w3.org/2000/svg" xmlns:xlink="http://www.w3.org/1999/xlink">
    <title>icon/geoGroup</title>
    <g id="icon/geoGroup" stroke="none" stroke-width="1" fill="none" fill-rule="evenodd">
        <g id="Group-5" transform="translate(2.000000, 3.000000)">
            <polygon id="Fill-1" fill-opacity="0.5" fill="#E8C2FF" points="11.6914487 1 1 9.28113525 5.93804497 19 17.347713 17.6859044 21 7.87528619"></polygon>
            <g id="Group-4" fill="#D998FF">
                <path d="M2.18208154,9.55834808 L6.46646819,17.9814751 L16.6824918,16.8055747 L19.8833026,8.22025459 L11.7069512,2.18947658 L2.18208154,9.55834808 Z M5.91738476,20.0003119 C5.56105649,20.0003119 5.23083848,19.79913 5.06496153,19.4724044 L0.107083742,9.72599965 C-0.106406039,9.30570105 0.0072503909,8.79026994 0.377401738,8.50331283 L11.1117908,0.199491389 C11.4504562,-0.0617331562 11.9166012,-0.0664118048 12.2575705,0.185455443 L21.604276,7.08100366 C21.9544606,7.33910911 22.0911555,7.80385486 21.9383337,8.21401639 L18.27061,18.0524346 C18.1431305,18.3947557 17.8390227,18.6349263 17.4811586,18.6762544 L6.02566554,19.9940737 C5.98957195,19.9979726 5.9527104,20.0003119 5.91738476,20.0003119 L5.91738476,20.0003119 Z" id="Fill-2"></path>
            </g>
        </g>
        <g id="Group-5-Copy" transform="translate(10.000000, 10.000000)">
            <path d="M19,10 C19,14.9704545 14.9704545,19 10,19 C5.02954545,19 1,14.9704545 1,10 C1,5.02954545 5.02954545,1 10,1 C14.9704545,1 19,5.02954545 19,10" id="Fill-1" fill-opacity="0.5" fill="#ABE9ED"></path>
            <path d="M10,2.04081633 C5.61142857,2.04081633 2.04081633,5.61142857 2.04081633,10 C2.04081633,14.3885714 5.61142857,17.9591837 10,17.9591837 C14.3885714,17.9591837 17.9591837,14.3885714 17.9591837,10 C17.9591837,5.61142857 14.3885714,2.04081633 10,2.04081633 M10,20 C4.48571429,20 0,15.5142857 0,10 C0,4.48571429 4.48571429,0 10,0 C15.5142857,0 20,4.48571429 20,10 C20,15.5142857 15.5142857,20 10,20" id="Fill-3" fill="#6CDAE2"></path>
        </g>
    </g>
</svg>