<?xml version="1.0" encoding="UTF-8"?>
<svg width="32px" height="32px" viewBox="0 0 32 32" version="1.1" xmlns="http://www.w3.org/2000/svg" xmlns:xlink="http://www.w3.org/1999/xlink">
    <title>icon/gpp</title>
    <defs>
        <path d="M12.0840019,0.0938667756 L22.2460019,3.97186678 C22.7939471,4.18029148 23.1560019,4.70562038 23.1560019,5.29186678 L23.1560019,13.2148668 C23.1239841,20.069278 18.6670087,26.1102713 12.1428008,28.1709265 C11.9716084,28.2451487 11.7830474,28.2862855 11.5860019,28.2868668 L11.5770019,28.2838668 L11.5750019,28.2838668 L11.5620009,28.282 L11.4398574,28.2772646 C11.3720862,28.2706398 11.3048619,28.2590481 11.2387297,28.24257 C11.2128341,28.2360654 11.1873141,28.2289682 11.1620825,28.2211818 C4.56041805,26.2115486 0.0315170655,20.1278776 9.46280124e-07,13.2178668 L9.46280124e-07,5.29586678 C-0.000675794803,4.70944195 0.361685762,4.18381859 0.910001895,3.97586678 L3.7240019,2.90186678 C4.45045292,2.63548806 5.25609607,3.0024664 5.53191146,3.72538728 C5.80772684,4.44830815 5.45127004,5.25866149 4.7320019,5.54386678 L2.8320019,6.27086678 L2.8320019,13.2178668 C2.85625822,18.7373246 6.38181513,23.6140235 11.576117,25.3856044 C16.7751353,23.6156944 20.3038646,18.7369022 20.3280019,13.2148668 L20.3280019,6.26686678 L11.5800019,2.92786678 L8.2720019,4.19086678 C7.79831985,4.37869189 7.26021595,4.29712589 6.8634745,3.97736163 C6.46673306,3.65759737 6.27272626,3.1490994 6.35564714,2.64632999 C6.43856802,2.14356057 6.78558948,1.72429344 7.2640019,1.54886678 L11.0760019,0.0938667756 C11.4003472,-0.0312889252 11.7596566,-0.0312889252 12.0840019,0.0938667756 Z M11.658999,6.45254196 C12.1702598,6.47704822 12.6283621,6.77593673 12.8567429,7.23400917 C13.0851237,7.69208161 13.0481231,8.2378132 12.7600019,8.66086678 L10.8770019,11.5468668 L14.8860019,11.5468668 C15.3965444,11.5469304 15.8674058,11.8222051 16.1179116,12.2670653 C16.3684174,12.7119254 16.3596608,13.2572785 16.0950019,13.6938668 L12.7850019,19.1498668 C12.5287032,19.5730447 12.0697426,19.8313523 11.5750019,19.8308675 C11.0646382,19.8304424 10.5941074,19.5550259 10.3438466,19.1102329 C10.0935858,18.66544 10.1024355,18.1203022 10.3670019,17.6838668 L12.3750019,14.3738668 L8.2660019,14.3738668 C7.74699995,14.3743039 7.26953091,14.0901804 7.0223524,13.6338187 C6.77517388,13.1774571 6.79807486,12.6223189 7.0820019,12.1878668 L10.3920019,7.11586678 C10.6631486,6.68173818 11.1477382,6.42803571 11.658999,6.45254196 Z" id="path-1"></path>
    </defs>
    <g id="icon/gpp" stroke="none" stroke-width="1" fill="none" fill-rule="evenodd">
        <g id="color/primary/500" transform="translate(3.999999, 2.000000)">
            <mask id="mask-2" fill="white">
                <use xlink:href="#path-1"></use>
            </mask>
            <g id="Mask" fill-rule="nonzero"></g>
            <g id="Group" mask="url(#mask-2)">
                <g transform="translate(-3.999999, -2.000000)" id="color/primary/500">
                    <rect id="Rectangle-Copy-4" fill="#9DAAB7" x="0" y="2.27373675e-15" width="32" height="32"></rect>
                </g>
            </g>
        </g>
    </g>
</svg>