<?xml version="1.0" encoding="UTF-8"?>
<svg width="32px" height="32px" viewBox="0 0 32 32" version="1.1" xmlns="http://www.w3.org/2000/svg" xmlns:xlink="http://www.w3.org/1999/xlink">
    <title>icon/gpp_good</title>
    <defs>
        <path d="M12.0850011,0.0930125095 L22.2430011,3.96501251 C22.7909181,4.17403849 23.1530011,4.69957849 23.1530011,5.28601251 L23.1530011,13.2070125 C23.1205424,20.0676994 18.6561578,26.1136007 12.1227504,28.170418 C11.9568054,28.2384585 11.7753193,28.276454 11.5860011,28.2770125 L11.5770011,28.2750125 L11.5690006,28.275 C11.4989072,28.2747918 11.4210628,28.2681792 11.3442406,28.2552889 C11.3151224,28.2504207 11.2867467,28.2447191 11.2586752,28.2381788 C11.2293581,28.2314598 11.2000582,28.223703 11.1710011,28.2150125 C4.56104467,26.2011941 0.032692341,20.1178548 5.56280042e-07,13.2080125 L5.56280042e-07,5.28701251 C-0.000518118348,4.70040053 0.361713881,4.17456705 0.910001114,3.96601251 L3.72400111,2.89301251 C4.45329311,2.61466107 5.27014951,2.98022058 5.54850101,3.70951255 C5.82685251,4.43880452 5.46129306,5.25566095 4.73200111,5.53401251 L2.83200111,6.26101251 L2.83200111,13.2080125 C2.85751872,18.7277614 6.38353059,23.6043473 11.5781826,25.3763536 C16.7762004,23.6054879 20.3044753,18.7275389 20.3300011,13.2060125 L20.3300011,6.26501251 L11.5810011,2.92701251 L8.27300111,4.18901251 C7.79931907,4.37683763 7.26121517,4.29527162 6.86447372,3.97550736 C6.46773228,3.6557431 6.27372548,3.14724513 6.35664636,2.64447572 C6.43956723,2.14170631 6.7865887,1.72243918 7.26500111,1.54701251 L11.0770011,0.0930125095 C11.4015576,-0.0310041698 11.7604447,-0.0310041698 12.0850011,0.0930125095 Z M16.6910265,9.14698711 C17.1790604,9.27775539 17.5602582,9.65895323 17.6910265,10.1469871 C17.8217948,10.635021 17.6822667,11.1557469 17.3250011,11.5130125 L11.4790011,17.3590125 C11.2140755,17.6246382 10.8541573,17.7736443 10.4790011,17.7730145 L10.4753196,17.7727667 C10.3464041,17.7729604 10.2165845,17.7545588 10.092008,17.7191512 C10.0807578,17.7153203 10.0691558,17.7118428 10.0576102,17.70822 C10.0203155,17.6972571 9.98395251,17.6842473 9.9481769,17.6697713 C9.94329704,17.666884 9.93770429,17.6645705 9.93212813,17.6622219 C9.85341444,17.6301308 9.77832302,17.5903933 9.70708861,17.5440178 C9.699661,17.5376986 9.69170772,17.5323913 9.68380878,17.5270041 C9.65130858,17.5064229 9.62020074,17.4833472 9.58999984,17.4589486 C9.58692347,17.4546982 9.58292402,17.4514262 9.57894211,17.4481319 C9.56031859,17.4345365 9.54299118,17.4194997 9.52600111,17.4040125 L6.29600111,14.4590125 C5.893015,14.1274712 5.70539182,13.6009254 5.80791801,13.0892558 C5.91044421,12.5775862 6.28645142,12.1639783 6.78606348,12.0132958 C7.28567554,11.8626133 7.82766723,11.9993538 8.19600111,12.3690125 L10.4303196,14.4067667 L15.3250011,9.51301251 C15.6822667,9.15574692 16.2029926,9.01621882 16.6910265,9.14698711 Z" id="path-1"></path>
    </defs>
    <g id="icon/gpp_good" stroke="none" stroke-width="1" fill="none" fill-rule="evenodd">
        <g id="color/primary/500" transform="translate(3.999999, 2.000000)">
            <mask id="mask-2" fill="white">
                <use xlink:href="#path-1"></use>
            </mask>
            <g id="Mask" fill-rule="nonzero"></g>
            <g id="Group" mask="url(#mask-2)">
                <g transform="translate(-3.999999, -2.000000)" id="color/primary/500">
                    <rect id="Rectangle-Copy-4" fill="#9DAAB7" x="0" y="2.27373675e-15" width="32" height="32"></rect>
                </g>
            </g>
        </g>
    </g>
</svg>