<?xml version="1.0" encoding="UTF-8"?>
<svg width="32px" height="32px" viewBox="0 0 32 32" version="1.1" xmlns="http://www.w3.org/2000/svg" xmlns:xlink="http://www.w3.org/1999/xlink">
    <title>icon/gps</title>
    <defs>
        <path d="M14.1375,0 C14.9037854,0 15.5306236,0.610385737 15.551,1.37640013 L15.5514876,3.49732409 C20.3301627,4.12598981 24.11475,7.9094333 24.745459,12.6871914 L26.862,12.6874001 C27.6429306,12.6874001 28.276,13.3204695 28.276,14.1014001 C28.276,14.8823308 27.6429306,15.5154001 26.862,15.5154001 L24.7437227,15.515389 C24.1078783,20.2895199 20.3265567,24.0687307 15.5520744,24.7019115 L15.5520057,26.8214001 C15.5530628,27.1971088 15.4045576,27.5577937 15.1392659,27.8238359 C14.8739741,28.0898781 14.5137102,28.2394001 14.138,28.2394001 C13.3570694,28.2394001 12.724,27.6063308 12.724,26.8254001 L12.7248171,24.7021949 C7.95129986,24.0697675 4.17204336,20.28918 3.54085043,15.5159817 L1.414,15.5154001 C0.633069364,15.5154001 0,14.8823308 0,14.1014001 C0,13.3204695 0.633069364,12.6874001 1.414,12.6874001 L3.540495,12.687582 C4.1706401,7.91274666 7.95057211,4.13145396 12.7240917,3.49869428 L12.724,1.37640013 C12.7443764,0.610385737 13.3712146,0 14.1375,0 Z M15.5516299,6.36156389 L15.551,8.26440013 C15.551,9.04494041 14.9185401,9.67784812 14.138,9.67840013 C13.3570694,9.67840013 12.724,9.04533077 12.724,8.26440013 L12.7245583,6.36208189 C10.1285224,6.83570892 7.90389037,8.59441046 6.86983972,11.0908296 C6.65392795,11.6120867 6.49746297,12.1473049 6.39869505,12.6876879 L8.301,12.6874001 C9.08193064,12.6874001 9.715,13.3204695 9.715,14.1014001 C9.715,14.8823308 9.08193064,15.5154001 8.301,15.5154001 L6.3990718,15.515157 C6.68036544,17.0546999 7.41990155,18.5089198 8.57519095,19.6642092 C9.73049423,20.8195125 11.1847352,21.5590525 12.7242985,21.8403385 L12.724,19.9334001 C12.724,19.1524695 13.3570694,18.5194001 14.138,18.5194001 C14.9189306,18.5194001 15.5520057,19.1524695 15.5520057,19.9334001 L15.5525638,21.8405494 C16.0926575,21.7417728 16.6275873,21.5853588 17.1485706,21.3695604 C19.644709,20.335626 21.4032958,18.1113779 21.8771585,15.5157173 L19.975,15.5154001 C19.1940694,15.5154001 18.561,14.8823308 18.561,14.1014001 C18.561,13.3204695 19.1940694,12.6874001 19.975,12.6874001 L21.876874,12.6869754 C21.2914537,9.47756246 18.7610782,6.94707751 15.5516299,6.36156389 Z" id="path-1"></path>
    </defs>
    <g id="icon/gps" stroke="none" stroke-width="1" fill="none" fill-rule="evenodd">
        <g id="color/primary/500" transform="translate(2.000000, 2.000000)">
            <mask id="mask-2" fill="white">
                <use xlink:href="#path-1"></use>
            </mask>
            <g id="Mask" fill-rule="nonzero"></g>
            <g id="Group" mask="url(#mask-2)">
                <g transform="translate(-2.000000, -2.000000)" id="color/primary/500">
                    <rect id="Rectangle-Copy-4" fill="#9DAAB7" x="0" y="2.27373675e-15" width="32" height="32"></rect>
                </g>
            </g>
        </g>
    </g>
</svg>