<?xml version="1.0" encoding="UTF-8"?>
<svg width="32px" height="32px" viewBox="0 0 32 32" version="1.1" xmlns="http://www.w3.org/2000/svg" xmlns:xlink="http://www.w3.org/1999/xlink">
    <title>icon/graph</title>
    <defs>
        <path d="M25.6050001,0.189440135 C26.0424933,0.442026982 26.312,0.908826713 26.312,1.41400034 L26.312,26.8630003 C26.312,27.643931 25.6789306,28.2770003 24.898,28.2770003 C24.1170694,28.2770003 23.484,27.643931 23.484,26.8630003 L23.484,1.41400034 C23.484,0.908826713 23.7535067,0.442026982 24.1909999,0.189440135 C24.6284931,-0.0631467117 25.1675069,-0.0631467117 25.6050001,0.189440135 Z M17.7770001,6.42438807 C18.2144933,6.62090505 18.484,6.98408339 18.484,7.37711729 L18.484,27.1768836 C18.484,27.7844613 17.8509306,28.2770003 17.07,28.2770003 C16.2890694,28.2770003 15.656,27.7844613 15.656,27.1768836 L15.656,7.37711729 C15.656,6.98408339 15.9255067,6.62090505 16.3629999,6.42438807 C16.8004931,6.22787109 17.3395069,6.22787109 17.7770001,6.42438807 Z M9.9490001,14.3707925 C10.3864933,14.4958488 10.656,14.7269623 10.656,14.9770748 L10.656,27.5769261 C10.656,27.9635664 10.0229306,28.2770003 9.242,28.2770003 C8.46106936,28.2770003 7.828,27.9635664 7.828,27.5769261 L7.828,14.9770748 C7.828,14.7269623 8.09750673,14.4958488 8.5349999,14.3707925 C8.97249307,14.2457363 9.51150693,14.2457363 9.9490001,14.3707925 Z M2.1210001,20.3305959 C2.55849327,20.4020566 2.828,20.5341214 2.828,20.6770429 L2.828,27.8769579 C2.828,28.0978952 2.19493064,28.2770003 1.414,28.2770003 C0.633069364,28.2770003 0,28.0978952 0,27.8769579 L0,20.6770429 C0,20.5341214 0.269506731,20.4020566 0.706999903,20.3305959 C1.14449307,20.2591352 1.68350693,20.2591352 2.1210001,20.3305959 Z" id="path-1"></path>
    </defs>
    <g id="icon/graph" stroke="none" stroke-width="1" fill="none" fill-rule="evenodd">
        <g id="color/primary/500" transform="translate(2.756600, 2.000000)">
            <mask id="mask-2" fill="white">
                <use xlink:href="#path-1"></use>
            </mask>
            <use id="Mask" fill="#9DAAB7" fill-rule="nonzero" xlink:href="#path-1"></use>
            <g id="Group" mask="url(#mask-2)">
                <g transform="translate(-2.756600, -2.000000)" id="color/primary/500">
                    <rect id="Rectangle-Copy-4" fill="#9DAAB7" x="0" y="2.27373675e-15" width="32" height="32"></rect>
                </g>
            </g>
        </g>
    </g>
</svg>