<?xml version="1.0" encoding="UTF-8"?>
<svg width="32px" height="32px" viewBox="0 0 32 32" version="1.1" xmlns="http://www.w3.org/2000/svg" xmlns:xlink="http://www.w3.org/1999/xlink">
    <title>icon/grid_view</title>
    <defs>
        <path d="M10.393,16.471 C11.1739306,16.471 11.807,17.1040694 11.807,17.885 L11.807,26.865 C11.807,27.5999935 11.2462188,28.2040096 10.5291776,28.2725271 L10.393,28.279 L1.414,28.279 C0.633069364,28.279 0,27.6459306 0,26.865 L0,17.885 C0,17.1040694 0.633069364,16.471 1.414,16.471 L10.393,16.471 Z M26.865,16.471 C27.6457021,16.4715515 28.2784485,17.1042979 28.279,17.885 L28.279,26.865 C28.2784809,27.5997784 27.7179553,28.2034958 27.0011365,28.2724387 L26.865,28.279 L17.885,28.279 C17.1040694,28.279 16.471,27.6459306 16.471,26.865 L16.471,17.885 C16.471,17.1040694 17.1040694,16.471 17.885,16.471 L26.865,16.471 Z M8.979,19.299 L2.828,19.299 L2.828,25.451 L8.979,25.451 L8.979,19.299 Z M25.451,19.299 L19.299,19.299 L19.299,25.451 L25.451,25.451 L25.451,19.299 Z M10.393,0 C11.1739306,0 11.807,0.633069364 11.807,1.414 L11.807,10.393 C11.807,11.1279935 11.2462188,11.7320096 10.5291776,11.8005271 L10.393,11.807 L1.414,11.807 C0.633069364,11.807 0,11.1739306 0,10.393 L0,1.414 C0,0.633069364 0.633069364,0 1.414,0 L10.393,0 Z M26.865,0 C27.6459306,0 28.279,0.633069364 28.279,1.414 L28.279,10.393 C28.2784809,11.1277784 27.7179553,11.7314958 27.0011365,11.8004387 L26.865,11.807 L17.885,11.807 C17.1040694,11.807 16.471,11.1739306 16.471,10.393 L16.471,1.414 C16.471,0.633069364 17.1040694,0 17.885,0 L26.865,0 Z M8.979,2.828 L2.828,2.828 L2.828,8.979 L8.979,8.979 L8.979,2.828 Z M25.451,2.828 L19.299,2.828 L19.299,8.979 L25.451,8.979 L25.451,2.828 Z" id="path-1"></path>
    </defs>
    <g id="icon/grid_view" stroke="none" stroke-width="1" fill="none" fill-rule="evenodd">
        <g id="color/primary/500" transform="translate(2.000000, 2.000000)">
            <mask id="mask-2" fill="white">
                <use xlink:href="#path-1"></use>
            </mask>
            <g id="Mask" fill-rule="nonzero"></g>
            <g id="Group" mask="url(#mask-2)">
                <g transform="translate(-2.000000, -2.000000)" id="color/primary/500">
                    <rect id="Rectangle-Copy-4" fill="#9DAAB7" x="0" y="2.27373675e-15" width="32" height="32"></rect>
                </g>
            </g>
        </g>
    </g>
</svg>