<?xml version="1.0" encoding="UTF-8"?>
<svg width="32px" height="32px" viewBox="0 0 32 32" version="1.1" xmlns="http://www.w3.org/2000/svg" xmlns:xlink="http://www.w3.org/1999/xlink">
    <title>icon/heart-fill</title>
    <defs>
        <path d="M14.115433,24.7358387 C13.8617863,24.7353377 13.6129991,24.6662301 13.395433,24.5358387 C6.54243305,20.4818387 -1.04656695,13.2768387 0.119433045,6.31283869 C0.645788729,3.12875867 3.14658917,0.636410953 6.33243305,0.120838695 C9.2521172,-0.382510362 12.2187208,0.708623521 14.116433,2.98383869 C15.9577051,0.771892357 18.8202663,-0.318155755 21.666433,0.108838695 C24.8954392,0.597981929 27.4702417,3.06076695 28.102433,6.26483869 C29.495433,13.1258387 22.162433,20.2018387 14.835433,24.5358387 C14.617867,24.6662301 14.3690798,24.7353377 14.115433,24.7358387 L14.115433,24.7358387 Z" id="path-1"></path>
    </defs>
    <g id="icon/heart-fill" stroke="none" stroke-width="1" fill="none" fill-rule="evenodd">
        <g id="color/primary/500" transform="translate(2.000000, 4.000000)">
            <mask id="mask-2" fill="white">
                <use xlink:href="#path-1"></use>
            </mask>
            <g id="Mask" fill-rule="nonzero"></g>
            <g id="Group" mask="url(#mask-2)">
                <g transform="translate(-2.000000, -4.000000)" id="color/primary/500">
                    <rect id="Rectangle-Copy-4" fill="#9DAAB7" x="0" y="2.27373675e-15" width="32" height="32"></rect>
                </g>
            </g>
        </g>
    </g>
</svg>