<?xml version="1.0" encoding="UTF-8"?>
<svg width="32px" height="32px" viewBox="0 0 32 32" version="1.1" xmlns="http://www.w3.org/2000/svg" xmlns:xlink="http://www.w3.org/1999/xlink">
    <title>icon/heart</title>
    <defs>
        <path d="M14.115433,24.7358387 C13.8617863,24.7353377 13.6129991,24.6662301 13.395433,24.5358387 C6.54243305,20.4818387 -1.04656695,13.2768387 0.119433045,6.31283869 C0.645788729,3.12875867 3.14658917,0.636410953 6.33243305,0.120838695 C9.2521172,-0.382510362 12.2187208,0.708623521 14.116433,2.98383869 C15.9577051,0.771892357 18.8202663,-0.318155755 21.666433,0.108838695 C24.8954392,0.597981929 27.4702417,3.06076695 28.102433,6.26483869 C29.495433,13.1258387 22.162433,20.2018387 14.835433,24.5358387 C14.617867,24.6662301 14.3690798,24.7353377 14.115433,24.7358387 L14.115433,24.7358387 Z M7.70843305,2.83583869 C7.41113389,2.83568578 7.11437281,2.86111289 6.82143305,2.91183869 C4.8140099,3.21598733 3.23267367,4.78156274 2.90843305,6.78583869 C2.07043305,11.7918387 7.82443305,17.7698387 14.116433,21.6728387 C20.105433,17.9668387 26.387433,12.0368387 25.331433,6.83383869 C24.9276519,4.79022854 23.2850802,3.21966437 21.225433,2.90783869 C18.7763813,2.59795801 16.4052352,3.89585701 15.346433,6.12583869 C15.0957308,6.57017047 14.6251118,6.84499789 14.114933,6.84499789 C13.6047543,6.84499789 13.1341353,6.57017047 12.883433,6.12583869 C11.9059281,4.15041747 9.9119368,2.88158395 7.70843305,2.83283869 L7.70843305,2.83583869 Z" id="path-1"></path>
    </defs>
    <g id="icon/heart" stroke="none" stroke-width="1" fill="none" fill-rule="evenodd">
        <g id="color/primary/500" transform="translate(2.000000, 4.000000)">
            <mask id="mask-2" fill="white">
                <use xlink:href="#path-1"></use>
            </mask>
            <g id="Mask" fill-rule="nonzero"></g>
            <g id="Group" mask="url(#mask-2)">
                <g transform="translate(-2.000000, -4.000000)" id="color/primary/500">
                    <rect id="Rectangle-Copy-4" fill="#9DAAB7" x="0" y="2.27373675e-15" width="32" height="32"></rect>
                </g>
            </g>
        </g>
    </g>
</svg>