<?xml version="1.0" encoding="UTF-8"?>
<svg width="32px" height="32px" viewBox="0 0 32 32" version="1.1" xmlns="http://www.w3.org/2000/svg" xmlns:xlink="http://www.w3.org/1999/xlink">
    <title>icon/height</title>
    <defs>
        <path d="M7.15221356,0 C7.52746696,0 7.88728597,0.149372713 8.15221356,0.415132908 L13.8902136,6.15313291 C14.2950541,6.55727752 14.4162811,7.16564144 14.1972772,7.69409774 C13.9782733,8.22255404 13.4622523,8.56682843 12.8902136,8.56613291 L12.8912136,8.56713291 C12.5160793,8.56765399 12.1562019,8.41866475 11.8912136,8.15313291 L8.56,4.822 L8.56,23.457 L11.8922136,20.1261329 C12.4444983,19.5738482 13.3399288,19.5738482 13.8922136,20.1261329 C14.4444983,20.6784177 14.4444983,21.5738482 13.8922136,22.1261329 L8.15421356,27.8641329 C7.8890435,28.1300047 7.52871613,28.2790312 7.15321356,28.2781369 L7.14621356,28.2781333 C6.77128943,28.2781333 6.4116304,28.1296462 6.14642517,27.8646285 L6.08,27.7911326 L0.415213562,22.1261329 C-0.137071187,21.5738482 -0.137071187,20.6784177 0.415213562,20.1261329 C0.967498312,19.5738482 1.86292881,19.5738482 2.41521356,20.1261329 L5.732,23.4421326 L5.732,4.836 L2.41421356,8.15313291 C1.86192881,8.70541766 0.966498312,8.70541766 0.414213562,8.15313291 C-0.138071187,7.60084816 -0.138071187,6.70541766 0.414213562,6.15313291 L6.0805235,0.485747024 L6.09522687,0.469163876 C6.10578632,0.457439745 6.11653914,0.445893214 6.12748031,0.434529307 L6.0805235,0.485747024 C6.15029266,0.405811989 6.22890899,0.333798562 6.31484576,0.271233474 C6.41508361,0.198285492 6.52501794,0.138292025 6.64245834,0.0935022069 C6.66044703,0.0866417877 6.67860096,0.0801417139 6.69692216,0.0740065556 C6.72064512,0.0660617307 6.7446895,0.0587173942 6.76899645,0.0520057825 C6.79019474,0.0461481764 6.81185422,0.0407126814 6.8337054,0.0357831165 C6.85710804,0.0305075408 6.88050256,0.0258516816 6.90409724,0.0217805455 C6.91438532,0.0200063443 6.92458519,0.0183622378 6.93482096,0.0168278439 L6.99086712,0.00956852274 C6.99724408,0.00887166779 7.00363377,0.00821721456 7.01003593,0.00760545097 L7.02,0.007 L7.04304486,0.00422790504 C7.07928067,0.00141628303 7.11567394,0 7.15221356,0 Z" id="path-1"></path>
    </defs>
    <g id="icon/height" stroke="none" stroke-width="1" fill="none" fill-rule="evenodd">
        <g id="color/primary/500" transform="translate(9.000000, 2.000000)">
            <mask id="mask-2" fill="white">
                <use xlink:href="#path-1"></use>
            </mask>
            <g id="Mask" fill-rule="nonzero"></g>
            <g id="Group" mask="url(#mask-2)">
                <g transform="translate(-9.000000, -2.000000)" id="color/primary/500">
                    <rect id="Rectangle-Copy-4" fill="#9DAAB7" x="0" y="2.27373675e-15" width="32" height="32"></rect>
                </g>
            </g>
        </g>
    </g>
</svg>