<?xml version="1.0" encoding="UTF-8"?>
<svg width="32px" height="32px" viewBox="0 0 32 32" version="1.1" xmlns="http://www.w3.org/2000/svg" xmlns:xlink="http://www.w3.org/1999/xlink">
    <title>icon/home</title>
    <defs>
        <path d="M5.62973669,13.5276098 C6.07487875,13.7898882 6.34258715,14.2731119 6.32888235,14.7895938 L6.32888235,24.0415938 C6.33053428,24.8178112 6.95966403,25.4464938 7.73588235,25.4475938 L20.6618824,25.4475938 C21.4381007,25.4464938 22.0672304,24.8178112 22.0688824,24.0415938 L22.0688824,14.7895938 C22.0688824,14.0050733 22.7048619,13.3690938 23.4893824,13.3690938 C24.2739028,13.3690938 24.9098824,14.0050733 24.9098824,14.7895938 L24.9098824,24.0415938 C24.9071271,26.3865572 23.0068458,28.2868386 20.6618824,28.2895938 L7.73588235,28.2895938 C5.39091893,28.2868386 3.49063757,26.3865572 3.48788235,24.0415938 L3.48788235,14.7895938 C3.47417755,14.2731119 3.74188596,13.7898882 4.18702801,13.5276098 C4.63217007,13.2653314 5.18459464,13.2653314 5.62973669,13.5276098 Z M15.27988,13.297767 C16.336754,13.735429 17.0258824,14.7666836 17.0258824,15.9105938 C17.0242299,17.4713798 15.7596677,18.7363894 14.1988824,18.738594 C13.0549722,18.7389983 12.0234739,18.0502348 11.5854382,16.9935157 C11.1474024,15.9367966 11.3891072,14.7202594 12.1978308,13.9112497 C13.0065544,13.10224 14.2230061,12.860105 15.27988,13.297767 Z M15.0908824,0.319593825 L27.8158824,10.6865938 C28.2825745,11.0665207 28.459343,11.6992236 28.257154,12.2660266 C28.0549651,12.8328297 27.5176668,13.210812 26.9158824,13.2095938 L26.9208824,13.2065938 C26.5928315,13.2076366 26.2746397,13.0945017 26.0208824,12.8865938 L14.1928824,3.25159382 L2.36588235,12.8865938 C1.97579663,13.2338568 1.42665736,13.3391528 0.935788253,13.1608105 C0.44491915,12.9824683 0.0914386336,12.5492332 0.0152378174,12.0325593 C-0.0609629987,11.5158855 0.152397953,10.9990506 0.570882353,10.6865938 L13.2958824,0.319593825 C13.8183455,-0.106531275 14.5684192,-0.106531275 15.0908824,0.319593825 Z" id="path-1"></path>
    </defs>
    <g id="icon/home" stroke="none" stroke-width="1" fill="none" fill-rule="evenodd">
        <g id="color/primary/500" transform="translate(2.000000, 2.000000)">
            <mask id="mask-2" fill="white">
                <use xlink:href="#path-1"></use>
            </mask>
            <g id="Mask" fill-rule="nonzero"></g>
            <g id="Group" mask="url(#mask-2)">
                <g transform="translate(-2.000000, -2.000000)" id="color/primary/500">
                    <rect id="Rectangle-Copy-4" fill="#9DAAB7" x="0" y="2.27373675e-15" width="32" height="32"></rect>
                </g>
            </g>
        </g>
    </g>
</svg>