<?xml version="1.0" encoding="UTF-8"?>
<svg width="32px" height="32px" viewBox="0 0 32 32" version="1.1" xmlns="http://www.w3.org/2000/svg" xmlns:xlink="http://www.w3.org/1999/xlink">
    <title>icon/image</title>
    <defs>
        <path d="M24.035,0 C26.3766497,0.00275520902 28.2742448,1.90035029 28.277,4.242 L28.277,10.396 C28.277,11.1769306 27.6439306,11.81 26.863,11.81 C26.0820694,11.81 25.449,11.1769306 25.449,10.396 L25.449,4.242 C25.4484485,3.46129793 24.8157021,2.82855154 24.035,2.828 L4.242,2.828 C3.46129793,2.82855154 2.82855154,3.46129793 2.828,4.242 L2.828,20.377 C2.82822432,20.6945292 2.93302843,20.9875832 3.10983203,21.2235815 L17.163,7.197 C17.4273362,6.92572408 17.7923139,6.77618462 18.171,6.784 C18.547679,6.78660724 18.9077009,6.93961655 19.171,7.209 L27.812837,16.05451 C28.0979523,16.3132011 28.277,16.6866912 28.277,17.102 L28.277,21.084 C28.2747956,23.0354128 26.6934128,24.6167956 24.742,24.619 L4.242,24.619 C1.90035029,24.6162448 0.00275520902,22.7186497 0,20.377 L0,4.242 C0.00275520902,1.90035029 1.90035029,0.00275520902 4.242,0 L24.035,0 Z M18.148,10.208 L6.543,21.791 L24.742,21.791 C25.1322369,21.7904492 25.4484492,21.4742369 25.449,21.084 L25.449,17.683 L18.148,10.208 Z M9.178,5.624 C10.739309,5.624 12.005,6.88969101 12.005,8.451 C12.0033465,10.0116236 10.7386236,11.2763465 9.178,11.278 L9.178,11.278 C7.61669101,11.278 6.351,10.012309 6.351,8.451 C6.351,6.88969101 7.61669101,5.624 9.178,5.624 Z" id="path-1"></path>
    </defs>
    <g id="icon/image" stroke="none" stroke-width="1" fill="none" fill-rule="evenodd">
        <g id="color/primary/500" transform="translate(2.000000, 4.000000)">
            <mask id="mask-2" fill="white">
                <use xlink:href="#path-1"></use>
            </mask>
            <g id="Mask" fill-rule="nonzero"></g>
            <g id="Group" mask="url(#mask-2)">
                <g transform="translate(-2.000000, -4.000000)" id="color/primary/500">
                    <rect id="Rectangle-Copy-4" fill="#9DAAB7" x="0" y="2.27373675e-15" width="32" height="32"></rect>
                </g>
            </g>
        </g>
    </g>
</svg>