<?xml version="1.0" encoding="UTF-8"?>
<svg width="32px" height="32px" viewBox="0 0 32 32" version="1.1" xmlns="http://www.w3.org/2000/svg" xmlns:xlink="http://www.w3.org/1999/xlink">
    <title>icon/inbox</title>
    <defs>
        <path d="M1.414,13.3040002 C1.36423482,13.3040002 1.3150701,13.3014293 1.26663139,13.2964132 L1.414,13.3040002 C1.35200245,13.303995 1.290538,13.2999261 1.22994141,13.2919709 C1.19364578,13.2874182 1.15754112,13.2812794 1.12192956,13.2738007 C1.10633604,13.2702171 1.0902825,13.2665382 1.07431428,13.2625843 C1.04254769,13.2550831 1.01190051,13.2463828 0.981695766,13.2366945 C0.967784078,13.2318121 0.953104114,13.2268378 0.93851775,13.2216268 C0.905642713,13.210312 0.874001284,13.1976718 0.842946788,13.1839466 C0.830398224,13.1779738 0.817393068,13.1719994 0.80448332,13.1658301 C0.771684661,13.1505461 0.739935533,13.133817 0.70892808,13.1159454 C0.698266462,13.1094655 0.687981967,13.1033702 0.677774599,13.0971446 C0.648046809,13.079308 0.618502299,13.0597086 0.589764146,13.0390578 C0.559908375,13.0174189 0.531195062,12.9950846 0.503334677,12.9716278 C0.487345594,12.9582738 0.471576294,12.9443772 0.456124986,12.9301407 C0.439688748,12.9149169 0.423376822,12.8991592 0.407426341,12.8829875 C0.388734178,12.8641242 0.370832748,12.8449381 0.353470175,12.8252652 C0.341234378,12.8112513 0.329112527,12.7969415 0.317256964,12.7823656 C0.297573487,12.7584077 0.278722499,12.7336557 0.260687822,12.708283 C0.255159979,12.7001251 0.249617083,12.6921369 0.244149722,12.6840815 L0.233098269,12.6680171 C0.128932808,12.5102297 0.0555431878,12.3303362 0.0214795013,12.1368867 C0.0185573247,12.1183337 0.0157351245,12.100354 0.0132608234,12.0823287 C0.00892862026,12.0526975 0.00576450167,12.0222138 0.00358397914,11.9914584 C0.00242243487,11.9728154 0.00145044243,11.9541567 0.00084824866,11.9354796 C0.00023982848,11.9203438 0,11.9052 0,11.8900002 L0.000839386712,11.8445785 C0.00135337242,11.8285431 0.00214053484,11.8125076 0.00320164965,11.796479 L0,11.8900002 C0,11.8197026 0.00512989435,11.750603 0.0150357559,11.6830556 C0.0167102821,11.6736846 0.0181907234,11.6643269 0.0197663406,11.6549787 C0.0260739879,11.6153244 0.0343754811,11.5761531 0.0442604066,11.5376164 C0.0472120816,11.5279118 0.0498941447,11.5179377 0.0526884218,11.5079837 C0.0685437963,11.4496527 0.0884681885,11.3929835 0.111762051,11.3380901 L4.263,0.892000222 C4.4768881,0.353542986 4.9976173,1.11166514e-07 5.577,1.11166514e-07 L23.407,1.11166514e-07 C23.9864682,-0.000228888848 24.5073391,0.353360741 24.721,0.892000222 L28.8802542,11.3573783 C28.9001323,11.4062292 28.9173577,11.4564421 28.9317516,11.5078381 L28.884,11.3680002 C28.9061674,11.4238061 28.9246076,11.4805548 28.939358,11.5379042 C28.9496245,11.576153 28.957926,11.6153244 28.9645706,11.6550569 C28.9658093,11.6643269 28.9672897,11.6736846 28.9686751,11.6830506 C28.9744287,11.7203172 28.9784398,11.7580512 28.9809381,11.7961981 C28.9818595,11.8125076 28.9826466,11.8285431 28.9831606,11.8445785 C28.983753,11.8592096 28.984,11.8745761 28.984,11.8900002 L28.984,20.6840002 C28.980694,23.0252594 27.0832599,24.9222462 24.742,24.9250002 L4.242,24.9250002 C1.9007401,24.9222462 0.00330602539,23.0252594 0,20.6840002 L0,16.2890002 C0,15.5080696 0.633069364,14.8750002 1.414,14.8750002 C2.19493064,14.8750002 2.828,15.5080696 2.828,16.2890002 L2.828,20.6840002 C2.82910159,21.4644741 3.46152611,22.0968986 4.242,22.0980002 L24.742,22.0980002 C25.5224739,22.0968986 26.1548984,21.4644741 26.156,20.6840002 L26.156,13.3040002 L20.626,13.3040002 C19.6322396,15.7029679 17.3301109,17.2899111 14.7508153,17.3791577 L14.492,17.3830646 C11.8442433,17.39465 9.44893568,15.8252124 8.39940083,13.4017307 C8.38573167,13.3693676 8.37174443,13.3367598 8.358,13.3040002 L1.414,13.3040002 Z M9.387,10.4760002 C10.0470681,10.4758579 10.6194219,10.9324127 10.766,11.5760002 C11.1604441,13.3162439 12.7071138,14.5515775 14.4915,14.5515775 C16.2758862,14.5515775 17.8225559,13.3162439 18.217,11.5760002 C18.3643287,10.9324674 18.936818,10.4760002 19.597,10.4760002 L25.487,10.4760002 L22.448,2.82800022 L6.536,2.82800022 L3.497,10.4760002 L9.387,10.4760002 Z" id="path-1"></path>
    </defs>
    <g id="icon/inbox" stroke="none" stroke-width="1" fill="none" fill-rule="evenodd">
        <g id="color/primary/500" transform="translate(2.000000, 4.000000)">
            <mask id="mask-2" fill="white">
                <use xlink:href="#path-1"></use>
            </mask>
            <g id="Mask" fill-rule="nonzero"></g>
            <g id="Group" mask="url(#mask-2)">
                <g transform="translate(-2.000000, -4.000000)" id="color/primary/500">
                    <rect id="Rectangle-Copy-4" fill="#9DAAB7" x="0" y="2.27373675e-15" width="32" height="32"></rect>
                </g>
            </g>
        </g>
    </g>
</svg>