<?xml version="1.0" encoding="UTF-8"?>
<svg width="32px" height="32px" viewBox="0 0 32 32" version="1.1" xmlns="http://www.w3.org/2000/svg" xmlns:xlink="http://www.w3.org/1999/xlink">
    <title>icon/infocircle_outline</title>
    <defs>
        <path d="M19.5522501,1.07704365 C24.8359739,3.26596207 28.2808179,8.42222608 28.2804134,14.1414132 C28.2715949,21.946902 21.9459028,28.2721467 14.1404134,28.2804132 C8.42122625,28.2804132 3.26520589,24.8352046 1.07666115,19.5513259 C-1.11188358,14.2674473 0.0980580955,8.18550276 4.14227711,4.14156976 C8.18649612,0.097636756 14.2685262,-1.11187478 19.5522501,1.07704365 Z M14.1404134,2.8294132 C7.8929683,2.8294132 2.82841339,7.89396811 2.82841339,14.1414132 C2.82841339,20.3888583 7.8929683,25.4534132 14.1404134,25.4534132 C20.3878585,25.4534132 25.4524134,20.3888583 25.4524134,14.1414132 C25.4452494,7.89693792 20.3848887,2.83657715 14.1404134,2.8294132 Z M14.1404134,11.5564132 C14.921344,11.5564132 15.5544134,12.1894826 15.5544134,12.9704132 L15.5544134,20.1424132 C15.5538618,20.9231153 14.9211155,21.5558617 14.1404134,21.5564132 C13.3597113,21.5558617 12.7269649,20.9231153 12.7264134,20.1424132 L12.7264134,12.9704132 C12.7264134,12.1894826 13.3594828,11.5564132 14.1404134,11.5564132 Z M14.1404134,6.6154132 C14.9622131,6.6154132 15.6284134,7.28161349 15.6284134,8.1034132 C15.6273117,8.92475612 14.9617563,9.59031147 14.1404134,9.5914132 C13.3186137,9.5914132 12.6524134,8.92521291 12.6524134,8.1034132 C12.6524134,7.28161349 13.3186137,6.6154132 14.1404134,6.6154132 Z" id="path-1"></path>
    </defs>
    <g id="icon/infocircle_outline" stroke="none" stroke-width="1" fill="none" fill-rule="evenodd">
        <g id="color/primary/500" transform="translate(2.000000, 2.000000)">
            <mask id="mask-2" fill="white">
                <use xlink:href="#path-1"></use>
            </mask>
            <g id="Mask" fill-rule="nonzero"></g>
            <g id="Group" mask="url(#mask-2)">
                <g transform="translate(-2.000000, -2.000000)" id="color/primary/500">
                    <rect id="Rectangle-Copy-4" fill="#9DAAB7" x="0" y="2.27373675e-15" width="32" height="32"></rect>
                </g>
            </g>
        </g>
    </g>
</svg>