<?xml version="1.0" encoding="UTF-8"?>
<svg width="32px" height="32px" viewBox="0 0 32 32" version="1.1" xmlns="http://www.w3.org/2000/svg" xmlns:xlink="http://www.w3.org/1999/xlink">
    <title>icon/key</title>
    <defs>
        <path d="M22.4498482,0 C22.8249383,0 23.1846595,0.149033215 23.4498482,0.414302046 L27.8638482,4.82830205 C28.129117,5.09349075 28.2781502,5.45321192 28.2781502,5.82830205 C28.2781502,6.20339217 28.129117,6.56311334 27.8638482,6.82830205 L23.5358482,11.156302 C23.2709206,11.4220622 22.9111016,11.571435 22.5358482,11.571435 C22.1605948,11.571435 21.8007758,11.4220622 21.5358482,11.156302 L20.3478482,9.96830205 C19.7955635,9.41601729 19.7955635,8.52058683 20.3478483,7.96830211 C20.900133,7.41601738 21.7955634,7.41601736 22.3478482,7.96830205 L22.5358482,8.15630205 L24.8648482,5.82830205 L22.4508482,3.41330205 L13.8545756,12.0106429 C15.6118302,14.207783 16.0599912,17.2103015 14.9671537,19.8511929 C13.7638574,22.7590132 10.9288025,24.6569037 7.78184819,24.661302 L7.77884819,24.660302 C6.24804628,24.6647917 4.75076484,24.2121252 3.47884819,23.360302 C1.5339414,22.0687623 0.271249023,19.9726246 0.038747708,17.649549 C-0.193753607,15.3264733 0.628477552,13.0216694 2.27884819,11.370302 C3.68882822,9.95423858 5.59202089,9.13863577 7.58984819,9.09430205 L7.62484819,9.09430205 C8.39255834,9.10368672 9.01250642,9.72397649 9.02146808,10.4916917 C9.03042973,11.2594069 8.42513008,11.8939992 7.65784819,11.921302 C5.30759879,11.9793659 3.32212333,13.6819126 2.90624719,15.9958034 C2.49037105,18.3096942 3.75873951,20.597055 5.94168174,21.4698705 C8.12462397,22.342686 10.6203647,21.5603457 11.9144395,19.5975889 C13.2085143,17.6348322 12.9441835,15.0327355 11.2818482,13.370302 C11.2294659,13.3179198 11.1820519,13.2624506 11.1396062,13.2044801 C10.8872161,13.0525696 10.6824954,12.8209127 10.5642758,12.5356489 C10.3454537,12.0076311 10.4660343,11.3998019 10.8698482,10.995302 L21.4498482,0.414302046 C21.7150369,0.149033215 22.0747581,0 22.4498482,0 Z" id="path-1"></path>
    </defs>
    <g id="icon/key" stroke="none" stroke-width="1" fill="none" fill-rule="evenodd">
        <g id="color/primary/500" transform="translate(2.000000, 4.000000)">
            <mask id="mask-2" fill="white">
                <use xlink:href="#path-1"></use>
            </mask>
            <g id="Mask" fill-rule="nonzero"></g>
            <g id="Group" mask="url(#mask-2)">
                <g transform="translate(-2.000000, -4.000000)" id="color/primary/500">
                    <rect id="Rectangle-Copy-4" fill="#9DAAB7" x="0" y="2.27373675e-15" width="32" height="32"></rect>
                </g>
            </g>
        </g>
    </g>
</svg>