<?xml version="1.0" encoding="UTF-8"?>
<svg width="32px" height="32px" viewBox="0 0 32 32" version="1.1" xmlns="http://www.w3.org/2000/svg" xmlns:xlink="http://www.w3.org/1999/xlink">
    <title>icon/language</title>
    <defs>
        <path d="M22.4920522,2.73089698 C27.4267707,6.34393387 29.4790347,12.7202115 27.5782119,18.5333307 C25.7174944,24.2237994 20.4817151,28.1116634 14.5246153,28.2727946 C14.466603,28.2811023 14.4076824,28.2844476 14.3484447,28.2840353 C14.3074065,28.2838725 14.2666777,28.2819391 14.2263449,28.2782962 L14.1384447,28.2780003 L14.1384447,28.2780003 L14.1384447,28.2830003 L13.9985235,28.2818855 C13.9815706,28.2825597 13.9645344,28.2829336 13.9474447,28.2830003 L13.9384447,28.2840005 L13.845,28.279 L13.797869,28.2789189 C8.47274656,28.1512274 3.65832356,25.0363226 1.36598452,20.2067991 C-0.975127688,15.2745198 -0.267294853,9.43509253 3.18444466,5.20500034 C3.68121946,4.610315 4.56408165,4.52623151 5.1641824,5.0164508 C5.76428314,5.50667008 5.8580494,6.38855645 5.37444466,6.99400034 C3.98579097,8.69732237 3.17287629,10.6905598 2.91911419,12.7316054 L7.67626229,12.7312006 C7.9256598,9.39080351 8.98565798,6.17224865 10.7497586,3.3500393 C9.62949318,3.7013884 8.54583323,4.23461872 7.54244466,4.95500034 C7.13158924,5.24992308 6.59460375,5.30325417 6.13376545,5.09490431 C5.67292715,4.88655444 5.35824833,4.44817692 5.30826545,3.94490431 C5.25828258,3.4416317 5.48058924,2.94992308 5.89144466,2.65500034 C10.8589932,-0.912764175 17.5573337,-0.882139898 22.4920522,2.73089698 Z M17.7787042,15.5589772 L10.5172706,15.5594496 C10.8524368,19.081928 12.3540895,23.0308288 14.1485918,25.0916329 C15.9418422,23.0301226 17.4436883,19.0807006 17.7787042,15.5589772 Z M7.67766493,15.5591733 L2.92283206,15.5595632 C3.24459842,18.096226 4.42439697,20.5337213 6.43004092,22.4022278 C7.65172663,23.5403799 9.06233113,24.3579565 10.5554241,24.8552094 C9.03747634,22.2441773 7.93652867,18.7837859 7.67766493,15.5591733 Z M25.3425496,15.5595521 L20.618304,15.5591725 C20.3600416,18.7783508 19.2624282,22.2326329 17.7488869,24.8423242 C19.2437631,24.338292 20.6547816,23.5126981 21.8743416,22.3657042 C23.8572172,20.5008134 25.0230674,18.0786907 25.3425496,15.5595521 Z M14.1477484,3.414112 L14.1357594,3.42924152 C12.0699485,6.12355465 10.8145443,9.35102424 10.5160331,12.7313245 L17.7797269,12.7308607 C17.4803861,9.34434448 16.220626,6.1112807 14.1477484,3.414112 Z M17.5545757,3.36395727 L17.5638712,3.37999053 C19.3173063,6.19480562 20.371041,9.40244625 20.619614,12.7311332 L25.3462067,12.7315822 C25.0902748,10.6732345 24.2658377,8.66408295 22.8570498,6.95265635 C21.4221783,5.20954288 19.5677159,4.00196524 17.5545757,3.36395727 Z" id="path-1"></path>
    </defs>
    <g id="icon/language" stroke="none" stroke-width="1" fill="none" fill-rule="evenodd">
        <g id="color/primary/500" transform="translate(2.000000, 2.000000)">
            <mask id="mask-2" fill="white">
                <use xlink:href="#path-1"></use>
            </mask>
            <g id="Mask" fill-rule="nonzero"></g>
            <g id="Group" mask="url(#mask-2)">
                <g transform="translate(-2.000000, -2.000000)" id="color/primary/500">
                    <rect id="Rectangle-Copy-4" fill="#9DAAB7" x="0" y="2.27373675e-15" width="32" height="32"></rect>
                </g>
            </g>
        </g>
    </g>
</svg>