<?xml version="1.0" encoding="UTF-8"?>
<svg width="32px" height="32px" viewBox="0 0 32 32" version="1.1" xmlns="http://www.w3.org/2000/svg" xmlns:xlink="http://www.w3.org/1999/xlink">
    <title>icon/launch</title>
    <defs>
        <path d="M11.222,0 C12.0029306,0 12.636,0.633069364 12.636,1.414 C12.636,2.19493064 12.0029306,2.828 11.222,2.828 L3.535,2.828 C3.14476306,2.82855079 2.82855079,3.14476306 2.828,3.535 L2.828,24.743 C2.82855079,25.1332369 3.14476306,25.4494492 3.535,25.45 L24.742,25.45 C25.1322369,25.4494492 25.4484492,25.1332369 25.449,24.743 L25.449,18.433 C25.449,17.6520694 26.0820694,17.019 26.863,17.019 C27.6439306,17.019 28.277,17.6520694 28.277,18.433 L28.277,24.743 C28.2742448,26.6940222 26.6930229,28.2747968 24.742,28.277 L3.535,28.277 C1.58397705,28.2747968 0.00275521854,26.6940222 0,24.743 L0,3.535 C0.0022043656,1.58358722 1.58358722,0.0022043656 3.535,0 L11.222,0 Z M26.863,0 C27.1447475,0 27.4072486,0.082403677 27.6277172,0.22442488 C27.6441707,0.235614661 27.6606664,0.246732656 27.6769733,0.258236155 C27.697305,0.271983113 27.7169259,0.286604122 27.7361456,0.301712544 C27.7513105,0.314267459 27.7664342,0.326674405 27.7813551,0.339442385 C27.8056547,0.359562431 27.8290743,0.380989605 27.8517505,0.403173621 C27.8552408,0.407284825 27.8591288,0.411128845 27.863,0.415 L27.8748183,0.42626442 C27.8963458,0.448313465 27.9171585,0.471063448 27.9372191,0.49447692 L27.863,0.415 C27.9038763,0.455876338 27.9417273,0.498632411 27.9765529,0.542989968 C27.9896835,0.55923345 28.0021174,0.57584719 28.0141887,0.592737737 C28.0280201,0.612496711 28.0414775,0.63234966 28.054375,0.652457751 C28.143466,0.791175555 28.208785,0.946545603 28.2448559,1.11281993 C28.2677956,1.21903547 28.278528,1.32663494 28.2770854,1.43410133 L28.277,11.621 C28.277,12.4019306 27.6439306,13.035 26.863,13.035 C26.0820694,13.035 25.449,12.4019306 25.449,11.621 L25.449,4.827 L15.138,15.139 C14.8735076,15.4046614 14.5138757,15.5536981 14.139,15.5530024 C13.5669965,15.5530024 13.051262,15.2086107 12.8323492,14.6801553 C12.6134364,14.1516998 12.7344714,13.5434064 13.139,13.139 L23.449,2.828 L17.585,2.828 C16.8040694,2.828 16.171,2.19493064 16.171,1.414 C16.171,0.633069364 16.8040694,0 17.585,0 L26.863,0 Z" id="path-1"></path>
    </defs>
    <g id="icon/launch" stroke="none" stroke-width="1" fill="none" fill-rule="evenodd">
        <g id="color/primary/500" transform="translate(2.000000, 2.000000)">
            <mask id="mask-2" fill="white">
                <use xlink:href="#path-1"></use>
            </mask>
            <g id="Mask" fill-rule="nonzero"></g>
            <g id="Group" mask="url(#mask-2)">
                <g transform="translate(-2.000000, -2.000000)" id="color/primary/500">
                    <rect id="Rectangle-Copy-4" fill="#9DAAB7" x="0" y="2.27373675e-15" width="32" height="32"></rect>
                </g>
            </g>
        </g>
    </g>
</svg>