<?xml version="1.0" encoding="UTF-8"?>
<svg width="32px" height="32px" viewBox="0 0 32 32" version="1.1" xmlns="http://www.w3.org/2000/svg" xmlns:xlink="http://www.w3.org/1999/xlink">
    <title>icon/lightning</title>
    <defs>
        <path d="M14.1392841,28.2789358 C13.3583535,28.2789358 12.7252841,27.6458664 12.7252841,26.8649357 L12.7252841,17.8859357 L1.41428413,17.8859357 C0.863742497,17.886039 0.363195378,17.5665874 0.131425426,17.067209 C-0.100344525,16.5678306 -0.0211929087,15.979331 0.334284132,15.5589357 L13.0602841,0.501935727 C13.4431,0.0481700415 14.0687332,-0.117909901 14.6262011,0.0862490161 C15.183669,0.290407933 15.5540679,0.821260149 15.5532841,1.41493573 L15.5532841,10.3939357 L26.8652841,10.3939357 C27.4156455,10.3937116 27.9160591,10.7130675 28.1476585,11.2123263 C28.3792579,11.7115852 28.2998963,12.2998909 27.9442841,12.7199357 L15.2192841,27.7779357 C14.9505577,28.0957378 14.5554716,28.2789358 14.1392841,28.2789358 L14.1392841,28.2789358 Z M4.46028413,15.0579357 L14.1392841,15.0579357 C14.9194344,15.0579349 15.5521807,15.6897863 15.5532841,16.4699357 L15.5532841,22.9999357 L23.8192841,13.2199357 L14.1392841,13.2199357 C13.3585821,13.2193842 12.7258357,12.5866378 12.7252841,11.8059357 L12.7252841,5.27593573 L4.46028413,15.0579357 Z" id="path-1"></path>
    </defs>
    <g id="icon/lightning" stroke="none" stroke-width="1" fill="none" fill-rule="evenodd">
        <g id="color/primary/500" transform="translate(2.000000, 2.000000)">
            <mask id="mask-2" fill="white">
                <use xlink:href="#path-1"></use>
            </mask>
            <g id="Mask" fill-rule="nonzero"></g>
            <g id="Group" mask="url(#mask-2)">
                <g transform="translate(-2.000000, -2.000000)" id="color/primary/500">
                    <rect id="Rectangle-Copy-4" fill="#9DAAB7" x="0" y="2.27373675e-15" width="32" height="32"></rect>
                </g>
            </g>
        </g>
    </g>
</svg>