<?xml version="1.0" encoding="UTF-8"?>
<svg width="32px" height="32px" viewBox="0 0 32 32" version="1.1" xmlns="http://www.w3.org/2000/svg" xmlns:xlink="http://www.w3.org/1999/xlink">
    <title>icon/link</title>
    <defs>
        <path d="M9.62896639,11.3123113 C10.1812511,11.864596 10.1812511,12.7600265 9.62896639,13.3123113 L3.96396639,18.9773113 C2.48796014,20.4965326 2.50532734,22.9194183 4.0029603,24.4173246 C5.50059327,25.9152309 7.92347575,25.9330402 9.44296639,24.4573113 L15.1089664,18.7913113 C15.6612511,18.2390265 16.5566816,18.2390265 17.1089664,18.7913113 C17.6612511,19.343596 17.6612511,20.2390265 17.1089664,20.7913113 L11.4439664,26.4573113 C10.186814,27.7146008 8.48094353,28.4198331 6.70296639,28.417318 C3.99220881,28.418432 1.54787225,26.7860163 0.51035859,24.2816654 C-0.527155072,21.7773146 0.0466107481,18.8945459 1.96396639,16.9783113 L7.62896639,11.3123113 C8.18125114,10.7600265 9.07668164,10.7600265 9.62896639,11.3123113 Z M18.4659664,9.95631127 C19.0182511,10.508596 19.0182511,11.4040265 18.4659664,11.9563113 L11.9509664,18.4723113 C11.6857933,18.736591 11.3263448,18.8844722 10.9519664,18.8833181 C10.3804021,18.8830295 9.86521615,18.5386758 9.64639405,18.0106581 C9.42757195,17.4826403 9.54815245,16.8748111 9.95196639,16.4703113 L16.4659664,9.95631127 C17.0182511,9.40402652 17.9136816,9.40402652 18.4659664,9.95631127 Z M26.454466,1.96281163 C29.0720195,4.58008892 29.0722435,8.82375764 26.4549664,11.4413113 L20.9549664,16.9413113 C20.6909846,17.2073665 20.3317619,17.3571026 19.9569664,17.3573113 C19.3854364,17.3564597 18.8705338,17.0118694 18.651802,16.4838508 C18.4330702,15.9558322 18.5534611,15.3480714 18.9569664,14.9433113 L24.4569664,9.44331127 C25.9702266,7.92977491 25.9700027,5.47607148 24.4564664,3.96281127 C22.94293,2.44955105 20.4892266,2.44977491 18.9759664,3.96331127 L13.4759664,9.46331127 C12.9236816,10.015596 12.0282511,10.015596 11.4759664,9.46331127 C10.9236816,8.91102652 10.9236816,8.01559602 11.4759664,7.46331127 L16.9759664,1.96331127 C19.5932439,-0.654241958 23.8369126,-0.654465651 26.454466,1.96281163 Z" id="path-1"></path>
    </defs>
    <g id="icon/link" stroke="none" stroke-width="1" fill="none" fill-rule="evenodd">
        <g id="color/primary/500" transform="translate(2.000000, 2.000000)">
            <mask id="mask-2" fill="white">
                <use xlink:href="#path-1"></use>
            </mask>
            <g id="Mask" fill-rule="nonzero"></g>
            <g id="Group" mask="url(#mask-2)">
                <g transform="translate(-2.000000, -2.000000)" id="color/primary/500">
                    <rect id="Rectangle-Copy-4" fill="#9DAAB7" x="0" y="2.27373675e-15" width="32" height="32"></rect>
                </g>
            </g>
        </g>
    </g>
</svg>