<?xml version="1.0" encoding="UTF-8"?>
<svg width="32px" height="32px" viewBox="0 0 32 32" version="1.1" xmlns="http://www.w3.org/2000/svg" xmlns:xlink="http://www.w3.org/1999/xlink">
    <title>icon/list</title>
    <defs>
        <path d="M2.552,19.157 C3.96143068,19.157 5.104,20.2995693 5.104,21.709 C5.10234686,23.1177454 3.96074536,24.2593469 2.552,24.261 C1.14256932,24.261 0,23.1184307 0,21.709 C0,20.2995693 1.14256932,19.157 2.552,19.157 Z M26.764,20.295 C27.5449305,20.295 28.1779995,20.9280695 28.1779995,21.709 C28.1779995,22.4899305 27.5449305,23.123 26.764,23.123 L8.59,23.123 C7.80906955,23.123 7.17600048,22.4899305 7.17600048,21.709 C7.17600048,20.9280695 7.80906955,20.295 8.59,20.295 L26.764,20.295 Z M2.552,9.579 C3.96143068,9.579 5.104,10.7215693 5.104,12.131 C5.10234686,13.5397454 3.96074536,14.6813469 2.552,14.683 C1.14256932,14.683 0,13.5404307 0,12.131 C0,10.7215693 1.14256932,9.579 2.552,9.579 Z M26.764,10.715 C27.2779589,10.7013284 27.758837,10.9677099 28.0198444,11.4106725 C28.2808517,11.8536351 28.2808517,12.4033649 28.0198444,12.8463275 C27.758837,13.2892901 27.2779589,13.5556716 26.764,13.542 L8.59,13.542 C8.07604107,13.5556716 7.59516296,13.2892901 7.33415563,12.8463275 C7.0731483,12.4033649 7.0731483,11.8536351 7.33415563,11.4106725 C7.59516296,10.9677099 8.07604107,10.7013284 8.59,10.715 L26.764,10.715 Z M2.552,0 C3.96143068,0 5.104,1.14256932 5.104,2.552 C5.10234686,3.96074536 3.96074536,5.10234686 2.552,5.104 C1.14256932,5.104 0,3.96143068 0,2.552 C0,1.14256932 1.14256932,0 2.552,0 Z M26.764,1.138 C27.5449306,1.138 28.178,1.77106936 28.178,2.552 C28.178,3.33293064 27.5449306,3.966 26.764,3.966 L8.59,3.966 C7.80906955,3.966 7.17600048,3.33293045 7.17600048,2.552 C7.17600048,1.77106955 7.80906955,1.138 8.59,1.138 L26.764,1.138 Z" id="path-1"></path>
    </defs>
    <g id="icon/list" stroke="none" stroke-width="1" fill="none" fill-rule="evenodd">
        <g id="color/primary/500" transform="translate(2.000000, 4.000000)">
            <mask id="mask-2" fill="white">
                <use xlink:href="#path-1"></use>
            </mask>
            <g id="Mask" fill-rule="nonzero"></g>
            <g id="Group" mask="url(#mask-2)">
                <g transform="translate(-2.000000, -4.000000)" id="color/primary/500">
                    <rect id="Rectangle-Copy-4" fill="#9DAAB7" x="0" y="2.27373675e-15" width="32" height="32"></rect>
                </g>
            </g>
        </g>
    </g>
</svg>