<?xml version="1.0" encoding="UTF-8"?>
<svg width="32px" height="32px" viewBox="0 0 32 32" version="1.1" xmlns="http://www.w3.org/2000/svg" xmlns:xlink="http://www.w3.org/1999/xlink">
    <title>icon/lock</title>
    <defs>
        <path d="M12.322,0 C16.10018,0 19.163,3.06282003 19.163,6.841 L19.162,7.217 L19.694,7.218 C22.4261148,7.22075609 24.6402439,9.4348852 24.643,12.167 L24.643,23.329 C24.639694,26.0608866 22.4258866,28.274694 19.694,28.278 L4.949,28.278 C2.21711335,28.274694 0.0033060383,26.0608866 0,23.329 L0,12.167 C0.0033060383,9.43511335 2.21711335,7.22130604 4.949,7.218 L5.48,7.217 L5.481,6.841 C5.481,3.06282003 8.54382003,0 12.322,0 Z M19.694,10.046 L7.21679756,10.0464111 C7.00487941,10.0959961 6.78412059,10.0959961 6.57220244,10.0464111 L4.949,10.046 C3.77828917,10.0476524 2.82965238,10.9962892 2.828,12.167 L2.828,23.329 C2.82910258,24.4999389 3.77806105,25.4488974 4.949,25.45 L19.694,25.45 C20.8649389,25.4488974 21.8138974,24.4999389 21.815,23.329 L21.815,12.167 C21.8138974,10.9960611 20.8649389,10.0471026 19.694,10.046 Z M12.322,14.118 C13.1029306,14.118 13.736,14.7510694 13.736,15.532 L13.736,19.623 C13.736,20.4039306 13.1029306,21.037 12.322,21.037 C11.5410694,21.037 10.908,20.4039306 10.908,19.623 L10.908,15.532 C10.908,14.7510694 11.5410694,14.118 12.322,14.118 Z M12.3215,2.8275 C10.1049052,2.8275 8.308,4.62440516 8.308,6.841 L8.307,7.217 L16.334,7.217 L16.335,6.841 C16.335,4.62440516 14.5380948,2.8275 12.3215,2.8275 Z" id="path-1"></path>
    </defs>
    <g id="icon/lock" stroke="none" stroke-width="1" fill="none" fill-rule="evenodd">
        <g id="color/primary/500" transform="translate(4.000000, 2.000000)">
            <mask id="mask-2" fill="white">
                <use xlink:href="#path-1"></use>
            </mask>
            <g id="Mask" fill-rule="nonzero"></g>
            <g id="Group" mask="url(#mask-2)">
                <g transform="translate(-4.000000, -2.000000)" id="color/primary/500">
                    <rect id="Rectangle-Copy-4" fill="#9DAAB7" x="0" y="2.27373675e-15" width="32" height="32"></rect>
                </g>
            </g>
        </g>
    </g>
</svg>