<?xml version="1.0" encoding="UTF-8"?>
<svg width="32px" height="32px" viewBox="0 0 32 32" version="1.1" xmlns="http://www.w3.org/2000/svg" xmlns:xlink="http://www.w3.org/1999/xlink">
    <title>icon/lock_open</title>
    <defs>
        <path d="M17.551,2.8302917 C18.0088441,3.46293388 17.8671422,4.34694764 17.2345,4.8047917 C16.6018578,5.26263576 15.7178441,5.12093388 15.26,4.4882917 C14.1084189,2.89757612 11.9749933,2.37360773 10.2175254,3.24986216 C8.70092092,4.00602472 7.84858952,5.61329551 8.01448985,7.24585117 L19.694,7.2452917 C22.4257249,7.24804679 24.6396929,9.46156743 24.643,12.1932917 L24.643,23.3552917 C24.639694,26.0871783 22.4258866,28.3009857 19.694,28.3042917 L4.949,28.3042917 C2.21711335,28.3009857 0.0033060383,26.0871783 0,23.3552917 L0,12.1932917 C0.00330712049,9.46156743 2.21727512,7.24804679 4.949,7.2452917 L5.17790053,7.24559953 C5.01970782,4.57712524 6.44375251,1.98864205 8.92362388,0.735751816 C11.9235183,-0.779866464 15.5800143,0.107851511 17.551,2.8302917 Z M6.902,10.072 L6.902,10.0732917 L6.883,10.072 L4.949,10.0722917 C3.77828917,10.0739441 2.82965238,11.0225809 2.828,12.1932917 L2.828,23.3552917 C2.82910258,24.5262306 3.77806105,25.4751891 4.949,25.4762917 L19.694,25.4762917 C20.8649389,25.4751891 21.8138974,24.5262306 21.815,23.3552917 L21.815,12.1932917 C21.8133476,11.0225809 20.8647108,10.0739441 19.694,10.0722917 L6.902,10.072 Z M14.369,16.3602917 C15.1499306,16.3602917 15.783,16.9933611 15.783,17.7742917 C15.783,18.5552223 15.1499306,19.1882917 14.369,19.1882917 L10.278,19.1882917 C9.49706936,19.1882917 8.864,18.5552223 8.864,17.7742917 C8.864,16.9933611 9.49706936,16.3602917 10.278,16.3602917 L14.369,16.3602917 Z" id="path-1"></path>
    </defs>
    <g id="icon/lock_open" stroke="none" stroke-width="1" fill="none" fill-rule="evenodd">
        <g id="color/primary/500" transform="translate(4.000000, 2.000000)">
            <mask id="mask-2" fill="white">
                <use xlink:href="#path-1"></use>
            </mask>
            <g id="Mask" fill-rule="nonzero"></g>
            <g id="Group" mask="url(#mask-2)">
                <g transform="translate(-4.000000, -2.000000)" id="color/primary/500">
                    <rect id="Rectangle-Copy-4" fill="#9DAAB7" x="0" y="2.27373675e-15" width="32" height="32"></rect>
                </g>
            </g>
        </g>
    </g>
</svg>