<?xml version="1.0" encoding="UTF-8"?>
<svg width="32px" height="32px" viewBox="0 0 32 32" version="1.1" xmlns="http://www.w3.org/2000/svg" xmlns:xlink="http://www.w3.org/1999/xlink">
    <title>icon/mail</title>
    <defs>
        <path d="M26.863,1.26253849e-06 C27.4381813,-0.00076485678 27.9564254,0.347194983 28.1734467,0.879863629 C28.390468,1.41253228 28.2629496,2.02359041 27.851,2.42500253 L27.1644793,3.09661768 C27.0847137,3.21956135 26.9852427,3.33103599 26.868,3.42600253 L15.027,13.0440025 C14.7744204,13.2476519 14.4594505,13.3581739 14.135,13.3570117 L14.135,13.3570117 C13.8095543,13.3572369 13.4940473,13.2448839 13.242,13.0390025 L2.825,4.543 L2.825,18.3530025 C2.82555068,19.1333146 3.45768849,19.7658998 4.238,19.7670025 L24.032,19.7670025 C24.8127021,19.766451 25.4454485,19.1337046 25.446,18.3530025 L25.446,7.87500253 C25.446,7.09407189 26.0790694,6.46100253 26.86,6.46100253 C27.6409306,6.46100253 28.274,7.09407189 28.274,7.87500253 L28.274,18.3530025 C28.2712448,20.6946522 26.3736497,22.5922473 24.032,22.5950025 L4.241,22.5950025 C1.89951264,22.5922463 0.00220420817,20.6944905 0,18.3530025 L0,3.53500253 C0.00220322459,1.58397958 1.58297775,0.00275774779 3.534,1.26253849e-06 L26.863,1.26253849e-06 Z M23.112,2.828 L5.193,2.828 L14.133,10.1200025 L23.112,2.828 Z" id="path-1"></path>
    </defs>
    <g id="icon/mail" stroke="none" stroke-width="1" fill="none" fill-rule="evenodd">
        <g id="color/primary/500" transform="translate(2.000000, 4.999999)">
            <mask id="mask-2" fill="white">
                <use xlink:href="#path-1"></use>
            </mask>
            <g id="Mask" fill-rule="nonzero"></g>
            <g id="Group" mask="url(#mask-2)">
                <g transform="translate(-2.000000, -4.999999)" id="color/primary/500">
                    <rect id="Rectangle-Copy-4" fill="#9DAAB7" x="0" y="2.27373675e-15" width="32" height="32"></rect>
                </g>
            </g>
        </g>
    </g>
</svg>