<?xml version="1.0" encoding="UTF-8"?>
<svg width="32px" height="32px" viewBox="0 0 32 32" version="1.1" xmlns="http://www.w3.org/2000/svg" xmlns:xlink="http://www.w3.org/1999/xlink">
    <title>icon/map</title>
    <defs>
        <path d="M10.1700007,0.0309460898 L18.386,1.637 L26.5920007,0.0329460898 C27.0067585,-0.0484159506 27.4361593,0.0601632805 27.7623919,0.32889375 C28.0886245,0.597624219 28.2774276,0.99828359 28.2770014,1.42094609 L28.2770014,21.1999461 C28.2770014,21.8764712 27.7979847,22.4582867 27.1340007,22.5879461 L18.6703665,24.2434253 C18.5762119,24.2629851 18.479624,24.2730205 18.3820007,24.2729533 L18.3800007,24.272951 C18.283777,24.2730178 18.1885593,24.2632695 18.0956861,24.2442598 L9.897,22.64 L1.68500071,24.2469461 C1.59573856,24.2644787 1.50496809,24.272951 1.41400071,24.272951 C1.03890325,24.2732116 0.679092499,24.1243224 0.413858472,23.8590883 C0.148624446,23.5938543 -0.00026484753,23.2340436 3.53674864e-07,22.8589461 L3.53674864e-07,3.07994609 C-0.000194327424,2.4037307 0.478414276,1.82202427 1.14200071,1.69194609 L9.4455624,0.0671304304 C9.67586221,-0.00646424705 9.92514821,-0.0211086813 10.1700007,0.0309460898 Z M8.48300071,3.13794609 L2.82800071,4.24394609 L2.82800071,21.1439461 L8.48300071,20.0379461 L8.48300071,3.13794609 Z M25.4490007,3.13794609 L19.796,4.243 L19.796,21.143 L25.4490007,20.0379461 L25.4490007,3.13794609 Z M11.311,3.134 L11.311,20.035 L16.966,21.141 L16.966,4.241 L11.311,3.134 Z" id="path-1"></path>
    </defs>
    <g id="icon/map" stroke="none" stroke-width="1" fill="none" fill-rule="evenodd">
        <g id="color/primary/500" transform="translate(2.000000, 4.000000)">
            <mask id="mask-2" fill="white">
                <use xlink:href="#path-1"></use>
            </mask>
            <g id="Mask" fill-rule="nonzero"></g>
            <g id="Group" mask="url(#mask-2)">
                <g transform="translate(-2.000000, -4.000000)" id="color/primary/500">
                    <rect id="Rectangle-Copy-4" fill="#9DAAB7" x="0" y="2.27373675e-15" width="32" height="32"></rect>
                </g>
            </g>
        </g>
    </g>
</svg>