<?xml version="1.0" encoding="UTF-8"?>
<svg width="32px" height="32px" viewBox="0 0 32 32" version="1.1" xmlns="http://www.w3.org/2000/svg" xmlns:xlink="http://www.w3.org/1999/xlink">
    <title>icon/menu</title>
    <defs>
        <path d="M26.1935999,18.794 C26.9742544,18.794 27.6070999,19.4268455 27.6070999,20.2075 C27.6070999,20.9881545 26.9742544,21.621 26.1935999,21.621 L1.45159987,21.621 C0.670945373,21.621 0.038099867,20.9881545 0.038099867,20.2075 C0.038099867,19.4268455 0.670945373,18.794 1.45159987,18.794 L26.1935999,18.794 Z M26.1935999,9.397 C26.7075588,9.38332841 27.1884369,9.64970989 27.4494442,10.0926725 C27.7104516,10.5356351 27.7104516,11.0853649 27.4494442,11.5283275 C27.1884369,11.9712901 26.7075588,12.2376716 26.1935999,12.224 L26.1935999,12.224 L1.45159987,12.224 C0.937640936,12.2376716 0.456762822,11.9712901 0.195755495,11.5283275 C-0.0652518318,11.0853649 -0.0652518318,10.5356351 0.195755495,10.0926725 C0.456762822,9.64970989 0.937640936,9.38332841 1.45159987,9.397 L26.1935999,9.397 Z M26.1935999,0 C26.9745305,0 27.6075999,0.633069364 27.6075999,1.414 C27.6075999,2.19493064 26.9745305,2.828 26.1935999,2.828 L1.45159987,2.828 C0.670669231,2.828 0.037599867,2.19493064 0.037599867,1.414 C0.037599867,0.633069364 0.670669231,0 1.45159987,0 L26.1935999,0 Z" id="path-1"></path>
    </defs>
    <g id="icon/menu" stroke="none" stroke-width="1" fill="none" fill-rule="evenodd">
        <g id="color/primary/500" transform="translate(2.000000, 5.000000)">
            <mask id="mask-2" fill="white">
                <use xlink:href="#path-1"></use>
            </mask>
            <g id="Mask" fill-rule="nonzero"></g>
            <g id="Group" mask="url(#mask-2)">
                <g transform="translate(-2.000000, -5.000000)" id="color/primary/500">
                    <rect id="Rectangle-Copy-4" fill="#9DAAB7" x="0" y="2.27373675e-15" width="32" height="32"></rect>
                </g>
            </g>
        </g>
    </g>
</svg>