<?xml version="1.0" encoding="UTF-8"?>
<svg width="32px" height="32px" viewBox="0 0 32 32" version="1.1" xmlns="http://www.w3.org/2000/svg" xmlns:xlink="http://www.w3.org/1999/xlink">
    <title>icon/message</title>
    <defs>
        <path d="M6.742,0 C7.24717362,0 7.71397335,0.269506731 7.9665602,0.706999903 C8.21914705,1.14449307 8.21914705,1.68350693 7.9665602,2.1210001 C7.71397335,2.55849327 7.24717362,2.82800012 6.742,2.828 L4.242,2.828 C3.46191569,2.82910007 2.82965195,3.46091666 2.828,4.241 L2.828,15.916 C2.82910159,16.6964739 3.46152611,17.3288984 4.242,17.33 L8.677,17.33 C9.80298696,17.3264767 10.8834616,17.7741534 11.677,18.573 L14.14,21.035 L16.602,18.572 C17.3958938,17.7738041 18.4762238,17.3265475 19.602,17.33 L24.038,17.33 C24.8184739,17.3288984 25.4508984,16.6964739 25.452,15.916 L25.452,4.241 C25.4503481,3.46091666 24.8180843,2.82910007 24.038,2.828 L10.195,2.828 C9.41406936,2.828 8.781,2.19493064 8.781,1.414 C8.781,0.633069364 9.41406936,0 10.195,0 L24.037,0 C26.3783256,0.00220515862 28.2757948,1.89967439 28.278,4.241 L28.278,15.916 C28.2757948,18.2573256 26.3783256,20.1547948 24.037,20.157 L19.601,20.157 C19.226149,20.1579015 18.8667936,20.3066746 18.601,20.571 L15.139,24.034 C14.8746866,24.3002933 14.5151977,24.4503502 14.14,24.4510014 C13.7648657,24.4515211 13.4049883,24.3025318 13.14,24.037 L9.677,20.575 C9.41161526,20.3099393 9.05208092,20.1607326 8.677,20.16 L4.242,20.16 C1.90051206,20.1577958 0.00275625053,18.2604874 0,15.919 L0,4.241 C0.00275625053,1.89951264 1.90051206,0.00220420817 4.242,0 L6.742,0 Z M20.5286119,8.92714875 C21.1785027,9.19522988 21.6023855,9.82898834 21.6020048,10.532 C21.6042157,11.4858973 20.8338897,12.2615915 19.88,12.266 C19.177008,12.2712674 18.5403212,11.8517959 18.2677335,11.2037824 C17.9951457,10.555769 18.1405422,9.80731307 18.6359176,9.30848563 C19.1312929,8.8096582 19.8787211,8.65906762 20.5286119,8.92714875 Z M9.55137537,8.92705899 C10.2013892,9.19507872 10.6253824,9.82889801 10.6250048,10.532 C10.6272175,11.4855089 9.85749863,12.2610421 8.904,12.266 C8.2009208,12.2716733 7.56392881,11.8524618 7.29102517,11.2044833 C7.01812154,10.5565048 7.16326849,9.80788642 7.65856256,9.30885102 C8.15385663,8.80981562 8.90136154,8.65903926 9.55137537,8.92705899 Z M15.0393754,8.92705899 C15.6893892,9.19507872 16.1133824,9.82889801 16.1130048,10.532 C16.1152175,11.4855089 15.3454986,12.2610421 14.392,12.266 C13.6889208,12.2716733 13.0519288,11.8524618 12.7790252,11.2044833 C12.5061215,10.5565048 12.6512685,9.80788642 13.1465626,9.30885102 C13.6418566,8.80981562 14.3893615,8.65903926 15.0393754,8.92705899 Z" id="path-1"></path>
    </defs>
    <g id="icon/message" stroke="none" stroke-width="1" fill="none" fill-rule="evenodd">
        <g id="color/primary/500" transform="translate(2.000000, 4.000000)">
            <mask id="mask-2" fill="white">
                <use xlink:href="#path-1"></use>
            </mask>
            <g id="Mask" fill-rule="nonzero"></g>
            <g id="Group" mask="url(#mask-2)">
                <g transform="translate(-2.000000, -4.000000)" id="color/primary/500">
                    <rect id="Rectangle-Copy-4" fill="#9DAAB7" x="0" y="2.27373675e-15" width="32" height="32"></rect>
                </g>
            </g>
        </g>
    </g>
</svg>