<?xml version="1.0" encoding="UTF-8"?>
<svg width="32px" height="32px" viewBox="0 0 32 32" version="1.1" xmlns="http://www.w3.org/2000/svg" xmlns:xlink="http://www.w3.org/1999/xlink">
    <title>icon/mic_off</title>
    <defs>
        <path d="M27.8643433,0.418938624 C28.416628,0.971223313 28.4166281,1.86665369 27.8643435,2.41893847 L19.418,10.864 L19.4183435,14.4989385 C19.4150369,17.4125267 17.0539317,19.773632 14.1403435,19.7769385 C13.1333012,19.7755365 12.1589809,19.4866967 11.3249128,18.959247 L9.55922571,20.7251471 C10.795385,21.6498321 12.2916608,22.1823632 13.851287,22.2372526 L14.0939102,22.2396865 C14.1093269,22.2391891 14.1248059,22.2389385 14.1403435,22.2389385 L14.184,22.24 L14.384278,22.237799 C18.515346,22.1033154 21.8234014,18.7153284 21.8293435,14.5529385 C21.8156719,14.0389795 22.0820533,13.5581014 22.525016,13.2970941 C22.9679786,13.0360868 23.5177084,13.0360868 23.960671,13.2970941 C24.4036336,13.5581014 24.670015,14.0389795 24.6563435,14.5529385 C24.6502779,19.8785254 20.6908831,24.2778239 15.5547448,24.9739844 L15.5543435,26.8699385 C15.5537914,27.6504786 14.9208837,28.2829385 14.1403435,28.2829385 C13.3594128,28.2829385 12.7263435,27.6498691 12.7263435,26.8689385 L12.7265405,24.9779035 C10.8263228,24.7234935 9.03229271,23.9491136 7.54404964,22.7413682 L2.41434346,27.8699385 C2.14919093,28.1351036 1.78933383,28.2837246 1.41434346,28.2829416 C0.842339995,28.2829416 0.326605428,27.9385492 0.107692646,27.4100937 C-0.111220137,26.8816383 0.00981481951,26.2733449 0.414343457,25.8689385 L25.8643435,0.418938469 C26.4166282,-0.133346135 27.3120586,-0.133346066 27.8643433,0.418938624 Z M5.74434359,13.3253782 C6.18183679,13.577965 6.45134363,14.0447648 6.45134346,14.5499385 C6.45075191,15.2537016 6.54664469,15.9542237 6.73634346,16.6319385 C6.85698564,17.0586096 6.77065144,17.5171606 6.50310573,17.8707453 C6.23556003,18.2243299 5.81774258,18.4320586 5.37434346,18.4319385 L5.37434346,18.4289385 C4.74080299,18.4284098 4.18482457,18.0068303 4.01334346,17.3969385 C3.75379521,16.4702315 3.62257247,15.5123056 3.62334008,14.5499385 C3.62334008,14.0447648 3.89285013,13.577965 4.33034332,13.3253782 C4.76783651,13.0727913 5.3068504,13.0727913 5.74434359,13.3253782 Z M16.59,13.692 L13.43942,16.8439816 C13.941914,16.9951617 14.4913915,16.9844974 15.0053602,16.7912049 C15.9605628,16.4319739 16.5923536,15.5174555 16.5903435,14.4969385 L16.59,13.692 Z M19.3113435,4.22093847 C19.3296843,4.31416244 19.3390604,4.40892786 19.3393435,4.50393847 L19.3393435,4.72293847 C19.3393435,5.50386911 18.7062741,6.13693847 17.9253435,6.13693847 C17.1444128,6.13693847 16.5113435,5.50386911 16.5113435,4.72293847 L16.5113435,4.66293847 C16.2006684,3.46933324 15.0511354,2.69276085 13.8278356,2.85008213 C12.6045358,3.00740341 11.6888993,4.0495649 11.6903435,5.28293847 L11.6903435,12.2349385 C11.6903435,12.6099546 11.5413689,12.969611 11.2761924,13.2347875 C11.011016,13.4999639 10.6513596,13.6489385 10.2763435,13.6489385 C9.49541282,13.6489385 8.86234139,13.0158691 8.86234139,12.2349385 L8.86234139,5.28293847 C8.85996383,2.57285848 10.9104623,0.301386938 13.6066533,0.0273554652 C16.3028443,-0.246676007 18.7684207,1.5657974 19.3113435,4.22093847 Z" id="path-1"></path>
    </defs>
    <g id="icon/mic_off" stroke="none" stroke-width="1" fill="none" fill-rule="evenodd">
        <g id="color/primary/500" transform="translate(2.000000, 2.000000)">
            <mask id="mask-2" fill="white">
                <use xlink:href="#path-1"></use>
            </mask>
            <g id="Mask" fill-rule="nonzero"></g>
            <g id="Group" mask="url(#mask-2)">
                <g transform="translate(-2.000000, -2.000000)" id="color/primary/500">
                    <rect id="Rectangle-Copy-4" fill="#9DAAB7" x="0" y="2.27373675e-15" width="32" height="32"></rect>
                </g>
            </g>
        </g>
    </g>
</svg>