<?xml version="1.0" encoding="UTF-8"?>
<svg width="32px" height="32px" viewBox="0 0 32 32" version="1.1" xmlns="http://www.w3.org/2000/svg" xmlns:xlink="http://www.w3.org/1999/xlink">
    <title>icon/mic_on</title>
    <defs>
        <path d="M19.62,13.132 C20.4009306,13.132 21.034,13.7650694 21.034,14.546 C21.0299548,19.8732425 17.0695166,24.2746286 11.931795,24.970256 L11.931,26.866 C11.9298973,27.6463115 11.2973121,28.2784493 10.517,28.279 C9.73606936,28.279 9.103,27.6459306 9.103,26.865 L9.10326454,24.9702726 C3.96527368,24.274703 0.00455029203,19.8733793 0,14.546 C0,13.7650694 0.633069364,13.132 1.414,13.132 C2.19493064,13.132 2.828,13.7650694 2.828,14.546 C2.828,18.7878318 6.26288985,22.2274021 10.5029461,22.2349874 L10.517,22.235 L10.517,22.235 L10.532,22.235 L10.7610806,22.2311994 C14.8946475,22.1022995 18.206,18.7108536 18.206,14.546 C18.206,13.7650694 18.8390694,13.132 19.62,13.132 Z M10.517,0 C13.4319589,0 15.795,2.36304109 15.795,5.278 L15.795,14.495 C15.7916935,17.4085882 13.4305882,19.7696935 10.517,19.773 C7.60341179,19.7696935 5.24230652,17.4085882 5.239,14.495 L5.239,5.278 C5.239,2.36304109 7.60204109,0 10.517,0 Z M10.517,2.828 C9.16442511,2.82965172 8.06820368,3.9254259 8.066,5.278 L8.066,14.495 C8.10388517,15.8208457 9.1896131,16.8759929 10.516,16.8759929 C11.8423869,16.8759929 12.9281148,15.8208457 12.966,14.495 L12.966,5.278 C12.9637994,3.92620515 11.8687938,2.83075248 10.517,2.828 Z" id="path-1"></path>
    </defs>
    <g id="icon/mic_on" stroke="none" stroke-width="1" fill="none" fill-rule="evenodd">
        <g id="color/primary/500" transform="translate(5.000000, 2.000000)">
            <mask id="mask-2" fill="white">
                <use xlink:href="#path-1"></use>
            </mask>
            <g id="Mask" fill-rule="nonzero"></g>
            <g id="Group" mask="url(#mask-2)">
                <g transform="translate(-5.000000, -2.000000)" id="color/primary/500">
                    <rect id="Rectangle-Copy-4" fill="#9DAAB7" x="0" y="2.27373675e-15" width="32" height="32"></rect>
                </g>
            </g>
        </g>
    </g>
</svg>