<?xml version="1.0" encoding="UTF-8"?>
<svg width="32px" height="32px" viewBox="0 0 32 32" version="1.1" xmlns="http://www.w3.org/2000/svg" xmlns:xlink="http://www.w3.org/1999/xlink">
    <title>icon/mobile</title>
    <defs>
        <path d="M13.712,0 C15.6632505,0.00220535014 17.2443467,1.58374899 17.246,3.535 L17.246,24.743 C17.2426942,26.6930794 15.662081,28.2727981 13.712,28.275 L3.534,28.275 C1.58274953,28.2727946 0.00165329164,26.691251 0,24.74 L0,3.535 C0.00165329164,1.58374899 1.58274953,0.00220535014 3.534,0 L13.712,0 Z M3.534,2.825 C3.14392526,2.82555173 2.82799929,3.14192487 2.82799929,3.532 L2.82799929,24.74 C2.82773454,24.927416 2.90199926,25.1072469 3.03442873,25.239864 C3.16685819,25.372481 3.34658377,25.447 3.534,25.447 L13.712,25.447 C14.1024653,25.447 14.419,25.1304653 14.419,24.74 L14.419,3.535 C14.4184492,3.14476306 14.1022369,2.82855079 13.712,2.828 L11.6677886,2.8268238 C11.7185283,2.95071372 11.7465,3.0863403 11.7465,3.2285 C11.7465,3.81419798 11.271698,4.289 10.686,4.289 L6.561,4.289 C5.97530202,4.289 5.5005,3.81419798 5.5005,3.2285 C5.5005,3.0859612 5.52862103,2.94999043 5.57961784,2.82583294 L3.534,2.825 Z" id="path-1"></path>
    </defs>
    <g id="icon/mobile" stroke="none" stroke-width="1" fill="none" fill-rule="evenodd">
        <g id="color/primary/500" transform="translate(7.000000, 2.000000)">
            <mask id="mask-2" fill="white">
                <use xlink:href="#path-1"></use>
            </mask>
            <g id="Mask" fill-rule="nonzero"></g>
            <g id="Group" mask="url(#mask-2)">
                <g transform="translate(-7.000000, -2.000000)" id="color/primary/500">
                    <rect id="Rectangle-Copy-4" fill="#9DAAB7" x="0" y="2.27373675e-15" width="32" height="32"></rect>
                </g>
            </g>
        </g>
    </g>
</svg>