<?xml version="1.0" encoding="UTF-8"?>
<svg width="32px" height="32px" viewBox="0 0 32 32" version="1.1" xmlns="http://www.w3.org/2000/svg" xmlns:xlink="http://www.w3.org/1999/xlink">
    <title>icon/money</title>
    <defs>
        <path d="M7.536,0 L7.581,0.002 L20.7199075,0.00118475328 L25.451,0.001 C26.3760451,0.00198038309 27.1970996,0.446721182 27.7127966,1.13378432 C28.0690348,1.60834165 28.2793268,2.19512422 28.28,2.831 L28.28,18.277 C28.279019,19.6652616 27.2785333,20.819536 25.959317,21.0592897 L25.7926241,21.0842245 C25.6806364,21.0978211 25.5666306,21.1048775 25.451,21.105 L20.742,21.105 L20.722,21.104 L7.55623372,21.1048702 C7.54949439,21.1049617 7.54274966,21.1050051 7.536,21.1050004 L2.83,21.1050004 C1.26859586,21.1038969 0.00310307645,19.8384041 0.002,18.277 L0.000715907606,7.5824277 L0,2.828 C0.00165349745,1.26682414 1.26682414,0.00165349745 2.828,0 L7.536,0 Z M2.83,15.197 L2.83,18.274 L5.902,18.273 L5.82629502,18.0530647 C5.32059957,16.6958698 4.2182776,15.6399545 2.83,15.197 Z M25.453,15.2 C23.9884771,15.6637303 22.8402203,16.8095208 22.3733219,18.2729907 L25.453,18.273 L25.453,15.2 Z M19.4625373,2.82744932 L8.81627907,2.82750641 C8.23940891,5.85323423 5.85570361,8.23806109 2.83047429,8.81652125 L2.83031392,12.2898932 C5.8548361,12.8669567 8.2386957,15.2496951 8.81734858,18.2737188 L19.4626752,18.2735926 C20.0417462,15.2476572 22.4283057,12.8638787 25.4555191,12.2887819 L25.4555368,8.81803103 C22.4267407,8.24221716 20.0395412,5.8558236 19.4625373,2.82744932 Z M16.005,4.605 C16.7859306,4.605 17.419,5.23806936 17.419,6.019 C17.419,6.79993064 16.7859306,7.433 16.005,7.433 L13.579,7.433 C13.1086818,7.43355105 12.727551,7.81468183 12.727,8.285 C12.7275496,8.75548085 13.1085201,9.13689849 13.579,9.138 L14.487,9.138 C16.5183317,9.1402055 18.1643466,10.7866677 18.166,12.818 C18.1637954,14.8489417 16.5179417,16.4947954 14.487,16.497 L12.06,16.497 C11.2790694,16.497 10.646,15.8639306 10.646,15.083 C10.6465515,14.3022979 11.2792979,13.6695515 12.06,13.669 L14.487,13.669 C14.9567659,13.668449 15.337449,13.2877659 15.338,12.818 C15.3380003,12.3478436 14.957156,11.9665518 14.487,11.966 L13.7710753,11.9658462 C13.7643947,11.9659439 13.7577028,11.9659953 13.751,11.966 L13.579,11.966 C11.5473442,11.9632445 9.90120346,10.3166564 9.899,8.285 C9.90120455,6.25350598 11.547506,4.60720455 13.579,4.605 L16.005,4.605 Z M25.451,2.829 L22.374,2.829 C22.838673,4.29376578 23.9862342,5.44132703 25.451,5.906 L25.451,2.829 Z M5.906,2.828 L2.83,2.828 L2.83,5.905 L3.05667121,5.8269949 C4.41223604,5.31953805 5.46571576,4.21616963 5.906,2.828 Z" id="path-1"></path>
    </defs>
    <g id="icon/money" stroke="none" stroke-width="1" fill="none" fill-rule="evenodd">
        <g id="color/primary/500" transform="translate(2.000000, 5.000000)">
            <mask id="mask-2" fill="white">
                <use xlink:href="#path-1"></use>
            </mask>
            <g id="Mask" fill-rule="nonzero"></g>
            <g id="Group" mask="url(#mask-2)">
                <g transform="translate(-2.000000, -5.000000)" id="color/primary/500">
                    <rect id="Rectangle-Copy-4" fill="#9DAAB7" x="0" y="2.27373675e-15" width="32" height="32"></rect>
                </g>
            </g>
        </g>
    </g>
</svg>