<?xml version="1.0" encoding="UTF-8"?>
<svg width="32px" height="32px" viewBox="0 0 32 32" version="1.1" xmlns="http://www.w3.org/2000/svg" xmlns:xlink="http://www.w3.org/1999/xlink">
    <title>icon/more_vert</title>
    <defs>
        <path d="M4.40048471,22.1775953 C5.58948455,22.6704236 6.36449745,23.8310031 6.36409312,25.1180929 C6.36188803,26.8743869 4.9383876,28.29744 3.18209296,28.2990929 C1.89500311,28.2990929 0.734667233,27.5237152 0.242212741,26.3345605 C-0.25024175,25.1454058 0.0221799979,23.7766925 0.93243298,22.8667255 C1.84268596,21.9567586 3.21148488,21.6847671 4.40048471,22.1775953 Z M3.18275974,10.9700931 C4.93931713,10.969909 6.36354067,12.3935356 6.36409296,14.1500929 C6.36243909,15.9067775 4.93877753,17.330439 3.18209296,17.3320929 C1.42553565,17.3315406 0.00190904174,15.9073171 0.00209313832,14.1507597 C0.00227723489,12.3942023 1.42620234,10.9702772 3.18275974,10.9700931 Z M4.40048471,0.242595337 C5.58948455,0.735423576 6.36449745,1.89600311 6.36409312,3.1830929 C6.36188803,4.93938693 4.9383876,6.36244 3.18209296,6.3640929 C1.89500311,6.3640929 0.734667233,5.58871518 0.242212741,4.3995605 C-0.25024175,3.21040582 0.0221799979,1.84169246 0.93243298,0.931725541 C1.84268596,0.0217586227 3.21148488,-0.250232901 4.40048471,0.242595337 Z" id="path-1"></path>
    </defs>
    <g id="icon/more_vert" stroke="none" stroke-width="1" fill="none" fill-rule="evenodd">
        <g id="color/primary/500" transform="translate(13.000000, 2.000000)">
            <mask id="mask-2" fill="white">
                <use xlink:href="#path-1"></use>
            </mask>
            <g id="Mask" fill-rule="nonzero"></g>
            <g id="Group" mask="url(#mask-2)">
                <g transform="translate(-13.000000, -2.000000)" id="color/primary/500">
                    <rect id="Rectangle-Copy-4" fill="#9DAAB7" x="0" y="2.27373675e-15" width="32" height="32"></rect>
                </g>
            </g>
        </g>
    </g>
</svg>