<?xml version="1.0" encoding="UTF-8"?>
<svg width="32px" height="32px" viewBox="0 0 32 32" version="1.1" xmlns="http://www.w3.org/2000/svg" xmlns:xlink="http://www.w3.org/1999/xlink">
    <title>icon/more_horiz</title>
    <defs>
        <path d="M25.1156666,2.47582193e-07 C26.872224,-0.000183848993 28.2964475,1.42344276 28.2969998,3.18000007 C28.295346,4.93668464 26.8716844,6.3603462 25.1149998,6.36200007 C23.3584425,6.36144778 21.9348159,4.93722424 21.935,3.18066684 C21.9351841,1.42410945 23.3591092,0.000184344158 25.1156666,2.47582193e-07 Z M14.1473334,7.13498594e-08 C15.9040209,-0.000367990889 17.3284476,1.42331256 17.3289998,3.18000007 C17.3273469,4.9362947 15.9042939,6.35979514 14.1479998,6.36200007 C12.3913122,6.36200007 10.967184,4.93802089 10.967,3.1813333 C10.966816,1.42464572 12.3906458,0.000368276344 14.1473334,7.13498594e-08 Z M3.18033337,7.13498594e-08 C4.93702093,-0.000367990889 6.36144758,1.42331256 6.36199983,3.18000007 C6.36034693,4.9362947 4.93729385,6.35979514 3.18099983,6.36200007 C1.42431223,6.36200007 0.000184023408,4.93802089 0,3.1813333 C-0.000184023408,1.42464572 1.42364581,0.000368276344 3.18033337,7.13498594e-08 Z" id="path-1"></path>
    </defs>
    <g id="icon/more_horiz" stroke="none" stroke-width="1" fill="none" fill-rule="evenodd">
        <g id="color/primary/500" transform="translate(2.000000, 13.000000)">
            <mask id="mask-2" fill="white">
                <use xlink:href="#path-1"></use>
            </mask>
            <g id="Mask" fill-rule="nonzero"></g>
            <g id="Group" mask="url(#mask-2)">
                <g transform="translate(-2.000000, -13.000000)" id="color/primary/500">
                    <rect id="Rectangle-Copy-4" fill="#9DAAB7" x="0" y="2.27373675e-15" width="32" height="32"></rect>
                </g>
            </g>
        </g>
    </g>
</svg>