<?xml version="1.0" encoding="UTF-8"?>
<svg width="32px" height="32px" viewBox="0 0 32 32" version="1.1" xmlns="http://www.w3.org/2000/svg" xmlns:xlink="http://www.w3.org/1999/xlink">
    <title>icon/music</title>
    <defs>
        <path d="M7.171,5.71326268 C7.17118514,5.08500343 7.58588145,4.5322108 8.189,4.35626268 L22.952,0.0562626807 C23.3793385,-0.0679683336 23.8402236,0.016081295 24.1962003,0.283162145 C24.552177,0.550242995 24.7617643,0.969232878 24.762,1.41426268 L24.762,8.26526268 L24.762,8.26526268 L24.7622647,19.5926377 C24.7627542,19.621454 24.763,19.6503296 24.763,19.6792627 C24.763,22.4406864 22.5244237,24.6792627 19.763,24.6792627 C17.0015763,24.6792627 14.763,22.4406864 14.763,19.6792627 C14.763,16.9178389 17.0015763,14.6792627 19.763,14.6792627 C20.5407552,14.6792627 21.2770346,14.8568417 21.9335047,15.1736662 L21.934,3.29726268 L9.998,6.77526268 L9.998,10.6752627 L18.873,8.09726268 C19.6224504,7.87883406 20.4070714,8.30931228 20.6255,9.05876268 C20.8439286,9.80821309 20.4134504,10.5928341 19.664,10.8112627 L9.998,13.627 L9.99925446,23.1890355 C9.99975081,23.2180517 10,23.2471281 10,23.2762627 C10,26.0376864 7.76142375,28.2762627 5,28.2762627 C2.23857625,28.2762627 0,26.0376864 0,23.2762627 C0,20.5148389 2.23857625,18.2762627 5,18.2762627 C5.778148,18.2762627 6.5147783,18.4540211 7.1714993,18.7711464 L7.171,5.71326268 Z M5,21.1072627 C3.80098981,21.1072627 2.829,22.0792525 2.829,23.2782627 C2.829,24.4772729 3.80098981,25.4492627 5,25.4492627 C6.19901019,25.4492627 7.171,24.4772729 7.171,23.2782627 C7.16934752,22.0799376 6.19832504,21.1089152 5,21.1072627 Z M19.763,17.5102627 C18.5646724,17.5108149 17.593632,18.4826014 17.594,19.680929 C17.5943682,20.8792567 18.5660055,21.8504464 19.7643332,21.8502624 C20.9582911,21.8500791 21.9269129,20.8856627 21.9339613,19.6933629 L21.933,19.6532627 L21.928414,19.5253011 C21.847989,18.3992665 20.9092874,17.51079 19.763,17.5102627 Z" id="path-1"></path>
    </defs>
    <g id="icon/music" stroke="none" stroke-width="1" fill="none" fill-rule="evenodd">
        <g id="color/primary/500" transform="translate(4.000000, 2.000000)">
            <mask id="mask-2" fill="white">
                <use xlink:href="#path-1"></use>
            </mask>
            <g id="Mask" fill-rule="nonzero"></g>
            <g id="Group" mask="url(#mask-2)">
                <g transform="translate(-4.000000, -2.000000)" id="color/primary/500">
                    <rect id="Rectangle-Copy-4" fill="#9DAAB7" x="0" y="2.27373675e-15" width="32" height="32"></rect>
                </g>
            </g>
        </g>
    </g>
</svg>