<?xml version="1.0" encoding="UTF-8"?>
<svg width="32px" height="32px" viewBox="0 0 32 32" version="1.1" xmlns="http://www.w3.org/2000/svg" xmlns:xlink="http://www.w3.org/1999/xlink">
    <title>icon/near_me</title>
    <defs>
        <path d="M27.5408881,0.873632037 C28.3182226,1.70879402 28.4969232,2.93813597 27.9895381,3.96004835 L16.7425381,26.5670483 C16.2889782,27.4980604 15.3441539,28.0890483 14.3085381,28.0890483 C14.1221274,28.0890483 13.9361896,28.0702953 13.7535381,28.0330483 C12.5324187,27.8008471 11.6256501,26.7679552 11.5535381,25.5270483 L11.0015381,17.1880483 C10.9215323,15.9732246 11.3673398,14.7825837 12.2255381,13.9190483 L15.4985381,10.6190483 C15.8528536,10.2525193 16.3770352,10.1050875 16.8704679,10.2331782 C17.3639006,10.3612689 17.7501844,10.7450493 17.8814804,11.2376387 C18.0127765,11.7302282 17.8687558,12.2553573 17.5045381,12.6120483 L14.2315381,15.9120483 C13.9459857,16.1999496 13.7974564,16.5963917 13.8235381,17.0010483 L14.3545381,25.0180483 L25.356,2.904 L3.02853809,12.0710483 L9.04253809,13.5520483 C9.73651314,13.7229026 10.193889,14.3847362 10.1083447,15.0942957 C10.0228003,15.8038553 9.42123487,16.3380232 8.70653809,16.3390483 L8.70653809,16.3430494 C8.5922932,16.3430494 8.47845625,16.3294176 8.36753809,16.3020483 L2.09253809,14.7570483 C0.937658107,14.4761741 0.0955512374,13.4827743 0.00756673638,12.2974908 C-0.0804177646,11.1122074 0.605786123,10.0053598 1.70653809,9.55704835 L24.4975381,0.201048347 L24.6394804,0.151379167 L24.6394804,0.151379167 L24.4945381,0.205048347 C25.5501703,-0.227831671 26.7635536,0.0384700506 27.5408881,0.873632037 Z" id="path-1"></path>
    </defs>
    <g id="icon/near_me" stroke="none" stroke-width="1" fill="none" fill-rule="evenodd">
        <g id="color/primary/500" transform="translate(2.000000, 2.000000)">
            <mask id="mask-2" fill="white">
                <use xlink:href="#path-1"></use>
            </mask>
            <g id="Mask" fill-rule="nonzero"></g>
            <g id="Group" mask="url(#mask-2)">
                <g transform="translate(-2.000000, -2.000000)" id="color/primary/500">
                    <rect id="Rectangle-Copy-4" fill="#9DAAB7" x="0" y="2.27373675e-15" width="32" height="32"></rect>
                </g>
            </g>
        </g>
    </g>
</svg>