<?xml version="1.0" encoding="UTF-8"?>
<svg width="32px" height="32px" viewBox="0 0 32 32" version="1.1" xmlns="http://www.w3.org/2000/svg" xmlns:xlink="http://www.w3.org/1999/xlink">
    <title>icon/notification_new</title>
    <defs>
        <path d="M16.4918297,26.672942 C15.9617311,27.6233289 14.9864271,28.2334636 13.9095533,28.3016213 L13.708,28.308 L13.5093555,28.3016692 C12.4421548,28.2343911 11.4738862,27.6349749 10.9399271,26.6982113 C10.6703076,26.2251981 10.5311163,25.7007271 10.5219387,25.174734 L1.41353306,25.1740001 C0.861940609,25.1738102 0.360809177,24.8528852 0.129891435,24.3519548 C-0.101026308,23.8510244 -0.0195729853,23.2615407 0.338533057,22.8420001 C2.18453306,20.6770001 3.12153306,17.7170001 3.12153306,14.0420001 L3.12153306,11.0480001 C3.11892115,9.63406153 3.37900008,8.2319411 3.88853306,6.91300012 C4.17732182,6.1952144 4.98937574,5.84281463 5.71088505,6.12217034 C6.43239436,6.40152605 6.79540771,7.20889119 6.52553306,7.93400012 C6.14165822,8.92720966 5.9459931,9.98319092 5.94853306,11.0480001 L5.94853306,14.0420001 C6.02286241,16.9207894 5.38061598,19.7729271 4.07953306,22.3420001 L23.3415331,22.3420001 C22.0396277,19.7731878 21.3970092,16.9209236 21.4715331,14.0420001 L21.4715331,11.0480001 C21.5892648,6.6384094 18.1196119,2.96355475 13.7105331,2.82800012 C11.5683547,2.83256687 9.53036725,3.75293655 8.11053306,5.35700012 C7.77113075,5.7310572 7.25795301,5.89563121 6.76430892,5.78872872 C6.27066484,5.68182623 5.8715507,5.31968828 5.71730892,4.83872872 C5.56306715,4.35776916 5.67713075,3.8310572 6.01653306,3.45700012 C7.96921544,1.25794449 10.7696464,-0.000320386722 13.7105331,6.11924946e-08 C19.6821266,0.13605804 24.4179223,5.07803019 24.2995331,11.0500001 L24.2995331,14.0440001 C24.2995331,17.7170001 25.2355331,20.6770001 27.0825331,22.8440001 C27.4407566,23.2636784 27.522136,23.8533958 27.2909653,24.3544088 C27.0597946,24.8554218 26.5583064,25.1760002 26.0065331,25.1760002 L26.0065331,25.1740001 L16.8951709,25.1748343 C16.8863171,25.6909887 16.7522225,26.2060971 16.4918297,26.672942 Z" id="path-1"></path>
    </defs>
    <g id="icon/notification_new" stroke="none" stroke-width="1" fill="none" fill-rule="evenodd">
        <g id="color/primary/500" transform="translate(2.000000, 2.000000)">
            <mask id="mask-2" fill="white">
                <use xlink:href="#path-1"></use>
            </mask>
            <g id="Mask" fill-rule="nonzero"></g>
            <g id="Group" mask="url(#mask-2)">
                <g transform="translate(-2.000000, -2.000000)" id="color/primary/500">
                    <rect id="Rectangle-Copy-4" fill="#9DAAB7" x="0" y="2.27373675e-15" width="32" height="32"></rect>
                </g>
            </g>
        </g>
        <circle id="Oval" fill="#D83A5E" cx="25" cy="6" r="4"></circle>
    </g>
</svg>