<?xml version="1.0" encoding="UTF-8"?>
<svg width="32px" height="32px" viewBox="0 0 32 32" version="1.1" xmlns="http://www.w3.org/2000/svg" xmlns:xlink="http://www.w3.org/1999/xlink">
    <title>icon/paste</title>
    <defs>
        <path d="M25.028,0 C26.9794128,0.0022043656 28.5607956,1.58358722 28.563,3.535 L28.563,17.817 C28.5607956,19.7684128 26.9794128,21.3497956 25.028,21.352 L21.352,21.352 L21.352,24.785 C21.350898,26.7371938 19.7691929,28.3197938 17.817,28.322 L3.535,28.322 C1.58358722,28.3197956 0.0022043656,26.7384128 0,24.787 L0,10.503 C0.0022043656,8.55158722 1.58358722,6.97020437 3.535,6.968 L7.211,6.968 L7.211,3.535 C7.21320437,1.58358722 8.79458722,0.0022043656 10.746,0 L25.028,0 Z M17.817,9.796 L8.66439086,9.79746192 C8.6513042,9.79781986 8.63817314,9.798 8.625,9.798 L8.586,9.796 L3.535,9.796 C3.14476306,9.79655079 2.82855079,10.1127631 2.828,10.503 L2.828,24.785 C2.82855079,25.1752369 3.14476306,25.4914492 3.535,25.492 L17.817,25.492 C18.2072369,25.4914492 18.5234492,25.1752369 18.524,24.785 L18.524,10.503 C18.5234492,10.1127631 18.2072369,9.79655079 17.817,9.796 Z M25.028,2.828 L10.746,2.828 C10.3557631,2.82855079 10.0395508,3.14476306 10.039,3.535 L10.039,6.968 L17.817,6.968 C19.7684128,6.97020437 21.3497956,8.55158722 21.3520014,10.503 L21.352,18.524 L25.028,18.524 C25.4182369,18.5234492 25.7344492,18.2072369 25.735,17.817 L25.735,3.535 C25.7344492,3.14476306 25.4182369,2.82855079 25.028,2.828 Z" id="path-1"></path>
    </defs>
    <g id="icon/paste" stroke="none" stroke-width="1" fill="none" fill-rule="evenodd">
        <g id="color/primary/500" transform="translate(2.000000, 2.000000)">
            <mask id="mask-2" fill="white">
                <use xlink:href="#path-1"></use>
            </mask>
            <g id="Mask" fill-rule="nonzero"></g>
            <g id="Group" mask="url(#mask-2)">
                <g transform="translate(-2.000000, -2.000000)" id="color/primary/500">
                    <rect id="Rectangle-Copy-4" fill="#9DAAB7" x="0" y="2.27373675e-15" width="32" height="32"></rect>
                </g>
            </g>
        </g>
    </g>
</svg>