<?xml version="1.0" encoding="UTF-8"?>
<svg width="32px" height="32px" viewBox="0 0 32 32" version="1.1" xmlns="http://www.w3.org/2000/svg" xmlns:xlink="http://www.w3.org/1999/xlink">
    <title>icon/people_alt</title>
    <defs>
        <path d="M2.828,15.347 C2.828,16.0819935 2.26721883,16.6860096 1.55017764,16.7545271 L1.414,16.761 C0.633069364,16.761 0,16.1279306 0,15.347 C0.00316099432,12.4029314 1.71449178,9.85905386 4.1962916,8.65306804 C3.49288918,7.74548394 3.07407693,6.60582022 3.0740001,5.36833323 C3.07381605,2.40379888 5.47679913,0.00036815652 8.44133346,0 C11.4058678,-0.000368156519 13.8094477,2.40246566 13.81,5.36699996 C13.8084688,6.73977747 13.2923723,7.99200649 12.4441888,8.94117497 C12.7275204,9.10631693 13.0006045,9.29275209 13.2610025,9.49737082 C13.5826022,8.72825423 14.0555181,8.01314054 14.6693293,7.3993293 C16.5436029,5.52505574 19.3624075,4.96447243 21.8111865,5.9790088 C24.2599655,6.99354517 25.8564045,9.38337691 25.8560001,12.034 C25.8538925,13.7632609 25.1827853,15.3357233 24.0875756,16.5064903 C27.3817566,17.9200241 29.6894728,21.1911277 29.694,25.002 C29.693735,25.3774548 29.5442635,25.737412 29.2784956,26.0026172 C29.0127277,26.2678224 28.6524545,26.4165307 28.277,26.4160014 C27.4962979,26.4154484 26.8635515,25.782702 26.863,25.002 C26.8591431,21.4605301 23.9894692,18.5904088 20.448,18.586 L19.3513371,18.5857751 C19.3355713,18.5859057 19.3197922,18.5859808 19.304,18.586 L19.253,18.585 L18,18.586 C14.4581403,18.5898579 11.5878579,21.4601402 11.584,25.002 C11.584,25.7829306 10.9509306,26.4160014 10.17,26.4160014 C9.38906936,26.4160014 8.756,25.7829306 8.756,25.002 C8.76057748,21.1492077 11.1192798,17.8481705 14.4710211,16.4598269 C13.9637123,15.9062817 13.5470255,15.260507 13.2490088,14.5411865 C13.010427,13.9653233 12.8589522,13.368997 12.7911845,12.7693034 C12.5505872,12.6903087 12.3328632,12.5459769 12.164,12.349 C11.2890606,11.325757 10.0103079,10.7364346 8.664,10.736 L7.439,10.736 C4.89355734,10.7387557 2.83075571,12.8015573 2.828,15.347 Z M19.304,8.30899996 C17.2467393,8.30899996 15.579,9.97673927 15.579,12.034 C15.579,14.0912607 17.2467393,15.759 19.304,15.759 C21.3612607,15.759 23.029,14.0912607 23.029,12.034 C23.0267954,9.97765314 21.3603468,8.31120457 19.304,8.30899996 Z M8.442,2.826 C7.03932704,2.82755219 5.90263197,3.96499335 5.903,5.36766636 C5.90336821,6.77033938 7.04066015,7.90718375 8.4433332,7.90699974 C9.84600626,7.90681573 10.983,6.76967302 10.983,5.36699996 C10.9808843,4.02081145 9.93338681,2.91996327 8.6089424,2.83258782 L8.442,2.826 Z" id="path-1"></path>
    </defs>
    <g id="icon/people_alt" stroke="none" stroke-width="1" fill="none" fill-rule="evenodd">
        <g id="color/primary/500" transform="translate(1.000000, 3.000000)">
            <mask id="mask-2" fill="white">
                <use xlink:href="#path-1"></use>
            </mask>
            <g id="Mask" fill-rule="nonzero"></g>
            <g id="Group" mask="url(#mask-2)">
                <g transform="translate(-1.000000, -3.000000)" id="color/primary/500">
                    <rect id="Rectangle-Copy-4" fill="#9DAAB7" x="0" y="2.27373675e-15" width="32" height="32"></rect>
                </g>
            </g>
        </g>
    </g>
</svg>