<?xml version="1.0" encoding="UTF-8"?>
<svg width="32px" height="32px" viewBox="0 0 32 32" version="1.1" xmlns="http://www.w3.org/2000/svg" xmlns:xlink="http://www.w3.org/1999/xlink">
    <title>icon/person_add</title>
    <defs>
        <path d="M11.0011344,4 C14.7570118,4 17.801752,7.03934141 17.801752,10.7885591 C17.801752,12.6933994 17.015818,14.4150005 15.7499917,15.6478632 C19.4005377,17.03325 21.9953603,20.5567554 22,24.6860971 C22,25.3929496 21.425965,25.9659668 20.7178569,25.9659668 C20.0101029,25.9654672 19.4366203,25.3925963 19.4366205,24.6860971 C19.4321233,20.7617774 16.2463042,17.5816073 12.3150137,17.5771181 L9.68544155,17.5771181 C5.75415102,17.5816073 2.56833193,20.7617774 2.56383474,24.6860971 C2.57623144,25.1513026 2.3346903,25.5865651 1.93303439,25.8228136 C1.53137848,26.0590621 1.03291152,26.0590621 0.631255613,25.8228136 C0.229599704,25.5865651 -0.0119414388,25.1513026 0.000455258785,24.6860971 C0.00509538589,20.5563767 2.60039352,17.0326038 6.25140474,15.6470017 C4.98603156,14.4140821 4.20051672,12.6928913 4.20051672,10.7885591 C4.20051672,7.03934141 7.24525696,4 11.0011344,4 Z M11.0011344,6.56698046 C8.66359437,6.56748033 6.76900292,8.45938772 6.76933674,10.7927829 C6.76967056,13.1261781 8.66480326,15.0175453 11.0023433,15.0173787 C13.3398834,15.0172121 15.2347456,13.1255748 15.2347456,10.7921796 C15.2322459,8.45934755 13.3381108,6.56897599 11.0011344,6.56698046 Z M24.5,0 C25.3284271,0 26,0.562591937 26,1.25658426 L26,4 L28.703634,4.00053261 C29.1626303,3.98602954 29.5920833,4.26861202 29.8251786,4.73851508 C30.0582738,5.20841814 30.0582738,5.79158186 29.8251786,6.26148492 C29.5920833,6.73138798 29.1626303,7.01397046 28.703634,6.99946739 L26,6.999 L26,9.74341574 C26,10.0766826 25.8419647,10.3962997 25.5606602,10.631955 C25.2793556,10.8676103 24.8978247,11 24.5,11 C23.6718153,10.9995099 23.0005851,10.4372049 23,9.74341574 L23,6.999 L20.296366,6.99946739 C19.8373697,7.01397046 19.4079167,6.73138798 19.1748214,6.26148492 C18.9417262,5.79158186 18.9417262,5.20841814 19.1748214,4.73851508 C19.4079167,4.26861202 19.8373697,3.98602954 20.296366,4.00053261 L23,4 L23,1.25658426 C23,0.562591937 23.6715729,0 24.5,0 Z" id="path-1"></path>
    </defs>
    <g id="icon/person_add" stroke="none" stroke-width="1" fill="none" fill-rule="evenodd">
        <g id="color/primary/500" transform="translate(1.000000, 3.000000)">
            <mask id="mask-2" fill="white">
                <use xlink:href="#path-1"></use>
            </mask>
            <g id="Mask" fill-rule="nonzero"></g>
            <g id="Group" mask="url(#mask-2)">
                <g transform="translate(-1.000000, -3.000000)" id="color/primary/500">
                    <rect id="Rectangle-Copy-4" fill="#9DAAB7" x="0" y="2.27373675e-15" width="32" height="32"></rect>
                </g>
            </g>
        </g>
    </g>
</svg>