<?xml version="1.0" encoding="UTF-8"?>
<svg width="32px" height="32px" viewBox="0 0 32 32" version="1.1" xmlns="http://www.w3.org/2000/svg" xmlns:xlink="http://www.w3.org/1999/xlink">
    <title>icon/place</title>
    <defs>
        <path d="M11.3956929,0 C14.4775958,0.00143513615 17.4278494,1.24952703 19.5751149,3.46026867 C21.7223804,5.67101031 22.8840177,8.65636268 22.7956929,11.737 C22.3956929,21.437 12.5776929,27.79 12.1606929,28.056 C12.0500433,28.126273 11.9307651,28.1805583 11.8064159,28.2177401 C11.7934179,28.2204159 11.7814064,28.223867 11.7693367,28.2271615 C11.7436567,28.2352218 11.7168272,28.2416401 11.6898184,28.247271 C11.6610153,28.2524925 11.6321506,28.2576647 11.6030362,28.261944 C11.5828553,28.2654605 11.5630915,28.2678782 11.5432664,28.269878 C11.5044172,28.2734826 11.4643514,28.2759667 11.4239537,28.2767394 C11.4163827,28.276944 11.4090399,28.2770014 11.4016929,28.2770014 L11.3946929,28.277 L11.357,28.275 L11.2681549,28.2709081 C11.2641192,28.2705329 11.2600877,28.2701405 11.2560604,28.2697311 L11.3946929,28.277 C11.3246468,28.277 11.254983,28.2717637 11.186251,28.2614575 C11.1609145,28.2570103 11.1359869,28.2525157 11.111269,28.2473717 C11.0856494,28.2428553 11.0602445,28.236884 11.035029,28.2302131 C11.0174995,28.2246055 10.99983,28.2195198 10.9822938,28.2141001 C10.9523509,28.2059656 10.9230375,28.1958988 10.8940694,28.184869 C10.8832373,28.1794554 10.8717411,28.1748828 10.8603151,28.1701635 C10.7828025,28.1396556 10.7084622,28.1011296 10.6376929,28.056 C10.3626929,27.881 3.87569288,23.693 1.16069288,16.966 C0.992692876,16.551 0.838692876,16.121 0.703692876,15.691 C0.469800284,14.9454156 0.884608463,14.1513926 1.63019288,13.9175 C2.37577729,13.6836074 3.16980028,14.0984156 3.40369288,14.844 C3.51669288,15.202 3.64469288,15.559 3.78569288,15.906 C5.64605752,20.5153085 9.70922441,23.8818053 11.3996749,25.1348841 C13.57208,23.5223987 19.6881493,18.3960359 19.9696929,11.62 C20.0431237,9.33678067 19.1863549,7.12159659 17.5956929,5.482 C15.9855338,3.78521459 13.7484767,2.8255991 11.4097246,2.82797421 L11.3946929,2.828 L11.3946929,2.828 C9.08383058,2.83053925 6.87164321,3.76490216 5.25864125,5.41968785 C3.64563928,7.07447353 2.76814506,9.30982829 2.82469288,11.62 C2.84039898,11.9946683 2.70652724,12.3602136 2.45256379,12.6361222 C2.19860034,12.9120308 1.84537675,13.075671 1.47069288,13.091 L1.41669288,13.092 C0.659009121,13.0915882 0.0363075784,12.494024 0.00469287553,11.737 C-0.0835847041,8.65809545 1.0766962,5.67428945 3.22178465,3.4638502 C5.3668731,1.25341094 8.31452582,0.00413379435 11.3946929,1.13686838e-13 L11.3956929,0 Z M15.5111512,8.30616885 C16.8225318,10.2694968 16.5644323,12.8857648 14.8946929,14.555 C13.9683674,15.4860552 12.7080581,16.0078233 11.3946929,16.0040209 C9.03368135,16.0034957 7.00180468,14.3352778 6.54165255,12.0195413 C6.08150042,9.70380476 7.32122823,7.38549747 9.50268318,6.48237512 C11.6841381,5.57925278 14.1997706,6.34284089 15.5111512,8.30616885 Z M11.3946929,8.93499917 C10.5366525,8.93424369 9.76276441,9.45077387 9.43430424,10.2434577 C9.12774141,10.983296 9.2656233,11.8275166 9.77896857,12.4297745 L9.89469288,12.555 C10.7338767,13.3570379 12.0555091,13.3570379 12.8946929,12.555 C13.5007709,11.9482968 13.6818686,11.036321 13.3535902,10.2440757 C13.0253117,9.4518304 12.2522588,8.93522096 11.3946929,8.93499917 Z" id="path-1"></path>
    </defs>
    <g id="icon/place" stroke="none" stroke-width="1" fill="none" fill-rule="evenodd">
        <g id="color/primary/500" transform="translate(5.000000, 2.000000)">
            <mask id="mask-2" fill="white">
                <use xlink:href="#path-1"></use>
            </mask>
            <g id="Mask" fill-rule="nonzero"></g>
            <g id="Group" mask="url(#mask-2)">
                <g transform="translate(-5.000000, -2.000000)" id="color/primary/500">
                    <rect id="Rectangle-Copy-4" fill="#9DAAB7" x="0" y="2.27373675e-15" width="32" height="32"></rect>
                </g>
            </g>
        </g>
    </g>
</svg>