<?xml version="1.0" encoding="UTF-8"?>
<svg width="32px" height="32px" viewBox="0 0 32 32" version="1.1" xmlns="http://www.w3.org/2000/svg" xmlns:xlink="http://www.w3.org/1999/xlink">
    <title>icon/pluscircle_fill</title>
    <defs>
        <path d="M19.5522501,1.07704365 C24.8359739,3.26596207 28.2808179,8.42222608 28.2804134,14.1414132 C28.2715949,21.946902 21.9459028,28.2721467 14.1404134,28.2804132 C8.42122625,28.2804132 3.26520589,24.8352046 1.07666115,19.5513259 C-1.11188358,14.2674473 0.0980580955,8.18550276 4.14227711,4.14156976 C8.18649612,0.097636756 14.2685262,-1.11187478 19.5522501,1.07704365 Z M14.1404134,6.0154132 C13.3594828,6.0154132 12.7264134,6.64848257 12.7264134,7.4294132 L12.7264134,7.4294132 L12.7264134,12.7284132 L7.43341339,12.7284132 C6.65248275,12.7284132 6.01941339,13.3614826 6.01941339,14.1424132 C6.01941339,14.9233438 6.65248275,15.5564132 7.43341339,15.5564132 L7.43341339,15.5564132 L12.7264134,15.5564132 L12.7264134,20.8424132 C12.7264134,21.6233438 13.3594828,22.2564132 14.1404134,22.2564132 C14.5154295,22.2564132 14.8750859,22.1074386 15.1402624,21.8422622 C15.4054388,21.5770858 15.5544134,21.2174293 15.5544134,20.8424132 L15.5544134,20.8424132 L15.5544134,15.5564132 L20.8454134,15.5564132 C21.626344,15.5564132 22.2594134,14.9233438 22.2594134,14.1424132 C22.2594134,13.3614826 21.626344,12.7284132 20.8454134,12.7284132 L20.8454134,12.7284132 L15.5544134,12.7284132 L15.5544134,7.4294132 C15.5544134,6.64848257 14.921344,6.0154132 14.1404134,6.0154132 Z" id="path-1"></path>
    </defs>
    <g id="icon/pluscircle_fill" stroke="none" stroke-width="1" fill="none" fill-rule="evenodd">
        <g id="color/primary/500" transform="translate(2.000000, 2.000000)">
            <mask id="mask-2" fill="white">
                <use xlink:href="#path-1"></use>
            </mask>
            <g id="Mask" fill-rule="nonzero"></g>
            <g id="Group" mask="url(#mask-2)">
                <g transform="translate(-2.000000, -2.000000)" id="color/primary/500">
                    <rect id="Rectangle-Copy-4" fill="#9DAAB7" x="0" y="2.27373675e-15" width="32" height="32"></rect>
                </g>
            </g>
        </g>
    </g>
</svg>