<?xml version="1.0" encoding="UTF-8"?>
<svg width="32px" height="32px" viewBox="0 0 32 32" version="1.1" xmlns="http://www.w3.org/2000/svg" xmlns:xlink="http://www.w3.org/1999/xlink">
    <title>icon/polygon</title>
    <defs>
        <polygon id="path-1" points="-2.77555756e-17 0 28.6477412 0 28.6477412 25.6484321 -2.77555756e-17 25.6484321"></polygon>
    </defs>
    <g id="icon/polygon" stroke="none" stroke-width="1" fill="none" fill-rule="evenodd">
        <g id="Group-5" transform="translate(2.000000, 3.000000)">
            <polygon id="Fill-1" fill="#E8C2FF" points="15.2276412 1.24963207 1.24964124 11.8996321 7.70564124 24.3986321 22.6226412 22.7086321 27.3976412 10.0916321"></polygon>
            <g id="Group-4">
                <mask id="mask-2" fill="white">
                    <use xlink:href="#path-1"></use>
                </mask>
                <g id="Clip-3"></g>
                <path d="M2.84144124,12.2578321 L8.42044124,23.0598321 L21.7234412,21.5518321 L25.8914412,10.5418321 L15.2444412,2.80783207 L2.84144124,12.2578321 Z M7.70544124,25.6488321 C7.24144124,25.6488321 6.81144124,25.3908321 6.59544124,24.9718321 L0.139441242,12.4728321 C-0.138558758,11.9338321 0.00944124193,11.2728321 0.491441242,10.9048321 L14.4694412,0.255832067 C14.9104412,-0.0791679331 15.5174412,-0.0851679331 15.9614412,0.237832067 L28.1324412,9.08083207 C28.5884412,9.41183207 28.7664412,10.0078321 28.5674412,10.5338321 L23.7914412,23.1508321 C23.6254412,23.5898321 23.2294412,23.8978321 22.7634412,23.9508321 L7.84644124,25.6408321 C7.79944124,25.6458321 7.75144124,25.6488321 7.70544124,25.6488321 L7.70544124,25.6488321 Z" id="Fill-2" fill="#D998FF" mask="url(#mask-2)"></path>
            </g>
        </g>
    </g>
</svg>