<?xml version="1.0" encoding="UTF-8"?>
<svg width="32px" height="32px" viewBox="0 0 32 32" version="1.1" xmlns="http://www.w3.org/2000/svg" xmlns:xlink="http://www.w3.org/1999/xlink">
    <title>icon/power_setting</title>
    <defs>
        <path d="M21.6144731,3.278 C26.5287207,6.71617565 28.6453309,12.9444173 26.8435889,18.6649598 C25.0418468,24.3855023 19.7380459,28.2766113 13.7404731,28.278 L13.7404731,28.279 C7.85955365,28.279 2.63078758,24.5359778 0.73462749,18.9691303 C-1.1615326,13.4022828 0.695391128,7.24591449 5.35347315,3.656 C5.75343198,3.34732253 6.28768664,3.27546828 6.75498859,3.46750405 C7.22229053,3.65953982 7.55164547,4.08629081 7.61898859,4.58700405 C7.6863317,5.08771729 7.48143198,5.58632253 7.08147315,5.895 C3.34490025,8.77395254 1.8814577,13.7280801 3.45388774,18.1753049 C5.02631778,22.6225297 9.27853067,25.5557411 13.9942847,25.4461573 C18.7100387,25.3365736 22.8214126,22.2090108 24.1855694,17.6935462 C25.5497263,13.1780816 23.8577416,8.29727924 19.9914731,5.595 C19.3516513,5.14682093 19.1962941,4.26482188 19.6444731,3.625 C20.0926522,2.98517812 20.9746513,2.82982093 21.6144731,3.278 Z M13.7404731,0 C14.5214038,0 15.1544731,0.633069364 15.1544731,1.414 L15.1544731,12.607 C15.1544731,12.9820161 15.0054986,13.3416725 14.7403221,13.606849 C14.4751457,13.8720254 14.1154893,14.021 13.7404731,14.021 C12.9595425,14.021 12.3264731,13.3879306 12.3264731,12.607 L12.3264731,1.414 C12.3264731,0.633069364 12.9595425,0 13.7404731,0 Z" id="path-1"></path>
    </defs>
    <g id="icon/power_setting" stroke="none" stroke-width="1" fill="none" fill-rule="evenodd">
        <g id="color/primary/500" transform="translate(2.000000, 2.000000)">
            <mask id="mask-2" fill="white">
                <use xlink:href="#path-1"></use>
            </mask>
            <g id="Mask" fill-rule="nonzero"></g>
            <g id="Group" mask="url(#mask-2)">
                <g transform="translate(-2.000000, -2.000000)" id="color/primary/500">
                    <rect id="Rectangle-Copy-4" fill="#9DAAB7" x="0" y="2.27373675e-15" width="32" height="32"></rect>
                </g>
            </g>
        </g>
    </g>
</svg>