<?xml version="1.0" encoding="UTF-8"?>
<svg width="32px" height="32px" viewBox="0 0 32 32" version="1.1" xmlns="http://www.w3.org/2000/svg" xmlns:xlink="http://www.w3.org/1999/xlink">
    <title>icon/present</title>
    <defs>
        <path d="M19.172,0 C22.0384267,0.00380626819 24.3682281,2.29611684 24.4326351,5.14783388 L28.345,5.148 C29.6152549,5.148 30.645,6.17774508 30.645,7.448 L30.645,12.433 C30.645,13.7032549 29.6152549,14.733 28.345,14.733 L16.736,14.733 L16.736,25.455 L23.664,25.455 C24.5894006,25.4544483 25.3394483,24.7044006 25.34,23.779 L25.34,16.993 C25.3405515,16.2122979 25.9732979,15.5795515 26.754,15.579 C27.5349306,15.579 28.168,16.2120694 28.168,16.993 L28.168,23.776 C28.1646925,26.2623476 26.1493489,28.2767965 23.663,28.279 L6.979,28.279 C4.49600015,28.2735005 2.48449947,26.2619999 2.479,23.779 L2.479,14.733 L2.3,14.733 C1.02974508,14.733 0,13.7032549 0,12.433 L0,7.448 C0,6.17774508 1.02974508,5.148 2.3,5.148 L6.212,5.148 L6.21466896,5.04615176 C6.33193543,2.24129219 8.64117029,0.0032227386 11.474,0 C12.993608,0.00201785572 14.3623981,0.647216679 15.3227923,1.67796925 C16.2833979,0.647171815 17.6523071,0.00201723042 19.172,0 Z M13.909,14.733 L5.307,14.733 L5.307,23.779 C5.30810205,24.7041724 6.05782763,25.4538979 6.983,25.455 L13.909,25.455 L13.909,14.733 Z M27.815,7.982 L2.831,7.982 L2.831,11.905 L27.815,11.905 L27.815,7.982 Z M11.474,2.828 C10.1678962,2.82907047 9.10213776,3.85712007 9.04078725,5.14839986 L13.905,5.148 L13.9036346,5.10298148 C13.8198017,3.8334745 12.764363,2.82958684 11.474,2.828 Z M19.172,2.828 C17.8658962,2.82907047 16.8001378,3.85712007 16.7387872,5.14839986 L21.602,5.148 L21.6016346,5.10298148 C21.5178017,3.8334745 20.462363,2.82958684 19.172,2.828 Z" id="path-1"></path>
    </defs>
    <g id="icon/present" stroke="none" stroke-width="1" fill="none" fill-rule="evenodd">
        <g id="color/primary/500" transform="translate(1.000000, 2.000000)">
            <mask id="mask-2" fill="white">
                <use xlink:href="#path-1"></use>
            </mask>
            <g id="Mask" fill-rule="nonzero"></g>
            <g id="Group" mask="url(#mask-2)">
                <g transform="translate(-1.000000, -2.000000)" id="color/primary/500">
                    <rect id="Rectangle-Copy-4" fill="#9DAAB7" x="0" y="2.27373675e-15" width="32" height="32"></rect>
                </g>
            </g>
        </g>
    </g>
</svg>