<?xml version="1.0" encoding="UTF-8"?>
<svg width="32px" height="32px" viewBox="0 0 32 32" version="1.1" xmlns="http://www.w3.org/2000/svg" xmlns:xlink="http://www.w3.org/1999/xlink">
    <title>icon/print</title>
    <defs>
        <path d="M22.403,0 C23.1839306,0 23.817,0.633069364 23.817,1.414 L23.817,5.995 L24.042,5.996 C26.3834874,5.99875625 28.2807958,7.89651206 28.283,10.238 L28.283,18.028 C28.2785929,20.3679258 26.3819283,22.2632487 24.042,22.266 C23.9654382,22.266 23.8902975,22.2599151 23.8170353,22.2482026 L23.8170057,26.241 C23.8180628,26.6167087 23.6695576,26.9773936 23.4042659,27.2434358 C23.1389741,27.509478 22.7787102,27.659 22.403,27.659 L5.885,27.659 C5.10406936,27.659 4.471,27.0259306 4.471,26.245 L4.4719569,22.2513953 C4.39711721,22.2636354 4.32030187,22.27 4.242,22.27 C1.90035029,22.2672448 0.00275520902,20.3696497 0,18.028 L0,10.238 C0.00275520902,7.89635029 1.90035029,5.99875521 4.242,5.996 L4.471,5.995 L4.471,1.414 C4.471,0.633069364 5.10406936,0 5.885,0 L22.403,0 Z M5.806,8.824 L4.242,8.824 C3.46129793,8.82455154 2.82855154,9.45729793 2.828,10.238 L2.828,18.028 C2.82910159,18.8084739 3.46152611,19.4408984 4.242,19.442 C4.32030187,19.442 4.39711721,19.4483646 4.4719569,19.4606047 L4.471,13.145 C4.471,12.3640694 5.10406936,11.731 5.885,11.731 C6.66593064,11.731 7.299,12.3640694 7.299,13.145 L7.299,24.828 L20.989,24.828 L20.989,14.555 L10.023,14.555 C9.24206936,14.555 8.609,13.9219306 8.609,13.141 C8.609,12.3600694 9.24206936,11.727 10.023,11.727 L22.403,11.727 C23.1839306,11.727 23.8170057,12.3600694 23.8170057,13.141 L23.8170353,19.4557974 C23.8902975,19.4440849 23.9654382,19.438 24.042,19.438 C24.8224739,19.4368984 25.4548984,18.8044739 25.456,18.024 L25.456,10.238 C25.4548984,9.45752611 24.8224739,8.82510159 24.042,8.824 L22.4826661,8.82575607 C22.4562071,8.82724811 22.4296423,8.828 22.403,8.828 L22.325,8.824 L5.96294614,8.82588801 C5.93714209,8.82728993 5.91115397,8.828 5.885,8.828 L5.806,8.824 Z M17.81,20.241 C18.1966457,20.2291257 18.5591129,20.4286186 18.755945,20.7616246 C18.9527772,21.0946305 18.9527772,21.5083695 18.755945,21.8413754 C18.5591129,22.1743814 18.1966457,22.3738743 17.81,22.362 L10.843,22.362 C10.269977,22.3444018 9.81456916,21.8747931 9.81456916,21.3015 C9.81456916,20.7282069 10.269977,20.2585982 10.843,20.241 L17.81,20.241 Z M17.81,16.87 C18.1966457,16.8581257 18.5591129,17.0576186 18.755945,17.3906246 C18.9527772,17.7236305 18.9527772,18.1373695 18.755945,18.4703754 C18.5591129,18.8033814 18.1966457,19.0028743 17.81,18.991 L10.843,18.991 C10.269977,18.9734018 9.81456916,18.5037931 9.81456916,17.9305 C9.81456916,17.3572069 10.269977,16.8875982 10.843,16.87 L17.81,16.87 Z M20.989,2.824 L7.299,2.824 L7.298,5.995 L20.989,5.995 L20.989,2.824 Z" id="path-1"></path>
    </defs>
    <g id="icon/print" stroke="none" stroke-width="1" fill="none" fill-rule="evenodd">
        <g id="color/primary/500" transform="translate(2.000000, 2.000000)">
            <mask id="mask-2" fill="white">
                <use xlink:href="#path-1"></use>
            </mask>
            <g id="Mask" fill-rule="nonzero"></g>
            <g id="Group" mask="url(#mask-2)">
                <g transform="translate(-2.000000, -2.000000)" id="color/primary/500">
                    <rect id="Rectangle-Copy-4" fill="#9DAAB7" x="0" y="2.27373675e-15" width="32" height="32"></rect>
                </g>
            </g>
        </g>
    </g>
</svg>