<?xml version="1.0" encoding="UTF-8"?>
<svg width="32px" height="32px" viewBox="0 0 32 32" version="1.1" xmlns="http://www.w3.org/2000/svg" xmlns:xlink="http://www.w3.org/1999/xlink">
    <title>icon/push_pin</title>
    <defs>
        <path d="M14.4483916,9.21489055e-06 C15.1949139,-0.00190054934 15.9115615,0.293104979 16.4403916,0.82001852 L22.7323916,7.06301852 L22.776,7.114 L26.8513916,11.1570185 C27.9584261,12.2579873 27.965583,14.0472289 26.8673916,15.1570185 L25.0513916,16.9860185 C23.9623984,18.0733805 22.2054784,18.0955526 21.0893916,17.0360185 L20.1893916,16.1750185 L19.3823916,16.9970185 C18.5600772,17.8354666 18.12106,18.9766217 18.1693916,20.1500185 L18.2453916,21.9370185 C18.2947164,23.1262884 17.8435269,24.2818266 17.0013916,25.1230185 L14.8343916,27.2830185 C14.5701991,27.5463173 14.2123847,27.6940369 13.8393916,27.6940369 C13.4647676,27.6959323 13.1048487,27.5483655 12.8393916,27.2840185 L7.62839159,22.1150185 L2.53739159,27.2460185 C1.98543183,27.7879545 1.1004477,27.7857809 0.551156635,27.2411402 C0.00186556715,26.6964995 -0.00783203509,25.8115659 0.529391593,25.2550185 L6.61739159,19.1190185 C6.88184774,18.8522063 7.24172519,18.7017775 7.61739159,18.7010185 L7.62339159,18.7010185 C7.99622002,18.7007627 8.3539743,18.848179 8.61839159,19.1110185 L13.8353916,24.2860185 L15.0063916,23.1190185 C15.2873306,22.838747 15.4378696,22.4535123 15.4213916,22.0570185 L15.3453916,20.2700185 C15.2645837,18.3141458 15.9960236,16.4118953 17.3663916,15.0140185 L19.1523916,13.1960185 C19.6953207,12.6448997 20.580072,12.6315416 21.1393916,13.1660185 L23.0453916,14.9940185 L24.8603916,13.1640185 L18.5673916,6.92201852 L18.515,6.864 L14.4473916,2.82801852 L12.6333916,4.65601852 L14.4753916,6.54901852 C15.0112435,7.09988235 15.0090229,7.97787214 14.4703916,8.52601852 L12.7073916,10.3200185 C11.3160113,11.7304933 9.39856784,12.4954405 7.41839159,12.4300185 L5.64439159,12.3670185 C5.25414291,12.3577148 4.87664777,12.5062612 4.59739159,12.7790185 L3.42339159,13.9500185 L5.55739159,16.0670185 C5.96479522,16.471041 6.08766134,17.0812003 5.86838271,17.611416 C5.64910408,18.1416317 5.13115875,18.4867739 4.55739159,18.4850252 L4.55539159,18.4830185 C4.18258473,18.4831652 3.82487044,18.3357654 3.56039159,18.0730185 L0.416391593,14.9530185 C0.149836425,14.6874981 0,14.3267535 0,13.9505185 C0,13.5742835 0.149836425,13.213539 0.416391593,12.9480185 L2.59839159,10.7740185 C3.43447253,9.95262393 4.56877708,9.50677221 5.74039159,9.53901852 L7.51439159,9.60201852 C8.70223086,9.64042278 9.85224578,9.18157661 10.6873916,8.33601852 L11.4813916,7.52801852 L10.6043916,6.62801852 C9.53568324,5.52016341 9.54410973,3.76257541 10.6233916,2.66501852 L12.4373916,0.83601852 C12.9651603,0.300699133 13.685656,-0.000468058128 14.4373916,9.21489055e-06 L14.4483916,9.21489055e-06 Z" id="path-1"></path>
    </defs>
    <g id="icon/push_pin" stroke="none" stroke-width="1" fill="none" fill-rule="evenodd">
        <g id="color/primary/500" transform="translate(2.000000, 1.999991)">
            <mask id="mask-2" fill="white">
                <use xlink:href="#path-1"></use>
            </mask>
            <g id="Mask" fill-rule="nonzero"></g>
            <g id="Group" mask="url(#mask-2)">
                <g transform="translate(-2.000000, -1.999991)" id="color/primary/500">
                    <rect id="Rectangle-Copy-4" fill="#9DAAB7" x="0" y="2.27373675e-15" width="32" height="32"></rect>
                </g>
            </g>
        </g>
    </g>
</svg>