<?xml version="1.0" encoding="UTF-8"?>
<svg width="32px" height="32px" viewBox="0 0 32 32" version="1.1" xmlns="http://www.w3.org/2000/svg" xmlns:xlink="http://www.w3.org/1999/xlink">
    <title>icon/questioncircle_fill</title>
    <defs>
        <path d="M25.8877471,6.2881624 C29.6302495,11.895437 28.8910095,19.3654729 24.1220619,24.1304484 C21.4713573,26.783933 17.8726849,28.2719841 14.1220619,28.2654698 C7.38056178,28.260043 1.58153046,23.4935824 0.270993761,16.8806899 C-1.03954294,10.2677975 2.50335935,3.6499614 8.73326584,1.07389507 C14.9631723,-1.50217127 22.1452448,0.680887784 25.8877471,6.2881624 Z M13.554,17.274 C12.438,17.274 11.646,18.156 11.646,19.254 C11.646,20.37 12.438,21.252 13.554,21.252 C14.652,21.252 15.462,20.37 15.462,19.254 C15.462,18.156 14.652,17.274 13.554,17.274 Z M13.824,6.96 C12.204,6.96 10.836,7.716 9.846,8.85 L11.61,10.47 C12.168,9.912 12.69,9.534 13.428,9.534 C14.166,9.534 14.724,9.948 14.724,10.74 C14.724,12.216 11.736,13.368 12.168,16.14 L14.958,16.14 C14.8453333,14.996 15.5004691,14.2317284 16.210161,13.4674568 L16.5389877,13.1133333 C17.194,12.3995556 17.802,11.636 17.802,10.524 C17.802,8.022 16.056,6.96 13.824,6.96 Z" id="path-1"></path>
    </defs>
    <g id="icon/questioncircle_fill" stroke="none" stroke-width="1" fill="none" fill-rule="evenodd">
        <g id="color/primary/500" transform="translate(2.000000, 2.000000)">
            <mask id="mask-2" fill="white">
                <use xlink:href="#path-1"></use>
            </mask>
            <g id="Mask" fill-rule="nonzero"></g>
            <g id="Group" mask="url(#mask-2)">
                <g transform="translate(-2.000000, -2.000000)" id="color/primary/500">
                    <rect id="Rectangle-Copy-4" fill="#9DAAB7" x="0" y="2.27373675e-15" width="32" height="32"></rect>
                </g>
            </g>
        </g>
    </g>
</svg>