<?xml version="1.0" encoding="UTF-8"?>
<svg width="32px" height="32px" viewBox="0 0 32 32" version="1.1" xmlns="http://www.w3.org/2000/svg" xmlns:xlink="http://www.w3.org/1999/xlink">
    <title>icon/rec_on</title>
    <defs>
        <path d="M15.677,19.916 L4.242,19.916 C1.90035029,19.9132448 0.00275520902,18.0156497 0,15.674 L0,4.242 C0.00275520902,1.90035029 1.90035029,0.00275520902 4.242,0 C5.02293064,0 5.656,0.633069364 5.656,1.414 C5.656,2.19493064 5.02293064,2.828 4.242,2.828 C3.46129793,2.82855154 2.82855154,3.46129793 2.828,4.242 L2.828,15.674 C2.83075297,16.4531395 3.46285581,17.0834542 4.242,17.084 L15.674,17.084 C16.4547021,17.0834485 17.0874485,16.4507021 17.088,15.67 L17.088,13.117 C17.0879418,12.6245879 17.3440556,12.1676065 17.7641008,11.9106401 C18.184146,11.6536737 18.7076234,11.6337331 19.146,11.858 L25.451,15.083 L25.451,4.829 L19.146,8.054 C18.7076234,8.27826691 18.184146,8.2583263 17.7641008,8.00135988 C17.3440556,7.74439347 17.0879418,7.28741212 17.088,6.795 L17.088,4.242 C17.0874485,3.46129793 16.4547021,2.82855154 15.674,2.828 L7.774,2.828 C7.26882638,2.82800012 6.80202665,2.55849327 6.5494398,2.1210001 C6.29685295,1.68350693 6.29685295,1.14449307 6.5494398,0.706999903 C6.80202665,0.269506731 7.26882638,0 7.774,0 L15.674,0 C18.0156497,0.00275520902 19.9132448,1.90035029 19.916,4.242 L19.916,4.484 L24.162,2.311 C25.0388852,1.86259866 26.0858647,1.9025189 26.9260594,2.41639074 C27.7662542,2.93026257 28.2790002,3.8441186 28.2790002,4.829 L28.2790002,15.084 C28.2793379,16.0688802 27.7670794,16.9829495 26.9268503,17.496763 C26.0866213,18.0105765 25.0395435,18.0500665 24.163,17.601 L19.916,15.429 L19.916,15.671 C19.9149014,18.0126519 18.018648,19.9115893 15.677,19.916 L15.677,19.916 Z" id="path-1"></path>
    </defs>
    <g id="icon/rec_on" stroke="none" stroke-width="1" fill="none" fill-rule="evenodd">
        <g id="color/primary/500" transform="translate(2.000000, 6.000000)">
            <mask id="mask-2" fill="white">
                <use xlink:href="#path-1"></use>
            </mask>
            <g id="Mask" fill-rule="nonzero"></g>
            <g id="Group" mask="url(#mask-2)">
                <g transform="translate(-2.000000, -6.000000)" id="color/primary/500">
                    <rect id="Rectangle-Copy-4" fill="#9DAAB7" x="0" y="2.27373675e-15" width="32" height="32"></rect>
                </g>
            </g>
        </g>
    </g>
</svg>