<?xml version="1.0" encoding="UTF-8"?>
<svg width="32px" height="32px" viewBox="0 0 32 32" version="1.1" xmlns="http://www.w3.org/2000/svg" xmlns:xlink="http://www.w3.org/1999/xlink">
    <title>icon/rec_off</title>
    <defs>
        <path d="M25.2565826,0.37548913 C25.7555001,0.874406617 25.7574814,1.68269853 25.2610158,2.18405593 L22.307152,5.13998118 C22.5222387,5.6550806 22.6341487,6.20966055 22.6340158,6.77205593 L22.6340158,7.01305593 L26.8810158,4.84105593 C27.7576105,4.39260316 28.8043584,4.43238382 29.6443878,4.94607523 C30.4844171,5.45976665 30.9970159,6.37340973 30.9970159,7.35805593 L30.9970159,17.6200559 C30.9970159,18.604645 30.4850519,19.5183948 29.6451268,20.0321473 C28.8052018,20.5458997 27.7584785,20.5856413 26.8820158,20.1370559 L22.6340158,17.9650559 L22.6340158,18.2070559 C22.6312559,20.552219 20.7281795,22.4512663 18.3830158,22.4490579 L6.95101581,22.4490579 C6.38950275,22.4495623 5.83604263,22.3382184 5.32210196,22.124182 L2.18801581,25.2570559 C1.94782621,25.4974528 1.62184166,25.6323802 1.28201581,25.6320565 C0.763630588,25.6320565 0.296266223,25.3198511 0.0977578904,24.8409798 C-0.100750443,24.3621085 0.00866868861,23.8108161 0.375015814,23.4440559 L23.4480158,0.371055927 C23.9493732,-0.125409662 24.7576651,-0.123428357 25.2565826,0.37548913 Z M28.1610158,7.36105593 L21.8610158,10.5860559 C21.4228491,10.8108558 20.8992486,10.7913067 20.4790646,10.5344595 C20.0588805,10.2776123 19.8027359,9.82052419 19.8030158,9.32805593 L19.803,7.642 L7.824,19.621 L18.3830158,19.6210559 C19.1634897,19.6199543 19.7959142,18.9875298 19.7970158,18.2070559 L19.7970158,15.6540559 C19.7969576,15.1616438 20.0530714,14.7046625 20.4731166,14.447696 C20.8931618,14.1907296 21.4166392,14.170789 21.8550158,14.3950559 L28.1610158,17.6200559 L28.1610158,7.36105593 Z M15.8440158,2.53305593 C16.6249464,2.53305593 17.2580158,3.16612529 17.2580158,3.94705593 C17.2580158,4.72798656 16.6249464,5.36105593 15.8440158,5.36105593 L6.95401581,5.36105593 C6.17354193,5.36215751 5.5411174,5.99458204 5.54001581,6.77505593 L5.54001581,16.2400559 C5.53836144,17.0198147 4.90577638,17.6510559 4.12601581,17.6510559 C3.34508518,17.6510559 2.71201581,17.0179866 2.71201581,16.2370559 L2.71201581,6.77505593 C2.71477102,4.43340621 4.6123661,2.53581114 6.95401581,2.53305593 L15.8440158,2.53305593 Z" id="path-1"></path>
    </defs>
    <g id="icon/rec_off" stroke="none" stroke-width="1" fill="none" fill-rule="evenodd">
        <g id="color/primary/500" transform="translate(-0.000000, 3.000000)">
            <mask id="mask-2" fill="white">
                <use xlink:href="#path-1"></use>
            </mask>
            <g id="Mask" fill-rule="nonzero"></g>
            <g id="Group" mask="url(#mask-2)">
                <g transform="translate(0.000000, -3.000000)" id="color/primary/500">
                    <rect id="Rectangle-Copy-4" fill="#9DAAB7" x="0" y="2.27373675e-15" width="32" height="32"></rect>
                </g>
            </g>
        </g>
    </g>
</svg>