<?xml version="1.0" encoding="UTF-8"?>
<svg width="32px" height="32px" viewBox="0 0 32 32" version="1.1" xmlns="http://www.w3.org/2000/svg" xmlns:xlink="http://www.w3.org/1999/xlink">
    <title>icon/redo</title>
    <defs>
        <path d="M16.261,0.414213562 L23.629,7.78221356 C23.8942688,8.04740227 24.043302,8.40712344 24.043302,8.78221356 C24.043302,9.15730369 23.8942688,9.51702485 23.629,9.78221356 L16.261,17.1502136 C15.9958475,17.4153787 15.6359904,17.5639997 15.261,17.5632167 C14.6894357,17.5629318 14.1742498,17.2185781 13.9554277,16.6905604 C13.7366056,16.1625426 13.8571861,15.5547134 14.261,15.1502136 L19.215,10.196 L9.51,10.1862136 L9.503,10.1862136 C7.73198685,10.1856828 6.0333574,10.88898 4.78106194,12.1412755 C3.52876647,13.393571 2.82546928,15.0922004 2.826,16.8632136 L2.826,22.6242136 C2.82544932,23.4039734 2.19375923,24.0361108 1.414,24.0372136 C0.633069364,24.0372136 0,23.4041442 0,22.6232136 L0,16.8632136 C0.00110240818,11.6161558 4.25294359,7.36207685 9.5,7.35821356 L9.509,7.35821356 L19.215,7.368 L14.261,2.41421356 C13.7087153,1.86192881 13.7087153,0.966498312 14.261,0.414213562 C14.8132847,-0.138071187 15.7087153,-0.138071187 16.261,0.414213562 Z" id="path-1"></path>
    </defs>
    <g id="icon/redo" stroke="none" stroke-width="1" fill="none" fill-rule="evenodd">
        <g id="color/primary/500" transform="translate(4.000000, 4.000000)">
            <mask id="mask-2" fill="white">
                <use xlink:href="#path-1"></use>
            </mask>
            <g id="Mask" fill-rule="nonzero"></g>
            <g id="Group" mask="url(#mask-2)">
                <g transform="translate(-4.000000, -4.000000)" id="color/primary/500">
                    <rect id="Rectangle-Copy-4" fill="#9DAAB7" x="0" y="2.27373675e-15" width="32" height="32"></rect>
                </g>
            </g>
        </g>
    </g>
</svg>