<?xml version="1.0" encoding="UTF-8"?>
<svg width="32px" height="32px" viewBox="0 0 32 32" version="1.1" xmlns="http://www.w3.org/2000/svg" xmlns:xlink="http://www.w3.org/1999/xlink">
    <title>icon/remove_fill</title>
    <defs>
        <path d="M19.552019,1.07694807 C24.8358656,3.26580789 28.2808177,8.42213515 28.2804133,14.1414133 C28.2715958,21.9465121 21.9465121,28.2715958 14.1414133,28.2804133 C8.42213515,28.2808177 3.26580789,24.8358656 1.07694807,19.552019 C-1.11191176,14.2681723 0.0977830719,8.18606378 4.14192343,4.14192343 C8.18606378,0.0977830719 14.2681723,-1.11191176 19.552019,1.07694807 Z M20.8444133,12.7284133 L7.43141328,12.7284133 C6.65048264,12.7284133 6.01741328,13.3614826 6.01741328,14.1424133 C6.01741328,14.9233439 6.65048264,15.5564133 7.43141328,15.5564133 L7.43141328,15.5564133 L20.8444133,15.5564133 C21.6253439,15.5564133 22.2584133,14.9233439 22.2584133,14.1424133 C22.2584133,13.3614826 21.6253439,12.7284133 20.8444133,12.7284133 L20.8444133,12.7284133 Z" id="path-1"></path>
    </defs>
    <g id="icon/remove_fill" stroke="none" stroke-width="1" fill="none" fill-rule="evenodd">
        <g id="color/primary/500" transform="translate(2.000000, 2.000000)">
            <mask id="mask-2" fill="white">
                <use xlink:href="#path-1"></use>
            </mask>
            <g id="Mask" fill-rule="nonzero"></g>
            <g id="Group" mask="url(#mask-2)">
                <g transform="translate(-2.000000, -2.000000)" id="color/primary/500">
                    <rect id="Rectangle-Copy-4" fill="#9DAAB7" x="0" y="2.27373675e-15" width="32" height="32"></rect>
                </g>
            </g>
        </g>
    </g>
</svg>