<?xml version="1.0" encoding="UTF-8"?>
<svg width="32px" height="32px" viewBox="0 0 32 32" version="1.1" xmlns="http://www.w3.org/2000/svg" xmlns:xlink="http://www.w3.org/1999/xlink">
    <title>icon/reset</title>
    <defs>
        <path d="M19.5371848,1.26459273 L20.0821848,6.40959273 C20.1219401,6.78253331 20.0117953,7.15597918 19.7760174,7.44765353 C19.5402395,7.73932789 19.1981743,7.92529851 18.8251848,7.96459273 L13.6791848,8.51059273 C13.6301456,8.51779462 13.5807286,8.52213529 13.5311848,8.52360884 C12.776827,8.52716123 12.1527018,7.9375338 12.1134179,7.18419108 C12.074134,6.43084835 12.6335472,5.77950396 13.3841848,5.70459273 L15.1616733,5.51365257 C12.814206,4.24159067 9.93924861,4.14384189 7.45548363,5.38146523 C4.17514524,7.0160093 2.34346669,10.5979755 2.93869673,14.2143349 C3.53392676,17.8306943 6.41701537,20.6366394 10.0481848,21.1335927 C12.867323,21.5181245 15.6883908,20.4417408 17.5348632,18.2770366 C19.3813356,16.1123324 19.999428,13.1568312 19.1751848,10.4335927 C19,9.70630682 19.4216245,8.96842033 20.1371313,8.75005825 C20.8526382,8.53169616 21.6144201,8.90842672 21.8751848,9.60959273 C22.9026801,12.9972554 22.2661076,16.6713417 20.1588219,19.5158719 C18.0515362,22.3604021 14.7222398,24.039664 11.1821848,24.0435927 L11.1881848,24.0395927 C7.69029658,24.0387543 4.39365642,22.4037509 2.27618483,19.6195927 C-1.31106599,14.894795 -0.583892054,8.19088322 3.93300579,4.34514326 C7.65758515,1.17399257 12.8897249,0.856609342 16.9050779,3.25086512 L16.7241848,1.56459273 C16.6413423,0.787804333 17.2038965,0.0909357375 17.9806849,0.0080930378 C18.7574732,-0.0747496619 19.454342,0.487804369 19.5371848,1.26459273 Z" id="path-1"></path>
    </defs>
    <g id="icon/reset" stroke="none" stroke-width="1" fill="none" fill-rule="evenodd">
        <g id="color/primary/500" transform="translate(5.000000, 4.000000)">
            <mask id="mask-2" fill="white">
                <use xlink:href="#path-1"></use>
            </mask>
            <g id="Mask" fill-rule="nonzero"></g>
            <g id="Group" mask="url(#mask-2)">
                <g transform="translate(-5.000000, -4.000000)" id="color/primary/500">
                    <rect id="Rectangle-Copy-4" fill="#9DAAB7" x="0" y="2.27373675e-15" width="32" height="32"></rect>
                </g>
            </g>
        </g>
    </g>
</svg>