<?xml version="1.0" encoding="UTF-8"?>
<svg width="32px" height="32px" viewBox="0 0 32 32" version="1.1" xmlns="http://www.w3.org/2000/svg" xmlns:xlink="http://www.w3.org/1999/xlink">
    <title>icon/rocket</title>
    <defs>
        <path d="M26.833302,0.388502596 C27.3644663,0.508546852 27.7792578,0.923338323 27.899302,1.4545026 C29.0767184,6.56367461 27.5333172,11.9186947 23.817302,15.6175026 L20.579302,18.8565026 L20.516302,22.8905026 C20.4955838,24.3599765 19.9012998,25.7631471 18.860302,26.8005026 L17.786302,27.8745026 C17.521478,28.1404012 17.1615803,28.2895046 16.786302,28.2895046 C16.4111459,28.2901344 16.0512277,28.1411282 15.786302,27.8755026 L13.459302,25.5485026 C12.9070173,24.9962178 12.9070173,24.1007873 13.459302,23.5485026 C14.0115868,22.9962178 14.9070173,22.9962178 15.459302,23.5485026 L16.786302,24.8755026 L16.860302,24.8015026 C17.3809804,24.2829461 17.6781549,23.5812841 17.688302,22.8465026 L17.761302,18.2395026 C17.7669846,17.8720935 17.9154688,17.5213264 18.175302,17.2615026 L21.819302,13.6185026 C24.6171343,10.8330127 25.9155484,6.87831226 25.313302,2.9765026 C21.4114239,2.3734234 17.4563534,3.67195905 14.671302,6.4705026 L11.028302,10.1145026 C10.7684782,10.3743358 10.4177111,10.52282 10.050302,10.5285026 L5.44330205,10.6015026 C4.70852053,10.6116498 4.00685857,10.9088242 3.48830205,11.4295026 L3.41430205,11.5025026 L4.78930205,12.8785026 C5.14656767,13.2357682 5.2860958,13.7564941 5.15532752,14.244528 C5.02455924,14.7325619 4.64336138,15.1137598 4.15532748,15.2445281 C3.66729359,15.3752963 3.14656763,15.2357682 2.78930205,14.8785026 L0.414302046,12.5035026 C0.149033215,12.2383139 0,11.8785927 0,11.5035026 C0,11.1284125 0.149033215,10.7686913 0.414302046,10.5035026 L1.48830205,9.4295026 C2.52516859,8.38838602 3.92808679,7.7940569 5.39730205,7.7735026 L9.43230205,7.7095026 L12.671302,4.4715026 C16.3686867,0.753761675 21.7242183,-0.790274158 26.833302,0.388502596 Z M13.438302,18.5595026 C13.9905868,19.1117873 13.9905868,20.0072178 13.438302,20.5595026 L10.189302,23.8095026 C9.92384224,24.0748199 9.56361695,24.2234443 9.18830205,24.222507 C8.61629858,24.2226248 8.10056402,23.8781133 7.88165123,23.3496579 C7.66273845,22.8212024 7.78377341,22.212909 8.18830205,21.8085026 L11.438302,18.5595026 C11.9905868,18.0072178 12.8860173,18.0072178 13.438302,18.5595026 Z M9.78130189,14.8045028 C10.3335866,15.3567874 10.3335866,16.2522178 9.78130205,16.8045026 L5.61130205,20.9755026 C5.34584224,21.2408199 4.98561695,21.3894443 4.61030205,21.388507 C4.03829858,21.3886248 3.52256402,21.0441133 3.30365123,20.5156579 C3.08473845,19.9872024 3.20577341,19.378909 3.61030205,18.9745026 L7.78130205,14.8045026 C8.33358682,14.252218 9.2290172,14.2522181 9.78130189,14.8045028 Z M18.6392374,6.54195012 C19.1197478,7.14272409 19.0317985,8.01741696 18.441302,8.5105026 C18.41388,8.53184315 18.3878285,8.55488872 18.363302,8.5795026 C18.1450834,8.79300563 18.043726,9.09894093 18.091302,9.4005026 C18.1420343,9.71666722 18.3440269,9.98810643 18.632302,10.1275026 C18.883942,10.2541064 19.1806621,10.2541064 19.432302,10.1275026 C19.720851,9.98822193 19.9231993,9.7168064 19.974302,9.4005026 C20.0212124,9.10154685 19.9214855,8.7982729 19.706302,8.5855026 C19.1849818,8.02820595 19.1994917,7.15790904 19.7391001,6.61830066 C20.2787085,6.07869228 21.1490054,6.06418231 21.706302,6.5855026 C22.5608685,7.44167357 22.9547253,8.65473687 22.7660918,9.84961345 C22.5774583,11.04449 21.8290602,12.0772271 20.752302,12.6285026 C20.2210058,12.9063633 19.6298644,13.0502008 19.030302,13.0475399 C18.4320128,13.0492006 17.8423266,12.9050398 17.312302,12.6275026 C16.2353476,12.0763526 15.4868479,11.0434806 15.2983891,9.84845743 C15.1099302,8.65343429 15.5042337,7.44033858 16.359302,6.5845026 C16.4589859,6.48435725 16.5645033,6.39019296 16.675302,6.3025026 C17.2860857,5.83478171 18.1587271,5.94117615 18.6392374,6.54195012 Z" id="path-1"></path>
    </defs>
    <g id="icon/rocket" stroke="none" stroke-width="1" fill="none" fill-rule="evenodd">
        <g id="color/primary/500" transform="translate(2.000000, 2.000000)">
            <mask id="mask-2" fill="white">
                <use xlink:href="#path-1"></use>
            </mask>
            <g id="Mask" fill-rule="nonzero"></g>
            <g id="Group" mask="url(#mask-2)">
                <g transform="translate(-2.000000, -2.000000)" id="color/primary/500">
                    <rect id="Rectangle-Copy-4" fill="#9DAAB7" x="0" y="2.27373675e-15" width="32" height="32"></rect>
                </g>
            </g>
        </g>
    </g>
</svg>