<?xml version="1.0" encoding="UTF-8"?>
<svg width="32px" height="32px" viewBox="0 0 32 32" version="1.1" xmlns="http://www.w3.org/2000/svg" xmlns:xlink="http://www.w3.org/1999/xlink">
    <title>icon/search</title>
    <defs>
        <path d="M15.2842747,0.841663185 C19.4149941,2.55255375 22.108323,6.58330652 22.108323,11.0543232 C22.1047718,14.0795141 20.8875837,16.8203132 18.9174269,18.8160107 L18.8503232,18.8753233 C19.4026078,18.3230386 20.2980382,18.3230386 20.850323,18.8753232 L27.838323,25.8643232 C28.2431636,26.2684678 28.3643905,26.8768317 28.1453866,27.405288 C27.9263828,27.9337443 27.4103617,28.2780187 26.838323,28.2773252 C26.4631668,28.277955 26.1032486,28.1289488 25.838323,27.8633232 L18.850323,20.8753232 C18.3219105,20.3469105 18.2990703,19.5043756 18.7818024,18.9488076 C16.7908745,20.9004932 14.0637802,22.1045195 11.055323,22.1083232 C6.58430637,22.1087276 2.55330995,19.4157635 0.842045687,15.2851988 C-0.869218574,11.1546341 0.0762678964,6.39994764 3.23761108,3.23831844 C6.39895426,0.0766892388 11.1535552,-0.869227379 15.2842747,0.841663185 Z M11.055323,2.82832311 C7.7281256,2.8279187 4.72832061,4.83186279 3.45477701,7.90567629 C2.18123342,10.9794898 2.88476821,14.517803 5.23730905,16.8706299 C7.5898499,19.2234568 11.1280776,19.9274217 14.2020459,18.6542518 C17.2760142,17.3810819 19.280323,14.3815206 19.280323,11.0543232 C19.2764641,6.51321855 15.5964271,2.83273412 11.055323,2.82832311 Z" id="path-1"></path>
    </defs>
    <g id="icon/search" stroke="none" stroke-width="1" fill="none" fill-rule="evenodd">
        <g id="color/primary/500" transform="translate(2.000000, 2.000000)">
            <mask id="mask-2" fill="white">
                <use xlink:href="#path-1"></use>
            </mask>
            <g id="Mask" fill-rule="nonzero"></g>
            <g id="Group" mask="url(#mask-2)">
                <g transform="translate(-2.000000, -2.000000)" id="color/primary/500">
                    <rect id="Rectangle-Copy-4" fill="#9DAAB7" x="0" y="2.27373675e-15" width="32" height="32"></rect>
                </g>
            </g>
        </g>
    </g>
</svg>