<?xml version="1.0" encoding="UTF-8"?>
<svg width="32px" height="32px" viewBox="0 0 32 32" version="1.1" xmlns="http://www.w3.org/2000/svg" xmlns:xlink="http://www.w3.org/1999/xlink">
    <title>icon/setting</title>
    <defs>
        <path d="M5.521,0 C8.5701641,0 11.042,2.4718359 11.042,5.521 C11.0386932,8.56879332 8.56879332,11.0386932 5.521,11.042 C2.4718359,11.042 0,8.5701641 0,5.521 C0,2.4718359 2.4718359,0 5.521,0 Z M5.521,2.826 L5.521,2.828 C4.03382747,2.82855224 2.82863196,4.03449383 2.829,5.52166642 C2.82936821,7.00883901 4.03516059,8.2141838 5.52233321,8.21399979 C7.00950583,8.21381578 8.215,7.00817263 8.215,5.521 C8.21225019,4.03412328 7.0078756,2.82930163 5.521,2.826 Z" id="path-1"></path>
        <path d="M16.539,28.275 L11.746,28.275 C10.9650694,28.275 10.332,27.6419306 10.332,26.861 L10.332,24.037 C10.165,23.973 10,23.904 9.832,23.831 L7.832,25.831 C7.2711925,26.3623108 6.3928075,26.3623108 5.832,25.831 L2.442,22.442 C1.89014918,21.8895356 1.89014918,20.9944644 2.442,20.442 L4.442,18.442 C4.37,18.28 4.30333333,18.1153333 4.242,17.948 L1.414,17.948 C0.633069364,17.948 0,17.3149306 0,16.534 L0,11.741 C0,10.9600694 0.633069364,10.327 1.414,10.327 L4.242,10.327 C4.306,10.161 4.374,9.996 4.442,9.834 L2.442,7.834 C2.17673117,7.56881129 2.02769795,7.20909013 2.02769795,6.834 C2.02769795,6.45890987 2.17673117,6.09918871 2.442,5.834 L5.832,2.445 C6.09686275,2.17928041 6.45682188,2.03025733 6.832,2.031 L6.832,2.031 C7.20702494,2.03102968 7.56669967,2.17993502 7.832,2.445 L9.832,4.445 C9.996,4.372 10.161,4.303 10.332,4.238 L10.332,1.414 C10.332,0.633069364 10.9650694,0 11.746,0 L16.539,0 C17.3197021,0.000551538227 17.9524485,0.633297932 17.953,1.414 L17.953,4.238 C18.119,4.30466667 18.284,4.37333333 18.448,4.444 L20.448,2.444 C20.7133003,2.17893502 21.0729751,2.03002968 21.448,2.03 L21.448,2.03 C21.8230249,2.03002968 22.1826997,2.17893502 22.448,2.444 L25.837,5.833 C26.1025142,6.09805836 26.251717,6.45782837 26.251717,6.833 C26.251717,7.20817163 26.1025142,7.56794164 25.837,7.833 L23.837,9.833 C23.909,9.995 23.977,10.16 24.037,10.326 L26.864,10.326 C27.6449306,10.326 28.278,10.9590694 28.278,11.74 L28.278,16.533 C28.278,17.3139306 27.6449306,17.947 26.864,17.947 L24.037,17.947 C23.9703333,18.1136667 23.9036667,18.2783333 23.837,18.441 L25.837,20.441 C26.3888508,20.9934644 26.3888508,21.8885356 25.837,22.441 L22.448,25.83 C21.8865936,26.3598057 21.0094064,26.3598057 20.448,25.83 L18.448,23.83 C18.284,23.9026667 18.119,23.9713333 17.953,24.036 L17.953,26.86 C17.9530002,27.6410926 17.3200924,28.274448 16.539,28.275 Z M13.159,25.447 L15.125,25.447 L15.125,23.016 C15.1247406,22.3782904 15.5516643,21.8194382 16.167,21.652 C16.8138863,21.4754714 17.4353346,21.2163385 18.016,20.881 C18.5702522,20.5614191 19.2700775,20.6541275 19.722,21.107 L21.445,22.83 L22.835,21.44 L21.112,19.717 C20.6601147,19.2645096 20.5678814,18.5651761 20.887,18.011 C21.2200584,17.4313543 21.4762124,16.810803 21.649,16.165 C21.8156325,15.5481252 22.3750159,15.1194695 23.014,15.119 L25.453,15.119 L25.453,13.154 L23.014,13.154 C22.3750159,13.1535305 21.8156325,12.7248748 21.649,12.108 C21.4758049,11.4623351 21.2196722,10.8418353 20.887,10.262 C20.5680411,9.70813204 20.6602801,9.00916548 21.112,8.557 L22.835,6.834 L21.445,5.444 L19.722,7.167 C19.2695096,7.61888527 18.5701761,7.71111859 18.016,7.392 C17.4352843,7.0570084 16.8138379,6.79821245 16.167,6.622 C15.5518674,6.45425983 15.1250853,5.89559302 15.125,5.258 L15.125,2.826 L13.159,2.826 L13.159,5.258 C13.1589147,5.89559302 12.7321326,6.45425983 12.117,6.622 C11.4697181,6.79829991 10.8479103,7.05744251 10.267,7.393 C9.71410247,7.70911642 9.01810369,7.61658952 8.567,7.167 L6.844,5.444 L5.454,6.834 L7.177,8.557 C7.62905025,9.00892203 7.72170252,9.70791368 7.403,10.262 C7.06950786,10.8410792 6.81332747,11.4613585 6.641,12.107 C6.47434477,12.7244269 5.91452303,13.1535143 5.275,13.154 L2.836,13.154 L2.836,15.119 L5.275,15.119 C5.91440577,15.1198309 6.47404194,15.548776 6.641,16.166 C6.81295477,16.8117676 7.06915483,17.4320945 7.403,18.011 C7.72186219,18.5653945 7.62921563,19.264753 7.177,19.717 L5.454,21.44 L6.844,22.83 L8.567,21.107 C9.01794317,20.6570849 9.71417235,20.5645274 10.267,20.881 C10.8480977,21.2161783 11.4698553,21.4753 12.117,21.652 C12.7323357,21.8194382 13.1592594,22.3782904 13.159,23.016 L13.159,25.447 Z" id="path-3"></path>
    </defs>
    <g id="icon/setting" stroke="none" stroke-width="1" fill="none" fill-rule="evenodd">
        <g id="그룹-11043" transform="translate(2.000000, 2.000000)">
            <g id="color/primary/500" transform="translate(8.621000, 8.618000)">
                <mask id="mask-2" fill="white">
                    <use xlink:href="#path-1"></use>
                </mask>
                <g id="Mask" fill-rule="nonzero"></g>
                <g id="Group" mask="url(#mask-2)">
                    <g transform="translate(-10.621000, -10.618000)" id="color/primary/500">
                        <rect id="Rectangle-Copy-4" fill="#9DAAB7" x="0" y="2.27373675e-15" width="32" height="32"></rect>
                    </g>
                </g>
            </g>
            <g id="color/primary/500">
                <mask id="mask-4" fill="white">
                    <use xlink:href="#path-3"></use>
                </mask>
                <g id="Mask" fill-rule="nonzero"></g>
                <g id="Group" mask="url(#mask-4)">
                    <g transform="translate(-2.000000, -2.000000)" id="color/primary/500">
                        <rect id="Rectangle-Copy-4" fill="#9DAAB7" x="0" y="2.27373675e-15" width="32" height="32"></rect>
                    </g>
                </g>
            </g>
        </g>
    </g>
</svg>