<?xml version="1.0" encoding="UTF-8"?>
<svg width="32px" height="32px" viewBox="0 0 32 32" version="1.1" xmlns="http://www.w3.org/2000/svg" xmlns:xlink="http://www.w3.org/1999/xlink">
    <title>icon/share</title>
    <defs>
        <path d="M20.813995,0.336638376 C22.4665059,1.02102132 23.5439999,2.63350621 23.5439999,4.42212925 C23.5417955,6.86302839 21.5638985,8.84137279 19.1229999,8.84412937 C18.1722282,8.84434432 17.2711578,8.54008847 16.5327512,8.0068087 L9.04521348,14.7036513 C9.35553117,15.3360101 9.52984208,16.0472138 9.52999988,16.7991293 C9.52956525,17.3177745 9.44636369,17.8170455 9.29288884,18.284446 L20.3587773,22.3658126 C21.0823923,21.074054 22.4644352,20.2010044 24.0503331,20.2011294 C26.3852629,20.2013134 28.2779999,22.0941995 28.2779999,24.4291293 C28.2752436,26.7634369 26.3833081,28.6549251 24.0489999,28.6571293 C21.9806291,28.65664 20.2594856,27.1709834 19.8937219,25.2087091 L7.55880492,20.6581423 C6.77395601,21.2277572 5.80874545,21.5640355 4.76499988,21.5651293 C2.13349324,21.5651293 0.000184047178,19.4319692 0,16.8004625 C-0.000184047178,14.1689559 2.13282674,12.0354975 4.76433336,12.0351293 C5.61413727,12.0350104 6.41201699,12.2573588 7.10290417,12.6471254 L14.8847548,5.68731495 C14.4230848,4.14282775 14.8380848,2.45265372 15.9948201,1.29565679 C17.2594246,0.0307662992 19.161484,-0.347744571 20.813995,0.336638376 Z M24.0489999,23.0291293 C23.2758012,23.0291293 22.6489999,23.6559306 22.6489999,24.4291293 C22.6489999,25.2023279 23.2758012,25.8291293 24.0489999,25.8291293 C24.8221985,25.8291293 25.4489999,25.2023279 25.4489999,24.4291293 C25.4489999,23.6559306 24.8221985,23.0291293 24.0489999,23.0291293 Z M4.76499988,14.8621293 L4.76499988,14.8651293 C3.69522432,14.8651293 2.82799988,15.7323537 2.82799988,16.8021293 C2.82799988,17.8719048 3.69522432,18.7391293 4.76499988,18.7391293 C5.33011942,18.7391293 5.83871533,18.4971229 6.19280453,18.1110932 C6.19793212,18.1029817 6.20439903,18.0957168 6.21093455,18.0885263 C6.51693668,17.7472695 6.70199988,17.2963113 6.70199988,16.8021293 C6.70199988,15.7318673 5.83526054,14.8637843 4.76499988,14.8621293 Z M19.1229999,2.82912894 C18.4781052,2.8287248 17.8965049,3.21694212 17.6495276,3.81266978 C17.4025502,4.40839744 17.5388625,5.09424768 17.994872,5.55025715 C18.4508815,6.00626661 19.1367317,6.14257892 19.7324594,5.89560156 C20.328187,5.6486242 20.7164043,5.06702389 20.7160002,4.42212925 C20.7121661,3.54393255 20.0011966,2.83296303 19.1229999,2.82912894 Z" id="path-1"></path>
    </defs>
    <g id="icon/share" stroke="none" stroke-width="1" fill="none" fill-rule="evenodd">
        <g id="color/primary/500" transform="translate(2.000000, 2.000000)">
            <mask id="mask-2" fill="white">
                <use xlink:href="#path-1"></use>
            </mask>
            <g id="Mask" fill-rule="nonzero"></g>
            <g id="Group" mask="url(#mask-2)">
                <g transform="translate(-2.000000, -2.000000)" id="color/primary/500">
                    <rect id="Rectangle-Copy-4" fill="#9DAAB7" x="0" y="2.27373675e-15" width="32" height="32"></rect>
                </g>
            </g>
        </g>
    </g>
</svg>