<?xml version="1.0" encoding="UTF-8"?>
<svg width="32px" height="32px" viewBox="0 0 32 32" version="1.1" xmlns="http://www.w3.org/2000/svg" xmlns:xlink="http://www.w3.org/1999/xlink">
    <title>icon/shield</title>
    <defs>
        <path d="M11.4382978,28.2722035 L11.4186755,28.2701807 C11.3348789,28.2606212 11.2519916,28.2436345 11.1710006,28.2193665 C4.56084845,26.2058262 0.0323692964,20.1223165 3.15897978e-07,13.2123665 L3.15897978e-07,5.29136649 C-0.00039018479,4.70509545 0.36129222,4.17948219 0.909000632,3.97036649 L3.72300063,2.89636649 C4.45229264,2.61801498 5.26914912,2.98357448 5.54750063,3.71286649 C5.82585215,4.4421585 5.46029264,5.25901498 4.73100063,5.53736649 L2.83100063,6.26436649 L2.83100063,13.2123665 C2.85620543,18.7325759 6.38278242,23.6095989 11.5781711,25.3810701 C16.7769474,23.6107396 20.3057877,18.7323534 20.3310006,13.2103665 L20.3310006,6.26936649 L11.5770006,2.92736649 L8.26900063,4.18936649 C7.79531859,4.37719161 7.25721468,4.2956256 6.86047324,3.97586134 C6.4637318,3.65609708 6.269725,3.14759911 6.35264588,2.6448297 C6.43556675,2.14206029 6.78258822,1.72279316 7.26100063,1.54736649 L11.0730006,0.0933664895 C11.3974698,-0.0311221632 11.7565315,-0.0311221632 12.0810006,0.0933664895 L22.2400006,3.96936649 C22.7879176,4.17839247 23.1500006,4.70393247 23.1500006,5.29036649 L23.1500006,13.2113665 C23.1180333,20.0720172 18.6538836,26.1179727 12.1207881,28.1748434 C11.9550642,28.2429674 11.7739325,28.2808092 11.5850006,28.2813665 L11.5770006,28.2793665 L11.4382978,28.2722035 L11.4382978,28.2722035 Z" id="path-1"></path>
    </defs>
    <g id="icon/shield" stroke="none" stroke-width="1" fill="none" fill-rule="evenodd">
        <g id="color/primary/500" transform="translate(4.000000, 2.000000)">
            <mask id="mask-2" fill="white">
                <use xlink:href="#path-1"></use>
            </mask>
            <g id="Mask" fill-rule="nonzero"></g>
            <g id="Group" mask="url(#mask-2)">
                <g transform="translate(-4.000000, -2.000000)" id="color/primary/500">
                    <rect id="Rectangle-Copy-4" fill="#9DAAB7" x="0" y="2.27373675e-15" width="32" height="32"></rect>
                </g>
            </g>
        </g>
    </g>
</svg>