<?xml version="1.0" encoding="UTF-8"?>
<svg width="32px" height="32px" viewBox="0 0 32 32" version="1.1" xmlns="http://www.w3.org/2000/svg" xmlns:xlink="http://www.w3.org/1999/xlink">
    <title>icon/shopping_cart</title>
    <defs>
        <path d="M11.6213332,17.717022 C12.9875555,17.717206 14.095,18.8247995 14.095,20.1910218 C14.093346,21.5570789 12.9860577,22.6639198 11.62,22.6650218 C10.2537778,22.6644695 9.14663197,21.5565776 9.147,20.1903554 C9.14736821,18.8241332 10.2551109,17.716838 11.6213332,17.717022 Z M21.6223332,17.717022 C22.9885555,17.717206 24.096,18.8247995 24.096,20.1910218 C24.094346,21.5570789 22.9870577,22.6639198 21.621,22.6650218 C20.2547778,22.6644695 19.147632,21.5565776 19.148,20.1903554 C19.1483682,18.8241332 20.2561109,17.716838 21.6223332,17.717022 Z M9.782,1.0847979e-05 L24.299,0.100021774 C25.3522583,0.103280712 26.3492364,0.575905505 27.018485,1.38921364 C27.6877335,2.20252177 27.959577,3.2718396 27.76,4.30602177 L26.14,12.6840218 C25.8153891,14.3444883 24.3608983,15.5429451 22.669,15.5440218 L9.954,15.5440218 C8.26123827,15.5420931 6.80686268,14.3417094 6.484,12.6800218 L4.708,3.50102177 C4.64416193,3.16821866 4.35287036,2.92771423 4.014,2.92802177 L1.414,2.92802177 C0.633069364,2.92802177 0,2.29495241 0,1.51402177 C0,0.733091138 0.633069364,0.100021774 1.414,0.100021774 L4.014,0.100021774 C5.70713814,0.101472312 7.16206514,1.30196523 7.485,2.96402177 L9.261,12.1470218 C9.32512847,12.479241 9.6156485,12.7194545 9.954,12.7200218 L22.669,12.7200218 C23.0074176,12.7200259 23.29838,12.4802126 23.363,12.1480218 L24.983,3.76902177 C25.0233617,3.56184095 24.9689066,3.34746879 24.8345615,3.18466724 C24.7002163,3.0218657 24.5000755,2.92771456 24.289,2.92802177 L9.761,2.82802177 C8.98006951,2.824984 8.34946281,2.18945226 8.35250038,1.40852178 C8.35553794,0.627591287 8.99106951,-0.00301558312 9.772,1.0847979e-05 L9.782,1.0847979e-05 Z" id="path-1"></path>
    </defs>
    <g id="icon/shopping_cart" stroke="none" stroke-width="1" fill="none" fill-rule="evenodd">
        <g id="color/primary/500" transform="translate(2.000000, 4.999989)">
            <mask id="mask-2" fill="white">
                <use xlink:href="#path-1"></use>
            </mask>
            <g id="Mask" fill-rule="nonzero"></g>
            <g id="Group" mask="url(#mask-2)">
                <g transform="translate(-2.000000, -4.999989)" id="color/primary/500">
                    <rect id="Rectangle-Copy-4" fill="#9DAAB7" x="0" y="2.27373675e-15" width="32" height="32"></rect>
                </g>
            </g>
        </g>
    </g>
</svg>