<?xml version="1.0" encoding="UTF-8"?>
<svg width="32px" height="32px" viewBox="0 0 32 32" version="1.1" xmlns="http://www.w3.org/2000/svg" xmlns:xlink="http://www.w3.org/1999/xlink">
    <title>icon/shopping_bag</title>
    <defs>
        <path d="M11.8490934,0 C14.9822048,0 17.5220934,2.53988861 17.5220934,5.673 L17.522,6.684 L17.9100934,6.68497889 C19.6109459,6.67909367 21.0624802,7.91332231 21.3300934,9.593 L23.3300934,22.684 C23.5531939,24.0810245 23.1528487,25.5056456 22.2346946,26.5819562 C21.3165405,27.6582667 19.97282,28.2780001 18.5580934,28.2780001 L4.83209341,28.2780001 C3.41469588,28.2783102 2.06867053,27.6561466 1.15054436,26.5763039 C0.232418184,25.4964612 -0.165168949,24.0678968 0.0630934135,22.669 L2.05309341,9.607 C2.31665061,7.92173233 3.77034668,6.68080334 5.47609341,6.68497889 L6.176,6.684 L6.17609341,5.673 C6.17609341,2.53988861 8.71598203,0 11.8490934,0 Z M17.9060934,9.51297411 L16.1283127,9.5128561 C16.1215782,9.51295229 16.1148383,9.51300048 16.1080934,9.51300048 L16.088,9.512 L7.60815173,9.5128853 C7.59615431,9.51303835 7.58415537,9.51303887 7.57215794,9.51288686 L5.47609341,9.51297411 C5.16343713,9.51155258 4.89640546,9.73825356 4.84709341,10.047 L2.85609341,23.11 C2.75751813,23.691984 2.92026863,24.2878442 3.3010066,24.7389107 C3.68174456,25.1899773 4.24182045,25.4504616 4.83209341,25.4510061 L18.5540934,25.4510061 C19.1425379,25.4524459 19.7017584,25.1946774 20.0828702,24.7463219 C20.4639821,24.2979663 20.6283061,23.7045274 20.5320934,23.124 L18.5320934,10.033 C18.478388,9.73006665 18.213738,9.51022963 17.9060934,9.51297411 Z M11.8490934,2.828 C10.2778433,2.828 9.00409341,4.10174989 9.00409341,5.673 L9.004,6.684 L14.694,6.684 L14.6940934,5.673 C14.6940934,4.10174989 13.4203435,2.828 11.8490934,2.828 Z" id="path-1"></path>
    </defs>
    <g id="icon/shopping_bag" stroke="none" stroke-width="1" fill="none" fill-rule="evenodd">
        <g id="color/primary/500" transform="translate(4.000000, 2.000000)">
            <mask id="mask-2" fill="white">
                <use xlink:href="#path-1"></use>
            </mask>
            <g id="Mask" fill-rule="nonzero"></g>
            <g id="Group" mask="url(#mask-2)">
                <g transform="translate(-4.000000, -2.000000)" id="color/primary/500">
                    <rect id="Rectangle-Copy-4" fill="#9DAAB7" x="0" y="2.27373675e-15" width="32" height="32"></rect>
                </g>
            </g>
        </g>
    </g>
</svg>