<?xml version="1.0" encoding="UTF-8"?>
<svg width="32px" height="32px" viewBox="0 0 32 32" version="1.1" xmlns="http://www.w3.org/2000/svg" xmlns:xlink="http://www.w3.org/1999/xlink">
    <title>icon/sign_in</title>
    <defs>
        <path d="M14.1,0 C14.8809306,0 15.514,0.633069364 15.514,1.414 C15.514,2.19493064 14.8809306,2.828 14.1,2.828 L3.535,2.828 C3.14492526,2.82855173 2.82899961,3.14492487 2.829,3.535 L2.829,22.621 C2.82899961,23.0110751 3.14492526,23.3274483 3.535,23.328 L14.1,23.328 C14.8806545,23.328 15.5135,23.9608455 15.5135,24.7415 C15.5135,25.5221545 14.8806545,26.155 14.1,26.155 L3.535,26.155 C1.58374899,26.1533467 0.00220535014,24.5722505 0,22.621 L0,3.535 C0.00220322459,1.58397705 1.58297775,0.00275521854 3.534,0 L14.1,0 Z M20.829,4.024 C21.3812847,4.57628475 21.3812847,5.47171525 20.829,6.024 L15.19,11.663 L26.985,11.664 C27.7659306,11.664 28.399,12.2970694 28.399,13.078 C28.399,13.8589306 27.7659306,14.492 26.985,14.492 L15.191,14.492 L20.829,20.131 C21.2335286,20.5354064 21.3545636,21.1436998 21.1356508,21.6721553 C20.916738,22.2006107 20.4010035,22.5450036 19.829,22.5450036 C19.4537999,22.5458537 19.0937998,22.3968137 18.829,22.131 L10.776,14.077 C10.5102398,13.8120724 10.3608671,13.4522534 10.3608671,13.077 C10.3608671,12.7017466 10.5102398,12.3419276 10.776,12.077 L18.829,4.024 C19.3812847,3.47171525 20.2767153,3.47171525 20.829,4.024 Z" id="path-1"></path>
    </defs>
    <g id="icon/sign_in" stroke="none" stroke-width="1" fill="none" fill-rule="evenodd">
        <g id="color/primary/500" transform="translate(2.000000, 3.000000)">
            <mask id="mask-2" fill="white">
                <use xlink:href="#path-1"></use>
            </mask>
            <g id="Mask" fill-rule="nonzero"></g>
            <g id="Group" mask="url(#mask-2)">
                <g transform="translate(-2.000000, -3.000000)" id="color/primary/500">
                    <rect id="Rectangle-Copy-4" fill="#9DAAB7" x="0" y="2.27373675e-15" width="32" height="32"></rect>
                </g>
            </g>
        </g>
    </g>
</svg>