<?xml version="1.0" encoding="UTF-8"?>
<svg width="32px" height="32px" viewBox="0 0 32 32" version="1.1" xmlns="http://www.w3.org/2000/svg" xmlns:xlink="http://www.w3.org/1999/xlink">
    <title>icon/sign_out</title>
    <defs>
        <path d="M14.103,0 C14.8839306,0 15.517,0.633069364 15.517,1.414 C15.517,2.19493064 14.8839306,2.828 14.103,2.828 L3.534,2.828 C3.14376306,2.82855079 2.82755079,3.14476306 2.827,3.535 L2.827,22.621 C2.82755079,23.0112369 3.14376306,23.3274492 3.534,23.328 L14.103,23.328 C14.8836545,23.328 15.5165,23.9608455 15.5165,24.7415 C15.5165,25.5221545 14.8836545,26.155 14.103,26.155 L3.534,26.155 C1.5831395,26.1527956 0.00220436426,24.5718605 0,22.621 L0,3.535 C0.00165329164,1.58374899 1.58274953,0.00220535014 3.534,0 L14.103,0 Z M19.931,4.024 L27.985,12.077 C28.2505142,12.3420584 28.399717,12.7018284 28.399717,13.077 C28.399717,13.4521716 28.2505142,13.8119416 27.985,14.077 L19.931,22.131 C19.6660744,22.3966256 19.3061562,22.5456318 18.931,22.545002 C18.3589965,22.545002 17.843262,22.2006107 17.6243492,21.6721553 C17.4054364,21.1436998 17.5264714,20.5354064 17.931,20.131 L23.57,14.491 L11.775,14.492 C10.9940694,14.492 10.361,13.8589306 10.361,13.078 C10.361,12.2970694 10.9940694,11.664 11.775,11.664 L23.57,11.663 L17.931,6.024 C17.3787153,5.47171525 17.3787153,4.57628475 17.931,4.024 C18.4832847,3.47171525 19.3787153,3.47171525 19.931,4.024 Z" id="path-1"></path>
    </defs>
    <g id="icon/sign_out" stroke="none" stroke-width="1" fill="none" fill-rule="evenodd">
        <g id="color/primary/500" transform="translate(2.000000, 3.000000)">
            <mask id="mask-2" fill="white">
                <use xlink:href="#path-1"></use>
            </mask>
            <g id="Mask" fill-rule="nonzero"></g>
            <g id="Group" mask="url(#mask-2)">
                <g transform="translate(-2.000000, -3.000000)" id="color/primary/500">
                    <rect id="Rectangle-Copy-4" fill="#9DAAB7" x="0" y="2.27373675e-15" width="32" height="32"></rect>
                </g>
            </g>
        </g>
    </g>
</svg>