<?xml version="1.0" encoding="UTF-8"?>
<svg width="32px" height="32px" viewBox="0 0 32 32" version="1.1" xmlns="http://www.w3.org/2000/svg" xmlns:xlink="http://www.w3.org/1999/xlink">
    <title>icon/stack</title>
    <defs>
        <path d="M14.9054377,0.242619618 L27.6854377,8.85961962 C28.0744901,9.12258222 28.3076146,9.5615335 28.3076146,10.0311196 C28.3076146,10.5007057 28.0744901,10.939657 27.6854377,11.2026196 L23.338,14.151 L27.6824377,17.0846196 C28.0714962,17.347351 28.3046609,17.7861579 28.3046609,18.2556196 C28.3046609,18.7250814 28.0714962,19.1638882 27.6824377,19.4266196 L14.9824377,28.0436196 C14.748602,28.1998021 14.473635,28.2829883 14.1924377,28.2826208 C13.9105522,28.2826208 13.6351138,28.198274 13.4014377,28.0406196 L0.6214377,19.4236196 C0.232812951,19.1605886 0,18.7218898 0,18.2526196 C0,17.7833494 0.232812951,17.3446506 0.6214377,17.0816196 L3.5394377,15.1016196 C3.95702256,14.802718 4.50383674,14.7537154 4.96791317,14.973607 C5.43198961,15.1934987 5.74036617,15.6477133 5.77350377,16.1601791 C5.80664136,16.6726448 5.55933009,17.1627919 5.1274377,17.4406196 L3.9384377,18.2476196 L14.1924377,25.1616196 L24.3684377,18.2556196 L20.82,15.862 L14.9864377,19.8266196 C14.7518212,19.9844205 14.4751814,20.0680396 14.1924377,20.0666374 C13.9106382,20.0669595 13.6351737,19.9830317 13.4014377,19.8256196 L6.6944377,15.3026196 L0.6214377,11.2026196 C0.232812951,10.9395886 0,10.5008898 0,10.0316196 C0,9.56234943 0.232812951,9.12365064 0.6214377,8.86061962 L13.3214377,0.242619618 C13.7998886,-0.0808732059 14.4269868,-0.0808732059 14.9054377,0.242619618 Z M14.1124377,3.12461962 L3.9354377,10.0316196 L8.2754377,12.9576196 L8.2754377,12.9576196 L14.1894377,16.9456196 L20.0224377,12.9866196 L24.3654377,10.0396196 L14.1124377,3.12461962 Z" id="path-1"></path>
    </defs>
    <g id="icon/stack" stroke="none" stroke-width="1" fill="none" fill-rule="evenodd">
        <g id="color/primary/500" transform="translate(2.000000, 2.000000)">
            <mask id="mask-2" fill="white">
                <use xlink:href="#path-1"></use>
            </mask>
            <g id="Mask" fill-rule="nonzero"></g>
            <g id="Group" mask="url(#mask-2)">
                <g transform="translate(-2.000000, -2.000000)" id="color/primary/500">
                    <rect id="Rectangle-Copy-4" fill="#9DAAB7" x="0" y="2.27373675e-15" width="32" height="32"></rect>
                </g>
            </g>
        </g>
    </g>
</svg>