<?xml version="1.0" encoding="UTF-8"?>
<svg width="32px" height="32px" viewBox="0 0 32 32" version="1.1" xmlns="http://www.w3.org/2000/svg" xmlns:xlink="http://www.w3.org/1999/xlink">
    <title>icon/star</title>
    <defs>
        <path d="M22.5743399,27.8365437 C22.3439259,27.8365437 22.116992,27.7803234 21.9133399,27.6725436 L14.4913399,23.7505436 L7.06933991,27.6725436 C6.59322234,27.9238751 6.01569029,27.8830214 5.57969443,27.5671685 C5.14369856,27.2513156 4.92489964,26.7152752 5.01533991,26.1845436 L6.43433991,17.8665436 L0.424339914,11.9765436 C0.0405973483,11.6004748 -0.0968492664,11.0394098 0.0696191471,10.5285533 C0.236087561,10.0176967 0.677704673,9.64532629 1.20933991,9.56754365 L9.50933991,8.35554365 L13.2223399,0.791543646 C13.4595797,0.307105243 13.9519298,0 14.4913399,0 C15.0307501,0 15.5231001,0.307105243 15.7603399,0.791543646 L19.4743399,8.35554365 L27.7743399,9.56754365 C28.3059752,9.64532629 28.7475923,10.0176967 28.9140607,10.5285533 C29.0805291,11.0394098 28.9430825,11.6004748 28.5593399,11.9765436 L22.5483399,17.8665436 L23.9683399,26.1845436 C24.038107,26.5952009 23.9233906,27.0157369 23.654761,27.3340842 C23.3861314,27.6524314 22.9908813,27.836246 22.5743399,27.8365437 L22.5743399,27.8365437 Z M14.4913399,20.7365436 C14.7216602,20.7362324 14.9485701,20.7921874 15.1523399,20.8995436 L20.6983399,23.8305436 L19.6373399,17.6115436 C19.5583826,17.1551495 19.7077878,16.6890053 20.0373399,16.3635436 L24.5373399,11.9525436 L18.3233399,11.0445436 C17.8622432,10.9775652 17.4640066,10.687122 17.2593399,10.2685436 L14.4863399,4.62254365 L11.7143399,10.2685436 C11.5093418,10.6872716 11.1107403,10.977708 10.6493399,11.0445436 L4.43533991,11.9525436 L8.93533991,16.3635436 C9.26489201,16.6890053 9.4142972,17.1551495 9.33533991,17.6115436 L8.27433991,23.8305436 L13.8203399,20.8995436 C14.0271445,20.7908224 14.2577104,20.7351567 14.4913399,20.7375436 L14.4913399,20.7365436 Z" id="path-1"></path>
    </defs>
    <g id="icon/star" stroke="none" stroke-width="1" fill="none" fill-rule="evenodd">
        <g id="color/primary/500" transform="translate(2.000000, 2.000000)">
            <mask id="mask-2" fill="white">
                <use xlink:href="#path-1"></use>
            </mask>
            <g id="Mask" fill-rule="nonzero"></g>
            <g id="Group" mask="url(#mask-2)">
                <g transform="translate(-2.000000, -2.000000)" id="color/primary/500">
                    <rect id="Rectangle-Copy-4" fill="#9DAAB7" x="0" y="2.27373675e-15" width="32" height="32"></rect>
                </g>
            </g>
        </g>
    </g>
</svg>