<?xml version="1.0" encoding="UTF-8"?>
<svg width="32px" height="32px" viewBox="0 0 32 32" version="1.1" xmlns="http://www.w3.org/2000/svg" xmlns:xlink="http://www.w3.org/1999/xlink">
    <title>icon/star-fill</title>
    <defs>
        <path d="M22.5743399,27.8365437 C22.3439259,27.8365437 22.116992,27.7803234 21.9133399,27.6725436 L14.4913399,23.7505436 L7.06933991,27.6725436 C6.59322234,27.9238751 6.01569029,27.8830214 5.57969443,27.5671685 C5.14369856,27.2513156 4.92489964,26.7152752 5.01533991,26.1845436 L6.43433991,17.8665436 L0.424339914,11.9765436 C0.0405973483,11.6004748 -0.0968492664,11.0394098 0.0696191471,10.5285533 C0.236087561,10.0176967 0.677704673,9.64532629 1.20933991,9.56754365 L9.50933991,8.35554365 L13.2223399,0.791543646 C13.4595797,0.307105243 13.9519298,0 14.4913399,0 C15.0307501,0 15.5231001,0.307105243 15.7603399,0.791543646 L19.4743399,8.35554365 L27.7743399,9.56754365 C28.3059752,9.64532629 28.7475923,10.0176967 28.9140607,10.5285533 C29.0805291,11.0394098 28.9430825,11.6004748 28.5593399,11.9765436 L22.5483399,17.8665436 L23.9683399,26.1845436 C24.038107,26.5952009 23.9233906,27.0157369 23.654761,27.3340842 C23.3861314,27.6524314 22.9908813,27.836246 22.5743399,27.8365437 L22.5743399,27.8365437 Z" id="path-1"></path>
    </defs>
    <g id="icon/star-fill" stroke="none" stroke-width="1" fill="none" fill-rule="evenodd">
        <g id="color/primary/500" transform="translate(2.000000, 2.000000)">
            <mask id="mask-2" fill="white">
                <use xlink:href="#path-1"></use>
            </mask>
            <g id="Mask" fill-rule="nonzero"></g>
            <g id="Group" mask="url(#mask-2)">
                <g transform="translate(-2.000000, -2.000000)" id="color/primary/500">
                    <rect id="Rectangle-Copy-4" fill="#9DAAB7" x="0" y="2.27373675e-15" width="32" height="32"></rect>
                </g>
            </g>
        </g>
    </g>
</svg>