<?xml version="1.0" encoding="UTF-8"?>
<svg width="32px" height="32px" viewBox="0 0 32 32" version="1.1" xmlns="http://www.w3.org/2000/svg" xmlns:xlink="http://www.w3.org/1999/xlink">
    <title>icon/store</title>
    <defs>
        <path d="M6.61030248,24.715 C4.26865277,24.7122448 2.37105769,22.8146497 2.36830248,20.473 L2.36830248,14.516 C2.36830248,13.7350694 3.00137185,13.102 3.78230248,13.102 C4.56323312,13.102 5.19630248,13.7350694 5.19630248,14.516 L5.19630248,20.473 C5.19685402,21.2537021 5.82960041,21.8864485 6.61030248,21.887 L9.75,21.886 L9.75030248,17.817 C9.75525115,15.4495891 11.6728928,13.5315004 14.0403025,13.526 L14.3343025,13.526 C16.7017121,13.5315004 18.6193538,15.4495891 18.6243025,17.817 L18.624,21.886 L21.7033025,21.887 C22.4837764,21.8858984 23.1162009,21.2534739 23.1173025,20.473 L23.1170706,12.3723381 C22.2421641,12.1953506 21.4143774,11.8195005 20.7003025,11.268 C19.8265599,12.065131 18.682957,12.5011296 17.5003025,12.488 C15.5623363,10.863619 12.7382686,10.863619 10.8003025,12.488 C9.61764798,12.5011296 8.4740451,12.065131 7.60030248,11.268 C6.59664256,12.0431553 5.36834046,12.4713063 4.10030248,12.488 C2.76487869,12.5357867 1.49028527,11.9283575 0.686302482,10.861 C-0.0389574525,9.80055828 -0.200260979,8.45262835 0.254302482,7.251 L1.93930248,2.379 C2.43221454,0.955496003 3.77287439,0.000576906033 5.27930248,0 L23.0083025,0 C24.5147306,0.000576906033 25.8553904,0.955496003 26.3483025,2.379 L28.0333025,7.251 C28.4878659,8.45262835 28.3265624,9.80055828 27.6013025,10.861 C27.1656847,11.439161 26.5919119,11.8823977 25.9451113,12.1595542 L25.9443025,20.473 C25.9420983,22.8144879 24.0447898,24.7122437 21.7033025,24.715 L6.61030248,24.715 Z M14.3343025,16.354 L14.0403025,16.354 C13.232929,16.3551028 12.5788532,17.009626 12.5783025,17.817 L12.5783025,21.887 L15.7973025,21.887 L15.7973025,17.817 C15.7962008,17.0094642 15.1418383,16.3551017 14.3343025,16.354 Z M23.0173025,2.828 L5.28830248,2.828 C4.98747713,2.828 4.71973117,3.01873306 4.62130248,3.303 L2.93530248,8.175 C2.78548469,8.51326158 2.80896837,8.90316535 2.99830248,9.221 C3.27677113,9.53708253 3.68998884,9.70036118 4.10930248,9.66 C5.1233111,9.61958628 6.05593295,9.09373047 6.61530248,8.247 C6.91329296,7.78299593 7.45384878,7.53456326 8.00003304,7.6105952 C8.5462173,7.68662714 8.99836973,8.07325042 9.15830248,8.601 C9.40901047,9.28189065 10.0807395,9.71406624 10.8043025,9.66 C11.6760009,9.66836532 12.4775121,9.18319937 12.8743025,8.407 C13.1079441,7.9124577 13.6058468,7.59701469 14.1528025,7.59701469 C14.6997581,7.59701469 15.1976609,7.9124577 15.4313025,8.407 C15.8280929,9.18319937 16.6296041,9.66836532 17.5013025,9.66 C18.2248655,9.71406624 18.8965945,9.28189065 19.1473025,8.601 C19.3070003,8.07309752 19.7590662,7.68622585 20.3053025,7.61 L20.4045764,7.6000389 L20.4045764,7.6000389 L20.502,7.596 L20.6435933,7.60424755 C21.0695595,7.64753005 21.4561786,7.88238204 21.6903025,8.247 C22.249672,9.09373047 23.1822939,9.61958628 24.1963025,9.66 L24.2064933,9.65906116 C24.3470222,9.62596303 24.4914654,9.61468095 24.6346628,9.6252149 C24.8921789,9.56508101 25.1277511,9.42480406 25.3073025,9.221 C25.4968084,8.90315239 25.5199336,8.5130087 25.3693025,8.175 L23.6853025,3.303 C23.5862449,3.01876733 23.3183018,2.82823891 23.0173025,2.828 Z" id="path-1"></path>
    </defs>
    <g id="icon/store" stroke="none" stroke-width="1" fill="none" fill-rule="evenodd">
        <g id="color/primary/500" transform="translate(2.000000, 4.000000)">
            <mask id="mask-2" fill="white">
                <use xlink:href="#path-1"></use>
            </mask>
            <g id="Mask" fill-rule="nonzero"></g>
            <g id="Group" mask="url(#mask-2)">
                <g transform="translate(-2.000000, -4.000000)" id="color/primary/500">
                    <rect id="Rectangle-Copy-4" fill="#9DAAB7" x="0" y="2.27373675e-15" width="32" height="32"></rect>
                </g>
            </g>
        </g>
    </g>
</svg>