<?xml version="1.0" encoding="UTF-8"?>
<svg width="32px" height="32px" viewBox="0 0 32 32" version="1.1" xmlns="http://www.w3.org/2000/svg" xmlns:xlink="http://www.w3.org/1999/xlink">
    <title>icon/street_view</title>
    <defs>
        <path d="M4.09621341,16.7818335 C4.56189317,16.9930534 4.87725463,17.4392358 4.92095936,17.9487075 C4.96466409,18.4581792 4.72990196,18.9515536 4.307,19.239 C3.52005163,19.6958765 2.97754323,20.4795812 2.827,21.377 C2.827,23.298 6.627,25.447 11.712,25.447 C16.797,25.447 20.596,23.298 20.596,21.377 C20.4740672,20.5085621 19.9641429,19.7425719 19.21,19.295 C19.182,19.278 19.155,19.26 19.13,19.243 C18.7084452,18.9564631 18.4737334,18.4652177 18.5156723,17.9572286 C18.5576112,17.4492394 18.869709,17.0031378 19.3325481,16.7896153 C19.7953871,16.5760928 20.3373248,16.6282003 20.751,16.926 C20.779613,16.9425019 20.8073195,16.9605278 20.834,16.98 C22.3625018,17.9372288 23.3289142,19.5790104 23.424,21.38 C23.424,25.247 18.279,28.277 11.712,28.277 C5.144,28.277 0,25.247 0,21.377 C0.104988138,19.5446171 1.10545578,17.8814098 2.675,16.93 C3.08709851,16.6272685 3.63053364,16.5706135 4.09621341,16.7818335 Z M11.712,0 C15.3134489,0 18.233,2.91955115 18.233,6.521 C18.2291866,9.63509939 16.0455235,12.2382823 13.1258358,12.8867236 L13.126,21.126 C13.126,21.5010161 12.9770254,21.8606725 12.711849,22.125849 C12.4466725,22.3910254 12.0870161,22.54 11.712,22.54 C10.9310694,22.54 10.298,21.9069306 10.298,21.126 L10.2971969,12.8880993 C7.37597754,12.2418855 5.191,9.63660718 5.191,6.521 C5.191,2.91955115 8.11055115,0 11.712,0 Z M11.711,2.826 C10.2178255,2.82659551 8.87055221,3.72635322 8.2984761,5.10667435 C7.72639999,6.48699549 8.04219607,8.07601473 9.09859397,9.13269869 C10.1549919,10.1893826 11.7439256,10.5056089 13.1244015,9.93390656 C14.5048775,9.36220419 15.405,8.01517452 15.405,6.521 C15.4018047,4.5483738 13.8552012,2.93782157 11.9080119,2.83247485 L11.711,2.826 Z" id="path-1"></path>
    </defs>
    <g id="icon/street_view" stroke="none" stroke-width="1" fill="none" fill-rule="evenodd">
        <g id="color/primary/500" transform="translate(4.000000, 2.000000)">
            <mask id="mask-2" fill="white">
                <use xlink:href="#path-1"></use>
            </mask>
            <g id="Mask" fill-rule="nonzero"></g>
            <g id="Group" mask="url(#mask-2)">
                <g transform="translate(-4.000000, -2.000000)" id="color/primary/500">
                    <rect id="Rectangle-Copy-4" fill="#9DAAB7" x="0" y="2.27373675e-15" width="32" height="32"></rect>
                </g>
            </g>
        </g>
    </g>
</svg>