<?xml version="1.0" encoding="UTF-8"?>
<svg width="32px" height="32px" viewBox="0 0 32 32" version="1.1" xmlns="http://www.w3.org/2000/svg" xmlns:xlink="http://www.w3.org/1999/xlink">
    <title>icon/sun</title>
    <defs>
        <path d="M14.139,22.608 C14.9199306,22.608 15.553,23.2410694 15.553,24.022 L15.553,26.865 C15.552448,27.6455401 14.9195403,28.278 14.139,28.278 C13.3584597,28.278 12.725552,27.6455401 12.725,26.865 L12.725,24.022 C12.725,23.2410694 13.3580694,22.608 14.139,22.608 Z M8.15,20.128 C8.70228475,20.6802847 8.70228475,21.5757153 8.15,22.128 L6.139,24.137 C5.87413725,24.4027196 5.51417812,24.5517427 5.139,24.5510028 C4.56699654,24.5511222 4.05126197,24.2066107 3.83234919,23.6781553 C3.61343641,23.1496998 3.73447136,22.5414064 4.139,22.137 L6.15,20.128 C6.70228475,19.5757153 7.59771525,19.5757153 8.15,20.128 Z M22.128,20.126 L24.139,22.136 C24.5435286,22.5404064 24.6645636,23.1486998 24.4456508,23.6771553 C24.226738,24.2056107 23.7110035,24.5501222 23.139,24.55 L23.139,24.5510028 C22.7638219,24.5517427 22.4038627,24.4027196 22.139,24.137 L20.128,22.126 C19.5757153,21.5737153 19.5757153,20.6782847 20.128,20.126 C20.6802847,19.5737153 21.5757153,19.5737153 22.128,20.126 Z M14.139,7.276 C17.9293302,7.276 21.002,10.3486698 21.002,14.139 C20.9976834,17.8485756 18.0540925,20.8693594 14.3748248,20.9977539 L14.138,21.001 L13.9030601,20.9980204 C10.2219755,20.8736606 7.276,17.850365 7.276,14.139 C7.276,10.3486698 10.3486698,7.276 14.139,7.276 Z M14.139,10.102 C11.910531,10.102 10.104,11.908531 10.104,14.137 C10.104,16.365469 11.910531,18.172 14.139,18.172 C16.367469,18.172 18.174,16.365469 18.174,14.137 C18.1706932,11.9102261 16.3657753,10.1062028 14.139,10.104 L14.139,10.102 Z M4.257,12.725 C5.03793064,12.725 5.671,13.3580694 5.671,14.139 C5.671,14.9199306 5.03793064,15.553 4.257,15.553 L1.414,15.553 C0.633069364,15.553 0,14.9199306 0,14.139 C0,13.3580694 0.633069364,12.725 1.414,12.725 L4.257,12.725 Z M26.865,12.725 C27.6459306,12.725 28.279,13.3580694 28.279,14.139 C28.279,14.9199306 27.6459306,15.553 26.865,15.553 L24.022,15.553 C23.2410694,15.553 22.608,14.9199306 22.608,14.139 C22.608,13.3580694 23.2410694,12.725 24.022,12.725 L26.865,12.725 Z M24.1389998,4.14200015 C24.6912845,4.69428484 24.6912846,5.58971523 24.139,6.142 L22.128,8.152 C21.8627283,8.41759921 21.5023803,8.56627427 21.127,8.56500812 C20.5549965,8.5651222 20.039262,8.22061072 19.8203492,7.69215527 C19.6014364,7.16369981 19.7224714,6.55540643 20.127,6.151 L22.139,4.142 C22.6912848,3.5897154 23.5867152,3.58971547 24.1389998,4.14200015 Z M6.139,4.14 L8.15,6.15 C8.55452864,6.55440643 8.67556359,7.16269981 8.45665081,7.69115527 C8.23773803,8.21961072 7.72200346,8.5641222 7.15,8.564 L7.151,8.56500276 C6.77582188,8.56574267 6.41586275,8.41671959 6.151,8.151 L4.139,6.14 C3.58671525,5.58771525 3.58671525,4.69228475 4.139,4.14 C4.69128475,3.58771525 5.58671525,3.58771525 6.139,4.14 Z M14.139,0 C14.9199306,0 15.553,0.633069364 15.553,1.414 L15.553,4.257 C15.553,5.03793064 14.9199306,5.671 14.139,5.671 C13.3582979,5.67044846 12.7255515,5.03770207 12.725,4.257 L12.725,1.414 C12.725,0.633069364 13.3580694,0 14.139,0 Z" id="path-1"></path>
    </defs>
    <g id="icon/sun" stroke="none" stroke-width="1" fill="none" fill-rule="evenodd">
        <g id="color/primary/500" transform="translate(2.000000, 2.000000)">
            <mask id="mask-2" fill="white">
                <use xlink:href="#path-1"></use>
            </mask>
            <g id="Mask" fill-rule="nonzero"></g>
            <g id="Group" mask="url(#mask-2)">
                <g transform="translate(-2.000000, -2.000000)" id="color/primary/500">
                    <rect id="Rectangle-Copy-4" fill="#9DAAB7" x="0" y="2.27373675e-15" width="32" height="32"></rect>
                </g>
            </g>
        </g>
    </g>
</svg>