<?xml version="1.0" encoding="UTF-8"?>
<svg width="32px" height="32px" viewBox="0 0 32 32" version="1.1" xmlns="http://www.w3.org/2000/svg" xmlns:xlink="http://www.w3.org/1999/xlink">
    <title>icon/sync</title>
    <defs>
        <path d="M22.0981329,10.9232458 C22.8790635,10.9232458 23.5121329,11.5563151 23.5121329,12.3372458 L23.5121329,18.0752458 C23.5082753,21.0757044 21.0765922,23.5069401 18.0761329,23.5102458 L4.827,23.5092458 L7.18213291,25.8642458 C7.58697347,26.2683904 7.7082004,26.8767543 7.48919655,27.4052106 C7.27019269,27.9336669 6.7541716,28.2779413 6.18213291,28.2772478 C5.80697673,28.2778776 5.44705851,28.1288714 5.18213291,27.8632458 L0.415132908,23.0962458 C0.149372713,22.8313182 0,22.4714992 0,22.0962458 C0,21.7209924 0.149372713,21.3611734 0.415132908,21.0962458 L5.18213291,16.3292458 C5.73441768,15.7769612 6.62984806,15.7769612 7.18213275,16.3292459 C7.73441744,16.8815306 7.73441751,17.776961 7.18213291,18.3292458 L4.83,20.6822458 L18.0761329,20.6832458 C19.5158062,20.6815926 20.6824797,19.5149191 20.6841329,18.0752458 L20.6841329,12.3372458 C20.6841329,11.5563151 21.3172023,10.9232458 22.0981329,10.9232458 Z M18.3311329,0.414245773 L23.0981329,5.18024577 C23.1712051,5.25319251 23.2354678,5.33331276 23.2902354,5.41895334 C23.2947824,5.42756455 23.2997985,5.43557105 23.3047361,5.44363084 C23.3213573,5.46927757 23.3367636,5.49643734 23.3512454,5.52405706 C23.3645622,5.5509073 23.3776291,5.57781344 23.3898519,5.60517926 C23.3969728,5.6196297 23.4031533,5.6341522 23.4090891,5.64877453 C23.4160955,5.66756746 23.423405,5.68671586 23.4303052,5.70605863 C23.4846669,5.85704427 23.5128499,6.01719041 23.5128499,6.18024577 C23.5128499,6.29818685 23.4981048,6.41460586 23.4696365,6.52703882 C23.4307463,6.68140044 23.3665734,6.82567636 23.2817189,6.95518152 C23.2734011,6.96737799 23.2651776,6.97950302 23.2567601,6.99150694 C23.2423401,7.01258536 23.2270514,7.03319561 23.2112264,7.053365 C23.1945329,7.07408653 23.1775673,7.09447254 23.1599976,7.11441007 C23.1491061,7.1273829 23.1375971,7.14000551 23.1258658,7.15241574 C23.116501,7.16165308 23.1073876,7.17100696 23.0981329,7.18024577 L18.3311329,11.9472458 C18.0664348,12.2133322 17.7064552,12.3627237 17.3311329,12.3622469 C16.7591294,12.3622469 16.2433949,12.0178565 16.0244821,11.489401 C15.8055693,10.9609456 15.9266043,10.3526522 16.3311329,9.94824577 L18.6831329,7.595 L5.43713291,7.59524577 C3.99745962,7.59689899 2.83078612,8.76357249 2.82913291,10.2032458 L2.82913291,15.9402458 C2.82913291,16.7211764 2.19606354,17.3542458 1.41513291,17.3542458 C0.634592824,17.3536938 0.00213290755,16.7207861 0.00213290755,15.9402458 L0.00213290755,10.2032458 C0.00543854356,7.2027865 2.4366743,4.77110342 5.43713291,4.76724577 L18.6831329,4.767 L16.3311329,2.41424577 C15.9738673,2.05698018 15.8343392,1.53625424 15.9651075,1.04822037 C16.0958758,0.560186498 16.4770736,0.178988651 16.9651075,0.0482203694 C17.4531414,-0.0825479124 17.9738673,0.0569801833 18.3311329,0.414245773 Z" id="path-1"></path>
    </defs>
    <g id="icon/sync" stroke="none" stroke-width="1" fill="none" fill-rule="evenodd">
        <g id="color/primary/500" transform="translate(4.000000, 2.000000)">
            <mask id="mask-2" fill="white">
                <use xlink:href="#path-1"></use>
            </mask>
            <g id="Mask" fill-rule="nonzero"></g>
            <g id="Group" mask="url(#mask-2)">
                <g transform="translate(-4.000000, -2.000000)" id="color/primary/500">
                    <rect id="Rectangle-Copy-4" fill="#9DAAB7" x="0" y="2.27373675e-15" width="32" height="32"></rect>
                </g>
            </g>
        </g>
    </g>
</svg>