<?xml version="1.0" encoding="UTF-8"?>
<svg width="32px" height="32px" viewBox="0 0 32 32" version="1.1" xmlns="http://www.w3.org/2000/svg" xmlns:xlink="http://www.w3.org/1999/xlink">
    <title>icon/sync_alt</title>
    <defs>
        <path d="M7.21959987,16.3292458 C7.77188462,16.8815305 7.77188462,17.776961 7.21959987,18.3292458 L4.865,20.6830322 L22.1335999,20.6832458 C22.6475588,20.6695742 23.1284369,20.9359557 23.3894442,21.3789183 C23.6504516,21.8218809 23.6504516,22.3716107 23.3894442,22.8145733 C23.1284369,23.2575359 22.6475588,23.5239174 22.1335999,23.5102458 L4.864,23.5100322 L7.21959987,25.8642458 C7.62444043,26.2683904 7.74566736,26.8767543 7.5266635,27.4052106 C7.30765965,27.9336669 6.79163856,28.2779413 6.21959987,28.2772471 C5.84446561,28.2777669 5.48458822,28.1287776 5.21959987,27.8632458 L0.618678627,23.2658823 C0.44895578,23.1504516 0.303590503,22.997583 0.195755495,22.8145733 C-0.0652518318,22.3716107 -0.0652518318,21.8218809 0.195755495,21.3789183 C0.30316679,21.1966277 0.447814,21.0442417 0.616679093,20.9289717 L5.21959987,16.3292458 C5.77188462,15.776961 6.66731512,15.776961 7.21959987,16.3292458 Z M18.3665999,0.414245773 L23.1335999,5.18024577 C23.2406305,5.28739537 23.3269026,5.40743246 23.3924164,5.53535802 C23.4914584,5.72924521 23.5475999,5.94868922 23.5475999,6.18124577 C23.5475999,6.46168081 23.4659621,6.72304833 23.3251559,6.94287915 C23.3119372,6.9628522 23.2984904,6.98270731 23.2844841,7.00228556 C23.2727172,7.01939858 23.2602834,7.03601232 23.2474985,7.05233789 C23.2321275,7.07126676 23.2166345,7.09001461 23.2005847,7.10844592 C23.1874671,7.12423085 23.1735965,7.13949743 23.1594023,7.15445386 L18.3665999,11.9472458 C18.1017759,12.2131444 17.7418781,12.362502 17.3665999,12.3622461 C16.7945964,12.3622461 16.2788618,12.0178565 16.0599491,11.489401 C15.8410363,10.9609456 15.9620712,10.3526522 16.3665999,9.94824577 L18.7195999,7.595 L1.45259987,7.59524577 C0.671669231,7.59524577 0.038599867,6.96217641 0.038599867,6.18124577 C0.038599867,5.40031514 0.671669231,4.76724577 1.45259987,4.76724577 L18.7195999,4.767 L16.3665999,2.41424577 C16.0093343,2.05698018 15.8698062,1.53625424 16.0005745,1.04822037 C16.1313427,0.560186498 16.5125406,0.178988651 17.0005745,0.0482203694 C17.4886083,-0.0825479124 18.0093343,0.0569801833 18.3665999,0.414245773 Z" id="path-1"></path>
    </defs>
    <g id="icon/sync_alt" stroke="none" stroke-width="1" fill="none" fill-rule="evenodd">
        <g id="color/primary/500" transform="translate(4.000000, 2.000000)">
            <mask id="mask-2" fill="white">
                <use xlink:href="#path-1"></use>
            </mask>
            <g id="Mask" fill-rule="nonzero"></g>
            <g id="Group" mask="url(#mask-2)">
                <g transform="translate(-4.000000, -2.000000)" id="color/primary/500">
                    <rect id="Rectangle-Copy-4" fill="#9DAAB7" x="0" y="2.27373675e-15" width="32" height="32"></rect>
                </g>
            </g>
        </g>
    </g>
</svg>