<?xml version="1.0" encoding="UTF-8"?>
<svg width="32px" height="32px" viewBox="0 0 32 32" version="1.1" xmlns="http://www.w3.org/2000/svg" xmlns:xlink="http://www.w3.org/1999/xlink">
    <title>icon/tag</title>
    <defs>
        <path d="M25.4024717,0 C26.1834024,0 26.8164921,0.633069364 26.8164921,1.414 L26.8164921,12.575 C26.8196655,13.5132093 26.4469031,14.4136015 25.7814717,15.075 L15.4884717,25.368 C14.5622345,26.2990666 13.3017804,26.8205344 11.9884717,26.8160293 C10.6750184,26.8202699 9.41454382,26.2984335 8.48847173,25.367 L1.45047173,18.329 C0.521785602,17.4009697 0,16.1418968 0,14.829 C0,13.5161032 0.521785602,12.2570303 1.45047173,11.329 L11.7434717,1.035 C12.4080474,0.37432438 13.3063766,0.00241610276 14.2434717,0 L25.4024717,0 Z M23.9884834,2.83 L14.2424717,2.83 C14.0550354,2.83039658 13.8753379,2.90479134 13.7424717,3.037 L3.45047173,13.329 C2.66382236,14.1161534 2.62448989,15.3674196 3.33247432,16.2009843 L3.45047173,16.329 L10.4894717,23.367 C11.3288602,24.1685273 12.6500832,24.1685273 13.4894717,23.367 L23.7824717,13.075 C23.915343,12.9426567 23.9895543,12.7625323 23.9884834,12.575 L23.9884834,2.83 Z M18.4438053,5.887 C19.8100276,5.88663197 20.9179195,6.99377784 20.9184717,8.36 C20.9173697,9.72605769 19.8105289,10.833346 18.4444717,10.835 C17.0782495,10.835 15.970656,9.72755546 15.970472,8.3613332 C15.970288,6.99511094 17.0775831,5.88736821 18.4438053,5.887 Z" id="path-1"></path>
    </defs>
    <g id="icon/tag" stroke="none" stroke-width="1" fill="none" fill-rule="evenodd">
        <g id="color/primary/500" transform="translate(3.000000, 3.000000)">
            <mask id="mask-2" fill="white">
                <use xlink:href="#path-1"></use>
            </mask>
            <g id="Mask" fill-rule="nonzero"></g>
            <g id="Group" mask="url(#mask-2)">
                <g transform="translate(-3.000000, -3.000000)" id="color/primary/500">
                    <rect id="Rectangle-Copy-4" fill="#9DAAB7" x="0" y="2.27373675e-15" width="32" height="32"></rect>
                </g>
            </g>
        </g>
    </g>
</svg>