<?xml version="1.0" encoding="UTF-8"?>
<svg width="32px" height="32px" viewBox="0 0 32 32" version="1.1" xmlns="http://www.w3.org/2000/svg" xmlns:xlink="http://www.w3.org/1999/xlink">
    <title>icon/target</title>
    <defs>
        <path d="M14.1763738,0 C21.984331,0.000631361766 28.3148215,6.33037564 28.3153738,14.1389995 C28.3065574,21.9442608 21.9816344,28.2696311 14.1763738,28.2789995 C6.47858196,28.2789995 0.217372618,22.127373 0.0411858347,14.4719216 C-0.0134193428,14.2535185 -0.0134193428,14.0254805 0.0393536697,13.8071493 C0.217900128,6.15274734 6.4782512,0.00136247456 14.1757072,0.000999538951 L14.1763738,0 Z M15.5904531,2.91694975 L15.5903738,8.30199952 C15.5903738,9.08293016 14.9573044,9.71599952 14.1763738,9.71599952 C13.3954431,9.71599952 12.7623738,9.08293016 12.7623738,8.30199952 L12.7622887,2.91640757 C8.76677553,3.41865435 5.29365254,6.02486847 3.72535287,9.81131554 C3.33277358,10.759145 3.07688823,11.7390736 2.95260815,12.7255232 L8.33937378,12.7259995 C8.85333271,12.7123279 9.33421082,12.9787094 9.59521815,13.421672 C9.85622548,13.8646346 9.85622548,14.4143644 9.59521815,14.857327 C9.33421082,15.3002896 8.85333271,15.5666711 8.33937378,15.5529995 L2.95291739,15.5530052 C3.26062142,17.9945385 4.36222123,20.3235912 6.17793549,22.139145 C7.99315473,23.9542038 10.3215299,25.055492 12.7623634,25.3633292 L12.7623738,19.9769995 C12.7623738,19.1960689 13.3954431,18.5629995 14.1763738,18.5629995 C14.9573044,18.5629995 15.5903738,19.1960689 15.5903738,19.9769995 L15.5908426,25.3637661 C16.5776189,25.2394458 17.5578667,24.9834335 18.5059817,24.5906378 C22.2923878,23.0219629 24.8983316,19.5484708 25.4001296,15.5527833 L20.0143738,15.5529995 C19.5004148,15.5666711 19.0195367,15.3002896 18.7585294,14.857327 C18.4975221,14.4143644 18.4975221,13.8646346 18.7585294,13.421672 C19.0195367,12.9787094 19.5004148,12.7123279 20.0143738,12.7259995 L25.3992985,12.7249281 C24.756269,7.61147893 20.7039591,3.55952724 15.5904531,2.91694975 Z" id="path-1"></path>
    </defs>
    <g id="icon/target" stroke="none" stroke-width="1" fill="none" fill-rule="evenodd">
        <g id="color/primary/500" transform="translate(2.000226, 2.000000)">
            <mask id="mask-2" fill="white">
                <use xlink:href="#path-1"></use>
            </mask>
            <g id="Mask" fill-rule="nonzero"></g>
            <g id="Group" mask="url(#mask-2)">
                <g transform="translate(-2.000226, -2.000000)" id="color/primary/500">
                    <rect id="Rectangle-Copy-4" fill="#9DAAB7" x="0" y="2.27373675e-15" width="32" height="32"></rect>
                </g>
            </g>
        </g>
    </g>
</svg>