<?xml version="1.0" encoding="UTF-8"?>
<svg width="32px" height="32px" viewBox="0 0 32 32" version="1.1" xmlns="http://www.w3.org/2000/svg" xmlns:xlink="http://www.w3.org/1999/xlink">
    <title>icon/text</title>
    <defs>
        <path d="M20.2315021,0 C21.0124327,0 21.6455021,0.633069364 21.6455021,1.414 L21.6455021,3.602 C21.6455021,4.38293064 21.0124327,5.016 20.2315021,5.016 C19.4505714,5.016 18.8175021,4.38293064 18.8175021,3.602 L18.8175021,2.828 L12.236,2.827 L12.236,21.45 L14.1165021,21.45 C14.8974327,21.45 15.5305021,22.0830694 15.5305021,22.864 C15.5305021,23.6449306 14.8974327,24.278 14.1165021,24.278 L7.52850208,24.278 C6.74757144,24.278 6.11450208,23.6449306 6.11450208,22.864 C6.11450208,22.0830694 6.74757144,21.45 7.52850208,21.45 L9.408,21.45 L9.408,2.827 L2.82750208,2.828 L2.82750208,3.602 C2.84117366,4.11595893 2.57479219,4.59683704 2.13182958,4.85784437 C1.68886698,5.1188517 1.13913718,5.1188517 0.696174573,4.85784437 C0.253211968,4.59683704 -0.0131695084,4.11595893 0.000502078055,3.602 L0.000502078055,1.414 C0.000502078055,0.633069364 0.633571442,0 1.41450208,0 L20.2315021,0 Z" id="path-1"></path>
    </defs>
    <g id="icon/text" stroke="none" stroke-width="1" fill="none" fill-rule="evenodd">
        <g id="color/primary/500" transform="translate(5.000000, 4.000000)">
            <mask id="mask-2" fill="white">
                <use xlink:href="#path-1"></use>
            </mask>
            <g id="Mask" fill-rule="nonzero"></g>
            <g id="Group" mask="url(#mask-2)">
                <g transform="translate(-5.000000, -4.000000)" id="color/primary/500">
                    <rect id="Rectangle-Copy-4" fill="#9DAAB7" x="0" y="2.27373675e-15" width="32" height="32"></rect>
                </g>
            </g>
        </g>
    </g>
</svg>