<?xml version="1.0" encoding="UTF-8"?>
<svg width="32px" height="32px" viewBox="0 0 32 32" version="1.1" xmlns="http://www.w3.org/2000/svg" xmlns:xlink="http://www.w3.org/1999/xlink">
    <title>icon/thumb_up</title>
    <defs>
        <path d="M13.742,0.00010492551 C14.9316106,-0.0080350413 16.0755452,0.457734514 16.9210518,1.29460965 C17.7665583,2.13148479 18.244041,3.27058003 18.248,4.46021262 L18.248,8.66021262 L23.857,8.66021262 C25.1482393,8.65968991 26.3751111,9.22395834 27.2150584,10.2046661 C28.0550058,11.1853739 28.4239895,12.4843982 28.225,13.7602126 L26.759,23.2192126 C26.4229006,25.4181482 24.5264475,27.0388773 22.302,27.0282126 L12.592,27.0282126 C11.8110695,27.0282124 11.1780005,26.3951431 11.1780005,25.6142126 C11.1780005,24.8332822 11.8110695,24.2002129 12.592,24.2002126 L22.302,24.2002126 C23.133253,24.2039964 23.8413622,23.5972282 23.965,22.7752126 L25.43,13.3172126 C25.5015619,12.8577455 25.3686606,12.3899578 25.0662125,12.0367492 C24.7637645,11.6835406 24.3220066,11.4802228 23.857,11.4802126 L16.834,11.4802126 C16.0530694,11.4802126 15.42,10.8471433 15.42,10.0662126 L15.42,4.45521262 C15.418898,3.55434076 14.6888719,2.82431461 13.788,2.82321262 C13.6603586,2.80689379 13.5415726,2.89130576 13.515,3.01721262 C13.0351445,5.9321851 12.1337015,8.7618268 10.839,11.4172126 L10.063,13.005 L10.064,25.6272126 C10.063448,26.4077527 9.43054028,27.0402126 8.65,27.0402126 C8.59678134,27.0402126 8.544249,27.0372725 8.4925566,27.0315457 L3.346,27.0302126 C1.49913074,27.0285595 0.00220513656,25.5320813 0,23.6852126 L0,14.5852126 C0.00275486898,12.7385721 1.49935876,11.2424155 3.346,11.2402126 L7.779,11.2402126 L8.297,10.1772126 C9.47087223,7.77170855 10.2884389,5.20818069 10.724,2.56721262 C10.9596559,1.08456717 12.2407528,-0.00508684138 13.742,0.00010492551 Z M7.235,24.202 L7.235,14.068 L3.346,14.0682126 C3.06030657,14.0682121 2.82855153,14.2995197 2.828,14.5852126 L2.828,23.6852126 C2.82855153,23.9709055 3.06030657,24.2022132 3.346,24.2022126 L7.235,24.202 Z" id="path-1"></path>
    </defs>
    <g id="icon/thumb_up" stroke="none" stroke-width="1" fill="none" fill-rule="evenodd">
        <g id="color/primary/500" transform="translate(2.000000, 1.999895)">
            <mask id="mask-2" fill="white">
                <use xlink:href="#path-1"></use>
            </mask>
            <g id="Mask" fill-rule="nonzero"></g>
            <g id="Group" mask="url(#mask-2)">
                <g transform="translate(-2.000000, -1.999895)" id="color/primary/500">
                    <rect id="Rectangle-Copy-4" fill="#9DAAB7" x="0" y="2.27373675e-15" width="32" height="32"></rect>
                </g>
            </g>
        </g>
    </g>
</svg>