<?xml version="1.0" encoding="UTF-8"?>
<svg width="32px" height="32px" viewBox="0 0 32 32" version="1.1" xmlns="http://www.w3.org/2000/svg" xmlns:xlink="http://www.w3.org/1999/xlink">
    <title>icon/ticket</title>
    <defs>
        <path d="M26.267,0 C27.3771877,0.00110247118 28.2768975,0.900812347 28.278,2.011 L28.278,6.929 C28.278,7.70993064 27.6449306,8.343 26.864,8.343 C26.1419662,8.33442555 25.470205,8.71170291 25.1017625,9.33271533 C24.7333199,9.95372775 24.7241712,10.7241287 25.0777625,11.3537154 C25.4313538,11.9833022 26.0939662,12.3764257 26.816,12.385 C27.6063341,12.3814144 28.2552098,13.0089864 28.278,13.799 L28.278,18.615 C28.278,19.726131 27.3781297,20.6273449 26.267,20.629 L14.1620555,20.6308287 L14.14,20.631 L14.14,20.631 L14.139,20.629 L2.012,20.629 C0.901260063,20.6278975 0.00110247222,19.7277399 0,18.617 L0,13.801 C0,13.0200694 0.633069364,12.387 1.414,12.387 C2.53016748,12.400531 3.44596902,11.5066675 3.4595,10.3905 C3.47241593,9.32506741 2.65855302,8.44219964 1.6137624,8.3523718 L1.463,8.345 L1.394,8.342 L1.32506425,8.33918008 C0.598283885,8.27422147 0.0219502073,7.67469218 0,6.931 L0,2.013 C0.00110326939,0.902422254 0.901421843,0.00255115507 2.012,0.002 L5.35,0.002 C6.13093045,0.002 6.76399952,0.63506955 6.76399952,1.416 C6.76399952,2.19693045 6.13093045,2.82999974 5.35,2.83 L2.829,2.83 L2.8291779,5.71207519 C4.07713702,6.07774197 5.11648051,6.93162624 5.72637925,8.05289888 C5.7370006,8.07431373 5.74844109,8.09567062 5.75972365,8.11711757 C5.87711,8.3390258 5.97692563,8.57128112 6.05835619,8.81201043 C6.0679278,8.83965982 6.07698699,8.86710855 6.0858048,8.8946556 L6.10396687,8.9540659 C6.24234709,9.40500448 6.31585741,9.8813206 6.31585741,10.371 C6.31585741,12.2692418 5.21119975,13.9666704 3.53310569,14.7548602 C3.51221949,14.7641543 3.49115793,14.773925 3.47001514,14.7835483 C3.43682056,14.7989537 3.40354057,14.8135557 3.3700482,14.8278021 L3.28482595,14.8632089 C3.2511341,14.8766747 3.21751325,14.8897899 3.18369247,14.9025491 C3.14388955,14.9180164 3.10350404,14.9327344 3.06287197,14.9469269 C3.04604805,14.9521555 3.02943294,14.9578252 3.01277263,14.9634097 C2.95780207,14.9826451 2.90216939,15.0002801 2.84611249,15.016929 L2.829,15.021 L2.829,17.803 L14.0996091,17.8015381 C14.1126958,17.8011801 14.1258269,17.801 14.139,17.801 L25.451,17.801 L25.4500311,15.0129917 C25.3843679,14.9933797 25.3192863,14.9724136 25.254819,14.9501255 L25.307,14.966 L25.199922,14.9306856 C25.1901713,14.9272699 25.1805007,14.9237598 25.1708445,14.9202199 C23.257472,14.2338112 21.9641426,12.4149613 21.9641426,10.361 C21.9641426,8.20842847 23.384638,6.31408557 25.451,5.711 L25.451,2.828 L9.594,2.828 C8.81306936,2.828 8.18,2.19493064 8.18,1.414 C8.18,0.633069364 8.81306936,0 9.594,0 L26.267,0 Z M17.381,10.999 C18.1619305,10.999 18.7949995,11.6320695 18.7949995,12.413 C18.7949995,13.1939305 18.1619305,13.827 17.381,13.827 L10.898,13.827 C10.3928263,13.827 9.92602656,13.5574933 9.67343968,13.1200001 C9.4208528,12.6825069 9.4208528,12.1434931 9.67343968,11.7059999 C9.92602656,11.2685067 10.3928263,10.999 10.898,10.999 L17.381,10.999 Z M17.381,6.804 C17.8949589,6.79032841 18.375837,7.05670989 18.6368444,7.4996725 C18.8978517,7.9426351 18.8978517,8.4923649 18.6368444,8.9353275 C18.399565,9.33802078 17.9805742,9.59477924 17.5202101,9.62786289 L17.381,9.631 L10.898,9.631 C10.3840411,9.64467159 9.90316296,9.37829011 9.64215563,8.9353275 C9.3811483,8.4923649 9.3811483,7.9426351 9.64215563,7.4996725 C9.90316296,7.05670989 10.3840411,6.79032841 10.898,6.804 L17.381,6.804 Z" id="path-1"></path>
    </defs>
    <g id="icon/ticket" stroke="none" stroke-width="1" fill="none" fill-rule="evenodd">
        <g id="color/primary/500" transform="translate(2.000000, 6.000000)">
            <mask id="mask-2" fill="white">
                <use xlink:href="#path-1"></use>
            </mask>
            <g id="Mask" fill-rule="nonzero"></g>
            <g id="Group" mask="url(#mask-2)">
                <g transform="translate(-2.000000, -6.000000)" id="color/primary/500">
                    <rect id="Rectangle-Copy-4" fill="#9DAAB7" x="0" y="2.27373675e-15" width="32" height="32"></rect>
                </g>
            </g>
        </g>
    </g>
</svg>