<?xml version="1.0" encoding="UTF-8"?>
<svg width="32px" height="32px" viewBox="0 0 32 32" version="1.1" xmlns="http://www.w3.org/2000/svg" xmlns:xlink="http://www.w3.org/1999/xlink">
    <title>icon/timer</title>
    <defs>
        <path d="M16.5273501,0 C17.3080046,0 17.9408501,0.632845506 17.9408501,1.4135 C17.9408501,2.19415449 17.3080046,2.827 16.5273501,2.827 L13.394,2.826 L13.3947075,4.40333173 C14.4674264,4.53090633 15.5336173,4.80519918 16.5639769,5.23203847 C21.0403132,7.08641655 23.9587546,11.4547648 23.9583501,16.3 C23.9506354,22.9120686 18.5924187,28.2702853 11.9803501,28.278 C7.1351149,28.2784045 2.76676665,25.3599631 0.912388571,20.8836268 C-0.941989511,16.4072905 0.0828193302,11.2546666 3.50891802,7.82856791 C5.45210429,5.88538164 7.95068569,4.7146513 10.5662692,4.40356919 L10.566,2.826 L7.43635011,2.827 C6.65569561,2.827 6.02285011,2.19415449 6.02285011,1.4135 C6.02285011,0.632845506 6.65569561,0 7.43635011,0 L16.5273501,0 Z M11.9943929,7.14902739 L11.9803501,7.149 L11.9803501,7.149 L11.965,7.148 L11.7152886,7.1527655 C6.78459737,7.29302755 2.83053101,11.3340454 2.83035017,16.2986667 C2.8301661,21.351942 6.92640825,25.4486318 11.9796835,25.449 C17.0329588,25.4493681 21.1297978,21.3532752 21.1303501,16.3 C21.1248449,11.2533985 17.0392167,7.16265148 11.9943929,7.14902739 Z M11.9813501,8.927 C12.7622807,8.927 13.3953501,9.56006936 13.3953501,10.341 L13.3953501,15.665 L16.1953501,18.19 C16.6305236,18.5816711 16.7793095,19.2010217 16.5695371,19.7476273 C16.3597647,20.294233 15.8348261,20.6550265 15.2493501,20.655 L15.2543501,20.660001 C14.9047454,20.6604093 14.5675098,20.5306485 14.3083501,20.296 L11.0353501,17.35 C10.7371722,17.0824483 10.5669845,16.7006168 10.5673495,16.3 L10.5673495,10.341 C10.5673495,9.56006936 11.2004195,8.927 11.9813501,8.927 Z" id="path-1"></path>
    </defs>
    <g id="icon/timer" stroke="none" stroke-width="1" fill="none" fill-rule="evenodd">
        <g id="color/primary/500" transform="translate(4.000000, 2.001000)">
            <mask id="mask-2" fill="white">
                <use xlink:href="#path-1"></use>
            </mask>
            <g id="Mask" fill-rule="nonzero"></g>
            <g id="Group" mask="url(#mask-2)">
                <g transform="translate(-4.000000, -2.001000)" id="color/primary/500">
                    <rect id="Rectangle-Copy-4" fill="#9DAAB7" x="0" y="2.27373675e-15" width="32" height="32"></rect>
                </g>
            </g>
        </g>
    </g>
</svg>