<?xml version="1.0" encoding="UTF-8"?>
<svg width="32px" height="32px" viewBox="0 0 32 32" version="1.1" xmlns="http://www.w3.org/2000/svg" xmlns:xlink="http://www.w3.org/1999/xlink">
    <title>icon/trash</title>
    <defs>
        <path d="M8.78399978,5.24 C8.78399978,2.34602791 11.1300277,0 14.0239998,0 C16.7493843,0 18.9888059,2.08065504 19.2404707,4.74017143 L26.7519998,4.74 C27.4699699,4.74 28.0519996,5.32202991 28.0519996,6.04 C28.0519996,6.75797009 27.4699699,7.34 26.7519998,7.34 L25.72,7.339 L25.7209998,23.915 C25.7209998,25.0106907 25.2856016,26.0614756 24.5106438,26.8360583 C23.7356859,27.6106411 22.6846904,28.0455306 21.5889998,28.0450005 L6.54099978,28.0450005 C4.26341505,28.042245 2.41775482,26.1965847 2.41499978,23.919 L2.414,7.339 L1.29999978,7.34 C0.582029692,7.34 0,6.75797009 0,6.04 C0,5.32202991 0.582029692,4.74 1.29999978,4.74 L6.74499978,4.74 C7.2094451,4.74 7.63861031,4.9877785 7.87083299,5.38999994 C8.10305567,5.79222137 8.10305567,6.28777863 7.87083299,6.69000006 C7.63861031,7.0922215 7.2094451,7.34 6.74499978,7.34 L5.014,7.339 L5.01499978,23.915 C5.01610159,24.7589866 5.7000132,25.4428982 6.54399978,25.444 L21.5919998,25.444 C22.4359864,25.4428982 23.119898,24.7589866 23.1209998,23.915 L23.12,7.339 L17.979113,7.33991678 C17.9750796,7.3399629 17.9710419,7.33999067 17.9669998,7.34 L10.0839998,7.34 C9.36602969,7.34 8.784,6.75797009 8.784,6.04 L8.78399978,5.24 Z M19.2599998,10 C19.97797,10 20.5599998,10.5820298 20.5599998,11.3 L20.5599998,21.491 C20.5588964,22.208189 19.9771896,22.789 19.2599998,22.789 C18.5420296,22.789 17.9599998,22.2069702 17.9599998,21.489 L17.9599998,11.3 C17.9599998,10.5820298 18.5420296,10 19.2599998,10 Z M8.87099978,10 C9.58896996,10 10.1709998,10.5820298 10.1709998,11.3 L10.1709998,21.491 C10.1699654,22.1633647 9.658635,22.7158659 9.00377651,22.7823021 L8.87099978,22.789 C8.15302961,22.789 7.57099978,22.2069702 7.57099978,21.489 L7.57099978,11.3 C7.57099978,10.5820298 8.15302961,10 8.87099978,10 Z M14.0779998,10 C14.79597,10 15.3779998,10.5820298 15.3779998,11.3 L15.3779998,21.491 C15.3768964,22.208189 14.7951896,22.789 14.0779998,22.789 C13.3600296,22.789 12.7779998,22.2069702 12.7779998,21.489 L12.7779998,11.3 C12.7779998,10.5820298 13.3600296,10 14.0779998,10 Z M14.0249998,2.58795825 C12.754637,2.58795825 11.6639798,3.49174723 11.4279998,4.74 L16.6219998,4.74 C16.3860198,3.49174723 15.2953625,2.58795825 14.0249998,2.58795825 Z" id="path-1"></path>
    </defs>
    <g id="icon/trash" stroke="none" stroke-width="1" fill="none" fill-rule="evenodd">
        <g id="color/primary/500" transform="translate(2.000000, 2.000000)">
            <mask id="mask-2" fill="white">
                <use xlink:href="#path-1"></use>
            </mask>
            <g id="Mask" fill-rule="nonzero"></g>
            <g id="Group" mask="url(#mask-2)">
                <g transform="translate(-2.000000, -2.000000)" id="color/primary/500">
                    <rect id="Rectangle-Copy-4" fill="#9DAAB7" x="0" y="2.27373675e-15" width="32" height="32"></rect>
                </g>
            </g>
        </g>
    </g>
</svg>