<?xml version="1.0" encoding="UTF-8"?>
<svg width="32px" height="32px" viewBox="0 0 32 32" version="1.1" xmlns="http://www.w3.org/2000/svg" xmlns:xlink="http://www.w3.org/1999/xlink">
    <title>icon/tune</title>
    <defs>
        <path d="M13.2911122,19.0047297 C13.8666802,19.2425312 14.3320119,19.6585446 14.6339129,20.1732426 L26.1935999,20.1730681 C26.9745305,20.1730681 27.6075999,20.8061375 27.6075999,21.5870681 C27.6075999,22.3679988 26.9745305,23.0010681 26.1935999,23.0010681 L14.6335173,23.0011697 C14.1497766,23.8231274 13.2571247,24.3757781 12.2345999,24.3790862 C11.1040356,24.383116 10.0825414,23.7051959 9.64708549,22.6618502 C9.21162958,21.6185046 9.44811215,20.415549 10.2461119,19.6146818 C11.0441117,18.8138147 12.2462114,18.5730189 13.2911122,19.0047297 Z M6.94459987,20.1730681 C7.7255305,20.1730681 8.35859987,20.8061375 8.35859987,21.5870681 C8.35859987,22.3679988 7.7255305,23.0010681 6.94459987,23.0010681 L1.44459987,23.0010681 C0.663669231,23.0010681 0.030599867,22.3679988 0.030599867,21.5870681 C0.030599867,20.8061375 0.663669231,20.1730681 1.44459987,20.1730681 L6.94459987,20.1730681 Z M19.8279545,9.60699948 C20.87332,10.0391205 21.554996,11.0589106 21.5546006,12.1900681 C21.5557091,13.7291566 20.3106824,14.978657 18.7715999,14.9830899 C17.7669399,14.9870259 16.8482025,14.4526096 16.3499041,13.6017005 L1.45159987,13.6010681 C0.937640936,13.6147397 0.456762822,13.3483583 0.195755495,12.9053956 C-0.0652518318,12.462433 -0.0652518318,11.9127032 0.195755495,11.4697406 C0.456762822,11.026778 0.937640936,10.7603966 1.45159987,10.7740681 L16.3515254,10.7736199 C16.4690251,10.57364 16.6126654,10.3863244 16.7814037,10.2169798 C17.5798172,9.41569736 18.7825891,9.17487844 19.8279545,9.60699948 Z M26.1935999,10.7740681 C26.7075588,10.7603966 27.1884369,11.026778 27.4494442,11.4697406 C27.7104516,11.9127032 27.7104516,12.462433 27.4494442,12.9053956 C27.1884369,13.3483583 26.7075588,13.6147397 26.1935999,13.6010681 L23.7215999,13.6010681 C23.2076409,13.6147397 22.7267628,13.3483583 22.4657555,12.9053956 C22.2047482,12.462433 22.2047482,11.9127032 22.4657555,11.4697406 C22.7267628,11.026778 23.2076409,10.7603966 23.7215999,10.7740681 L26.1935999,10.7740681 Z M15.2513456,0.211822752 C15.8264666,0.449500442 16.2915003,0.8651182 16.5933737,1.37932143 L26.1935999,1.37906814 C26.9745305,1.37906814 27.6075999,2.0121375 27.6075999,2.79306814 C27.6075999,3.57399878 26.9745305,4.20706814 26.1935999,4.20706814 L16.5939414,4.20744756 C16.1101291,5.03008772 15.2168067,5.58314127 14.1935999,5.58608274 C13.0631249,5.58971094 12.0419369,4.91153281 11.6067964,3.86815388 C11.1716559,2.82477496 11.4083865,1.62198268 12.2064661,0.821323085 C13.0045457,0.0206634894 14.2065676,-0.219947934 15.2513456,0.211822752 Z M8.83459987,1.37906814 C9.6155305,1.37906814 10.2485999,2.0121375 10.2485999,2.79306814 C10.2485999,3.57399878 9.6155305,4.20706814 8.83459987,4.20706814 L1.45159987,4.20706814 C0.670669231,4.20706814 0.037599867,3.57399878 0.037599867,2.79306814 C0.037599867,2.0121375 0.670669231,1.37906814 1.45159987,1.37906814 L8.83459987,1.37906814 Z" id="path-1"></path>
    </defs>
    <g id="icon/tune" stroke="none" stroke-width="1" fill="none" fill-rule="evenodd">
        <g id="color/primary/500" transform="translate(2.000000, 4.000000)">
            <mask id="mask-2" fill="white">
                <use xlink:href="#path-1"></use>
            </mask>
            <g id="Mask" fill-rule="nonzero"></g>
            <g id="Group" mask="url(#mask-2)">
                <g transform="translate(-2.000000, -4.000000)" id="color/primary/500">
                    <rect id="Rectangle-Copy-4" fill="#9DAAB7" x="0" y="2.27373675e-15" width="32" height="32"></rect>
                </g>
            </g>
        </g>
    </g>
</svg>