<?xml version="1.0" encoding="UTF-8"?>
<svg width="32px" height="32px" viewBox="0 0 32 32" version="1.1" xmlns="http://www.w3.org/2000/svg" xmlns:xlink="http://www.w3.org/1999/xlink">
    <title>icon/undo</title>
    <defs>
        <path d="M9.78230189,0.414213562 C10.3345866,0.966498252 10.3345866,1.86192863 9.78230205,2.41421341 L4.827,7.369 L14.537302,7.35921341 C17.0583037,7.36301803 19.4757363,8.36255419 21.263302,10.1402134 C23.0541484,11.9187163 24.0582183,14.3402967 24.0513375,16.8642134 L24.0513375,22.6252134 C24.0510374,23.0005766 23.901534,23.3604313 23.6357372,23.6254778 C23.3699404,23.8905243 23.0096645,24.0390099 22.634302,24.0382166 C21.8533714,24.0382166 21.220302,23.405144 21.220302,22.6242134 L21.220302,16.8642134 C21.2208328,15.0932003 20.5175356,13.3945708 19.2652401,12.1422753 C18.0129446,10.8899799 16.3143152,10.1866827 14.543302,10.1872134 L14.536302,10.1872134 L4.829,10.197 L9.78230205,15.1502134 C10.186116,15.5547133 10.3066965,16.1625425 10.0878744,16.6905602 C9.86905229,17.2185779 9.35386635,17.5629316 8.78230205,17.5632134 L8.78230205,17.5642154 C8.40714587,17.5648452 8.04722765,17.415839 7.78230205,17.1502134 L0.414302046,9.78221341 C0.149033215,9.5170247 0,9.15730353 0,8.78221341 C0,8.40712328 0.149033215,8.04740212 0.414302046,7.78221341 L7.78230205,0.414213408 C8.33458682,-0.138071196 9.2300172,-0.138071127 9.78230189,0.414213562 Z" id="path-1"></path>
    </defs>
    <g id="icon/undo" stroke="none" stroke-width="1" fill="none" fill-rule="evenodd">
        <g id="color/primary/500" transform="translate(4.000000, 4.000000)">
            <mask id="mask-2" fill="white">
                <use xlink:href="#path-1"></use>
            </mask>
            <g id="Mask" fill-rule="nonzero"></g>
            <g id="Group" mask="url(#mask-2)">
                <g transform="translate(-4.000000, -4.000000)" id="color/primary/500">
                    <rect id="Rectangle-Copy-4" fill="#9DAAB7" x="0" y="2.27373675e-15" width="32" height="32"></rect>
                </g>
            </g>
        </g>
    </g>
</svg>