<?xml version="1.0" encoding="UTF-8"?>
<svg width="32px" height="32px" viewBox="0 0 32 32" version="1.1" xmlns="http://www.w3.org/2000/svg" xmlns:xlink="http://www.w3.org/1999/xlink">
    <title>icon/unfold_more</title>
    <defs>
        <path d="M2.41523283,16.3778886 L10.3562328,24.1778886 L18.2972328,16.3778886 C18.6577138,16.0238383 19.1796956,15.8889966 19.6665526,16.0241572 C20.1534096,16.1593178 20.5311768,16.5439465 20.6575527,17.0331573 C20.7839287,17.5223682 20.639714,18.0418385 20.2792328,18.3958886 L11.3472328,27.1648886 C11.0829885,27.4249208 10.7269639,27.5704202 10.3562328,27.5698901 C9.98584794,27.5701573 9.63023055,27.4246775 9.36623283,27.1648886 L0.434232833,18.3958886 C0.0674240416,18.0433638 -0.0817314862,17.5209637 0.0436477829,17.0279094 C0.169027052,16.5348552 0.54961085,16.147163 1.04026081,16.0126822 C1.53091077,15.8782014 2.05598124,16.0176654 2.41523283,16.3778886 Z M11.3472328,0.404888633 L20.2792328,9.17388863 C20.6890746,9.57626204 20.8148098,10.1865676 20.5973859,10.7181704 C20.3799619,11.2497731 19.86258,11.5970457 19.2882328,11.5968901 C18.9175018,11.5974202 18.5614772,11.4519208 18.2972328,11.1918886 L10.3562328,3.39188863 L2.41523283,11.1918886 C1.85639399,11.7289657 0.969346298,11.7160553 0.426374448,11.1629421 C-0.116597401,10.609829 -0.113092495,9.72269424 0.434232833,9.17388863 L9.36623283,0.404888633 C9.91622808,-0.134962878 10.7972376,-0.134962878 11.3472328,0.404888633 Z" id="path-1"></path>
    </defs>
    <g id="icon/unfold_more" stroke="none" stroke-width="1" fill="none" fill-rule="evenodd">
        <g id="그룹-11088-+-color/primary/500-Mask" transform="translate(6.000000, 2.000000)">
            <mask id="mask-2" fill="white">
                <use xlink:href="#path-1"></use>
            </mask>
            <g id="Mask" fill-rule="nonzero"></g>
            <g id="그룹-11088" mask="url(#mask-2)" fill-rule="nonzero">
                <g transform="translate(-4.000000, -0.000000)" id="Combined-Shape">
                    <path d="M19.5522501,1.07704365 C24.8359739,3.26596207 28.2808179,8.42222608 28.2804134,14.1414132 C28.2715949,21.946902 21.9459028,28.2721467 14.1404134,28.2804132 C8.42122625,28.2804132 3.26520589,24.8352046 1.07666115,19.5513259 C-1.11188358,14.2674473 0.0980580955,8.18550276 4.14227711,4.14156976 C8.18649612,0.097636756 14.2685262,-1.11187478 19.5522501,1.07704365 Z M14.1404134,11.5564132 C13.3594828,11.5564132 12.7264134,12.1894826 12.7264134,12.9704132 L12.7264134,12.9704132 L12.7264134,20.1424132 C12.7269649,20.9231153 13.3597113,21.5558617 14.1404134,21.5564132 C14.9211155,21.5558617 15.5538618,20.9231153 15.5544134,20.1424132 L15.5544134,20.1424132 L15.5544134,12.9704132 C15.5544134,12.1894826 14.921344,11.5564132 14.1404134,11.5564132 Z M14.1404134,6.6154132 C13.3186137,6.6154132 12.6524134,7.28161349 12.6524134,8.1034132 C12.6524134,8.92521291 13.3186137,9.5914132 14.1404134,9.5914132 C14.9617563,9.59031147 15.6273117,8.92475612 15.6284134,8.1034132 C15.6284134,7.28161349 14.9622131,6.6154132 14.1404134,6.6154132 Z"></path>
                </g>
            </g>
            <g id="Group" mask="url(#mask-2)">
                <g transform="translate(-6.000000, -2.000000)" id="color/primary/500">
                    <rect id="Rectangle-Copy-4" fill="#9DAAB7" x="0" y="2.27373675e-15" width="32" height="32"></rect>
                </g>
            </g>
        </g>
    </g>
</svg>