<?xml version="1.0" encoding="UTF-8"?>
<svg width="32px" height="32px" viewBox="0 0 32 32" version="1.1" xmlns="http://www.w3.org/2000/svg" xmlns:xlink="http://www.w3.org/1999/xlink">
    <title>icon/unfold_less</title>
    <defs>
        <path d="M11.3482328,16.3885354 L20.2802328,25.1575354 C20.837488,25.7048496 20.8455468,26.60028 20.2982327,27.1575352 C19.7509186,27.7147905 18.8554882,27.7228494 18.2982328,27.1755354 L10.3572328,19.3755354 L2.41523283,27.1755354 C2.15123512,27.4353242 1.79561772,27.5808064 1.42523283,27.5805354 C0.850885683,27.5808064 0.333503802,27.2334199 0.116079813,26.7018171 C-0.101344175,26.1702144 0.0243910177,25.5599088 0.434232833,25.1575354 L9.36623283,16.3885354 C9.91656828,15.8485644 10.7978974,15.8485644 11.3482328,16.3885354 Z M2.41523283,0.41553538 L10.3572328,8.21553538 L18.2982328,0.41553538 C18.8554882,-0.131778681 19.7509186,-0.123719748 20.2982327,0.433535512 C20.8455468,0.990790772 20.837488,1.88622117 20.2802328,2.43353538 L11.3482328,11.2025354 C11.0839885,11.4625675 10.7279639,11.608067 10.3572328,11.6075368 C9.986544,11.6078515 9.63059799,11.4623841 9.36623283,11.2025354 L0.434232833,2.43353538 C0.0674240416,2.08101052 -0.0817314862,1.55861044 0.0436477829,1.06555617 C0.169027052,0.57250191 0.54961085,0.184809782 1.04026081,0.0503289739 C1.53091077,-0.0841518347 2.05598124,0.0553121675 2.41523283,0.41553538 Z" id="path-1"></path>
    </defs>
    <g id="icon/unfold_less" stroke="none" stroke-width="1" fill="none" fill-rule="evenodd">
        <g id="그룹-11088-+-color/primary/500-Mask" transform="translate(6.000000, 2.000000)">
            <mask id="mask-2" fill="white">
                <use xlink:href="#path-1"></use>
            </mask>
            <g id="Mask" fill-rule="nonzero"></g>
            <g id="그룹-11088" mask="url(#mask-2)" fill-rule="nonzero">
                <g transform="translate(-4.000000, -0.000000)" id="Combined-Shape">
                    <path d="M19.5522501,1.07704365 C24.8359739,3.26596207 28.2808179,8.42222608 28.2804134,14.1414132 C28.2715949,21.946902 21.9459028,28.2721467 14.1404134,28.2804132 C8.42122625,28.2804132 3.26520589,24.8352046 1.07666115,19.5513259 C-1.11188358,14.2674473 0.0980580955,8.18550276 4.14227711,4.14156976 C8.18649612,0.097636756 14.2685262,-1.11187478 19.5522501,1.07704365 Z M14.1404134,11.5564132 C13.3594828,11.5564132 12.7264134,12.1894826 12.7264134,12.9704132 L12.7264134,12.9704132 L12.7264134,20.1424132 C12.7269649,20.9231153 13.3597113,21.5558617 14.1404134,21.5564132 C14.9211155,21.5558617 15.5538618,20.9231153 15.5544134,20.1424132 L15.5544134,20.1424132 L15.5544134,12.9704132 C15.5544134,12.1894826 14.921344,11.5564132 14.1404134,11.5564132 Z M14.1404134,6.6154132 C13.3186137,6.6154132 12.6524134,7.28161349 12.6524134,8.1034132 C12.6524134,8.92521291 13.3186137,9.5914132 14.1404134,9.5914132 C14.9617563,9.59031147 15.6273117,8.92475612 15.6284134,8.1034132 C15.6284134,7.28161349 14.9622131,6.6154132 14.1404134,6.6154132 Z"></path>
                </g>
            </g>
            <g id="Group" mask="url(#mask-2)">
                <g transform="translate(-6.000000, -2.000000)" id="color/primary/500">
                    <rect id="Rectangle-Copy-4" fill="#9DAAB7" x="0" y="2.27373675e-15" width="32" height="32"></rect>
                </g>
            </g>
        </g>
    </g>
</svg>