<?xml version="1.0" encoding="UTF-8"?>
<svg width="32px" height="32px" viewBox="0 0 32 32" version="1.1" xmlns="http://www.w3.org/2000/svg" xmlns:xlink="http://www.w3.org/1999/xlink">
    <title>icon/upload</title>
    <defs>
        <path d="M13.8150001,9.38069795 C14.1900903,9.38069795 14.5498114,9.52973117 14.8150001,9.795 L21.4150001,16.395 C21.8188141,16.7994999 21.9393946,17.4073291 21.7205725,17.9353468 C21.5017504,18.4633645 20.9865644,18.8077182 20.4150001,18.808 L20.4150001,18.809 C20.039822,18.8097427 19.6798629,18.6607196 19.4150001,18.395 L15.233,14.213 L15.2330001,26.864 C15.2332654,27.2390161 15.0845453,27.598778 14.8195563,27.864142 C14.5545674,28.129506 14.1950163,28.2787349 13.8200001,28.279 C13.0390695,28.279 12.4060001,27.6459306 12.4060001,26.865 L12.406,14.204 L8.21500014,18.395 C7.66271539,18.9472847 6.76728489,18.9472847 6.21500014,18.395 C5.66271539,17.8427153 5.66271539,16.9472847 6.21500014,16.395 L12.8150001,9.795 C13.0801888,9.52973117 13.43991,9.38069795 13.8150001,9.38069795 Z M23.9700001,0 C25.9959713,0.00220454078 27.6377956,1.64402882 27.6400003,3.67 L27.6400003,7.629 C27.6400003,8.63485439 27.2769386,9.60690558 26.6170001,10.366 L24.8800001,12.366 C24.6118649,12.6760602 24.2219185,12.8538729 23.8120001,12.853 C23.2584902,12.8518029 22.7564972,12.5279775 22.5271933,12.0241973 C22.2978895,11.5204171 22.3833805,10.9291886 22.7460001,10.511 L24.4830001,8.511 C24.6953786,8.26618649 24.8125214,7.95309572 24.8130001,7.629 L24.8130001,3.67 C24.8118987,3.20504296 24.4349582,2.82854959 23.9700001,2.828 L3.67000014,2.828 C3.20504212,2.82854959 2.82810161,3.20504296 2.82700014,3.67 L2.82700014,7.629 C2.82747887,7.95309572 2.94462168,8.26618649 3.15700014,8.511 L4.89400014,10.511 C5.23631396,10.8907401 5.34698198,11.4256876 5.1834364,11.9100781 C5.01989083,12.3944686 4.60760641,12.7528508 4.1051659,12.8473751 C3.60272539,12.9418994 3.08839167,12.7578422 2.76000014,12.366 L1.02300014,10.366 C0.36306167,9.60690558 0,8.63485439 0,7.629 L0,3.67 C0.00220467919,1.64402882 1.64402896,0.00220454078 3.67000014,0 L23.9700001,0 Z" id="path-1"></path>
    </defs>
    <g id="icon/upload" stroke="none" stroke-width="1" fill="none" fill-rule="evenodd">
        <g id="color/primary/500" transform="translate(2.000000, 2.000000)">
            <mask id="mask-2" fill="white">
                <use xlink:href="#path-1"></use>
            </mask>
            <g id="Mask" fill-rule="nonzero"></g>
            <g id="Group" mask="url(#mask-2)">
                <g transform="translate(-2.000000, -2.000000)" id="color/primary/500">
                    <rect id="Rectangle-Copy-4" fill="#9DAAB7" x="0" y="2.27373675e-15" width="32" height="32"></rect>
                </g>
            </g>
        </g>
    </g>
</svg>