<?xml version="1.0" encoding="UTF-8"?>
<svg width="32px" height="32px" viewBox="0 0 32 32" version="1.1" xmlns="http://www.w3.org/2000/svg" xmlns:xlink="http://www.w3.org/1999/xlink">
    <title>icon/user</title>
    <defs>
        <path d="M13.4315021,0 C17.979567,0 21.6665021,3.68693509 21.6665021,8.235 C21.6638744,10.6432849 20.6287389,12.8096612 18.979922,14.3153027 C23.5686025,15.9341834 26.8574152,20.3069046 26.8635021,25.449 C26.8635021,26.2299306 26.2304327,26.863 25.4495021,26.863 C24.6685714,26.863 24.0355021,26.2299306 24.0355021,25.449 C24.02999,20.4919299 20.0125728,16.4749601 15.0555021,16.47 L11.8065021,16.47 C6.84982188,16.4755111 2.83301318,20.4923198 2.82750208,25.449 C2.84117366,25.9629589 2.57479219,26.443837 2.13182958,26.7048444 C1.68886698,26.9658517 1.13913718,26.9658517 0.696174573,26.7048444 C0.253211968,26.443837 -0.0131695084,25.9629589 0.000502078055,25.449 C0.00615220569,20.3084581 3.29288706,15.9366127 7.87932193,14.3150166 C6.23063109,12.8108502 5.19650208,10.643692 5.19650208,8.235 C5.19650208,3.68693509 8.88343716,0 13.4315021,0 Z M13.4315021,2.822 L13.4315021,2.827 C11.2440793,2.82659552 9.27181937,4.14395594 8.43444864,6.16475499 C7.5970779,8.18555405 8.05951656,10.5117953 9.60611504,12.0586798 C11.1527135,13.6055643 13.4788692,14.0684331 15.499823,13.2314361 C17.5207769,12.3944391 18.8385021,10.4224228 18.8385021,8.235 C18.8385021,5.24782423 16.418676,2.82531111 13.4315021,2.822 Z" id="path-1"></path>
    </defs>
    <g id="icon/user" stroke="none" stroke-width="1" fill="none" fill-rule="evenodd">
        <g id="color/primary/500" transform="translate(3.000000, 3.000000)">
            <mask id="mask-2" fill="white">
                <use xlink:href="#path-1"></use>
            </mask>
            <g id="Mask" fill-rule="nonzero"></g>
            <g id="Group" mask="url(#mask-2)">
                <g transform="translate(-3.000000, -3.000000)" id="color/primary/500">
                    <rect id="Rectangle-Copy-4" fill="#9DAAB7" x="0" y="2.27373675e-15" width="32" height="32"></rect>
                </g>
            </g>
        </g>
    </g>
</svg>