<?xml version="1.0" encoding="UTF-8"?>
<svg width="32px" height="32px" viewBox="0 0 32 32" version="1.1" xmlns="http://www.w3.org/2000/svg" xmlns:xlink="http://www.w3.org/1999/xlink">
    <title>icon/user_circle</title>
    <defs>
        <path d="M14.139,0 C21.9477541,0 28.278,6.33024592 28.278,14.139 C28.2691825,21.9440988 21.9440988,28.2691825 14.139,28.278 C6.33024592,28.278 0,21.9477541 0,14.139 C0,6.33024592 6.33024592,0 14.139,0 Z M15.175,18.364 L13.102,18.364 C10.2276645,18.3673007 7.89742972,20.6925388 7.88603843,23.5649718 C9.67666209,24.7562203 11.8268106,25.45 14.139,25.45 C16.4507613,25.45 18.6005417,24.7564772 20.3916357,23.566137 L20.392,23.58 C20.3881427,20.7004917 18.054509,18.3673053 15.175,18.364 Z M14.139,2.828 C7.89210719,2.828 2.828,7.89210719 2.828,14.139 C2.828,16.8586003 3.7878093,19.3540252 5.38716787,21.3050145 C6.04426709,19.0795352 7.63616521,17.2561343 9.70801414,16.2885876 C9.34168049,15.8495788 9.03748239,15.3514111 8.81110205,14.8050146 C7.91837832,12.6503174 8.41162926,10.1700155 10.0608224,8.52082239 C11.7100155,6.87162926 14.1903174,6.37837832 16.3450146,7.27110205 C18.4997119,8.16382577 19.9044045,10.2666887 19.9040001,12.599 C19.9025416,14.0024851 19.4001463,15.288622 18.5659744,16.2882505 C20.6402818,17.2550362 22.2335248,19.0794343 22.8906119,21.3054603 C24.4898642,19.3548741 25.45,16.8590629 25.45,14.139 C25.4422863,7.89530511 20.3826949,2.83571372 14.139,2.828 Z M14.139,9.661 L14.139,9.664 C12.950599,9.66359551 11.8789907,10.3791597 11.4239291,11.476983 C10.9688674,12.5748063 11.2199833,13.8386564 12.0601667,14.6791259 C12.5915206,15.2106607 13.2922912,15.5066482 14.0133999,15.5374148 L14.2782581,15.5367648 C14.6105619,15.5209441 14.9433147,15.448464 15.2620928,15.3164536 C16.360071,14.8617657 17.076,13.7904011 17.076,12.602 C17.076,10.9792914 15.7617071,9.66320702 14.139,9.661 Z" id="path-1"></path>
    </defs>
    <g id="icon/user_circle" stroke="none" stroke-width="1" fill="none" fill-rule="evenodd">
        <g id="color/primary/500" transform="translate(2.000000, 2.000000)">
            <mask id="mask-2" fill="white">
                <use xlink:href="#path-1"></use>
            </mask>
            <g id="Mask" fill-rule="nonzero"></g>
            <g id="Group" mask="url(#mask-2)">
                <g transform="translate(-2.000000, -2.000000)" id="color/primary/500">
                    <rect id="Rectangle-Copy-4" fill="#9DAAB7" x="0" y="2.27373675e-15" width="32" height="32"></rect>
                </g>
            </g>
        </g>
    </g>
</svg>