<?xml version="1.0" encoding="UTF-8"?>
<svg width="32px" height="32px" viewBox="0 0 32 32" version="1.1" xmlns="http://www.w3.org/2000/svg" xmlns:xlink="http://www.w3.org/1999/xlink">
    <title>icon/user-fill</title>
    <defs>
        <path d="M13.4315021,16.47 C8.88343716,16.47 5.19650208,12.7830649 5.19650208,8.235 C5.19650208,3.68693509 8.88343716,0 13.4315021,0 C17.979567,0 21.6665021,3.68693509 21.6665021,8.235 C21.6615419,12.7810088 17.9775108,16.4650398 13.4315021,16.47 Z M15.0555021,13.642 C21.5735205,13.6491635 26.8557865,18.9309822 26.8635021,25.449 C26.8635021,26.0461823 26.4932989,26.5568989 25.9698683,26.7641742 L26,26.822 L25.784898,26.8229844 C25.6773853,26.8491374 25.5650626,26.863 25.4495021,26.863 C25.3339416,26.863 25.2216189,26.8491374 25.1141062,26.8229844 L1.87824499,26.8222559 C1.57776032,26.9267145 1.25024384,26.9267145 0.949759165,26.8222559 L0.885085982,26.822 C0.886892557,26.8142594 0.888701669,26.806523 0.89051332,26.7987906 C0.823985849,26.7736376 0.759006148,26.7418667 0.696174573,26.7048444 C0.253211968,26.443837 -0.0131695084,25.9629589 0.000502078055,25.449 C0.00766562542,18.9315338 5.28903655,13.6497156 11.8065021,13.642 L15.0555021,13.642 Z" id="path-1"></path>
    </defs>
    <g id="icon/user-fill" stroke="none" stroke-width="1" fill="none" fill-rule="evenodd">
        <g id="color/primary/500" transform="translate(3.000000, 3.000000)">
            <mask id="mask-2" fill="white">
                <use xlink:href="#path-1"></use>
            </mask>
            <g id="Mask" fill-rule="nonzero"></g>
            <g id="Group" mask="url(#mask-2)">
                <g transform="translate(-3.000000, -3.000000)" id="color/primary/500">
                    <rect id="Rectangle-Copy-4" fill="#9DAAB7" x="0" y="2.27373675e-15" width="32" height="32"></rect>
                </g>
            </g>
        </g>
    </g>
</svg>