<?xml version="1.0" encoding="UTF-8"?>
<svg width="32px" height="32px" viewBox="0 0 32 32" version="1.1" xmlns="http://www.w3.org/2000/svg" xmlns:xlink="http://www.w3.org/1999/xlink">
    <title>icon/verified-fill</title>
    <defs>
        <path d="M14.1326392,0 C15.4856397,0 16.7822386,0.542072917 17.7326392,1.50506262 C18.1379809,1.81474777 18.5735173,2.08277021 19.0326392,2.30506262 C19.5404767,2.48265972 20.064726,2.60928351 20.5976392,2.68306262 C21.9222942,2.67556035 23.1948665,3.19846007 24.1315541,4.13514769 C25.0682417,5.0718353 25.5911414,6.34440754 25.5836392,7.66906262 C25.6569519,8.202064 25.7835869,8.72635935 25.9616392,9.23406262 C26.1836312,9.69334901 26.4516717,10.1289149 26.7616392,10.5340626 C27.724879,11.4843291 28.2671255,12.7809782 28.2671255,14.1340626 C28.2671255,15.487147 27.724879,16.7837961 26.7616392,17.7340626 C26.4516717,18.1392103 26.1836312,18.5747762 25.9616392,19.0340626 C25.7835869,19.5417659 25.6569519,20.0660612 25.5836392,20.5990626 C25.5914149,21.9237089 25.0685707,23.1963381 24.1317943,24.1329266 C23.1950179,25.0695151 21.9222838,25.592104 20.5976392,25.5840626 C20.0648922,25.6575063 19.5409085,25.7844819 19.0336392,25.9630626 C18.5741492,26.1846826 18.1385465,26.4527458 17.7336392,26.7630626 C16.7218007,27.6316703 15.4615932,28.1587107 14.1326392,28.2690626 C12.8039683,28.1580209 11.5441876,27.6306627 10.5326392,26.7620626 C10.1275424,26.4520212 9.69196867,26.1839759 9.23263916,25.9620626 C8.72501769,25.7835145 8.20070572,25.6565406 7.66763916,25.5830626 C6.34316732,25.5908357 5.07069175,25.0681283 4.1341326,24.1315692 C3.19757346,23.19501 2.67486608,21.9225345 2.68263916,20.5980626 C2.60935289,20.0650562 2.48271734,19.5407583 2.30463916,19.0330626 C2.08267741,18.5737597 1.814635,18.1381908 1.50463916,17.7330626 C0.541899439,16.7825281 0,15.4859794 0,14.1330626 C0,12.7801459 0.541899439,11.4835972 1.50463916,10.5330626 C1.81482359,10.1280642 2.08287819,9.69247548 2.30463916,9.23306262 C2.48284067,8.72574584 2.60948008,8.20176691 2.68263916,7.66906262 C2.67486864,6.34476515 3.19743921,5.07244316 4.13378112,4.13591339 C5.07012303,3.19938361 6.34234015,2.67655779 7.66663916,2.68406262 C8.20003044,2.61057718 8.72467335,2.48360422 9.23263916,2.30506262 C9.69186277,2.08295598 10.1274174,1.81492234 10.5326392,1.50506262 C11.4830397,0.542072917 12.7796386,0 14.1326392,0 Z M13.0346392,17.7680654 C13.1198758,17.7682335 13.2043269,17.7606715 13.2870558,17.7457673 C13.2905034,17.7448768 13.2947913,17.7440834 13.2990733,17.7432705 C13.3271905,17.7382112 13.3541896,17.7322549 13.3809632,17.725518 C13.3984122,17.7207891 13.4160158,17.7159862 13.4334952,17.710852 C13.4573087,17.7042358 13.4810822,17.6965763 13.5046276,17.6882937 C13.5233537,17.681294 13.5416063,17.6744307 13.5596911,17.6672008 C13.5817595,17.6588153 13.6039953,17.6492705 13.6259756,17.639157 C13.6439477,17.6304431 13.6615227,17.6219043 13.6789036,17.6130108 C13.701123,17.6020768 13.7229116,17.5901871 13.7443884,17.5777186 C13.7636299,17.5661425 13.7829181,17.5543348 13.8019104,17.5420743 C13.8202223,17.5306155 13.8382957,17.5183263 13.8560955,17.5056055 C13.8713775,17.4943932 13.8863123,17.4832904 13.9010262,17.4718948 L13.931014,17.4481727 L13.931014,17.4481727 L13.9608929,17.4228554 C13.9783169,17.4077686 13.995383,17.3922471 14.0120734,17.3763032 L14.0346392,17.3540626 L19.8806392,11.5090626 C20.4329239,10.9567779 20.4329239,10.0613474 19.8806392,9.50906262 C19.3283544,8.95677787 18.4329239,8.95677787 17.8806392,9.50906262 L17.8806392,9.50906262 L12.989,14.399 L10.7566392,12.3640626 C10.4204701,12.0577967 9.96023164,11.9338785 9.52055758,12.0239359 L9.3749596,12.0619234 C8.89349448,12.2152545 8.53040354,12.6137969 8.4224596,13.1074234 C8.31451566,13.60105 8.47811798,14.1147671 8.85163916,14.4550626 L8.85163916,14.4550626 L12.0816392,17.3990626 C12.0986191,17.4145661 12.1159374,17.4296185 12.1335757,17.4442125 C12.1385621,17.4464763 12.1425615,17.4497484 12.1465783,17.4529981 C12.1757934,17.4784774 12.2068912,17.5015743 12.2388079,17.5233103 C12.2473458,17.5274415 12.255299,17.5327488 12.2633054,17.5379751 C12.3723056,17.6106555 12.4911216,17.6663434 12.6155591,17.7048894 C12.6248402,17.7068903 12.6344425,17.7097758 12.644082,17.7125607 C12.7698417,17.7494488 12.9008391,17.7681198 13.0336392,17.7680634 L13.0336392,17.7680634 Z" id="path-1"></path>
    </defs>
    <g id="icon/verified-fill" stroke="none" stroke-width="1" fill="none" fill-rule="evenodd">
        <g id="color/primary/500" transform="translate(2.000000, 2.000000)">
            <mask id="mask-2" fill="white">
                <use xlink:href="#path-1"></use>
            </mask>
            <g id="Mask" fill-rule="nonzero"></g>
            <g id="Group" mask="url(#mask-2)">
                <g transform="translate(-2.000000, -2.000000)" id="color/primary/500">
                    <rect id="Rectangle-Copy-4" fill="#9DAAB7" x="0" y="2.27373675e-15" width="32" height="32"></rect>
                </g>
            </g>
        </g>
    </g>
</svg>