<?xml version="1.0" encoding="UTF-8"?>
<svg width="32px" height="32px" viewBox="0 0 32 32" version="1.1" xmlns="http://www.w3.org/2000/svg" xmlns:xlink="http://www.w3.org/1999/xlink">
    <title>icon/verified</title>
    <defs>
        <path d="M14.1326392,0 C15.4856397,0 16.7822386,0.542072917 17.7326392,1.50506262 C18.1379809,1.81474777 18.5735173,2.08277021 19.0326392,2.30506262 C19.5404767,2.48265972 20.064726,2.60928351 20.5976392,2.68306262 C21.9222942,2.67556035 23.1948665,3.19846007 24.1315541,4.13514769 C25.0682417,5.0718353 25.5911414,6.34440754 25.5836392,7.66906262 C25.6569519,8.202064 25.7835869,8.72635935 25.9616392,9.23406262 C26.1836312,9.69334901 26.4516717,10.1289149 26.7616392,10.5340626 C27.724879,11.4843291 28.2671255,12.7809782 28.2671255,14.1340626 C28.2671255,15.487147 27.724879,16.7837961 26.7616392,17.7340626 C26.4516717,18.1392103 26.1836312,18.5747762 25.9616392,19.0340626 C25.7835869,19.5417659 25.6569519,20.0660612 25.5836392,20.5990626 C25.5914149,21.9237089 25.0685707,23.1963381 24.1317943,24.1329266 C23.1950179,25.0695151 21.9222838,25.592104 20.5976392,25.5840626 C20.0648922,25.6575063 19.5409085,25.7844819 19.0336392,25.9630626 C18.5741492,26.1846826 18.1385465,26.4527458 17.7336392,26.7630626 C16.7218007,27.6316703 15.4615932,28.1587107 14.1326392,28.2690626 C12.8039683,28.1580209 11.5441876,27.6306627 10.5326392,26.7620626 C10.1275424,26.4520212 9.69196867,26.1839759 9.23263916,25.9620626 C8.72501769,25.7835145 8.20070572,25.6565406 7.66763916,25.5830626 C6.34316732,25.5908357 5.07069175,25.0681283 4.1341326,24.1315692 C3.19757346,23.19501 2.67486608,21.9225345 2.68263916,20.5980626 C2.60935289,20.0650562 2.48271734,19.5407583 2.30463916,19.0330626 C2.08267741,18.5737597 1.814635,18.1381908 1.50463916,17.7330626 C0.541899439,16.7825281 0,15.4859794 0,14.1330626 C0,12.7801459 0.541899439,11.4835972 1.50463916,10.5330626 C1.81482359,10.1280642 2.08287819,9.69247548 2.30463916,9.23306262 C2.48284067,8.72574584 2.60948008,8.20176691 2.68263916,7.66906262 C2.67486864,6.34476515 3.19743921,5.07244316 4.13378112,4.13591339 C5.07012303,3.19938361 6.34234015,2.67655779 7.66663916,2.68406262 C8.20003044,2.61057718 8.72467335,2.48360422 9.23263916,2.30506262 C9.69186277,2.08295598 10.1274174,1.81492234 10.5326392,1.50506262 C11.4830397,0.542072917 12.7796386,0 14.1326392,0 Z M14.1326392,2.81906262 C13.3995589,2.9657989 12.7194575,3.30705851 12.1636392,3.80706262 C11.5908476,4.2438217 10.9709928,4.61513081 10.3156392,4.91406262 C9.62066668,5.17604102 8.89899787,5.36081775 8.16363916,5.46506262 C7.41819741,5.35014606 6.6626166,5.59737309 6.12928311,6.13070658 C5.59594962,6.66404007 5.3487226,7.41962087 5.46363916,8.16506262 C5.35819773,8.90018357 5.17345398,9.62172362 4.91263916,10.3170626 C4.61416584,10.972032 4.242822,11.5912739 3.80563916,12.1630626 C3.183872,12.627017 2.81762691,13.357274 2.81762691,14.1330626 C2.81762691,14.9088513 3.183872,15.6391083 3.80563916,16.1030626 C4.24218208,16.6756431 4.6134788,17.2951418 4.91263916,17.9500626 C5.17356435,18.6450232 5.35831223,19.366244 5.46363916,20.1010626 C5.34962965,20.8463164 5.59715473,21.6013376 6.13025946,22.1344423 C6.6633642,22.6675471 7.41838541,22.9150721 8.16363916,22.8010626 C8.89882226,22.9056767 9.62041534,23.0900987 10.3156392,23.3510626 C10.9699621,23.6507645 11.5890711,24.0220287 12.1616392,24.4580626 C12.6255935,25.0798298 13.3558505,25.4460749 14.1316392,25.4460749 C14.9074278,25.4460749 15.6376848,25.0798298 16.1016392,24.4580626 C16.6740452,24.0217897 17.2931817,23.6505091 17.9476392,23.3510626 C18.6431656,23.0899678 19.3651044,22.9055431 20.1006392,22.8010626 C20.8459869,22.9155252 21.6012876,22.668149 22.1345066,22.13493 C22.6677255,21.6017111 22.9151017,20.8464104 22.8006392,20.1010626 C22.9054837,19.3661481 23.0902449,18.6448754 23.3516392,17.9500626 C23.6502932,17.2946635 24.02198,16.6750737 24.4596392,16.1030626 C25.0813908,15.6393184 25.4476535,14.9092131 25.4476535,14.1335626 C25.4476535,13.3579121 25.0813908,12.6278068 24.4596392,12.1640626 C24.0219729,11.5920563 23.6502857,10.9724657 23.3516392,10.3170626 C23.0903419,9.62187547 22.9055845,8.90028227 22.8006392,8.16506262 C22.9146487,7.41980888 22.6671236,6.66478766 22.1340189,6.13168293 C21.6009141,5.5985782 20.8458929,5.35105312 20.1006392,5.46506262 C19.3657829,5.36043985 18.6445222,5.17601707 17.9496392,4.91506262 C17.2945592,4.61580175 16.6750354,4.24415459 16.1026392,3.80706262 C15.5463731,3.30714526 14.8659772,2.96591117 14.1326392,2.81906262 Z M13.0336392,17.7680634 C12.9008391,17.7681198 12.7698417,17.7494488 12.6442235,17.7134366 C12.6344425,17.7097758 12.6248402,17.7068903 12.6152765,17.7039052 C12.4911216,17.6663434 12.3723056,17.6106555 12.2626584,17.5392007 C12.255299,17.5327488 12.2473458,17.5274415 12.2394468,17.5220543 C12.2068912,17.5015743 12.1757934,17.4784774 12.1456053,17.4540548 C12.1425615,17.4497484 12.1385621,17.4464763 12.1345802,17.4431821 C12.1159374,17.4296185 12.0986191,17.4145661 12.0816392,17.3990626 L8.85163916,14.4550626 C8.47811798,14.1147671 8.31451566,13.60105 8.4224596,13.1074234 C8.53040354,12.6137969 8.89349448,12.2152545 9.3749596,12.0619234 C9.85642471,11.9085923 10.383118,12.0237671 10.7566392,12.3640626 L12.989,14.399 L17.8806392,9.50906262 C18.4329239,8.95677787 19.3283544,8.95677787 19.8806392,9.50906262 C20.4329239,10.0613474 20.4329239,10.9567779 19.8806392,11.5090626 L14.0346392,17.3540626 L14.0120734,17.3763032 C13.995383,17.3922471 13.9783169,17.4077686 13.9608929,17.4228554 L14.0346392,17.3540626 C13.9923675,17.396471 13.9476737,17.4359069 13.9008822,17.472236 C13.8863123,17.4832904 13.8713775,17.4943932 13.8562311,17.5051968 C13.8382957,17.5183263 13.8202223,17.5306155 13.801892,17.5424662 C13.7829181,17.5543348 13.7636299,17.5661425 13.7440624,17.5774858 C13.7229116,17.5901871 13.701123,17.6020768 13.679047,17.6133777 C13.6615227,17.6219043 13.6439477,17.6304431 13.6261897,17.6386201 C13.6039953,17.6492705 13.5817595,17.6588153 13.559291,17.6677819 C13.5416063,17.6744307 13.5233537,17.681294 13.5049437,17.6877836 C13.4810822,17.6965763 13.4573087,17.7042358 13.433332,17.7112619 C13.4160158,17.7159862 13.3984122,17.7207891 13.3806926,17.7252549 C13.3541896,17.7322549 13.3271905,17.7382112 13.2999991,17.7433729 C13.2947913,17.7440834 13.2905034,17.7448768 13.2862099,17.7456507 C13.2043269,17.7606715 13.1198758,17.7682335 13.0346392,17.7680654 L13.0336392,17.7680634 Z" id="path-1"></path>
    </defs>
    <g id="icon/verified" stroke="none" stroke-width="1" fill="none" fill-rule="evenodd">
        <g id="color/primary/500" transform="translate(2.000000, 2.000000)">
            <mask id="mask-2" fill="white">
                <use xlink:href="#path-1"></use>
            </mask>
            <g id="Mask" fill-rule="nonzero"></g>
            <g id="Group" mask="url(#mask-2)">
                <g transform="translate(-2.000000, -2.000000)" id="color/primary/500">
                    <rect id="Rectangle-Copy-4" fill="#9DAAB7" x="0" y="2.27373675e-15" width="32" height="32"></rect>
                </g>
            </g>
        </g>
    </g>
</svg>