<?xml version="1.0" encoding="UTF-8"?>
<svg width="32px" height="32px" viewBox="0 0 32 32" version="1.1" xmlns="http://www.w3.org/2000/svg" xmlns:xlink="http://www.w3.org/1999/xlink">
    <title>icon/visibility</title>
    <defs>
        <path d="M14.2312832,6.14740316e-07 C14.7601215,-0.000153195907 15.2885741,0.0285561685 15.8142832,0.0860012344 C16.6413295,0.17629992 17.2385815,0.919954893 17.1482829,1.74700121 C17.0579844,2.57404752 16.3143295,3.17129964 15.4872832,3.08100123 C15.0701572,3.03560226 14.6508725,3.01290214 14.2312832,3.01300123 C9.81258168,3.01300123 5.65552245,5.61408632 3.21866594,9.8521669 C5.65617959,14.0903273 9.81293093,16.6910012 14.2312832,16.6910012 C18.6541757,16.6910012 22.8158333,14.0849797 25.2509632,9.83977212 C23.7028059,7.06578111 21.2375762,4.90507285 18.2662832,3.73700123 C17.7620027,3.54997274 17.3958069,3.10812085 17.3056382,2.57788693 C17.2154694,2.04765301 17.4150265,1.50959221 17.8291382,1.16638685 C18.2432499,0.823181491 18.8090028,0.726972636 19.3132832,0.914001234 C23.2378262,2.43809742 26.4450456,5.38330185 28.2972982,9.16399051 L28.289,9.15 L28.298,9.167 L28.3,9.171 L28.322,9.217 L28.3430558,9.26209164 C28.3705237,9.32689572 28.3932336,9.39310443 28.4112049,9.46021986 C28.432462,9.53903018 28.4471981,9.61932102 28.4553862,9.70020177 C28.4571888,9.72214499 28.4588731,9.74380317 28.4600888,9.76547754 C28.4686286,9.90555794 28.4571303,10.0467837 28.4258494,10.1848643 C28.4224326,10.1952613 28.419963,10.2055959 28.4173829,10.2159084 C28.4098372,10.2505824 28.3999482,10.2850336 28.3887984,10.3191969 C28.3828621,10.3336207 28.3778491,10.3481729 28.3726075,10.3626614 C28.3524503,10.4220495 28.3272939,10.4801869 28.2982832,10.5370012 C25.4112832,16.1910012 20.0212832,19.7040012 14.2312832,19.7040012 C8.44228318,19.7040012 3.05228318,16.1910012 0.16428318,10.5370012 C0.0646667423,10.341913 0.0104956981,10.1312244 0.00101927228,9.91950365 C0.000853972359,9.90159956 0.000356477784,9.88358754 0.000181757269,9.86557026 C-0.00117259329,9.78173447 0.00506155242,9.69802484 0.0182268827,9.6152481 C0.0261022811,9.56800072 0.03598826,9.52037949 0.0482088207,9.47319052 C0.0747826598,9.36968535 0.112812452,9.26856503 0.161901783,9.17164026 L0.16428318,9.16700123 C3.05128318,3.51300123 8.44228318,6.14740316e-07 14.2312832,6.14740316e-07 Z M16.1316168,5.26515031 C17.9865044,6.03379828 19.1956877,7.8441597 19.1952833,9.85200123 C19.191976,12.5920098 16.9712923,14.8122461 14.2312832,14.8150012 C12.2234416,14.8150012 10.4133238,13.6054532 9.64504959,11.7504108 C8.87677533,9.89536831 9.30165742,7.76018497 10.7215588,6.3405696 C12.1414602,4.92095423 14.2767291,4.49650233 16.1316168,5.26515031 Z M14.2312832,7.71500123 C13.0524158,7.71555353 12.0970993,8.67146689 12.0972834,9.85033441 C12.0974675,11.0292019 13.0530825,11.9848169 14.23195,11.985001 C15.4108175,11.9851851 16.3667309,11.0298686 16.3672832,9.85100123 C16.3650803,8.67239668 15.4098886,7.7176522 14.2312832,7.71600123 L14.2312832,7.71500123 Z" id="path-1"></path>
    </defs>
    <g id="icon/visibility" stroke="none" stroke-width="1" fill="none" fill-rule="evenodd">
        <g id="color/primary/500" transform="translate(2.000489, 5.999999)">
            <mask id="mask-2" fill="white">
                <use xlink:href="#path-1"></use>
            </mask>
            <g id="Mask" fill-rule="nonzero"></g>
            <g id="Group" mask="url(#mask-2)">
                <g transform="translate(-2.000489, -5.999999)" id="color/primary/500">
                    <rect id="Rectangle-Copy-4" fill="#9DAAB7" x="0" y="2.27373675e-15" width="32" height="32"></rect>
                </g>
            </g>
        </g>
    </g>
</svg>