<?xml version="1.0" encoding="UTF-8"?>
<svg width="32px" height="32px" viewBox="0 0 32 32" version="1.1" xmlns="http://www.w3.org/2000/svg" xmlns:xlink="http://www.w3.org/1999/xlink">
    <title>icon/visibility_off</title>
    <defs>
        <path d="M19.723,6.558 L25.8684687,0.414213408 C26.4207535,-0.138071196 27.3161839,-0.138071127 27.8684686,0.414213562 C28.4207532,0.966498252 28.4207533,1.86192863 27.8684687,2.41421341 L22.9479604,7.33589235 C25.1315253,8.94380566 26.9095148,11.0529696 28.1254687,13.4962134 C28.3077459,13.8542287 28.3274912,14.2685861 28.188693,14.6370165 C28.1829285,14.6493082 28.1780805,14.6620079 28.1730364,14.6746706 C28.1634966,14.7000155 28.1524623,14.7248698 28.1406815,14.7494575 C28.1357601,14.7601477 28.1306859,14.7706975 28.1254687,14.7812134 C25.2554687,20.4052134 19.8974687,23.8982143 14.1424687,23.8982143 C11.9509352,23.8989984 9.79246435,23.404167 7.82675374,22.4565396 L2.41846871,27.8642134 C2.15311045,28.1298037 1.79290562,28.2787795 1.41746871,28.278215 C0.845465246,28.2783356 0.329730679,27.9338241 0.110817897,27.4053687 C-0.108094886,26.8769132 0.0129400705,26.2686198 0.417468708,25.8642134 L19.723,6.558 Z M20.9204686,9.3613963 L18.5085346,11.7728693 C19.2101579,13.0667101 19.3130671,14.6328417 18.7310619,16.0381796 C17.9629218,17.8929675 16.1530237,19.1022297 14.1454687,19.1022297 L14.1424687,19.1022297 C13.3091336,19.1043627 12.4971443,18.8955949 11.7778002,18.5054457 L9.97710452,20.3060609 C11.3021463,20.8094105 12.7125523,21.0702076 14.1404687,21.0702134 C18.611494,21.0702134 22.8158997,18.431317 25.2641403,14.13093 C24.1982731,12.229295 22.7116828,10.5984542 20.9204686,9.3613963 Z M14.1424687,4.38021341 C15.2430316,4.38132348 16.3398459,4.5084855 17.4114687,4.75921341 C17.9145133,4.86335064 18.3215065,5.2321228 18.4745882,5.72249451 C18.6276698,6.21286621 18.5027554,6.74768652 18.1482953,7.11951506 C17.7938352,7.49134359 17.2655973,7.64168 16.7684687,7.51221341 C15.9074553,7.31230973 15.0263834,7.21165414 14.1424687,7.21221341 C9.67261278,7.21221341 5.47094147,9.84860454 3.02227929,14.1445058 C3.69225364,15.3239918 4.51949581,16.407479 5.48146871,17.3662134 C5.88822127,17.7695954 6.01140002,18.3785367 5.79340619,18.9082946 C5.59357853,19.393906 5.14326967,19.7250133 4.62836049,19.7770434 L4.488,19.784 L4.35095579,19.7777783 C4.02775575,19.7468264 3.72337398,19.6054607 3.49046871,19.3752134 C2.14141146,18.0308825 1.01528118,16.4800904 0.154468708,14.7812134 C-0.0665990714,14.3480239 -0.0489233668,13.8329417 0.19812219,13.4170267 L0.158468708,13.4962134 C3.02846871,7.87321341 8.38646871,4.38021341 14.1424687,4.38021341 Z M16.2931358,13.9901518 L13.9952001,16.288411 C14.2309283,16.307103 14.4714867,16.286771 14.7072512,16.224744 C15.4517176,16.028883 16.0332053,15.4475878 16.2293127,14.7031863 C16.291506,14.4671075 16.3118873,14.2262073 16.2931358,13.9901518 Z" id="path-1"></path>
    </defs>
    <g id="icon/visibility_off" stroke="none" stroke-width="1" fill="none" fill-rule="evenodd">
        <g id="color/primary/500" transform="translate(2.000000, 2.000000)">
            <mask id="mask-2" fill="white">
                <use xlink:href="#path-1"></use>
            </mask>
            <g id="Mask" fill-rule="nonzero"></g>
            <g id="Group" mask="url(#mask-2)">
                <g transform="translate(-2.000000, -2.000000)" id="color/primary/500">
                    <rect id="Rectangle-Copy-4" fill="#9DAAB7" x="0" y="2.27373675e-15" width="32" height="32"></rect>
                </g>
            </g>
        </g>
    </g>
</svg>