<?xml version="1.0" encoding="UTF-8"?>
<svg width="32px" height="32px" viewBox="0 0 32 32" version="1.1" xmlns="http://www.w3.org/2000/svg" xmlns:xlink="http://www.w3.org/1999/xlink">
    <title>icon/volume_off</title>
    <defs>
        <path d="M13.1241003,0.173430285 C13.9021643,0.508873901 14.406,1.27501966 14.406,2.12231297 L14.406,16.830313 C14.4048967,18.0021943 13.4548817,18.9517618 12.283,18.952313 L12.283,18.9543137 C11.7419399,18.9547535 11.2212657,18.7479153 10.828,18.376313 L6.939,14.705313 C6.8072175,14.580479 6.6325215,14.5110302 6.451,14.511313 L3.538,14.511313 C1.5845404,14.5091076 0.00165329566,12.9257731 0,10.972313 L0,7.98031297 C0.00220323126,6.02708088 1.58476861,4.44406819 3.538,4.44131297 L6.451,4.44131297 C6.6323451,4.44166194 6.80695021,4.37260705 6.939,4.24831297 L10.827,0.579312967 C11.4429991,-0.00245252319 12.3460363,-0.162013332 13.1241003,0.173430285 Z M27.865,3.89731297 C28.4172847,4.44959772 28.4172847,5.34502822 27.865,5.89731297 L24.2836565,9.4780994 L27.864,13.058313 C28.2685286,13.4627194 28.3895636,14.0710128 28.1706508,14.5994682 C27.9699808,15.0838857 27.519898,15.4137392 27.0056894,15.4652577 L26.865,15.4723143 C26.4898657,15.472834 26.1299883,15.3238448 25.865,15.058313 L22.2846565,11.4780994 L18.705,15.058313 C18.4397044,15.3239969 18.0794588,15.4729896 17.704,15.4723153 C17.1319965,15.4724352 16.616262,15.1279237 16.3973492,14.5994682 C16.1784364,14.0710128 16.2994714,13.4627194 16.704,13.058313 L20.2846565,9.4780994 L16.704,5.89731297 C16.1517153,5.34502822 16.1517153,4.44959772 16.704,3.89731297 C17.2562847,3.34502822 18.1517153,3.34502822 18.704,3.89731297 L22.2836565,7.4780994 L25.865,3.89731297 C26.4172847,3.34502822 27.3127153,3.34502822 27.865,3.89731297 Z M11.581,3.76031297 L8.881,6.30631297 C8.22459954,6.92750613 7.3547366,7.27294553 6.451,7.27131297 L3.538,7.27131297 C3.1459445,7.27241387 2.8285491,7.59025631 2.828,7.98231297 L2.828,10.972313 C2.828,11.36476 3.14555453,11.6832106 3.538,11.684313 L6.451,11.684313 C7.35497218,11.6824377 8.22503663,12.0283152 8.881,12.650313 L11.581,15.196313 L11.581,3.76031297 Z" id="path-1"></path>
    </defs>
    <g id="icon/volume_off" stroke="none" stroke-width="1" fill="none" fill-rule="evenodd">
        <g id="color/primary/500" transform="translate(2.000000, 7.000000)">
            <mask id="mask-2" fill="white">
                <use xlink:href="#path-1"></use>
            </mask>
            <g id="Mask" fill-rule="nonzero"></g>
            <g id="Group" mask="url(#mask-2)">
                <g transform="translate(-2.000000, -7.000000)" id="color/primary/500">
                    <rect id="Rectangle-Copy-4" fill="#9DAAB7" x="0" y="2.27373675e-15" width="32" height="32"></rect>
                </g>
            </g>
        </g>
    </g>
</svg>