<?xml version="1.0" encoding="UTF-8"?>
<svg width="32px" height="32px" viewBox="0 0 32 32" version="1.1" xmlns="http://www.w3.org/2000/svg" xmlns:xlink="http://www.w3.org/1999/xlink">
    <title>icon/volume_offset</title>
    <defs>
        <path d="M4.34574626,17.359 C5.12667689,17.359 5.75974626,17.9920694 5.75974626,18.773 L5.75974626,26.157 C5.75919472,26.9377021 5.12644832,27.5704485 4.34574626,27.571 C3.56504419,27.5704485 2.9322978,26.9377021 2.93174626,26.157 L2.93174626,18.773 C2.93174626,17.9920694 3.56481562,17.359 4.34574626,17.359 Z M23.1392463,19.2435 C23.9199008,19.2435 24.5527463,19.8763455 24.5527463,20.657 L24.5527463,26.157 C24.5527463,26.8916261 23.9925049,27.4954774 23.2758529,27.564437 L23.1397463,27.571 C22.3590442,27.5704485 21.7262978,26.9377021 21.7257463,26.157 L21.7257463,20.657 C21.7257463,19.8763455 22.3585918,19.2435 23.1392463,19.2435 Z M16.1187463,6.143 C17.0811024,6.143 17.8612463,6.92314382 17.8612463,7.8855 C17.8612463,8.84785618 17.0811024,9.628 16.1187463,9.628 L15.155,9.628 L15.1557463,26.161 C15.1536724,26.8941557 14.5938798,27.4957649 13.8785876,27.5644623 L13.7417463,27.571 L13.6066097,27.5644387 C12.889791,27.4954958 12.3292654,26.8917784 12.3287463,26.157 L12.328,9.628 L11.3657463,9.628 C10.4033901,9.628 9.62324626,8.84785618 9.62324626,7.8855 C9.62324626,6.92314382 10.4033901,6.143 11.3657463,6.143 L16.1187463,6.143 Z M23.1392463,0.0005 C23.9199008,0.0005 24.5527463,0.633345506 24.5527463,1.414 L24.552,14.529 L25.5157463,14.53 C26.4781024,14.53 27.2582463,15.3101438 27.2582463,16.2725 C27.2582463,17.2348562 26.4781024,18.015 25.5157463,18.015 L20.7627463,18.015 C19.8003901,18.015 19.0202463,17.2348562 19.0202463,16.2725 C19.0202463,15.3101438 19.8003901,14.53 20.7627463,14.53 L21.725,14.529 L21.7257463,1.414 C21.7257463,0.633345506 22.3585918,0.0005 23.1392463,0.0005 Z M4.34574626,0 C5.12667689,0 5.75974626,0.633069364 5.75974626,1.414 L5.759,12.612 L6.53774626,12.612 C7.48384276,12.6346663 8.239,13.408132 8.239,14.3545 C8.239,15.300868 7.48384276,16.0743337 6.53774626,16.097 L6.53774626,16.097 L1.78474626,16.097 C1.15225917,16.1121529 0.561222986,15.7833882 0.240524137,15.2380244 C-0.0801747123,14.6926605 -0.0801747123,14.0163395 0.240524137,13.4709756 C0.561222986,12.9256118 1.15225917,12.5968471 1.78474626,12.612 L2.931,12.612 L2.93174626,1.414 C2.93174626,0.633069364 3.56481562,0 4.34574626,0 Z M13.7422463,0.033599867 C14.5085316,0.033599867 15.1353699,0.643985604 15.1557463,1.41 L15.1557463,3.883 C15.1557463,4.61762614 14.5955049,5.22147742 13.8788529,5.290437 L13.7427463,5.297 C12.9618156,5.297 12.3287463,4.66393064 12.3287463,3.883 L12.3287463,1.41 C12.3491227,0.643985604 12.9759609,0.033599867 13.7422463,0.033599867 Z" id="path-1"></path>
    </defs>
    <g id="icon/volume_offset" stroke="none" stroke-width="1" fill="none" fill-rule="evenodd">
        <g id="color/primary/500" transform="translate(2.000000, 2.000000)">
            <mask id="mask-2" fill="white">
                <use xlink:href="#path-1"></use>
            </mask>
            <g id="Mask" fill-rule="nonzero"></g>
            <g id="Group" mask="url(#mask-2)">
                <g transform="translate(-2.000000, -2.000000)" id="color/primary/500">
                    <rect id="Rectangle-Copy-4" fill="#9DAAB7" x="0" y="2.27373675e-15" width="32" height="32"></rect>
                </g>
            </g>
        </g>
    </g>
</svg>