<?xml version="1.0" encoding="UTF-8"?>
<svg width="32px" height="32px" viewBox="0 0 32 32" version="1.1" xmlns="http://www.w3.org/2000/svg" xmlns:xlink="http://www.w3.org/1999/xlink">
    <title>icon/volume_on</title>
    <defs>
        <path d="M13.1026412,1.03074138 C13.8801826,1.36592978 14.3840002,2.13145171 14.3840002,2.97816415 L14.3840002,17.6581642 C14.3842654,18.2207697 14.1608888,18.7604086 13.7630666,19.1582308 C13.3652444,19.556053 12.8256055,19.7794296 12.263,19.7791644 L12.264,19.7771642 C11.7225736,19.7769803 11.2016951,19.5698452 10.808,19.1981642 L6.928,15.5351642 C6.79710699,15.4110699 6.62336518,15.3422896 6.443,15.3431642 L3.535,15.3431642 C1.58358722,15.3409598 0.0022043656,13.7595769 0,11.8081642 L0,8.82316415 C0.00330585156,6.87253246 1.58436675,5.29236608 3.535,5.29016415 L6.442,5.29016415 C6.62236518,5.29103867 6.79610699,5.22225841 6.927,5.09816415 L10.807,1.43616415 C11.4226949,0.85492259 12.3250997,0.695552973 13.1026412,1.03074138 Z M23.796,0.326164153 C26.6384414,2.68307887 28.2832668,6.18366901 28.2832668,9.87616415 C28.2832668,13.5686593 26.6384414,17.0692494 23.796,19.4261642 C23.5416237,19.6374506 23.2206689,19.7518749 22.89,19.7492112 C22.2957672,19.746842 21.7663905,19.3732347 21.5651108,18.8141243 C21.363831,18.2550138 21.533601,17.6297137 21.99,17.2491642 C24.1852228,15.4293344 25.4555729,12.726117 25.4555729,9.87466415 C25.4555729,7.02321126 24.1852228,4.31999392 21.99,2.50016415 C21.6016523,2.17755333 21.4149151,1.6722676 21.5001304,1.17464321 C21.5853457,0.677018829 21.9295674,0.26265677 22.4031304,0.0876432134 C22.8766934,-0.0873703431 23.4076523,0.00355332538 23.796,0.326164153 Z M11.556,4.61616415 L8.869,7.15316415 C8.21370071,7.77406896 7.3447379,8.11921941 6.442,8.11716415 L3.535,8.11616415 C3.14476306,8.11671495 2.82855079,8.43292721 2.828,8.82316415 L2.828,11.8081642 C2.82855079,12.1984011 3.14476306,12.5146134 3.535,12.5151642 L6.442,12.5151642 C7.34464037,12.5136214 8.21341999,12.8586991 8.869,13.4791642 L11.556,16.0161642 L11.556,4.61616415 Z M19.45,4.78916415 C21.1080757,5.95106053 22.0953875,7.84851155 22.0953875,9.87316415 C22.0953875,11.8978168 21.1080757,13.7952678 19.45,14.9571642 C19.2115182,15.1253108 18.9267992,15.2154427 18.635,15.2151652 C18.0182831,15.2159128 17.4722171,14.8168724 17.285585,14.2290726 C17.0989528,13.6412727 17.3148092,13.0003146 17.819,12.6451642 C18.7258902,12.0133504 19.2664502,10.9779417 19.2664502,9.87266415 C19.2664502,8.76738664 18.7258902,7.73197789 17.819,7.10016415 C17.1808351,6.64977591 17.0286119,5.76732922 17.4790001,5.12916423 C17.9293883,4.49099925 18.811835,4.33877603 19.45,4.78916415 Z" id="path-1"></path>
    </defs>
    <g id="icon/volume_on" stroke="none" stroke-width="1" fill="none" fill-rule="evenodd">
        <g id="color/primary/500" transform="translate(2.000000, 6.000000)">
            <mask id="mask-2" fill="white">
                <use xlink:href="#path-1"></use>
            </mask>
            <g id="Mask" fill-rule="nonzero"></g>
            <g id="Group" mask="url(#mask-2)">
                <g transform="translate(-2.000000, -6.000000)" id="color/primary/500">
                    <rect id="Rectangle-Copy-4" fill="#9DAAB7" x="0" y="2.27373675e-15" width="32" height="32"></rect>
                </g>
            </g>
        </g>
    </g>
</svg>