<?xml version="1.0" encoding="UTF-8"?>
<svg width="32px" height="32px" viewBox="0 0 32 32" version="1.1" xmlns="http://www.w3.org/2000/svg" xmlns:xlink="http://www.w3.org/1999/xlink">
    <title>icon/wallet</title>
    <defs>
        <path d="M24.037,0 C26.3786497,0.00275520902 28.2762448,1.90035029 28.279,4.242 L28.279,4.72 C28.279,5.5009305 27.6459305,6.13399966 26.865,6.13399966 C26.0840695,6.13399966 25.4510002,5.5009305 25.451,4.72 L25.451,4.242 C25.4498984,3.46152611 24.8174739,2.82910159 24.037,2.828 L5.002,2.828 C3.83386104,2.82977074 2.87512357,3.75277064 2.829,4.92 C2.87295375,6.00081553 3.76129182,6.85474925 4.843,6.856 L24.037,6.856 C26.3786497,6.85875521 28.2762448,8.75635029 28.279,11.098 L28.279,21.198 C28.2740436,23.1474599 26.6934649,24.7258029 24.744,24.728 L5.656,24.728 C2.53364828,24.724693 0.00330699489,22.1943517 0,19.072 L0,4.842 L0,4.842 C0.00330697663,2.16881788 2.16981726,0.00275495135 4.843,0 L24.037,0 Z M2.828,9.245 L2.828,19.072 C2.82910308,20.6334041 4.09459586,21.8988969 5.656,21.9 L24.744,21.9 C25.1342369,21.8994492 25.4504492,21.5832369 25.451,21.193 L25.45,19.539 L20.555,19.54 C18.6035872,19.5377956 17.0222044,17.9564128 17.02,16.005 L17.02,15.178 C17.0222044,13.2265872 18.6035872,11.6452044 20.555,11.643 L25.45,11.642 L25.451,11.093 C25.4498984,10.3125261 24.8174739,9.68010159 24.037,9.679 L4.843,9.679 C4.14787675,9.68151015 3.4604549,9.53345006 2.828,9.245 Z M25.45,14.47 L20.555,14.471 C20.1647631,14.4715508 19.8485508,14.7877631 19.848,15.178 L19.848,16.005 C19.8485508,16.3952369 20.1647631,16.7114492 20.555,16.712 L25.45,16.711 L25.45,14.47 Z" id="path-1"></path>
    </defs>
    <g id="icon/wallet" stroke="none" stroke-width="1" fill="none" fill-rule="evenodd">
        <g id="color/primary/500" transform="translate(2.000000, 4.000000)">
            <mask id="mask-2" fill="white">
                <use xlink:href="#path-1"></use>
            </mask>
            <g id="Mask" fill-rule="nonzero"></g>
            <g id="Group" mask="url(#mask-2)">
                <g transform="translate(-2.000000, -4.000000)" id="color/primary/500">
                    <rect id="Rectangle-Copy-4" fill="#9DAAB7" x="0" y="2.27373675e-15" width="32" height="32"></rect>
                </g>
            </g>
        </g>
    </g>
</svg>