<?xml version="1.0" encoding="UTF-8"?>
<svg width="32px" height="32px" viewBox="0 0 32 32" version="1.1" xmlns="http://www.w3.org/2000/svg" xmlns:xlink="http://www.w3.org/1999/xlink">
    <title>icon/warningtriangle_outline</title>
    <defs>
        <path d="M14.5755,4.11591 C15.1471,3.79407 15.792,3.625 16.448,3.625 C17.104,3.625 17.749,3.79407 18.3206,4.11591 C18.8922,4.43774 19.3713,4.90147 19.7115,5.46236 L19.7155,5.46889 L30.057,22.7333 L30.0681,22.7523 C30.4014,23.3294 30.5778,23.9838 30.5796,24.6503 C30.5815,25.3168 30.4088,25.9721 30.0788,26.5511 C29.7487,27.1301 29.2728,27.6126 28.6984,27.9506 C28.124,28.2886 27.4711,28.4703 26.8047,28.4777 L26.7896,28.4777 H6.10649 L6.09138,28.4777 C5.42494,28.4703 4.77204,28.2886 4.19763,27.9506 C3.62321,27.6126 3.14731,27.1301 2.81727,26.5511 C2.48723,25.9721 2.31455,25.3168 2.31642,24.6503 C2.31829,23.9838 2.49463,23.3294 2.82791,22.7523 L2.83908,22.7333 L13.1845,5.46235 C13.5248,4.90146 14.0038,4.43774 14.5755,4.11591 Z M16.448,6.375 C16.2647,6.375 16.0844,6.42226 15.9246,6.51222 C15.7657,6.60169 15.6324,6.73038 15.5374,6.88601 C15.5369,6.88687 15.5363,6.88773 15.5358,6.88859 L5.20501,24.1351 C5.11468,24.2945 5.06692,24.4746 5.06641,24.658 C5.06589,24.8443 5.11416,25.0275 5.20641,25.1893 C5.29867,25.3512 5.43169,25.486 5.59225,25.5805 C5.75108,25.674 5.93136,25.7247 6.11554,25.7277 H26.7805 C26.9647,25.7247 27.145,25.674 27.3038,25.5805 C27.4644,25.486 27.5974,25.3512 27.6896,25.1893 C27.7819,25.0275 27.8302,24.8443 27.8296,24.658 C27.8291,24.4746 27.7814,24.2945 27.691,24.1351 L17.3602,6.88859 C17.3597,6.88773 17.3592,6.88687 17.3587,6.88601 C17.2637,6.73038 17.1304,6.60169 16.9715,6.51222 C16.8117,6.42226 16.6314,6.375 16.448,6.375 Z" id="path-1"></path>
        <path d="M16.4482,11.0762 C17.2076,11.0762 17.8232,11.6918 17.8232,12.4512 L17.8232,17.335 C17.8232,18.0944 17.2076,18.71 16.4482,18.71 C15.6889,18.71 15.0732,18.0944 15.0732,17.335 L15.0732,12.4512 C15.0732,11.6918 15.6889,11.0762 16.4482,11.0762 Z" id="path-2"></path>
        <path d="M15.0732,22.2188 C15.0732,21.4594 15.6889,20.8438 16.4482,20.8438 L16.4605,20.8438 C17.2198,20.8438 17.8355,21.4594 17.8355,22.2188 C17.8355,22.9781 17.2198,23.5938 16.4605,23.5938 L16.4482,23.5938 C15.6889,23.5938 15.0732,22.9781 15.0732,22.2188 Z" id="path-3"></path>
    </defs>
    <g id="icon/warningtriangle_outline" stroke="none" stroke-width="1" fill="none" fill-rule="evenodd">
        <g id="color/primary/500" transform="translate(0.000000, 0.000000)">
            <mask id="mask-2" fill="white">
                <use xlink:href="#path-1"/>
                <use xlink:href="#path-2"/>
                <use xlink:href="#path-3"/>
            </mask>
            <g id="Mask" fill-rule="nonzero"></g>
            <g id="Group" mask="url(#mask-2)">
                <g transform="translate(0.000000, 0.000000)" id="color/primary/500">
                    <rect id="Rectangle-Copy-4" fill="#9DAAB7" x="0" y="0" width="32" height="32"></rect>
                </g>
            </g>
        </g>
    </g>
</svg>