<svg width="32" height="32" viewBox="0 0 32 32" fill="none" xmlns="http://www.w3.org/2000/svg">
<path fill-rule="evenodd" clip-rule="evenodd" d="M14.5755 4.11591C15.1471 3.79407 15.792 3.625 16.448 3.625C17.104 3.625 17.749 3.79407 18.3206 4.11591C18.8922 4.43774 19.3713 4.90147 19.7115 5.46236L19.7155 5.46889L30.057 22.7333L30.0681 22.7523C30.4014 23.3294 30.5778 23.9838 30.5796 24.6503C30.5815 25.3168 30.4088 25.9721 30.0788 26.5511C29.7487 27.1301 29.2728 27.6126 28.6984 27.9506C28.124 28.2886 27.4711 28.4703 26.8047 28.4777L26.7896 28.4777H6.10649L6.09138 28.4777C5.42494 28.4703 4.77204 28.2886 4.19763 27.9506C3.62321 27.6126 3.14731 27.1301 2.81727 26.5511C2.48723 25.9721 2.31455 25.3168 2.31642 24.6503C2.31829 23.9838 2.49463 23.3294 2.82791 22.7523L2.83908 22.7333L13.1845 5.46235C13.5248 4.90146 14.0038 4.43774 14.5755 4.11591ZM16.448 6.375C16.2647 6.375 16.0844 6.42226 15.9246 6.51222C15.7657 6.60169 15.6324 6.73038 15.5374 6.88601C15.5369 6.88687 15.5363 6.88773 15.5358 6.88859L5.20501 24.1351C5.11468 24.2945 5.06692 24.4746 5.06641 24.658C5.06589 24.8443 5.11416 25.0275 5.20641 25.1893C5.29867 25.3512 5.43169 25.486 5.59225 25.5805C5.75108 25.674 5.93136 25.7247 6.11554 25.7277H26.7805C26.9647 25.7247 27.145 25.674 27.3038 25.5805C27.4644 25.486 27.5974 25.3512 27.6896 25.1893C27.7819 25.0275 27.8302 24.8443 27.8296 24.658C27.8291 24.4746 27.7814 24.2945 27.691 24.1351L17.3602 6.88859C17.3597 6.88773 17.3592 6.88687 17.3587 6.88601C17.2637 6.73038 17.1304 6.60169 16.9715 6.51222C16.8117 6.42226 16.6314 6.375 16.448 6.375Z" fill="#9CA7B8"/>
<path fill-rule="evenodd" clip-rule="evenodd" d="M16.4482 11.0762C17.2076 11.0762 17.8232 11.6918 17.8232 12.4512V17.335C17.8232 18.0944 17.2076 18.71 16.4482 18.71C15.6889 18.71 15.0732 18.0944 15.0732 17.335V12.4512C15.0732 11.6918 15.6889 11.0762 16.4482 11.0762Z" fill="#9CA7B8"/>
<path fill-rule="evenodd" clip-rule="evenodd" d="M15.0732 22.2188C15.0732 21.4594 15.6889 20.8438 16.4482 20.8438H16.4605C17.2198 20.8438 17.8355 21.4594 17.8355 22.2188C17.8355 22.9781 17.2198 23.5938 16.4605 23.5938H16.4482C15.6889 23.5938 15.0732 22.9781 15.0732 22.2188Z" fill="#9CA7B8"/>
</svg>
