<?xml version="1.0" encoding="UTF-8"?>
<svg width="32px" height="32px" viewBox="0 0 32 32" version="1.1" xmlns="http://www.w3.org/2000/svg" xmlns:xlink="http://www.w3.org/1999/xlink">
    <title>icon/watch</title>
    <defs>
        <path d="M13.594,25.447 C14.3749306,25.447 15.008,26.0800694 15.008,26.861 C15.008,27.6419306 14.3749306,28.275 13.594,28.275 L6.694,28.275 C5.91306936,28.275 5.28,27.6419306 5.28,26.861 C5.28,26.0800694 5.91306936,25.447 6.694,25.447 L13.594,25.447 Z M16.042,3.999 C18.3836497,4.00175521 20.2812448,5.89935029 20.284,8.241 L20.284,20.041 C20.2812538,22.3803125 18.3873062,24.2769426 16.048,24.283 L4.242,24.283 C1.90035029,24.2802448 0.00275520902,22.3826497 0,20.041 L0,8.241 C0.00275520902,5.89935029 1.90035029,4.00175521 4.242,3.999 L16.042,3.999 Z M16.048,6.822 L4.248,6.822 C3.46752611,6.82310159 2.83510159,7.45552611 2.834,8.236 L2.834,20.036 C2.83510159,20.8164739 3.46752611,21.4488984 4.248,21.45 L16.048,21.45 C16.8284739,21.4488984 17.4608984,20.8164739 17.462,20.036 L17.462,8.236 C17.4608984,7.45552611 16.8284739,6.82310159 16.048,6.822 Z M10.142,8.361 C10.9229306,8.361 11.556,8.99406936 11.556,9.775 L11.556,12.729 L14.217,12.729 C14.9979306,12.729 15.631,13.3620694 15.631,14.143 C15.631,14.9239306 14.9979306,15.557 14.217,15.557 L14.221,15.553 L10.142,15.553 C9.36106936,15.553 8.728,14.9199306 8.728,14.139 L8.728,9.775 C8.728,8.99406936 9.36106936,8.361 10.142,8.361 Z M13.594,0 C14.3749306,0 15.008,0.633069364 15.008,1.414 C15.008,2.19493064 14.3749306,2.828 13.594,2.828 L6.694,2.828 C5.91306936,2.828 5.28,2.19493064 5.28,1.414 C5.28,0.633069364 5.91306936,0 6.694,0 L13.594,0 Z" id="path-1"></path>
    </defs>
    <g id="icon/watch" stroke="none" stroke-width="1" fill="none" fill-rule="evenodd">
        <g id="color/primary/500" transform="translate(6.000000, 2.000000)">
            <mask id="mask-2" fill="white">
                <use xlink:href="#path-1"></use>
            </mask>
            <g id="Mask" fill-rule="nonzero"></g>
            <g id="Group" mask="url(#mask-2)">
                <g transform="translate(-6.000000, -2.000000)" id="color/primary/500">
                    <rect id="Rectangle-Copy-4" fill="#9DAAB7" x="0" y="2.27373675e-15" width="32" height="32"></rect>
                </g>
            </g>
        </g>
    </g>
</svg>