<?xml version="1.0" encoding="UTF-8"?>
<svg width="32px" height="32px" viewBox="0 0 32 32" version="1.1" xmlns="http://www.w3.org/2000/svg" xmlns:xlink="http://www.w3.org/1999/xlink">
    <title>icon/water</title>
    <defs>
        <path d="M11.4424497,0.000525051673 L11.474507,0.00163285507 C11.4961812,0.00267565219 11.5178583,0.00421922619 11.5395206,0.00626750203 C11.5627265,0.00873080716 11.5861017,0.011561303 11.6093844,0.0149684876 C11.6317717,0.017895542 11.653839,0.0216432939 11.675852,0.0259276807 C11.6993338,0.0308913229 11.7227607,0.0360795705 11.7460441,0.041857267 C11.7670472,0.0466791296 11.7880966,0.0524269062 11.8090595,0.0586827679 C11.8305356,0.065427226 11.8518993,0.0723361207 11.8730983,0.0797516253 C11.8959317,0.0875041339 11.9186272,0.0961432068 11.9411747,0.105405447 C11.9627232,0.114344126 11.9840639,0.123679866 12.0051832,0.133547829 C12.0232741,0.142075181 12.0412509,0.150991219 12.0591034,0.160325173 C12.0871524,0.174736384 12.1149438,0.190398512 12.1422334,0.207028512 C12.1496595,0.211931901 12.1572044,0.216637552 12.1647214,0.221423061 C12.5817214,0.488423061 22.3967214,6.84542306 22.8007214,16.5414231 C22.8890412,19.6221523 21.7274341,22.6076042 19.5801989,24.8185031 C17.5124909,26.9475168 14.7001512,28.1839296 11.7425889,28.2741179 L11.4047214,28.2794231 L11.403,28.279 L11.0628438,28.274148 C8.10519254,28.1842136 5.2926984,26.9478796 3.22493214,24.8188059 C1.07763641,22.6078447 -0.0838786753,19.6222311 0.00472137733,16.5414231 C0.0358148139,15.784558 0.65821803,15.1868568 1.41572138,15.1864231 L1.47572138,15.1864231 C2.25590644,15.2194243 2.86187508,15.8782026 2.82972138,16.6584231 C2.7567531,18.9415637 3.61345448,21.1565734 5.20372138,22.7964231 C6.81751532,24.4960052 9.060032,25.455947 11.4037214,25.4504231 L11.419,25.451 L11.7191801,25.4452838 C13.9154493,25.3621666 16.0010296,24.4389704 17.5408065,22.8594909 C19.153906,21.2047982 20.031718,18.9696098 19.9757214,16.6594231 C19.6926552,9.86170874 13.5830897,4.74894583 11.4066089,3.14051773 C9.72021638,4.39204783 5.65508002,7.76004191 3.78972138,12.3704231 C3.64672138,12.7254231 3.51772138,13.0834231 3.40772138,13.4344231 C3.22298881,14.023667 2.67724405,14.4248785 2.05972138,14.4254231 C1.60946223,14.4254231 1.18612537,14.2109535 0.91958464,13.8480632 C0.653043909,13.4851729 0.575120927,13.0170927 0.709721377,12.5874231 C0.842721377,12.1664231 0.996721377,11.7364231 1.16772138,11.3124231 C3.88372138,4.58442306 10.3677214,0.396423061 10.6457214,0.221423061 L10.6736454,0.203732683 C10.6976715,0.189239704 10.7220817,0.17549395 10.7468384,0.16250382 L10.6457214,0.221423061 C10.6983047,0.187946905 10.7522593,0.15837858 10.8072445,0.132642473 C10.8275491,0.123168394 10.8483101,0.114102913 10.8692594,0.105545509 C10.8918156,0.0961432068 10.9145111,0.0875041339 10.937332,0.0794832146 C10.9585435,0.0723361207 10.9799072,0.065427226 11.0014155,0.0590293663 C11.0223461,0.0524269062 11.0433955,0.0466791296 11.0645144,0.0414356594 C11.0872657,0.0361829013 11.110271,0.0310770892 11.1333916,0.0265449588 C11.1565171,0.0216431989 11.1795067,0.0177453773 11.2025344,0.0144252598 C11.224932,0.0114956967 11.2476562,0.00874838464 11.2704462,0.0065508433 C11.2918299,0.00427925687 11.3134922,0.00272495 11.3351518,0.00167079039 C11.3590531,0.000604709724 11.3824068,1.27538808e-05 11.4057858,-1.86979338e-14 L11.4424497,0.000525051673 L11.4424497,0.000525051673 Z" id="path-1"></path>
    </defs>
    <g id="icon/water" stroke="none" stroke-width="1" fill="none" fill-rule="evenodd">
        <g id="color/primary/500" transform="translate(5.000000, 2.000000)">
            <mask id="mask-2" fill="white">
                <use xlink:href="#path-1"></use>
            </mask>
            <g id="Mask" fill-rule="nonzero"></g>
            <g id="Group" mask="url(#mask-2)">
                <g transform="translate(-5.000000, -2.000000)" id="color/primary/500">
                    <rect id="Rectangle-Copy-4" fill="#9DAAB7" x="0" y="2.27373675e-15" width="32" height="32"></rect>
                </g>
            </g>
        </g>
    </g>
</svg>