<?xml version="1.0" encoding="UTF-8"?>
<svg width="32px" height="32px" viewBox="0 0 32 32" version="1.1" xmlns="http://www.w3.org/2000/svg" xmlns:xlink="http://www.w3.org/1999/xlink">
    <title>icon/wave</title>
    <defs>
        <path d="M24.339,15.289 L24.35,15.289 C23.8646885,15.2842723 23.460306,15.6596762 23.429,16.144 L23.429,18.61 C23.4267948,20.4646007 21.9236012,21.9673469 20.069,21.969 C18.2147893,21.9667959 16.7122041,20.4642107 16.71,18.61 L16.71,13.875 L16.713,13.796 L16.714,3.36 C16.714,3.06618451 16.4758155,2.828 16.182,2.828 C15.8881845,2.828 15.65,3.06618451 15.65,3.36 L15.65,13.876 L15.645,13.966 L15.646,22.458 C15.6437948,24.3126007 14.1406012,25.8153469 12.286,25.817 C10.4313988,25.8153469 8.92820515,24.3126007 8.926,22.458 L8.926101,13.8930768 C8.92603373,13.8873926 8.926,13.8817002 8.926,13.876 L8.926,8.349 C8.926,8.05518451 8.68781549,7.817 8.394,7.817 C8.10018451,7.817 7.862,8.05518451 7.862,8.349 L7.862,11.669 C7.85979552,13.6679092 6.23990924,15.2877955 4.241,15.29 L1.414,15.29 C0.633069364,15.29 0,14.6569306 0,13.876 C0,13.0950694 0.633069364,12.462 1.414,12.462 L4.241,12.462 C4.67912386,12.4620003 5.03444821,12.1071235 5.035,11.669 L5.035,8.349 C5.035,6.49359938 6.53909938,4.9895 8.3945,4.9895 C10.2499006,4.9895 11.754,6.49359938 11.754,8.349 L11.754,22.458 C11.754,22.7518155 11.9921845,22.99 12.286,22.99 C12.5798155,22.99 12.818,22.7518155 12.818,22.458 L12.818,13.876 L12.821,13.807 L12.822,3.36 C12.822,1.50432324 14.3263232,0 16.182,0 C18.0376768,0 19.542,1.50432324 19.542,3.36 L19.542,13.876 L19.537,13.966 L19.538,18.61 C19.538,18.9035393 19.7759607,19.1415 20.0695,19.1415 C20.3630393,19.1415 20.601,18.9035393 20.601,18.61 L20.601,16.144 C20.6218893,14.0928421 22.2987946,12.4454582 24.35,12.461 L26.863,12.462 C27.6439306,12.462 28.277,13.0950694 28.277,13.876 C28.277,14.6569306 27.6439306,15.29 26.863,15.29 L24.339,15.289 Z" id="path-1"></path>
    </defs>
    <g id="icon/wave" stroke="none" stroke-width="1" fill="none" fill-rule="evenodd">
        <g id="color/primary/500" transform="translate(2.000000, 3.000000)">
            <mask id="mask-2" fill="white">
                <use xlink:href="#path-1"></use>
            </mask>
            <g id="Mask" fill-rule="nonzero"></g>
            <g id="Group" mask="url(#mask-2)">
                <g transform="translate(-2.000000, -3.000000)" id="color/primary/500">
                    <rect id="Rectangle-Copy-4" fill="#9DAAB7" x="0" y="2.27373675e-15" width="32" height="32"></rect>
                </g>
            </g>
        </g>
    </g>
</svg>