<?xml version="1.0" encoding="UTF-8"?>
<svg width="32px" height="32px" viewBox="0 0 32 32" version="1.1" xmlns="http://www.w3.org/2000/svg" xmlns:xlink="http://www.w3.org/1999/xlink">
    <title>icon/width</title>
    <defs>
        <path d="M8.15188812,0.414245773 C8.70417287,0.966530523 8.70417287,1.86196102 8.15188812,2.41424577 L4.84,5.725 L13.821,5.731 L23.439,5.725 L20.1278881,2.41424577 C19.7706225,2.05698018 19.6310944,1.53625424 19.7618627,1.04822037 C19.892631,0.560186498 20.2738288,0.178988651 20.7618627,0.0482203694 C21.2498966,-0.0825479124 21.7706225,0.0569801833 22.1278881,0.414245773 L27.7461967,6.03062646 C28.041523,6.26586838 28.240562,6.61684961 28.2746711,7.01492738 C28.2785976,7.0608342 28.2808881,7.1072725 28.2808881,7.15424577 C28.2808881,7.38844293 28.2239518,7.6093419 28.1231659,7.8038558 C28.1181661,7.81170302 28.1140652,7.81942702 28.1098877,7.82712047 C28.0468444,7.94514497 27.9666374,8.0529468 27.8731672,8.14762327 C27.8707138,8.14840508 27.8688043,8.15032749 27.8668881,8.15224577 L22.1278881,13.8902458 C21.8629625,14.1558714 21.5030443,14.3048776 21.1278881,14.3042478 C20.5558494,14.3049413 20.0398283,13.9606669 19.8208245,13.4322106 C19.6018206,12.9037543 19.7230476,12.2953904 20.1278881,11.8912458 L23.452,8.566 L13.821,8.559 L4.826,8.565 L8.15188812,11.8912458 C8.55672868,12.2953904 8.67795561,12.9037543 8.45895176,13.4322106 C8.2399479,13.9606669 7.72392681,14.3049413 7.15188812,14.3042494 C6.77668804,14.3050995 6.41668789,14.1560594 6.15188812,13.8902458 L0.413888118,8.15224577 L0.378563247,8.11416785 C0.373383485,8.1085789 0.368248335,8.10294801 0.363158362,8.09727575 L0.413888118,8.15224577 C0.068981353,7.80695551 -0.0603586839,7.32783449 0.0258680074,6.88217116 L0.028384655,6.86855284 C0.0916506721,6.53967335 0.268862508,6.25133751 0.517327065,6.04623842 L6.15188812,0.414245773 C6.70417287,-0.138038977 7.59960337,-0.138038977 8.15188812,0.414245773 Z" id="path-1"></path>
    </defs>
    <g id="icon/width" stroke="none" stroke-width="1" fill="none" fill-rule="evenodd">
        <g id="color/primary/500" transform="translate(2.000000, 9.000000)">
            <mask id="mask-2" fill="white">
                <use xlink:href="#path-1"></use>
            </mask>
            <g id="Mask" fill-rule="nonzero"></g>
            <g id="Group" mask="url(#mask-2)">
                <g transform="translate(-2.000000, -9.000000)" id="color/primary/500">
                    <rect id="Rectangle-Copy-4" fill="#9DAAB7" x="0" y="2.27373675e-15" width="32" height="32"></rect>
                </g>
            </g>
        </g>
    </g>
</svg>