<?xml version="1.0" encoding="UTF-8"?>
<svg width="32px" height="32px" viewBox="0 0 32 32" version="1.1" xmlns="http://www.w3.org/2000/svg" xmlns:xlink="http://www.w3.org/1999/xlink">
    <title>icon/wifi</title>
    <defs>
        <path d="M22.2613483,0.275176709 C26.0447065,2.91848155 28.2986967,7.24289127 28.2986967,11.8581767 C28.2986967,16.4734622 26.0447065,20.7978719 22.2613483,23.4411767 C22.0241728,23.6079264 21.7412753,23.6971776 21.4513483,23.6971776 C20.8340178,23.6978591 20.2876003,23.2979778 20.1015383,22.7093536 C19.9154763,22.1207295 20.1327828,21.4794378 20.6383483,21.1251767 C23.667611,19.0117832 25.4727901,15.5513015 25.4727901,11.8576767 C25.4727901,8.1640519 23.667611,4.7035702 20.6383483,2.59017671 C20.2116942,2.30546465 19.9726794,1.81202835 20.0137644,1.30074887 C20.0548494,0.789469385 20.3695908,0.340531391 20.8362339,0.127602199 C21.3028771,-0.0853269937 21.8482377,-0.0288534029 22.2613483,0.275176709 Z M7.45390092,0.139436917 C7.91610745,0.352401067 8.22821911,0.797313926 8.27114317,1.30440971 C8.31406724,1.8115055 8.08118148,2.30255067 7.66134833,2.59017671 C4.63208568,4.7035702 2.8269066,8.1640519 2.8269066,11.8576767 C2.8269066,15.5513015 4.63208568,19.0117832 7.66134833,21.1251767 C8.16691389,21.4794378 8.38422032,22.1207295 8.19815834,22.7093536 C8.01209636,23.2979778 7.46567884,23.6978591 6.84834833,23.6971776 C6.55809017,23.6974768 6.27483226,23.6080637 6.03734833,23.4411767 C2.25399014,20.7978719 0,16.4734622 0,11.8581767 C0,7.24289127 2.25399014,2.91848155 6.03734833,0.275176709 C6.4507011,-0.0216870715 6.99169438,-0.0735272342 7.45390092,0.139436917 Z M19.0713483,4.83417671 C21.3658231,6.43828879 22.7326355,9.06157138 22.7326355,11.8611767 C22.7326355,14.660782 21.3658231,17.2840646 19.0713483,18.8881767 C18.8344974,19.0556978 18.5514545,19.1455028 18.2613483,19.1451776 C17.6444176,19.1456729 17.0983777,18.7461367 16.9121626,18.1579806 C16.7259475,17.5698244 16.9425468,16.9288303 17.4473483,16.5741767 C18.9877294,15.4995275 19.9056653,13.7398792 19.9056653,11.8616767 C19.9056653,9.98347418 18.9877294,8.22382596 17.4473483,7.14917671 C17.0275152,6.86155067 16.7946294,6.3705055 16.8375535,5.86340971 C16.8804776,5.35631393 17.1925892,4.91140107 17.6547957,4.69843692 C18.1170023,4.48547277 18.6579956,4.53731293 19.0713483,4.83417671 Z M10.6429009,4.69843692 C11.1051075,4.91140107 11.4172191,5.35631393 11.4601432,5.86340971 C11.5030672,6.3705055 11.2701815,6.86155067 10.8503483,7.14917671 C9.31038255,8.22410729 8.39277879,9.98365372 8.39277879,11.8616767 C8.39277879,13.7396997 9.31038255,15.4992461 10.8503483,16.5741767 C11.3549985,16.9287244 11.5716357,17.5694577 11.3856842,18.1575035 C11.1997328,18.7455493 10.6540945,19.1451769 10.0373483,19.1451769 C9.74696182,19.1451769 9.46365566,19.0555373 9.22634833,18.8881767 C6.93187356,17.2840646 5.56506113,14.660782 5.56506113,11.8611767 C5.56506113,9.06157138 6.93187356,6.43828879 9.22634833,4.83417671 C9.6397011,4.53731293 10.1806944,4.48547277 10.6429009,4.69843692 Z M14.1493483,8.85617671 C15.808964,8.85617671 17.1543483,10.201561 17.1543483,11.8611767 C17.1526946,13.5201069 15.8082785,14.864523 14.1493483,14.8661767 C12.4897327,14.8661767 11.1443483,13.5207924 11.1443483,11.8611767 C11.1443483,10.201561 12.4897327,8.85617671 14.1493483,8.85617671 Z" id="path-1"></path>
    </defs>
    <g id="icon/wifi" stroke="none" stroke-width="1" fill="none" fill-rule="evenodd">
        <g id="color/primary/500" transform="translate(2.000000, 4.000000)">
            <mask id="mask-2" fill="white">
                <use xlink:href="#path-1"></use>
            </mask>
            <g id="Mask" fill-rule="nonzero"></g>
            <g id="Group" mask="url(#mask-2)">
                <g transform="translate(-2.000000, -4.000000)" id="color/primary/500">
                    <rect id="Rectangle-Copy-4" fill="#9DAAB7" x="0" y="2.27373675e-15" width="32" height="32"></rect>
                </g>
            </g>
        </g>
    </g>
</svg>