<?xml version="1.0" encoding="UTF-8"?>
<svg width="32px" height="32px" viewBox="0 0 32 32" version="1.1" xmlns="http://www.w3.org/2000/svg" xmlns:xlink="http://www.w3.org/1999/xlink">
    <title>icon/write</title>
    <defs>
        <path d="M14.47,2.12692079 C15.2509305,2.12416855 15.8862383,2.7549993 15.8889997,3.53592982 C15.8917611,4.31686035 15.2609305,4.95216824 14.48,4.95492982 L3.545,5.03392982 C3.35592544,5.03179555 3.17383154,5.10527555 3.03919151,5.23803776 C2.90455147,5.37079997 2.82852134,5.55184394 2.828,5.74092982 L2.828,24.0409298 C2.82855154,24.8216319 3.46129793,25.4543783 4.242,25.4549298 L21.836,25.4549298 C22.6167021,25.4543783 23.2494485,24.8216319 23.25,24.0409298 L23.25,13.2509298 C23.25,12.4699992 23.8830694,11.8369298 24.664,11.8369298 C25.4449306,11.8369298 26.078,12.4699992 26.078,13.2509298 L26.078,24.0409298 C26.0752448,26.3825795 24.1776497,28.2801746 21.836,28.2829298 L4.242,28.2829298 C1.90012211,28.2807247 0.00220515956,26.3828077 0,24.0409298 L0,5.74092982 C0.0022043656,3.78951704 1.58358722,2.20813419 3.535,2.20592982 L14.459,2.12692079 L14.47,2.12692079 Z M26.9229998,1.22193001 C28.5522398,2.85116995 28.5522398,5.49268978 26.923,7.12192982 L16.323,17.7219298 C16.1393567,17.905126 15.909011,18.0344793 15.657,18.0959298 L10.51,19.3459298 C10.3995571,19.371734 10.2864107,19.3841566 10.173,19.3830125 C9.73927787,19.3832498 9.3294358,19.1843605 9.06130913,18.8434454 C8.79318246,18.5025304 8.69647813,18.057361 8.799,17.6359298 L10.049,12.4879298 C10.110832,12.2360694 10.2401309,12.0058205 10.423,11.8219298 L21.023,1.22192982 C22.65224,-0.407310014 25.2937599,-0.40730993 26.9229998,1.22193001 Z M20.6807218,5.56001975 L12.704,13.5409298 L12.095,16.0479298 L14.601,15.4389298 L22.5669448,7.472 L20.831,5.73692982 C20.7752871,5.68121688 20.7251943,5.62201202 20.6807218,5.56001975 Z M23.022,3.21792982 L22.6530789,3.58592698 C22.7154386,3.63057984 22.7749843,3.68091412 22.831,3.73692982 L24.5669448,5.472 L24.922,5.11792982 C25.4466705,4.59325931 25.4466705,3.74260033 24.922,3.21792982 C24.3973295,2.69325931 23.5466705,2.69325931 23.022,3.21792982 Z" id="path-1"></path>
    </defs>
    <g id="icon/write" stroke="none" stroke-width="1" fill="none" fill-rule="evenodd">
        <g id="color/primary/500" transform="translate(2.000000, 2.000000)">
            <mask id="mask-2" fill="white">
                <use xlink:href="#path-1"></use>
            </mask>
            <g id="Mask" fill-rule="nonzero"></g>
            <g id="Group" mask="url(#mask-2)">
                <g transform="translate(-2.000000, -2.000000)" id="color/primary/500">
                    <rect id="Rectangle-Copy-4" fill="#9DAAB7" x="0" y="2.27373675e-15" width="32" height="32"></rect>
                </g>
            </g>
        </g>
    </g>
</svg>