<?xml version="1.0" encoding="UTF-8"?>
<svg width="32px" height="32px" viewBox="0 0 32 32" version="1.1" xmlns="http://www.w3.org/2000/svg" xmlns:xlink="http://www.w3.org/1999/xlink">
    <title>icon/zoom_out</title>
    <defs>
        <path d="M10.786,0 C16.7429433,0 21.572,4.82905669 21.572,10.786 C21.5683511,13.6026626 20.486624,16.1665924 18.717282,18.087326 C19.2446404,17.827152 19.8994859,17.9174859 20.338,18.356 L27.131,25.15 C27.5355286,25.5544064 27.6565636,26.1626998 27.4376508,26.6911553 C27.218738,27.2196107 26.7030035,27.5641222 26.131,27.564 L26.131,27.570002 C25.7558438,27.5706318 25.3959256,27.4216256 25.131,27.156 L18.338,20.356 C17.8986575,19.9166575 17.8088119,19.2601654 18.0684634,18.7320087 C16.1514269,20.493012 13.5943336,21.5683619 10.786,21.572 C4.82905669,21.572 0,16.7429433 0,10.786 C0,4.82905669 4.82905669,0 10.786,0 Z M10.786,2.827 C6.39117836,2.82755229 2.82881597,6.39051162 2.82900007,10.7853333 C2.82918417,15.180155 6.39184504,18.7428158 10.7866667,18.7429999 C15.1814884,18.743184 18.7444477,15.1808216 18.745,10.786 C18.7416911,6.39173701 15.180263,2.83030893 10.786,2.827 Z M15.286,9.372 C16.0666545,9.372 16.6995,10.0048455 16.6995,10.7855 C16.6995,11.5661545 16.0666545,12.199 15.286,12.199 L6.1,12.199 C5.31934551,12.199 4.6865,11.5661545 4.6865,10.7855 C4.6865,10.0048455 5.31934551,9.372 6.1,9.372 L15.286,9.372 Z" id="path-1"></path>
    </defs>
    <g id="icon/zoom_out" stroke="none" stroke-width="1" fill="none" fill-rule="evenodd">
        <g id="color/primary/500" transform="translate(2.000000, 2.000000)">
            <mask id="mask-2" fill="white">
                <use xlink:href="#path-1"></use>
            </mask>
            <g id="Mask" fill-rule="nonzero"></g>
            <g id="Group" mask="url(#mask-2)">
                <g transform="translate(-2.000000, -2.000000)" id="color/primary/500">
                    <rect id="Rectangle-Copy-4" fill="#9DAAB7" x="0" y="2.27373675e-15" width="32" height="32"></rect>
                </g>
            </g>
        </g>
    </g>
</svg>