<?xml version="1.0" encoding="UTF-8"?>
<svg width="32px" height="32px" viewBox="0 0 32 32" version="1.1" xmlns="http://www.w3.org/2000/svg" xmlns:xlink="http://www.w3.org/1999/xlink">
    <title>icon/zoom_in</title>
    <defs>
        <path d="M10.786,0 C16.7429433,0 21.572,4.82905669 21.572,10.786 C21.5683454,13.607072 20.4832345,16.1746194 18.7089672,18.096342 C18.791418,18.053311 18.8797904,18.0196753 18.9719746,17.9949746 C19.4600085,17.8642063 19.9807344,18.0037344 20.338,18.361 L27.131,25.155 C27.5358406,25.5591446 27.6570675,26.1675085 27.4380636,26.6959648 C27.2190598,27.2244211 26.7030387,27.5686955 26.131,27.568 L26.131,27.569002 C25.7558438,27.5696318 25.3959256,27.4206256 25.131,27.155 L18.338,20.361 C17.9807344,20.0037344 17.8412063,19.4830085 17.9719746,18.9949746 C17.9969659,18.9017059 18.0311037,18.8123392 18.0733858,18.7278769 C16.1549957,20.4915106 13.5962934,21.5683594 10.786,21.572 C4.82905669,21.572 0,16.7429433 0,10.786 C0,4.82905669 4.82905669,0 10.786,0 Z M10.786,2.827 L10.786,2.827 C6.39117836,2.82755229 2.82881597,6.39051162 2.82900007,10.7853333 C2.82918417,15.180155 6.39184504,18.7428158 10.7866667,18.7429999 C15.1814884,18.743184 18.7444477,15.1808216 18.745,10.786 C18.7400402,6.39242174 15.1795783,2.83195983 10.786,2.827 Z M10.786,4.713 C11.5669306,4.713 12.2,5.34606936 12.2,6.127 L12.199,9.371 L15.28,9.372 C16.0609306,9.372 16.694,10.0050694 16.694,10.786 C16.694,11.5669306 16.0609306,12.2 15.28,12.2 L12.199,12.2 L12.2,15.445 C12.2,16.2259306 11.5669306,16.859 10.786,16.859 C10.0050694,16.859 9.372,16.2259306 9.372,15.445 L9.371,12.2 L6.095,12.2 C5.31406936,12.2 4.681,11.5669306 4.681,10.786 C4.681,10.0050694 5.31406936,9.372 6.095,9.372 L9.371,9.371 L9.372,6.127 C9.372,5.34606936 10.0050694,4.713 10.786,4.713 Z" id="path-1"></path>
    </defs>
    <g id="icon/zoom_in" stroke="none" stroke-width="1" fill="none" fill-rule="evenodd">
        <g id="color/primary/500" transform="translate(2.000000, 2.000000)">
            <mask id="mask-2" fill="white">
                <use xlink:href="#path-1"></use>
            </mask>
            <g id="Mask" fill-rule="nonzero"></g>
            <g id="Group" mask="url(#mask-2)">
                <g transform="translate(-2.000000, -2.000000)" id="color/primary/500">
                    <rect id="Rectangle-Copy-4" fill="#9DAAB7" x="0" y="2.27373675e-15" width="32" height="32"></rect>
                </g>
            </g>
        </g>
    </g>
</svg>