<?xml version="1.0" encoding="UTF-8"?>
<svg width="35px" height="41px" viewBox="0 0 35 41" version="1.1" xmlns="http://www.w3.org/2000/svg" xmlns:xlink="http://www.w3.org/1999/xlink">
    <title>loplat-i</title>
    <defs>
        <linearGradient x1="14.1%" y1="14.1%" x2="83.9%" y2="83.9%" id="linearGradient-1">
            <stop stop-color="#4DC0E3" offset="0%"></stop>
            <stop stop-color="#5159A3" offset="100%"></stop>
        </linearGradient>
    </defs>
    <g id="Symbols" stroke="none" stroke-width="1" fill="none" fill-rule="evenodd">
        <g id="Symbol/loplat-i" fill-rule="nonzero">
            <g id="loplat-i" transform="translate(0.000000, 0.000000)">
                <path d="M29.5216063,5.06559066 C26.2783282,1.82215586 21.879405,0 17.2926063,0 C12.7058076,0 8.30688448,1.82215586 5.06360634,5.06559066 C-1.68786878,11.8208715 -1.68786878,22.7693098 5.06360634,29.5245907 L15.5636063,40.0245907 L15.5636063,27.7955907 L11.1786063,23.4105907 C9.55688894,21.7889516 8.64581101,19.58949 8.64581101,17.2960907 C8.64581101,15.0026913 9.55688894,12.8032297 11.1786063,11.1815907 C12.800286,9.55956736 14.9999619,8.64829526 17.2936063,8.64829526 C19.5872507,8.64829526 21.7869266,9.55956736 23.4086063,11.1815907 C25.0303237,12.8032297 25.9414017,15.0026913 25.9414017,17.2960907 C25.9414017,19.58949 25.0303237,21.7889516 23.4086063,23.4105907 L19.0226063,27.7955907 L19.0226063,40.0235907 L29.5226063,29.5235907 C36.273139,22.7681484 36.2726914,11.8204809 29.5216063,5.06559066 L29.5216063,5.06559066 Z" id="패스_8951" fill="#444444"></path>
                <circle id="타원_280" fill="url(#linearGradient-1)" cx="17.2896063" cy="17.2945907" r="4.324"></circle>
            </g>
        </g>
    </g>
</svg>