<?xml version="1.0" encoding="UTF-8"?>
<svg width="520px" height="122px" viewBox="0 0 520 122" version="1.1" xmlns="http://www.w3.org/2000/svg" xmlns:xlink="http://www.w3.org/1999/xlink">
    <title>Symbol/loplatX</title>
    <defs>
        <polygon id="path-1" points="0 47.3 28.5 47.3 54.3 19.8 44.4 0"></polygon>
        <polygon id="path-3" points="0 0 35.2 0 35.2 95.4 0 95.4"></polygon>
        <polygon id="path-5" points="0 122.2 519.8 122.2 519.8 0 0 0"></polygon>
    </defs>
    <g id="Symbol/loplatX" stroke="none" stroke-width="1" fill="none" fill-rule="evenodd">
        <polygon id="Fill-1" fill="#0060A4" points="491.4 0 402 95.4 430.5 95.4 519.8 0"></polygon>
        <polygon id="Fill-2" fill="#00B8EA" points="422.2998 0 470.0998 95.4 500.5998 95.4 452.7998 0"></polygon>
        <g id="Group-5" transform="translate(402.000000, 48.100200)">
            <mask id="mask-2" fill="white">
                <use xlink:href="#path-1"></use>
            </mask>
            <g id="Clip-4"></g>
            <polygon id="Fill-3" mask="url(#mask-2)" points="0 47.3 28.5 47.3 54.3 19.8 44.4 0"></polygon>
        </g>
        <g id="Group-15" transform="translate(0.000000, 0.000200)">
            <g id="Group-8">
                <mask id="mask-4" fill="white">
                    <use xlink:href="#path-3"></use>
                </mask>
                <g id="Clip-7"></g>
                <path d="M35.2,74.6 L35.2,95.4 L18.8,95.4 C13.6,95.4 9.1,93.5 5.5,89.9 C1.8,86.2 0,81.7 0,76.6 L0,-1.42108547e-14 L20.9,-1.42108547e-14 L20.9,74.6 L35.2,74.6 Z" id="Fill-6" fill="#00B8EA" mask="url(#mask-4)"></path>
            </g>
            <mask id="mask-6" fill="white">
                <use xlink:href="#path-5"></use>
            </mask>
            <g id="Clip-10"></g>
            <path d="M64.5,74.6 L97.2,74.6 L97.2,43 L64.5,43 L64.5,74.6 Z M116.6,33.8 C115.7,31.6 114.3,29.5 112.5,27.7 C108.8,24 104.3,22.2 99.2,22.2 L62.7,22.2 C57.5,22.2 53.1,24.1 49.4,27.7 C45.7,31.4 43.9,35.9 43.9,41 L43.9,76.5 C43.9,81.7 45.8,86.2 49.4,89.8 C53,93.4 57.5,95.3 62.7,95.3 L99.2,95.3 C104.4,95.3 108.9,93.4 112.5,89.8 C116.2,86.1 118,81.6 118,76.5 L118,41 C118,38.4 117.5,36 116.6,33.8 L116.6,33.8 Z" id="Fill-9" fill="#00B8EA" mask="url(#mask-6)"></path>
            <path d="M248.5,74.6 L248.5,95.4 L232.1,95.4 C226.9,95.4 222.4,93.5 218.8,89.9 C215.1,86.2 213.3,81.7 213.3,76.6 L213.3,0.1 L234.2,0.1 L234.2,74.7 L248.5,74.6 Z" id="Fill-11" fill="#00B8EA" mask="url(#mask-6)"></path>
            <path d="M360.2,42.9 L360.2,74.5 L386.6,74.5 L386.6,95.3 L358.3,95.3 C353,95.3 348.5,93.4 344.9,89.8 C341.3,86.1 339.4,81.7 339.4,76.5 L339.4,-1.42108547e-14 L360.2,-1.42108547e-14 L360.2,22.2 L386.6,22.2 L386.6,43 L360.2,42.9 Z" id="Fill-12" fill="#00B8EA" mask="url(#mask-6)"></path>
            <path d="M182.1,43 L182.1,74.6 L149.4,74.6 L149.4,43 C149.4,43 182.1,43 182.1,43 M197.3,27.7 C193.6,24 189.1,22.2 184,22.2 L147.5,22.2 C142.3,22.2 137.8,24.1 134.2,27.7 C130.5,31.4 128.7,35.9 128.7,41 L128.7,122.2 L149.5,122.2 L149.5,95.3 L184.1,95.3 C189.3,95.3 193.8,93.4 197.4,89.8 C201.1,86.1 202.9,81.6 202.9,76.5 L202.9,41 C202.9,35.9 201,31.4 197.3,27.7" id="Fill-13" fill="#00B8EA" mask="url(#mask-6)"></path>
            <path d="M275.1,76.3 L309.4,76.3 L309.4,69.3 L275.1,69.3 L275.1,76.3 Z M323.3,29.2 C319.8,25.7 315.5,23.9 310.6,23.9 L256,23.9 L256,43.1 L309.4,43.1 L309.4,50.1 L274,50.1 C269.1,50.1 264.8,51.9 261.2,55.4 C257.7,58.9 255.9,63.2 255.9,68.2 L255.9,77.5 C255.9,82.4 257.7,86.7 261.2,90.2 C264.7,93.7 269,95.5 274,95.5 L312.1,95.5 C316.4,95.2 320.1,93.4 323.3,90.3 C326.8,86.8 328.6,82.5 328.6,77.5 L328.6,42 C328.6,37 326.8,32.7 323.3,29.2 L323.3,29.2 Z" id="Fill-14" fill="#00B8EA" mask="url(#mask-6)"></path>
        </g>
    </g>
</svg>