<svg width="112" height="25" viewBox="0 0 112 25" fill="none" xmlns="http://www.w3.org/2000/svg">
<g clip-path="url(#clip0_0_17309)">
<path d="M106.29 0H112L94.0448 19.1H88.3156L106.29 0Z" fill="#0047AE"/>
<path d="M92.3949 0H98.3489L107.959 19.1H102.005L92.3949 0Z" fill="#0580FF"/>
<path d="M88.3131 19.1H94.0424L99.2288 13.5952L97.2394 9.63095L88.3131 19.1Z" fill="url(#paint0_linear_0_17309)"/>
<path d="M3.76848 15.3738H9.43795V19.1H3.67523C3.01766 19.1 2.40313 18.9286 1.85077 18.5929C1.29841 18.2571 0.846474 17.8095 0.509319 17.2571C0.172164 16.7071 0 16.0952 0 15.4405V0H3.76848V15.3738Z" fill="#0280FF"/>
<path d="M24.6936 4.64286C24.1389 4.30714 23.5172 4.13571 22.8429 4.13571H14.9592C14.3016 4.13571 13.6871 4.30714 13.1347 4.64286C12.5823 4.97857 12.1304 5.42619 11.7933 5.97857C11.4561 6.53095 11.2839 7.14048 11.2839 7.79524V15.4405C11.2839 16.0952 11.4561 16.7071 11.7933 17.2571C12.1304 17.8071 12.5799 18.2571 13.1347 18.5929C13.6871 18.9286 14.3016 19.1 14.9592 19.1H22.8429C23.5172 19.1 24.1389 18.9286 24.6936 18.5929C25.246 18.2571 25.6931 17.8071 26.0207 17.2571C26.3507 16.7048 26.5157 16.0952 26.5157 15.4405V7.79524C26.5157 7.14286 26.3483 6.53095 26.0207 5.97857C25.6907 5.42857 25.2436 4.97857 24.6936 4.64286ZM15.0261 7.8619H22.7759V15.3738H15.0261V7.8619Z" fill="#0280FF"/>
<path d="M42.6011 4.64286C42.0463 4.30714 41.4246 4.13571 40.7503 4.13571H33.0508C30.9226 4.13571 29.1914 5.85952 29.1914 7.97857V25H32.9336V19.1H40.7503C41.4246 19.1 42.0463 18.9286 42.6011 18.5929C43.1534 18.2571 43.6006 17.8071 43.9282 17.2571C44.2558 16.7048 44.4232 16.0929 44.4232 15.4405V7.79524C44.4232 7.14286 44.2558 6.53095 43.9282 5.97857C43.5982 5.42857 43.1534 4.97857 42.6011 4.64286ZM40.6834 7.8619V15.3738H32.9336V7.8619H40.6834Z" fill="#0280FF"/>
<path d="M55.6832 15.3738V19.1H49.9228C49.2653 19.1 48.6507 18.9286 48.0984 18.5929C47.546 18.2571 47.0941 17.8095 46.7569 17.2571C46.4198 16.7071 46.2476 16.0952 46.2476 15.4405V0H50.0161V15.3738H55.6856H55.6832Z" fill="#0280FF"/>
<path d="M69.0737 7.8619V9.72857H60.9652C59.1001 9.72857 57.5841 11.2381 57.5841 13.0952V15.4381C57.5841 16.0929 57.7515 16.7048 58.0791 17.2548C58.3875 17.7714 58.8036 18.2 59.3177 18.5262C59.8103 18.8405 60.7333 19.0952 61.3765 19.0952H69.4347C71.2999 19.0952 72.8159 17.5857 72.8159 15.7286V7.79524C72.8159 7.14048 72.6485 6.53095 72.3209 5.97857C71.9909 5.42857 71.5461 4.97857 70.9938 4.64286C70.439 4.30714 69.8173 4.13571 69.143 4.13571H57.5841V7.8619H69.0761H69.0737ZM61.3239 15.3738V13.0714H69.0737V15.3738H61.3239Z" fill="#0280FF"/>
<path d="M84.9248 15.3738V19.1H79.1883C78.514 19.1 77.8899 18.9286 77.3376 18.5929C76.7852 18.2571 76.3333 17.8095 75.9961 17.2571C75.659 16.7048 75.4868 16.0952 75.4868 15.4405V0H79.229V4.13571H84.9224V7.86191H79.229V15.3738H84.9224H84.9248Z" fill="#0280FF"/>
</g>
<defs>
<linearGradient id="paint0_linear_0_17309" x1="99.6046" y1="13.1264" x2="97.5906" y2="16.2066" gradientUnits="userSpaceOnUse">
<stop stop-color="#281913" stop-opacity="0.5"/>
<stop offset="1" stop-color="#0067A2" stop-opacity="0"/>
</linearGradient>
<clipPath id="clip0_0_17309">
<rect width="112" height="25" fill="white"/>
</clipPath>
</defs>
</svg>
