<?xml version="1.0" encoding="UTF-8"?>
<svg width="434px" height="137px" viewBox="0 0 434 137" version="1.1" xmlns="http://www.w3.org/2000/svg" xmlns:xlink="http://www.w3.org/1999/xlink">
    <title>loplat</title>
    <g id="Symbols" stroke="none" stroke-width="1" fill="none" fill-rule="evenodd">
        <g id="loplat" fill="#48B8E7" transform="translate(0.000100, 0.000500)">
            <path d="M39.505,83.5823 L39.505,106.8543 L21.137,106.8543 C15.346,106.8543 10.315,104.7733 6.207,100.6653 C2.081,96.5393 0,91.5273 0,85.7363 L0,0.0293 L23.417,0.0293 L23.417,83.5823 L39.505,83.5823 Z" id="Fill-1"></path>
            <path d="M72.3509,83.5635 L108.9429,83.5635 L108.9429,48.1665 L72.3509,48.1665 L72.3509,83.5635 Z M130.6579,37.9245 C129.6449,35.4455 128.0889,33.1465 126.0259,31.0655 C121.9179,26.9575 116.8869,24.8765 111.0959,24.8765 L70.1789,24.8765 C64.4059,24.8765 59.3749,26.9575 55.2669,31.0655 C51.1589,35.1915 49.0599,40.2045 49.0599,45.9955 L49.0599,85.7355 C49.0599,91.5265 51.1589,96.5575 55.2669,100.6655 C59.3749,104.7735 64.3879,106.8545 70.1789,106.8545 L111.0959,106.8545 C116.9049,106.8545 121.9179,104.7735 126.0259,100.6655 C130.1339,96.5395 132.2149,91.5265 132.2149,85.7355 L132.2149,45.9955 C132.2149,43.0995 131.6899,40.3855 130.6579,37.9245 L130.6579,37.9245 Z" id="Fill-3"></path>
            <path d="M278.3645,83.6351 L278.3645,106.9071 L259.9965,106.9071 C254.1875,106.9071 249.1745,104.8261 245.0665,100.7181 C240.9585,96.5921 238.8595,91.5791 238.8595,85.7891 L238.8595,0.1001 L262.2945,0.1001 L262.2945,83.6351 L278.3645,83.6351 Z" id="Fill-5"></path>
            <path d="M403.4714,48.119 L403.4714,83.534 L433.0054,83.534 L433.0054,106.807 L401.2994,106.807 C395.4004,106.807 390.3514,104.726 386.2974,100.6 C382.2254,96.492 380.1814,91.479 380.1814,85.688 L380.1814,0 L403.4714,0 L403.4714,24.828 L433.0054,24.828 L433.0054,48.119 L403.4714,48.119 Z" id="Fill-6"></path>
            <path d="M167.4309,83.5645 L204.0229,83.5645 L204.0229,48.1675 L167.4309,48.1675 L167.4309,83.5645 Z M221.1059,31.0655 C216.9979,26.9575 211.9669,24.8765 206.1759,24.8765 L165.2769,24.8765 C159.4859,24.8765 154.4559,26.9575 150.3479,31.0655 C146.2399,35.1915 144.1399,40.2225 144.1399,45.9955 L144.1399,136.9315 L167.4309,136.9315 L167.4309,106.8545 L206.1759,106.8545 C211.9849,106.8545 216.9979,104.7735 221.1059,100.6655 C225.2319,96.5395 227.3129,91.5085 227.3129,85.7535 L227.3129,46.0135 C227.3129,40.2225 225.2319,35.1915 221.1059,31.0655 L221.1059,31.0655 Z" id="Fill-7"></path>
            <path d="M308.2469,85.4525 L346.6299,85.4525 L346.6299,77.6525 L308.2469,77.6525 L308.2469,85.4525 Z M362.1759,32.7005 C358.2489,28.7735 353.4349,26.7645 347.8969,26.7645 L286.7659,26.7645 L286.7659,48.2455 L346.6299,48.2455 L346.6299,56.0455 L306.9799,56.0455 C301.4429,56.0455 296.6289,58.0545 292.6839,61.9995 C288.7569,65.9445 286.7659,70.7765 286.7659,76.3135 L286.7659,86.7375 C286.7659,92.2565 288.7569,97.0705 292.6839,101.0155 C296.6289,104.9425 301.4429,106.9335 306.9799,106.9335 L349.6709,106.9335 C354.4839,106.5535 358.6829,104.5985 362.1759,101.1065 C366.1209,97.1435 368.1109,92.3295 368.1109,86.8095 L368.1109,46.9965 C368.1109,41.4415 366.1209,36.6275 362.1759,32.7005 L362.1759,32.7005 Z" id="Fill-8"></path>
        </g>
    </g>
</svg>