<svg width="355" height="81" viewBox="0 0 355 81" fill="none" xmlns="http://www.w3.org/2000/svg">
<path d="M111.29 51.1501H128.28V62.3701H111.01C109.04 62.3701 107.2 61.8601 105.54 60.8501C103.88 59.8401 102.53 58.4901 101.52 56.8301C100.51 55.1701 100 53.3301 100 51.3601V4.87012H111.29V51.1501Z" fill="#1D70FF"/>
<path d="M174.01 18.8501C172.35 17.8401 170.48 17.3301 168.46 17.3301H144.83C142.86 17.3301 141.02 17.8401 139.36 18.8501C137.7 19.8601 136.35 21.2101 135.34 22.8701C134.33 24.5301 133.82 26.3701 133.82 28.3401V51.3501C133.82 53.3201 134.33 55.1601 135.34 56.8201C136.35 58.4801 137.7 59.8301 139.36 60.8401C141.02 61.8501 142.86 62.3601 144.83 62.3601H168.46C170.48 62.3601 172.35 61.8501 174.01 60.8401C175.67 59.8301 177.01 58.4801 177.99 56.8201C178.98 55.1601 179.48 53.3201 179.48 51.3501V28.3401C179.48 26.3701 178.98 24.5301 177.99 22.8701C177 21.2101 175.66 19.8601 174.01 18.8501ZM145.04 28.5401H168.27V51.1501H145.04V28.5401Z" fill="#1D70FF"/>
<path d="M227.68 18.8501C226.02 17.8401 224.15 17.3301 222.13 17.3301H199.05C192.67 17.3301 187.48 22.5201 187.48 28.9001V80.1301H198.7V62.3701H222.13C224.15 62.3701 226.02 61.8601 227.68 60.8501C229.34 59.8401 230.68 58.4901 231.66 56.8301C232.65 55.1701 233.14 53.3301 233.14 51.3601V28.3401C233.14 26.3801 232.64 24.5301 231.66 22.8701C230.67 21.2101 229.33 19.8601 227.68 18.8501ZM221.93 28.5401V51.1501H198.7V28.5401H221.93Z" fill="#1D70FF"/>
<path d="M266.89 51.1501V62.3701H249.62C247.65 62.3701 245.81 61.8601 244.15 60.8501C242.49 59.8401 241.14 58.4901 240.13 56.8301C239.12 55.1701 238.61 53.3301 238.61 51.3601V4.87012H249.9V51.1501H266.89Z" fill="#1D70FF"/>
<path d="M307.02 28.5401V34.1601H282.71C277.12 34.1601 272.57 38.7101 272.57 44.3001V51.3601C272.57 53.3301 273.07 55.1701 274.06 56.8301C274.98 58.3901 276.23 59.6801 277.77 60.6601C279.25 61.6001 282.01 62.3701 283.94 62.3701H308.09C313.68 62.3701 318.23 57.8201 318.23 52.2401V28.3401C318.23 26.3701 317.73 24.5301 316.75 22.8701C315.76 21.2101 314.42 19.8601 312.77 18.8501C311.11 17.8401 309.24 17.3301 307.22 17.3301H272.58V28.5501H307.02V28.5401ZM283.79 51.1501V44.2201H307.02V51.1501H283.79Z" fill="#1D70FF"/>
<path d="M354.53 51.1501V62.3701H337.34C335.32 62.3701 333.45 61.8601 331.79 60.8501C330.14 59.8401 328.78 58.4901 327.77 56.8301C326.76 55.1701 326.25 53.3301 326.25 51.3601V4.87012H337.47V17.3201H354.53V28.5401H337.47V51.1501H354.53Z" fill="#1D70FF"/>
<path d="M80 52.8001C80 63.4001 40 80.0001 40 80.0001C40 80.0001 0 63.4001 0 52.8001C0 42.2001 17.91 33.6001 40 33.6001C62.09 33.6001 80 42.2001 80 52.8001Z" fill="#80B6FF"/>
<path d="M51.85 17.6602C50.96 20.3502 46.01 22.4002 40 22.4002C33.99 22.4002 29.04 20.3402 28.15 17.6602C11.85 20.0802 0 27.3802 0 36.0002C0 46.6002 40 63.2002 40 63.2002C40 63.2002 80 46.6002 80 36.0002C80 27.3802 68.15 20.0802 51.85 17.6602Z" fill="#3385FF"/>
<path d="M40 0C17.91 0 0 8.6 0 19.2C0 29.8 40 46.4 40 46.4C40 46.4 80 29.8 80 19.2C80 8.6 62.09 0 40 0ZM40 22.4C33.37 22.4 28 19.89 28 16.8C28 13.71 33.37 11.2 40 11.2C46.63 11.2 52 13.71 52 16.8C52 19.89 46.63 22.4 40 22.4Z" fill="#0051FF"/>
</svg>
