<svg xmlns="http://www.w3.org/2000/svg" viewBox="0 0 688.78 695.7"><defs><style>.cls-1{fill:#fff;}.cls-2,.cls-4{fill-rule:evenodd;}.cls-3,.cls-4{fill:#40a6fd;}.cls-5{fill:#ea687e;}</style></defs><g id="레이어_2" data-name="레이어 2"><g id="Illustration"><polygon points="328.14 357.02 330.85 359.93 336.87 360.91 345.62 360.07 355.92 357.02 363.21 353.36 366.96 347.77 366.96 325.19 367.78 303.19 368.02 284.02 364.79 269.02 354.47 265.05 352.04 266 342.21 263.25 335.11 263.69 331.14 261.81 326.64 274.9 322.54 291.27 321.54 303.11 322.77 310.87 326.54 335.69 327.12 345.52 328.14 357.02"/><path d="M458.68,454.07l-22.82,20.29-5.57,2.45-20-41.94-3.67-10.82-50.37-29.39-3.82,21.14-4.18-.24-2-9.78.13-17.09-10.23-5.89L325.8,397.69l-7.34,9.92-2-4.42,2.37-3.92L326,377.44l-39.48-22.75L115.94,454.55,355.66,593l171-99.68Zm-153.82-19.2L295,438.92l-8.52,16.73-6.94-4-7.75-12.75-1.29-8.71-11.06-18.66,10.44-5.59,8.41.28,9.6,6,9.65,9.43,5.07,8.54,2.93,4.68Z"/><polygon points="481.04 678.37 481.04 687.14 487.67 685.91 494.06 681.7 495.25 678.58 494.04 672.99 489.54 676.77 481.04 678.37"/><polygon points="665.91 577.72 665.91 586.4 671.68 585.2 677.09 582.06 679.91 577.72 679.91 571.31 674.16 575.9 667.54 577.7 665.91 577.72"/><polygon points="444.74 232.79 462.15 224.33 468.25 241.97 470.52 259.84 468.12 272.13 463.58 282 455.77 293.02 423.65 323.38 410.61 330.9 442.07 298.34 450.39 284.26 453.69 269.02 450.58 248.47 444.74 232.79"/><polygon points="403.04 218.97 402.77 226.26 404.6 234.96 408.96 243.9 415.77 253.91 423.39 260.24 428.26 262.61 425.67 268.72 419.54 272.77 413.15 272.77 405.09 269.01 396.77 261.15 390.47 251.3 386.78 241.16 385.81 232.79 388.61 222.95 393.79 218.41 399.52 218.08 403.04 218.97"/><polygon points="272.16 431.01 272.16 436.97 274.71 443.76 278.07 449.32 281.95 452.98 285.69 455.02 284.34 458.44 280.93 460.66 276.71 460.66 270.74 456.74 266.19 451.08 263.71 444.54 262.21 436.97 264.96 431.01 270.5 430.19 272.16 431.01"/><polygon points="427.65 414.52 427.86 419.58 430.47 427.28 434.15 432.76 441.65 438.32 440.07 442.04 435.23 444.17 429.29 442.6 423.85 437.77 420.19 430.49 418.47 424.05 419.4 417.32 422.44 414.35 427.65 414.52"/><polygon points="453.44 428.52 463.22 424.79 464.94 434.02 464.2 442.12 460.48 450.24 438.92 472.27 432.95 474.36 449.17 458.02 455.04 448.02 455.77 437.9 453.67 429.26 453.44 428.52"/><polygon points="295 438.92 304.86 434.87 308.02 444.54 309.02 454.59 307.63 462.35 302.46 469.63 282.92 488.73 276.14 491.87 290.2 478.04 298.29 465.15 299.79 456.02 297.17 442.9 295 438.92"/><polygon class="cls-1" points="354.22 200.58 354.2 206.04 352.1 212.52 350.48 214.46 351.78 216.6 351.9 221.26 350.05 225.04 346.51 226.77 341.06 227.72 335.89 225.23 333.87 221.93 334.64 217.89 332.98 201.23 346.51 198.2 354.22 200.58"/><polygon class="cls-1" points="404.23 233.2 407.04 232.06 411.13 232.1 417.21 229.03 408.96 221.61 406.01 224.86 405.27 226.49 402.95 227.11 404.23 233.2"/><polygon class="cls-1" points="357.98 259.12 369.45 264.28 372.85 263.88 376.98 264.28 379.42 266.49 380.03 271.05 378.54 273.93 373.98 273.93 367.68 270.51 366.39 269.44 354.47 265.05 357.98 259.12"/><path class="cls-1" d="M333.91,222.56l-3.73,2.57s-2.83,1.33-2.39,5.64,1.94,15.44,8.13,22.19,18.55,11,18.55,11l-1.8,2.53-11.11-4.69-7.17-5.71L329.74,249,327,241.66l-1.67-9.14.2-6.29,2.27-3.32,4.38-3.43Z"/><path class="cls-1" d="M352.46,217.57s3.48-1,5,.63l-1.18-2.84-3.83-1.67-1.84.6Z"/><polygon class="cls-1" points="335.11 256.89 335.06 257.29 334.42 262.02 331.14 260.63 332.23 254.21 335.11 256.89"/><path class="cls-1" d="M334.21,263.29s-5.34,15.73-6.92,24.15-2.08,15.17-.42,26.5,4.25,27.67,4.59,34.58a104.39,104.39,0,0,1,0,11.41L328.14,357l-1-17-1.85-14.61-1.68-13-1.68-6.5.6-14.67,4.08-14.66,4.52-14.79Z"/><path class="cls-1" d="M334.21,361.27s-9,33.94-16.61,42.88l-.93-1.81,2.54-6.44,4.39-13.19,8.11-22.36Z"/><path class="cls-1" d="M352,359.34s-1.81,11.12-2.44,19-1.05,32.07.44,37.22L347.4,414l-.79-9.88V385.4l1.56-19.46.81-6.6Z"/><path class="cls-1" d="M274.24,414.62c-14.12-8.15-25.56-1.54-25.56,14.75a38.06,38.06,0,0,0,1.33,8.31,101.55,101.55,0,0,0,6.71,18.6l17.31,37a.34.34,0,0,0,.55.09l17.18-16.89a27.79,27.79,0,0,0,6.71-10.85,21.35,21.35,0,0,0,1.32-6.78C299.79,442.58,288.35,422.77,274.24,414.62Zm-.09,44.69c-6.48-3.8-11.72-12.88-11.77-20.39s5.58-10.63,11.95-6.9,11.72,12.88,11.77,20.39S280.52,463,274.15,459.31Z"/><path class="cls-1" d="M430.06,397.17c-14.12-8.15-25.56-1.54-25.56,14.75a38.06,38.06,0,0,0,1.33,8.31,101.28,101.28,0,0,0,6.71,18.6l17.31,37a.35.35,0,0,0,.55.1l17.18-16.9a27.79,27.79,0,0,0,6.71-10.85,21.29,21.29,0,0,0,1.32-6.78C455.61,425.14,444.17,405.32,430.06,397.17ZM430,441.86c-6.48-3.79-11.72-12.88-11.77-20.39s5.58-10.62,11.95-6.9,11.72,12.88,11.77,20.39S436.34,445.59,430,441.86Z"/><path class="cls-2" d="M190.54,385.54,163.81,401c-.88.51-.77,1.4.25,2l9.15,5.28a3.77,3.77,0,0,0,3.42.14l26.73-15.43c.88-.51.77-1.4-.24-2L194,385.68A3.79,3.79,0,0,0,190.54,385.54Z"/><polygon points="551.47 517.02 551.52 530.91 548.95 533.71 390.99 624.63 389.86 624.63 389.86 610.1 396.67 606.4 551.47 517.02"/><path class="cls-1" d="M379.27,272.84,406.94,332a.62.62,0,0,0,1,.18l31.17-30.65a50.4,50.4,0,0,0,12.17-19.7,38.53,38.53,0,0,0,2.41-12.29c0-29.56-20.76-65.52-46.37-80.3S361,186.46,361,216c0,4,1,9.52,2.4,15.07A184.53,184.53,0,0,0,375,263.61Zm27.89-2.5c-11.76-6.89-21.27-23.37-21.36-37-.08-13.39,10.12-19.28,21.68-12.52,11.76,6.89,21.27,23.37,21.36,37C428.92,271.21,418.72,277.1,407.16,270.34Z"/><polygon points="148.84 587.7 148.33 575.06 141.18 562.12 127.01 552.36 108.95 545.93 98.05 544.73 98.05 555.93 118.45 559.94 133.83 568.64 144.45 578.78 148.84 587.7"/><polygon points="109.85 622.53 109.85 634.36 129.44 627.23 142.51 619.74 151.38 611.3 157.37 602.28 158.42 590.16 150.21 601.2 140.04 610.38 121.57 618.86 109.85 622.53"/><path d="M67.24,550.24a.43.43,0,0,0,.05-.85.43.43,0,0,0-.05.85Z"/><path d="M67.29,556.86a.42.42,0,1,0-.4-.45A.42.42,0,0,0,67.29,556.86Z"/><path d="M67.27,553.55a.42.42,0,0,0,.44-.4.41.41,0,0,0-.39-.44.42.42,0,0,0-.45.39A.43.43,0,0,0,67.27,553.55Z"/><path d="M67.67,546.53a.43.43,0,0,0-.4-.45.43.43,0,0,0-.45.4.42.42,0,0,0,.4.44A.42.42,0,0,0,67.67,546.53Z"/><path d="M77.32,555.31a1.07,1.07,0,0,0-1.12,1,2,2,0,0,0,0,.24l2.07-.15A1,1,0,0,0,77.32,555.31Z"/><path d="M99.24,555.34a2.4,2.4,0,0,0-.55-.78,2.22,2.22,0,0,0,.61-1l0-1.09a2.16,2.16,0,0,0-.68-1.21,5.62,5.62,0,0,1,.69-4.82,2.3,2.3,0,0,0-.73-1.81,1.07,1.07,0,0,0,.14-.16l-10.37-.84-2.77.2a1.64,1.64,0,0,0,1.24.88,3.75,3.75,0,0,1-1.39,4.87,1.67,1.67,0,0,1,0,3.31,1.66,1.66,0,0,1,0,3.28l13.66.59Zm-7.2-.15a1.85,1.85,0,0,0-.66-.58A1.91,1.91,0,0,0,92,554a.58.58,0,0,1,0,1.16Zm-3.32-2.85a1.7,1.7,0,0,0-1.31-1,1.67,1.67,0,0,0,1.29-1,1.9,1.9,0,0,0,.88,1A1.83,1.83,0,0,0,88.72,552.34Zm0-5.35a2,2,0,0,0,.89,1,1.9,1.9,0,0,0-.87,1,1.63,1.63,0,0,0-1.3-1A1.69,1.69,0,0,0,88.67,547Zm3.31.41a2.06,2.06,0,0,0,.52.58,2,2,0,0,0-.51.58,1.91,1.91,0,0,0-.65-.58A2,2,0,0,0,92,547.4Zm0,4.47a1.88,1.88,0,0,0-.65-.57,1.79,1.79,0,0,0,.64-.58,2.06,2.06,0,0,0,.53.57A2.21,2.21,0,0,0,92,551.87Zm3.3-.36a1.55,1.55,0,0,0-.27-.24,2.16,2.16,0,0,0,.27-.25,1.7,1.7,0,0,0,.22.24A2.62,2.62,0,0,0,95.31,551.51Zm.2-3.56-.23.24A2,2,0,0,0,95,548a2,2,0,0,0,.26-.24A1.75,1.75,0,0,0,95.51,548Zm-.18,6.39.23.24a1.75,1.75,0,0,0-.23.24,2,2,0,0,0-.26-.24A3,3,0,0,0,95.33,554.34Zm.16-9.7a1.75,1.75,0,0,0-.23.24.24.24,0,1,1,0-.48ZM92,544.09a2.25,2.25,0,0,0,.53.58,1.89,1.89,0,0,0-.51.58,1.85,1.85,0,0,0-.66-.58A1.79,1.79,0,0,0,92,544.09Zm-3.3-.41a1,1,0,0,1,0,2,1,1,0,1,1,0-2Zm.09,12a1,1,0,1,1,0-2,1.86,1.86,0,0,0,.89,1A1.92,1.92,0,0,0,88.74,555.65Z"/><path d="M70.57,553.74a.64.64,0,1,0-.6-.68A.65.65,0,0,0,70.57,553.74Z"/><path d="M63.92,546.74a.22.22,0,0,0,.22-.2.21.21,0,0,0-.2-.23.23.23,0,0,0-.22.2A.21.21,0,0,0,63.92,546.74Z"/><path d="M80.65,555.08a1.28,1.28,0,0,0-1.35,1.19.43.43,0,0,1,0,.05l2.51-.17A1.27,1.27,0,0,0,80.65,555.08Z"/><path d="M85.34,556.15a1.46,1.46,0,0,0-2.9,0l.71-.05Z"/><path d="M71.26,556.46a.64.64,0,0,0-.59-.68.63.63,0,0,0-.13,1.26l.4-.08A.6.6,0,0,0,71.26,556.46Z"/><path d="M64,556.68a.22.22,0,0,0,0-.43.23.23,0,0,0-.23.2A.21.21,0,0,0,64,556.68Z"/><path d="M64.17,549.85a.23.23,0,0,0-.2-.22.21.21,0,0,0-.23.2.23.23,0,0,0,.2.22A.21.21,0,0,0,64.17,549.85Z"/><path d="M74,555.56a.82.82,0,0,0-.79,1.19l1.52-.11a.6.6,0,0,0,.06-.19A.83.83,0,0,0,74,555.56Z"/><path d="M64,553.36a.21.21,0,0,0,.22-.19.21.21,0,0,0-.2-.23.21.21,0,0,0-.22.2A.2.2,0,0,0,64,553.36Z"/><path d="M83.69,544.54a1.47,1.47,0,0,0,1.32-.67l-2.33.17A1.51,1.51,0,0,0,83.69,544.54Z"/><path d="M77.17,554.11a1.06,1.06,0,1,0-1-1.12A1.06,1.06,0,0,0,77.17,554.11Z"/><path d="M73.84,550.6a.84.84,0,1,0-.78-.89A.84.84,0,0,0,73.84,550.6Z"/><path d="M78.24,546.5a1.06,1.06,0,1,0-2.11-.14,1.06,1.06,0,0,0,2.11.14Z"/><path d="M74.71,546.51a.85.85,0,0,0-.79-.89.82.82,0,0,0-.88.78.84.84,0,1,0,1.67.11Z"/><path d="M70.54,550.42a.63.63,0,1,0,.08-1.26.63.63,0,1,0-.08,1.26Z"/><path d="M77.14,550.8a1.06,1.06,0,0,0,1.12-1,1.06,1.06,0,1,0-2.11-.13A1.07,1.07,0,0,0,77.14,550.8Z"/><path d="M73.87,553.91a.83.83,0,1,0,.1-1.66.83.83,0,1,0-.1,1.66Z"/><path d="M83.93,548.23a1.47,1.47,0,1,0,1.37,1.56A1.47,1.47,0,0,0,83.93,548.23Z"/><path d="M83.9,544.91a1.47,1.47,0,1,0,1.38,1.56A1.48,1.48,0,0,0,83.9,544.91Z"/><path d="M80.39,544.36a1.23,1.23,0,0,0,.78-.22l-1.24.09A1.22,1.22,0,0,0,80.39,544.36Z"/><path d="M82.39,552.92A1.47,1.47,0,1,0,84,551.54,1.48,1.48,0,0,0,82.39,552.92Z"/><path d="M71.19,546.52a.64.64,0,0,0-.59-.68.65.65,0,0,0-.68.6.64.64,0,0,0,.6.67A.63.63,0,0,0,71.19,546.52Z"/><path d="M80.47,554.3a1.27,1.27,0,1,0,.15-2.53A1.26,1.26,0,0,0,79.28,553,1.28,1.28,0,0,0,80.47,554.3Z"/><path d="M80.44,551a1.27,1.27,0,0,0,1.35-1.18,1.28,1.28,0,0,0-1.19-1.35,1.27,1.27,0,0,0-1.34,1.19A1.25,1.25,0,0,0,80.44,551Z"/><path d="M81.76,546.48a1.26,1.26,0,0,0-1.18-1.34,1.28,1.28,0,0,0-1.35,1.19,1.27,1.27,0,0,0,2.53.15Z"/><path d="M86.42,626.17a.77.77,0,0,0,.71-.84.69.69,0,0,0-.17-.4l-1.3.14a.66.66,0,0,0-.08.39A.77.77,0,0,0,86.42,626.17Z"/><path d="M83.29,626.25a.59.59,0,0,0,.53-.64.55.55,0,0,0-.14-.32l-1,.11a.55.55,0,0,0-.07.31A.59.59,0,0,0,83.29,626.25Z"/><path d="M89.55,626.1a1,1,0,0,0,.9-1.06,1,1,0,0,0-.2-.48l-1.67.19a1,1,0,0,0-.09.46A1,1,0,0,0,89.55,626.1Z"/><path d="M96.12,629.46a1.38,1.38,0,0,0-1.25,1.48,1.37,1.37,0,1,0,1.25-1.48Z"/><path d="M96.39,632.58a1.36,1.36,0,0,0-1.25,1.48,1.37,1.37,0,1,0,2.73-.23A1.36,1.36,0,0,0,96.39,632.58Z"/><path d="M109.73,621.5l-3.16.57a3.21,3.21,0,0,1-.19.31,2.37,2.37,0,0,0-.3-.23l-2.56.46a1.65,1.65,0,0,0-.22.36,1.72,1.72,0,0,0-.27-.27l-2.59.46a2,2,0,0,0-.21.52,1.55,1.55,0,0,0-.29-.43l-2.55.46A1.55,1.55,0,0,0,99,625.88a1.55,1.55,0,0,0,1.37-1.16,1.74,1.74,0,0,0,1,1,1.77,1.77,0,0,0-.8,1.12,1.54,1.54,0,0,0-1.55-.91,1.56,1.56,0,1,0,1.64,2,1.05,1.05,0,0,1,.18,2.07,1.57,1.57,0,1,0,.09,1.05,1.76,1.76,0,0,0,1,1A1.71,1.71,0,0,0,101,633a1.57,1.57,0,0,0-1.55-.91,1.56,1.56,0,0,0-.56,3l1.72-.23a1.56,1.56,0,0,0,.48-.77,1.73,1.73,0,0,0,.45.65l2.61-.34.08-.12a.61.61,0,0,0,.07.1l.89-.12,5.86-1.12a2,2,0,0,0,0-.43,2.17,2.17,0,0,0-.83-1.5,2.1,2.1,0,0,0-.26-3.11,2.09,2.09,0,0,0,.55-1.62,2.12,2.12,0,0,1-.26-3.12,2.17,2.17,0,0,0-.83-1.5A1.7,1.7,0,0,0,109.73,621.5Zm-2.55,10.23a.27.27,0,1,1-.05-.54,2.11,2.11,0,0,0,.27.25A3.15,3.15,0,0,0,107.18,631.73Zm-3.34-2.53a1.75,1.75,0,0,0-.73-.53,1.79,1.79,0,0,0,.63-.65,2,2,0,0,0,.57.55A1.83,1.83,0,0,0,103.84,629.2Zm3.07-.58a1.54,1.54,0,0,0-.32-.25,2,2,0,0,0,.28-.3,2,2,0,0,0,.26.25A2.32,2.32,0,0,0,106.91,628.62Zm-.26-3.12a2.51,2.51,0,0,0-.32-.25,1.86,1.86,0,0,0,.27-.29,2.16,2.16,0,0,0,.27.25A1.48,1.48,0,0,0,106.65,625.5Zm-2.6,0a2,2,0,0,0-.48.63,1.69,1.69,0,0,0-.73-.53,1.84,1.84,0,0,0,.63-.64A1.87,1.87,0,0,0,104.05,625.45Zm.06,6.86a1.81,1.81,0,0,0-.73-.52,1.68,1.68,0,0,0,.62-.65,2,2,0,0,0,.58.54A1.93,1.93,0,0,0,104.11,632.31Z"/><path d="M80.89,634.88a.4.4,0,1,0,.07.8.4.4,0,0,0-.07-.8Z"/><path d="M92.69,626a1.18,1.18,0,0,0,1.07-1.28,1.09,1.09,0,0,0-.21-.56l-2,.22a1.23,1.23,0,0,0-.09.54A1.19,1.19,0,0,0,92.69,626Z"/><path d="M77.52,632.24a.19.19,0,0,0-.17.21.19.19,0,0,0,.2.17.19.19,0,1,0,0-.38Z"/><path d="M77.25,629.12a.19.19,0,0,0,0,.38.19.19,0,0,0,.17-.2A.19.19,0,0,0,77.25,629.12Z"/><path d="M77,626a.19.19,0,0,0-.18.2.2.2,0,0,0,.21.18.19.19,0,0,0,.17-.21A.18.18,0,0,0,77,626Z"/><path d="M80.09,625.53a.4.4,0,0,0-.37.43.4.4,0,0,0,.8-.06A.4.4,0,0,0,80.09,625.53Z"/><path d="M80.35,628.65a.4.4,0,1,0,.07.79.41.41,0,0,0,.37-.43A.4.4,0,0,0,80.35,628.65Z"/><path d="M77.82,635.74a.21.21,0,0,0,.18-.21.19.19,0,0,0-.21-.17.18.18,0,0,0-.17.2A.18.18,0,0,0,77.82,635.74Z"/><path d="M95.82,626a1.38,1.38,0,0,0,1.25-1.48,1.3,1.3,0,0,0-.25-.67l-.33.06-2.06.23A1.37,1.37,0,0,0,95.82,626Z"/><path d="M86.55,627.73a.78.78,0,0,0,.14,1.56.78.78,0,0,0,.71-.84A.8.8,0,0,0,86.55,627.73Z"/><path d="M83.45,628.19a.59.59,0,0,0,.1,1.18.59.59,0,1,0-.1-1.18Z"/><path d="M86.82,630.85a.78.78,0,0,0-.71.85.78.78,0,0,0,1.56-.14A.78.78,0,0,0,86.82,630.85Z"/><path d="M87.09,634a.78.78,0,1,0,.84.71A.77.77,0,0,0,87.09,634Z"/><path d="M80.62,631.77a.39.39,0,0,0-.36.43.4.4,0,1,0,.36-.43Z"/><path d="M83.72,631.31a.6.6,0,0,0-.54.64.59.59,0,0,0,.64.53.58.58,0,0,0,.54-.63A.59.59,0,0,0,83.72,631.31Z"/><path d="M84.09,635.6a.6.6,0,0,0,.54-.64.61.61,0,0,0-.64-.54.59.59,0,0,0,.1,1.18Z"/><path d="M89.65,627.27a1,1,0,1,0,1.06.89A1,1,0,0,0,89.65,627.27Z"/><path d="M95.85,626.35a1.35,1.35,0,0,0-1.24,1.48,1.37,1.37,0,0,0,1.48,1.25,1.38,1.38,0,0,0,1.25-1.49A1.37,1.37,0,0,0,95.85,626.35Z"/><path d="M92.75,626.8A1.18,1.18,0,1,0,94,627.88,1.19,1.19,0,0,0,92.75,626.8Z"/><path d="M93,629.92a1.18,1.18,0,0,0,.2,2.35A1.19,1.19,0,0,0,94.3,631,1.18,1.18,0,0,0,93,629.92Z"/><path d="M93.29,633a1.18,1.18,0,0,0-1.08,1.27,1.19,1.19,0,0,0,1.28,1.08,1.18,1.18,0,0,0,1.07-1.28A1.16,1.16,0,0,0,93.29,633Z"/><path d="M89.92,630.38a1,1,0,1,0,1.06.9A1,1,0,0,0,89.92,630.38Z"/><path d="M90.19,633.5a1,1,0,1,0,1.06.89A1,1,0,0,0,90.19,633.5Z"/><polygon class="cls-1" points="89.02 593.5 134.13 584.73 90.34 584.29 91.6 586.03 91.45 588.08 90.95 590.67 89.02 593.5"/><polygon class="cls-1" points="83.76 593.81 33.8 593.76 76.9 585.39 77.78 588.49 77.38 591.01 83.76 593.81"/><path class="cls-1" d="M154.79,581.65c0-11.44-7.77-22.23-21.87-30.37a92.89,92.89,0,0,0-26.74-10,127,127,0,0,0-22.87-2C63.17,539.28,44.24,543.8,30,552S8.15,570.94,8.15,582.38,15.92,604.61,30,612.76a93.18,93.18,0,0,0,26.74,10,127.93,127.93,0,0,0,22.87,2c20.14,0,39.07-4.52,53.29-12.73S154.79,593.09,154.79,581.65ZM83.32,621a110.12,110.12,0,0,1-23.39-2.46,84.1,84.1,0,0,1-27.09-9.47c-12.62-7.29-19.58-17-19.58-27.41s7-20.12,19.58-27.41S62,543,79.62,543A110.12,110.12,0,0,1,103,545.5,84.1,84.1,0,0,1,130.1,555c12.62,7.29,19.58,17,19.58,27.41s-7,20.11-19.58,27.4S101,621,83.32,621Z"/><polygon points="32.11 594.72 84.83 594.9 137.28 584.86 137.28 587.7 86.11 597.84 32.11 596.87 32.11 594.72"/><polygon class="cls-1" points="386.94 496.81 408.92 466.39 413.71 470.91 428.56 473.11 431.85 480.16 412.61 476.98 394.82 501.36 389.86 507.33 383.39 503.6 350.42 484.21 327.67 509.4 278.42 491.87 286.02 487.33 323.56 500.78 347.07 473.83 386.94 496.81 386.94 496.81"/><path class="cls-3" d="M495.26,675.75v2.83c-.13,2.16-1.63,4.3-4.49,6-6,3.47-15.75,3.47-21.76,0-2.86-1.66-4.36-3.8-4.49-6v-2.83a6.78,6.78,0,0,0-2.84,5.12c0,5.29,8.16,9.57,18.22,9.57s18.21-4.28,18.21-9.57A6.8,6.8,0,0,0,495.26,675.75Z"/><path class="cls-3" d="M679.2,574.78v3.1c-.14,2.16-1.63,4.31-4.49,6-6,3.47-15.75,3.47-21.76,0-2.86-1.65-4.36-3.8-4.49-6v-3.1a6.78,6.78,0,0,0-2.84,5.12c0,5.28,8.16,9.57,18.22,9.57S682,585.18,682,579.9A6.78,6.78,0,0,0,679.2,574.78Z"/><path d="M330.91,214.28a25.61,25.61,0,0,0,.1,5.89c2.07-1.41,4.26-2.64,5.63-3.46a16,16,0,0,1,2.23-1.12c0-.82,0-1.68,0-2.56,0-.55,0-2.48,0-4.56,0-.13-.07-.25-.09-.38s-.05-.34-.07-.52a1.26,1.26,0,0,1-.7.13,3.05,3.05,0,0,1-2.53-2.57c-.31-1.38.33-2.53,1.6-2.41a2.52,2.52,0,0,1,1.45.59c0-2.72.1-5.34.1-5.34.59-3.56,13.88-5,15.25.23a32.1,32.1,0,0,1,.06,9.88,10.84,10.84,0,0,1-3.47,5.91c.55,0,1,.06,1.21.06a6.76,6.76,0,0,1,1.66.18c2-10.46,5.27-15.89,1.68-23.1-3-6.09-6.1-8.92-14.49-8.85-2.71,0-7.42,1-11.4,7.29-2.44,3.87-2,11.22-1.62,14.24C328.09,208,331.25,210.35,330.91,214.28Z"/><path class="cls-4" d="M552.81,523.69c-.22-.07-.68-.17-1.34-.32v7.22l-1.14,1.91-2.84,2.08-41.11,23.75-37.21,21.49-40.59,23.45-31.69,18.3-5.9,3.06-4.2.72-4.06,0-3.19-.82-2.4-.83-3.65-2L118,474.32,86.76,455.93l-1.53-2-.56-1.82,0-6.23c-2.42,1.46-4.62,3.06-5.5,4.45-1.88,3,1,7.2,5.09,9.58L373.89,627.18a22.16,22.16,0,0,0,6.23,2.35,26.2,26.2,0,0,0,5.58.61,22.49,22.49,0,0,0,4.95-.53,15.91,15.91,0,0,0,4.43-1.7l156.75-90.5a8.32,8.32,0,0,0,4.58-7.22C556.41,528.91,556.36,524.75,552.81,523.69Z"/><path class="cls-1" d="M153.39,582.34l-.67-.8c0,.26.05.53.08.79Z"/><path class="cls-3" d="M158.42,590.11l.08,4.25V595c-1.31,10.28-8.4,20.29-21.33,27.75-28.91,16.69-75.78,16.69-104.69,0-14.6-8.43-21.67-19.43-21.36-31.33l0-.76c-6.36,14.45.27,30.4,19.94,41.71,29.72,17.08,77.92,17.08,107.64,0C158.66,620.92,165.21,604.7,158.42,590.11Z"/><path d="M161,579.51c-.42-.5-.85-1-1.29-1.48l1.48-1.35c.46.51.91,1,1.34,1.54Z"/><path d="M85.44,649.87c-1.32,0-2.64,0-4-.06l.06-2c1.3,0,2.61.06,3.91.06Zm4,0-.06-2c1.31,0,2.61-.09,3.91-.16l.11,2C92.05,649.73,90.73,649.78,89.41,649.82Zm-11.9-.17q-2-.1-4-.27l.16-2c1.3.1,2.61.19,3.91.26Zm19.82-.25-.16-2c1.3-.11,2.6-.23,3.89-.37l.22,2C100,649.17,98.65,649.29,97.33,649.4ZM69.6,649c-1.31-.14-2.63-.3-3.93-.48l.27-2c1.29.18,2.58.34,3.88.48Zm35.62-.45-.27-2c1.29-.17,2.58-.37,3.86-.58l.33,2C107.84,648.17,106.53,648.37,105.22,648.55Zm-43.48-.63q-2-.33-3.9-.72l.39-2c1.27.25,2.55.49,3.84.7Zm51.31-.67-.39-2c1.29-.25,2.56-.52,3.83-.81l.44,1.95C115.65,646.71,114.35,647,113.05,647.25ZM54,646.37c-1.29-.3-2.58-.61-3.85-1l.51-1.93c1.25.33,2.52.64,3.79.93Zm66.84-.9-.51-1.93c1.27-.33,2.52-.68,3.76-1l.58,1.91C123.35,644.78,122.08,645.14,120.79,645.47Zm-74.52-1.13c-1.27-.38-2.54-.79-3.78-1.21l.64-1.89c1.22.41,2.47.81,3.72,1.19Zm82.13-1.14-.64-1.89c1.24-.42,2.48-.86,3.68-1.32l.71,1.88C130.92,642.33,129.66,642.78,128.4,643.2Zm-89.66-1.41c-1.24-.47-2.48-1-3.69-1.49l.79-1.84c1.18.51,2.4,1,3.62,1.46Zm97.1-1.4-.78-1.84c1.21-.51,2.4-1,3.56-1.6l.86,1.81C138.29,639.32,137.07,639.87,135.84,640.39ZM31.42,638.67c-1.21-.58-2.41-1.18-3.55-1.79l.94-1.77c1.12.6,2.29,1.19,3.47,1.75ZM143,637l-.94-1.77q1.4-.74,2.73-1.5l.67-.4,1,1.73-.69.4C144.92,636,144,636.48,143,637ZM24.39,634.92c-1.16-.68-2.29-1.4-3.38-2.12l1.11-1.67c1.06.71,2.17,1.41,3.29,2.07Zm125.51-2-1.1-1.67c1.09-.72,2.16-1.47,3.17-2.23l1.2,1.6C152.12,631.4,151,632.18,149.9,632.92ZM17.75,630.49c-1.08-.81-2.12-1.66-3.12-2.51l1.31-1.52c1,.83,2,1.65,3,2.43Zm138.55-2.37L155,626.6c1-.85,1.95-1.73,2.85-2.61l1.4,1.42C158.32,626.33,157.33,627.24,156.3,628.12ZM11.69,625.26c-1-1-1.89-2-2.74-3l1.52-1.3c.82,1,1.7,1.91,2.63,2.83ZM162,622.48l-1.51-1.31c.85-1,1.65-2,2.38-3l1.63,1.17C163.73,620.39,162.89,621.45,162,622.48ZM6.47,619.14a38.06,38.06,0,0,1-2.16-3.41l1.74-1A37.86,37.86,0,0,0,8.1,618Zm160.21-3.22-1.73-1a35.18,35.18,0,0,0,1.71-3.42l1.84.79A36,36,0,0,1,166.68,615.92ZM2.51,612.1a33,33,0,0,1-1.35-3.83l1.92-.55a31.53,31.53,0,0,0,1.27,3.6Zm167.36-3.62-1.92-.56a28.33,28.33,0,0,0,.83-3.71l2,.3A29.07,29.07,0,0,1,169.87,608.48ZM.31,604.29A29.09,29.09,0,0,1,0,600.23l2,0A26.64,26.64,0,0,0,2.29,604Zm170.78-3.83-2,0v-.37a27.91,27.91,0,0,0-.21-3.42l2-.25a28.26,28.26,0,0,1,.23,3.67Zm-168.85-4-2-.27a31,31,0,0,1,.81-4L3,592.7A28.35,28.35,0,0,0,2.24,596.43Zm165.91-3.53a31.15,31.15,0,0,0-1.2-3.61l1.85-.75a31.57,31.57,0,0,1,1.28,3.85ZM4.23,589.09l-1.85-.76a34.86,34.86,0,0,1,1.76-3.65l1.75,1A31.85,31.85,0,0,0,4.23,589.09Zm161.08-3.25c-.6-1.1-1.28-2.2-2-3.27l1.64-1.13a36.63,36.63,0,0,1,2.12,3.44Z"/><path d="M8,582.32l-1.64-1.14c.38-.56.79-1.11,1.21-1.65l1.58,1.22C8.72,581.27,8.33,581.8,8,582.32Z"/><path d="M86.65,598.21l-.4-2,50.49-10.2v-1.66h2v2.47a1,1,0,0,1-.8,1Z"/><path d="M86.65,595.73l-.4-2,41.67-8.42L90,585.21v-2l47.77.18a1,1,0,0,1,1,.9,1,1,0,0,1-.8,1.08Z"/><path d="M86.44,595.75l-54.33-.39a1,1,0,0,1-.19-2l46.78-9.45.4,2-37.32,7.54,44.68.32Z"/><path d="M84.93,594.5a11.26,11.26,0,0,1-5.55-1.34,4.46,4.46,0,0,1-2.59-3.82V587h2v2.31a2.62,2.62,0,0,0,1.59,2.07,10.19,10.19,0,0,0,9.1,0,2.63,2.63,0,0,0,1.59-2.06V587h2v2.32a4.48,4.48,0,0,1-2.59,3.8A11.31,11.31,0,0,1,84.93,594.5Z"/><path d="M84.93,592.25a11.26,11.26,0,0,1-5.55-1.35,4,4,0,0,1,0-7.56,12.08,12.08,0,0,1,11.1,0,4.05,4.05,0,0,1,0,7.56A11.29,11.29,0,0,1,84.93,592.25Zm0-8.25a9.36,9.36,0,0,0-4.55,1.07c-1,.59-1.6,1.33-1.6,2a2.67,2.67,0,0,0,1.6,2,10.19,10.19,0,0,0,9.1,0,2.12,2.12,0,0,0,0-4.1A9.36,9.36,0,0,0,84.93,584Z"/><path d="M22.05,589.05l-2-.31c1.38-8.84,7.93-16.88,19-23.24,13.74-7.93,32.68-11.87,52-10.8,14.91.83,29,4.66,39.62,10.8s17.29,14.25,18.89,22.91l-2,.36c-1.49-8.07-7.85-15.72-17.92-21.54-10.37-6-24.13-9.72-38.73-10.53C72,555.65,53.43,559.49,40,567.23,29.54,573.28,23.33,580.82,22.05,589.05Z"/><path d="M86.45,598.23l-54.34-.39a1,1,0,0,1-1-1v-2.48h2v1.49l52.34.37v-1.47h2v2.48a1,1,0,0,1-1,1Z"/><path d="M84.84,636.24C65.7,636.24,46.56,632,32,623.62S9.8,604,10.13,591.4l.4-10.06,2,.08-.39,10C11.82,603.3,19,613.83,33,621.89c28.59,16.5,75.1,16.5,103.69,0,12.09-7,19.48-16.55,20.83-26.95l-.23-12.51,2,0,.23,12.58s0,.1,0,.15c-1.4,11.06-9.15,21.18-21.82,28.49C123.11,632,104,636.24,84.84,636.24Z"/><path d="M85,612.13h-.06a2,2,0,0,1,0-4H85a2,2,0,0,1,0,4Z"/><path d="M64.74,609.84a1.91,1.91,0,1,1,.47.07A1.84,1.84,0,0,1,64.74,609.84Z"/><path d="M102.81,608.36a2,2,0,1,1,2.4,1.47,1.9,1.9,0,0,1-.46,0A2,2,0,0,1,102.81,608.36Z"/><path d="M121.26,601.19a2,2,0,1,1,2.79.38,1.9,1.9,0,0,1-1.19.4A2,2,0,0,1,121.26,601.19Z"/><path d="M39.85,584.75a2,2,0,1,1,.8.17A1.92,1.92,0,0,1,39.85,584.75Z"/><path d="M53.87,571.38a2,2,0,1,1,2.6,1.06,1.9,1.9,0,0,1-.77.16A2,2,0,0,1,53.87,571.38Z"/><path d="M113.3,572.4a2,2,0,1,1,.77.16A1.9,1.9,0,0,1,113.3,572.4Z"/><path d="M73,566.07a2,2,0,1,1,2.19,1.77H75A2,2,0,0,1,73,566.07Z"/><path d="M94.59,567.82a1.92,1.92,0,1,1,.23,0A.9.9,0,0,1,94.59,567.82Z"/><path d="M84.93,625.48c-19.83,0-38.48-4.46-52.51-12.56s-21.85-19-21.85-30.51,7.76-22.37,21.85-30.5,32.68-12.56,52.5-12.56,38.49,4.46,52.52,12.56,21.84,19,21.84,30.51-7.76,22.36-21.84,30.5S104.76,625.48,84.93,625.48Zm0-84.13c-19.48,0-37.77,4.36-51.5,12.29-13.44,7.76-20.85,18-20.85,28.77s7.41,21,20.85,28.77c13.73,7.93,32,12.3,51.51,12.3s37.78-4.37,51.51-12.29c13.44-7.76,20.84-18,20.84-28.77s-7.4-21-20.84-28.78C122.71,545.72,104.41,541.35,84.92,541.35Z"/><path d="M84.93,621.09c-17.41,0-33.8-3.93-46.15-11.06-12.65-7.3-19.61-17.11-19.61-27.62s7-20.31,19.61-27.61c12.35-7.13,28.74-11.06,46.15-11.06s33.79,3.93,46.15,11.06c12.64,7.3,19.61,17.11,19.61,27.62s-7,20.31-19.61,27.61C118.73,617.16,102.34,621.09,84.93,621.09Zm0-75.35c-17.07,0-33.1,3.83-45.15,10.79s-18.61,16.12-18.61,25.88,6.61,19,18.61,25.88,28.09,10.8,45.15,10.8,33.1-3.83,45.15-10.79,18.61-16.12,18.61-25.88-6.61-19-18.61-25.89S102,545.74,84.93,545.74Z"/><path d="M384.45,636.45a37.36,37.36,0,0,1-8-.87A33.34,33.34,0,0,1,367,632L86.72,470.15a25.86,25.86,0,0,1-7-5.81l1.54-1.28a23.89,23.89,0,0,0,6.43,5.36L368,630.24a31.43,31.43,0,0,0,8.87,3.39,34.06,34.06,0,0,0,14.56.07,25.45,25.45,0,0,0,7.17-2.79l151.6-87.53a18.12,18.12,0,0,0,9.46-15.74h2a20.07,20.07,0,0,1-10.46,17.47L399.62,632.64a27.62,27.62,0,0,1-7.74,3A34.11,34.11,0,0,1,384.45,636.45Z"/><rect class="cls-3" x="153.28" y="385.97" width="2" height="2" transform="matrix(0.5, -0.86, 0.86, 0.5, -257.82, 325.96)"/><path class="cls-3" d="M149.73,385.48l-3.19-1.85,1-1.72,3.18,1.84Zm-6.37-3.69-3.18-1.85,1-1.73,3.18,1.85Zm-6.37-3.7-3.18-1.85,1-1.73,3.19,1.85Z"/><path d="M479.88,695.7c-1.07,0-2.14,0-3.2-.12l.15-2a39,39,0,0,0,3.9.11l0,2Zm5-.3-.23-2c1.3-.16,2.59-.38,3.83-.66l.45,2A37.59,37.59,0,0,1,484.86,695.4Zm-12.25-.33a38.28,38.28,0,0,1-4-1l.57-1.91a34.36,34.36,0,0,0,3.79.89Zm20.25-1.51-.68-1.88a26.49,26.49,0,0,0,3.53-1.56l.94,1.76A27.3,27.3,0,0,1,492.86,693.56Zm-28.12-.87a23.59,23.59,0,0,1-2.3-1.18q-.7-.4-1.35-.84l1.12-1.66c.39.27.8.52,1.23.77a22.15,22.15,0,0,0,2.12,1.08Zm35.4-3.12L498.87,688a13,13,0,0,0,2.52-2.71l1.66,1.11A14.7,14.7,0,0,1,500.14,689.57Zm-42.26-1.65a11.81,11.81,0,0,1-2.31-3.67l1.86-.72a10.13,10.13,0,0,0,1.93,3.05Zm46.83-5.55-2-.33a7.68,7.68,0,0,0,.09-1.17,7.33,7.33,0,0,0-.37-2.3l1.89-.63a9.27,9.27,0,0,1,.48,2.93A9.48,9.48,0,0,1,504.71,682.37ZM457,680.07l-2-.22a10,10,0,0,1,1.48-4.15l1.7,1A8.13,8.13,0,0,0,457,680.07Zm43.69-4.61a14.46,14.46,0,0,0-2.78-2.5l1.16-1.64a16.78,16.78,0,0,1,3.15,2.85ZM460.57,674l-1.31-1.51c.4-.34.83-.68,1.28-1l1.17,1.62C461.31,673.36,460.93,673.67,460.57,674Z"/><path d="M684,573.78a14.27,14.27,0,0,0-1.4-1.25L683.8,571a15.72,15.72,0,0,1,1.59,1.42Z"/><path d="M663.83,594.73q-1.12,0-2.22-.06l.1-2c1.3.07,2.61.07,3.91,0l.09,2C665.08,594.71,664.45,594.73,663.83,594.73Zm6-.43-.28-2a35.36,35.36,0,0,0,3.82-.76l.5,1.94A39,39,0,0,1,669.79,594.3Zm-12.27,0a36.37,36.37,0,0,1-4-.84l.52-1.93a34.69,34.69,0,0,0,3.81.8Zm20.24-2-.74-1.86a24.3,24.3,0,0,0,3.24-1.56l.22-.13,1,1.73-.23.13A27.79,27.79,0,0,1,677.76,592.23Zm-28.19-.13a26.83,26.83,0,0,1-3.18-1.56l-.53-.31,1-1.71.49.29a24.32,24.32,0,0,0,2.94,1.44Zm35.32-4.2-1.37-1.46a11.29,11.29,0,0,0,2.28-2.87l1.76.95A13.47,13.47,0,0,1,684.89,587.9Zm-42.38-.24a13,13,0,0,1-2.59-3.47l1.79-.89a11.05,11.05,0,0,0,2.19,2.92Zm46.26-7.39-2-.09a2.71,2.71,0,0,0,0-.29,7.55,7.55,0,0,0-.71-3.14l1.82-.83a9.51,9.51,0,0,1,.89,4C688.78,580,688.78,580.15,688.77,580.27Zm-47.9-.38h-2a9.63,9.63,0,0,1,1-4.3l1.79.89A7.69,7.69,0,0,0,640.87,579.89Z"/><path d="M643.93,573.54l-1.39-1.44a18.43,18.43,0,0,1,1.61-1.38l1.21,1.6A17.26,17.26,0,0,0,643.93,573.54Z"/><path d="M479.88,688.12a23.3,23.3,0,0,1-11.38-2.72c-3.05-1.76-4.83-4.16-5-6.76l0-8.95h2l0,8.89c.12,1.84,1.53,3.67,4,5.09,5.72,3.31,15,3.31,20.76,0,2.46-1.42,3.88-3.25,4-5.15V669.7h2v8.88c-.16,2.66-1.93,5.06-5,6.82A23.3,23.3,0,0,1,479.88,688.12Z"/><path d="M479.88,679.38a23.3,23.3,0,0,1-11.38-2.72c-3.23-1.86-5-4.4-5-7.15s1.78-5.28,5-7.14c6.27-3.62,16.48-3.62,22.76,0,3.23,1.86,5,4.4,5,7.15s-1.77,5.28-5,7.14A23.3,23.3,0,0,1,479.88,679.38Zm0-17.76a21.25,21.25,0,0,0-10.38,2.48c-2.58,1.49-4,3.41-4,5.41s1.43,3.93,4,5.42c5.72,3.3,15,3.3,20.76,0,2.58-1.49,4-3.41,4-5.41s-1.42-3.93-4-5.42A21.25,21.25,0,0,0,479.88,661.62Z"/><path d="M479.28,666.78l5.35,3.09-1.55.89-5.35-3.09Zm-2.6,1.5,5.35,3.09-1.55.89-5.35-3.09Z"/><path d="M663.83,587.42a23.29,23.29,0,0,1-11.38-2.71c-3.06-1.77-4.83-4.17-5-6.77l0-9h2l0,8.89c.11,1.84,1.53,3.67,4,5.09,5.72,3.31,15,3.31,20.76,0,2.45-1.42,3.87-3.25,4-5.15V569h2v8.88c-.16,2.66-1.94,5.06-5,6.83A23.29,23.29,0,0,1,663.83,587.42Z"/><path d="M663.83,578.68A23.27,23.27,0,0,1,652.45,576c-3.23-1.86-5-4.4-5-7.14s1.78-5.29,5-7.15c6.27-3.62,16.48-3.62,22.75,0,3.23,1.86,5,4.4,5,7.15s-1.78,5.28-5,7.14A23.3,23.3,0,0,1,663.83,578.68Zm0-17.76a21.25,21.25,0,0,0-10.38,2.48c-2.59,1.49-4,3.42-4,5.42s1.42,3.92,4,5.41c5.72,3.31,15,3.31,20.76,0,2.58-1.49,4-3.41,4-5.41s-1.42-3.93-4-5.42A21.23,21.23,0,0,0,663.83,560.92Z"/><polygon points="666.07 566.34 664.21 567.41 665.24 569.63 661.4 569.03 659.52 570.11 668.14 571.31 666.07 566.34"/><rect x="485.69" y="588.79" width="2" height="2" transform="translate(-274.09 666.77) rotate(-56.25)"/><path d="M514.69,603.32c-.79,0-1.59,0-2.39-.09l.16-2c.74.06,1.49.09,2.23.09.55,0,1.09,0,1.63-.05l.1,2C515.85,603.3,515.25,603.3,514.69,603.32Zm5.83-.54-.37-2a29.83,29.83,0,0,0,3.75-1l.61,1.91A30.24,30.24,0,0,1,520.52,602.78Zm-12.3-.13a31.92,31.92,0,0,1-4-1.09l.66-1.89a29.64,29.64,0,0,0,3.72,1Zm20.12-2.39-.85-1.81c.72-.34,1.44-.71,2.13-1.11l1.31-.75,1,1.73-1.32.75C529.88,599.5,529.11,599.9,528.34,600.26Zm-27.89-.3c-.57-.29-1.14-.59-1.71-.92l-1.81-1.21,1.11-1.66,1.76,1.17c.47.27,1,.56,1.54.83Zm34.94-3.62-1-1.74,3.47-2,1,1.73Zm-41.78-.73-3.32-2.22,1.11-1.66,3.32,2.22Zm48.72-3.24-1-1.74,3.47-2,1,1.74Zm6.93-4-1-1.73,3.47-2,1,1.74Zm6.93-4-1-1.73,3.46-2,1,1.74Zm6.93-4-1-1.73,3.47-2,1,1.74Zm6.94-4-1-1.73,3.47-2,1,1.74Zm6.93-4-1-1.74,3.46-2,1,1.73Zm6.93-4-1-1.74,3.46-2,1,1.73Zm6.93-4-1-1.74,3.47-2,1,1.73Zm6.94-4-1-1.74,3.47-2,1,1.73Zm6.93-4-1-1.74,3.46-2,1,1.74Zm6.93-4-1-1.73,3.47-2,1,1.74Zm6.94-4-1-1.73,3.47-2,1,1.74Zm6.93-4-1-1.73,3.47-2,1,1.74Zm6.93-4-1-1.73,3.46-2,1,1.74Zm6.93-4-1-1.74,3.47-2,1,1.73Zm6.94-4-1-1.74,3.47-2,1,1.73Zm6.93-4-1-1.74,3.46-2,1,1.73Zm6.93-4-1-1.74,3.47-2,1,1.73Zm6.94-4-1-1.74,3.47-2,1,1.74Zm6.93-4-1-1.73,3.47-2,1,1.74Zm6.93-4-1-1.73,3-1.72a2.92,2.92,0,0,0,.37-.24l1.17,1.63c-.17.12-.35.24-.54.35Zm6-6-2-.35a4.74,4.74,0,0,0,.06-.75,4.15,4.15,0,0,0-.7-2.34l1.67-1.11a6.15,6.15,0,0,1,1,3.44A6.92,6.92,0,0,1,687,507Zm-5.39-5.52-3.49-1.95,1-1.75,3.48,1.95Zm-7-3.91-3.48-1.94,1-1.75,3.49,1.95Zm-7-3.89-3.49-2,1-1.74,3.49,1.95Zm-7-3.91-3.49-2,1-1.74,3.48,2Zm-7-3.9-3.48-1.95,1-1.74,3.48,1.95Zm-7-3.9L643.25,480l1-1.74,3.49,1.95Zm-7-3.9-3.49-1.95,1-1.74,3.49,1.95Zm-7-3.9-3.49-1.95,1-1.74,3.48,1.95Zm-7-3.9-3.48-2,1-1.74,3.49,2Zm-7-3.9-3.49-1.95,1-1.74,3.49,1.95Zm-7-3.9-3.49-1.95,1-1.74,3.48,1.95Zm-7-3.9-3.48-1.95,1-1.74,3.49,1.95Zm-7-3.9-3.48-1.95,1-1.74,3.49,1.95Zm-7-3.9-3.49-2,1-1.74,3.49,2Zm-7-3.9-3.49-1.95,1-1.74,3.48,1.95Zm-7-3.9-2.43-1.36a13.14,13.14,0,0,1-1.11-.72l1.18-1.62a10.33,10.33,0,0,0,.92.6l2.42,1.36Zm-6.59-5a21.63,21.63,0,0,1-2.3-3.48l1.76-.95a20.09,20.09,0,0,0,2.09,3.18Zm-4-7.29a22.6,22.6,0,0,1-1-4.06l2-.28a20.49,20.49,0,0,0,.89,3.7Zm.83-8.19h-2v-4h2Zm0-8h-2v-4h2Zm0-8h-2v-4h2Zm0-8h-2v-4h2Zm0-8h-2v-4h2Zm0-8h-2v-4h2Zm0-8h-2v-4h2Zm0-8h-2v-4h2Zm0-8h-2v-4h2Zm0-8h-2v-4h2Zm0-8h-2v-4h2Zm0-8h-2v-4h2Zm0-8h-2v-4h2Zm0-8h-2v-4h2Zm0-8h-2v-4h2Zm0-8h-2v-4h2Zm0-8h-2v-4h2Zm0-8h-2v-4h2Zm0-8h-2v-4h2Zm0-8h-2v-4h2Zm0-8h-2v-4h2Zm0-8h-2v-4h2Zm0-8h-2v-4h2Zm0-8h-2v-4h2Zm0-8h-2v-4h2Zm0-8h-2v-4h2Zm0-8h-2v-4h2Zm0-8h-2v-4h2Zm0-8h-2v-4h2Z"/><rect x="565.29" y="188.68" width="2" height="2"/><rect class="cls-3" x="138.96" y="372.03" width="2" height="2" transform="translate(-163.72 115.12) rotate(-29.09)"/><path class="cls-3" d="M144.83,371.46l-1-1.75,3.51-1.95,1,1.75Zm7-3.9-1-1.75,3.51-1.95,1,1.75Zm7-3.91-1-1.74,3.51-2,1,1.75Zm7-3.9-1-1.75,3.51-1.95,1,1.75Zm7-3.9-1-1.75,3.51-2,1,1.75Zm7-3.91-1-1.74,3.51-2,1,1.75Zm7-3.9-1-1.75,3.51-2,1,1.75Zm7-3.9-1-1.75,3.51-1.95,1,1.74Zm7-3.91-1-1.75,3.51-2,1,1.75Zm7-3.9-1-1.75,3.51-1.95,1,1.75Zm7-3.9-1-1.75,3.51-1.95,1,1.74Zm7-3.91-1-1.75,3.51-1.95,1,1.75Zm7-3.9-1-1.75,3.51-1.95,1,1.75Zm7-3.91-1-1.74,3.51-2,1,1.75Zm7-3.9-1-1.75,3.51-1.95,1,1.75Zm7-3.9-1-1.75,3.51-2,1,1.75Zm7-3.91-1-1.74,2.66-1.48c.24-.14.49-.3.73-.47l1.15,1.64q-.44.3-.9.57Zm6.67-5-1.54-1.28a19.65,19.65,0,0,0,2.14-3.16l1.75,1A21.2,21.2,0,0,1,263.8,304Zm4.05-7.3-1.89-.66a21.43,21.43,0,0,0,.93-3.71l2,.3A23.77,23.77,0,0,1,267.85,296.72Zm1.23-8.23h-2v-4h2Zm0-8h-2v-4h2Zm0-8h-2v-4h2Zm0-8h-2v-4h2Zm0-8h-2v-4h2Zm0-8h-2v-4h2Zm0-8h-2v-4h2Zm0-8h-2v-4h2Zm0-8h-2v-4h2Zm0-8h-2v-4h2Zm0-8h-2v-4h2Zm0-8h-2v-4h2Zm0-8h-2v-4h2Zm0-8h-2v-4h2Zm0-8h-2v-4h2Zm0-8h-2v-4h2Zm0-8h-2v-4h2Zm0-8h-2v-4h2Zm0-8h-2v-4h2Zm0-8h-2v-4h2Zm0-8h-2v-4h2Zm0-8h-2v-4h2Zm0-8h-2v-4h2Zm0-8h-2v-4h2Zm0-8h-2v-4h2Zm0-8h-2v-4h2Z"/><rect class="cls-1" x="267.08" y="77.68" width="2" height="2"/><polygon points="585.48 200 567.13 178.26 549.97 178.77 553.24 158.61 538.63 133.72 558.93 142.04 567.81 126.39 576.75 152.46 574.86 153.11 567.36 131.24 559.8 144.56 543.35 137.82 555.33 158.22 552.33 176.7 568.04 176.24 582.57 193.44 579.8 173.22 592.34 166.35 578.99 156.41 580.18 154.8 596.03 166.61 581.97 174.32 585.48 200"/><rect x="640.94" y="568.09" width="2" height="2" transform="translate(-173.95 834.18) rotate(-59.56)"/><path d="M637.52,567.66l-3-1.79,1-1.73,3,1.79Zm-6.08-3.58-3.05-1.79,1-1.73,3,1.79Zm-6.09-3.58-3-1.79,1-1.73,3,1.79Zm-6.09-3.58-3-1.79,1-1.73,3,1.79Z"/><rect x="611.82" y="550.97" width="2" height="2" transform="translate(-173.61 800.45) rotate(-59.54)"/><path d="M385.6,607.81a22,22,0,0,1-10.73-2.67L88.59,439.92c-3.14-1.81-4.94-4.27-4.94-6.77,0-2.13,1.29-4,3.63-5.41l154.93-89.48c4.9-2.83,13.47-2.5,19.09.75l64.82,37.41-1,1.73L260.3,340.74c-5.07-2.93-12.74-3.26-17.09-.74L88.28,429.48c-1.72,1-2.63,2.26-2.63,3.67,0,1.76,1.44,3.6,3.94,5L375.87,603.41c5.07,2.93,12.74,3.26,17.09.75l154.93-89.48c1.72-1,2.63-2.27,2.63-3.68,0-1.76-1.44-3.6-3.93-5l-89.38-51.58,1-1.73,89.38,51.58c3.13,1.81,4.93,4.28,4.93,6.77,0,2.14-1.29,4.06-3.63,5.41L394,605.89A17,17,0,0,1,385.6,607.81Z"/><rect x="340.04" y="380.15" width="2" height="12.07" transform="translate(-163.91 488.53) rotate(-60.01)"/><rect x="380.19" y="379.95" width="2" height="58.8" transform="translate(-163.89 534.89) rotate(-60.01)"/><path class="cls-2" d="M469.33,541.73,439,559.26c-.78.45-.68,1.23.22,1.75a3.4,3.4,0,0,0,3.05.13l30.34-17.52c.78-.45.68-1.24-.22-1.76A3.4,3.4,0,0,0,469.33,541.73Z"/><path d="M440.93,562.44a4.57,4.57,0,0,1-2.22-.56,2.21,2.21,0,0,1-1.24-1.86,1.89,1.89,0,0,1,1-1.63l30.34-17.52a4.37,4.37,0,0,1,4.05.12,2.22,2.22,0,0,1,1.24,1.86,1.89,1.89,0,0,1-1,1.63L442.76,562A3.75,3.75,0,0,1,440.93,562.44Zm-1.34-2.37.12.08a2.41,2.41,0,0,0,2.05.12L472,542.81a.36.36,0,0,0-.12-.08,2.46,2.46,0,0,0-2.05-.13Z"/><path d="M175.14,407.22a4.93,4.93,0,0,1-2.43-.62l-9.15-5.28a2.37,2.37,0,0,1-1.34-2,2,2,0,0,1,1.09-1.72L190,382.17a4.77,4.77,0,0,1,4.43.14l9.15,5.28a2.37,2.37,0,0,1,1.34,2,2,2,0,0,1-1.1,1.72l-26.73,15.44A4,4,0,0,1,175.14,407.22Zm-10.87-7.85a1.48,1.48,0,0,0,.29.22l9.15,5.28a2.82,2.82,0,0,0,2.42.14l26.73-15.44,0,0a1.48,1.48,0,0,0-.29-.22L193.47,384a2.84,2.84,0,0,0-2.43-.14l-26.73,15.44Z"/><path d="M389.87,625.93a1,1,0,0,1-.63-.21,1,1,0,0,1-.37-.79v-15.3a1,1,0,0,1,.78-1,12.37,12.37,0,0,0,3.3-1.24l154.91-89.47c1.77-1,2.67-2.35,2.62-3.83a1,1,0,0,1,.29-.74.9.9,0,0,1,.73-.3,1,1,0,0,1,1,1v15.39a.68.68,0,0,1,0,.2c0,2.1-1.31,4-3.62,5.29L393.93,624.43a13.72,13.72,0,0,1-3.84,1.48Zm1-15.53v13.22a10.52,10.52,0,0,0,2.06-.92l154.92-89.48c1.73-1,2.66-2.31,2.62-3.74a1.64,1.64,0,0,1,0-.22V518.47a9.14,9.14,0,0,1-1.64,1.2L393.93,609.15A13.24,13.24,0,0,1,390.86,610.4Z"/><path d="M380.7,625.85l-.22,0a20.35,20.35,0,0,1-5.65-2.13L88.55,458.48c-3.38-2-5.15-4.62-4.88-7.3V437a1,1,0,0,1,2-.13c.21,1.62,1.63,3.3,3.89,4.6L375.83,606.66a18.07,18.07,0,0,0,5.08,1.91,1,1,0,0,1,.78,1v15.3a1,1,0,0,1-.38.78A1,1,0,0,1,380.7,625.85ZM89.55,456.75,375.83,622a17.22,17.22,0,0,0,3.87,1.6V610.33a19.65,19.65,0,0,1-4.86-1.93L88.55,443.18A13,13,0,0,1,85.67,441v10.28a.45.45,0,0,1,0,.11c-.2,1.85,1.25,3.87,3.89,5.4Z"/><path d="M385.58,626.39a24,24,0,0,1-5.1-.56l.43-2a21,21,0,0,0,8.74.08l.44,1.95A20.65,20.65,0,0,1,385.58,626.39Z"/><path class="cls-3" d="M353.63,405.62l-1.16,10.18-4.87.66-1.2-15-16.32-9.4L321.4,403.5c7.33,5.31,8.73,12.46,4.24,18.49L361.4,442.6l28.21-16.25Z"/><path class="cls-3" d="M320.44,426.74c-.46.3-.9.6-1.4.89a39.12,39.12,0,0,1-11.84,4.28l-.07,9,1.94,9.52-.29,5,18.35,6.89,27.55-15.88Z"/><polygon class="cls-3" points="226.99 457.92 183.23 483.44 237.14 514.5 270.5 495.05 226.99 457.92"/><polygon class="cls-3" points="237.73 436.33 169.91 475.76 176.59 479.61 245.82 439.36 237.73 436.33"/><polygon class="cls-3" points="307.2 462.18 300.54 472.08 285.33 486.53 319.48 466.77 307.2 462.18"/><polygon class="cls-3" points="251.6 443.76 233.89 454 269.88 484.44 251.6 443.76"/><path class="cls-3" d="M312.64,405.65c-8.74-5-23-5-31.7,0a21.75,21.75,0,0,0-1.91,1.25l7.45,4.2,6.48,5.31,8.4,11a29.87,29.87,0,0,0,11.3-3.53C321.39,418.9,321.39,410.69,312.64,405.65Z"/><path class="cls-3" d="M352.48,526.44a15.54,15.54,0,0,1,3.64-2.84c5.49-3.17,13.31-4.2,20.31-3.09L373,497.64l-23.29-13.42-27,30.81Z"/><path class="cls-3" d="M367.7,573.27l-1-29.38a27.87,27.87,0,0,1-10.59-3.27c-3.8-2.19-5.8-5-6.05-7.89l-35.27-13.51-46.23,13.4,85,49Z"/><polygon class="cls-3" points="410.33 519.13 383.39 503.6 386.43 524.11 410.33 519.13"/><path class="cls-3" d="M385.6,540.6a26.38,26.38,0,0,1-8.48,3l.79,23.8,57.95-33.52-18.15-10.46L391,529C392.83,533,391.06,537.44,385.6,540.6Z"/><polygon class="cls-3" points="318.84 506.16 286.87 494.86 245.22 519.16 260.5 527.96 312.6 513.28 318.84 506.16"/><polygon class="cls-3" points="323.56 500.78 342 479.75 327.47 471.38 294.43 490.48 323.56 500.78"/><path class="cls-3" d="M379.22,536.92c4.61-2.67,4.61-7,0-9.65s-12.1-2.65-16.71,0-4.6,7,0,9.65S374.62,539.58,379.22,536.92Z"/><polygon class="cls-3" points="470.8 513.63 505.87 493.35 503.55 492.01 472.02 486.8 470.8 513.63"/><polygon class="cls-3" points="412.61 476.98 394.82 501.36 443.51 529.41 460.11 519.82 461.68 485.09 412.61 476.98"/><polygon class="cls-3" points="450.26 461.31 438.61 472.2 437.02 474.76 488.33 483.24 450.26 461.31"/><polygon class="cls-3" points="386.94 496.81 404.02 473.29 373.66 444.66 335.12 466.95 386.94 496.81"/><polygon class="cls-3" points="412.74 439.68 397.47 430.88 381.22 440.28 413.71 470.91 426.98 473.11 427.65 472.08 412.74 439.68"/><polygon class="cls-3" points="170.84 432.18 132.73 454.34 164.08 472.4 202.15 450.22 170.84 432.18"/><polygon class="cls-3" points="192.79 419.42 177.66 428.22 208.89 446.21 230.59 433.61 192.79 419.42"/><polygon class="cls-3" points="284.78 365.94 258.18 381.41 257.99 404.31 267.06 406.61 322.42 387.63 284.78 365.94"/><polygon class="cls-3" points="248.14 387.25 230.68 397.39 248.02 401.78 248.14 387.25"/><polygon class="cls-3" points="223.13 401.78 200.64 414.86 248.92 432.98 249.23 423.6 253.26 415.16 259.44 410.98 223.13 401.78"/><path d="M404.5,233.74l-.63-1.9,2.94-1a1,1,0,0,1,.65,0,6.07,6.07,0,0,0,3.9.13,48.72,48.72,0,0,0,5.16-2.81l1,1.7a47.37,47.37,0,0,1-5.54,3,8,8,0,0,1-4.89,0Z"/><path d="M403.34,228.07l-.54-1.92,1.9-.54a4.68,4.68,0,0,1,.22-.5,19.13,19.13,0,0,1,3.36-4.24l1.35,1.47a19.16,19.16,0,0,0-2.87,3.54,7.41,7.41,0,0,0-.33.86,1,1,0,0,1-.68.66Z"/><path d="M360.83,222.7l-.7-.6a34.13,34.13,0,0,1-3.32-3l1.47-1.36a37.71,37.71,0,0,0,3.13,2.84l.71.6Z"/><path d="M365,239.78l-1.38-.47a46,46,0,0,1-4.29-1.74l.85-1.82c1.37.64,2.75,1.2,4.09,1.67l1.37.47Z"/><path d="M338.27,361.94a28.38,28.38,0,0,1-3.41-.19c-6.74-.83-7.87-4-7.93-5.82,0-1-.07-2.06-.11-3.11a193,193,0,0,0-1.57-21c-.68-5.07-1.63-10.41-2.47-15.12-1-5.75-1.83-10.29-1.84-12.57-.05-20.78,9.46-43.19,9.55-43.41l1.84.78c-.09.22-9.44,22.27-9.39,42.63,0,2.1.84,6.79,1.81,12.21.84,4.74,1.8,10.1,2.48,15.22a192.75,192.75,0,0,1,1.59,21.16c0,1.05.07,2.07.1,3.1.11,2.75,3.92,3.63,6.19,3.9,10,1.24,28.09-4.22,30.64-13,.36-1.25.36-6.35.35-12.27,0-4.89,0-11,.19-17.05.1-3.21.21-6.39.32-9.46.47-12.92.87-24.08-.1-29.49a63.8,63.8,0,0,0-2.36-9l1.89-.64a65.13,65.13,0,0,1,2.44,9.28c1,5.63.6,16.88.13,29.92-.11,3.07-.23,6.24-.33,9.45-.18,6-.18,12.11-.18,17,0,7.43,0,11.38-.43,12.83C365,356.49,349.3,361.94,338.27,361.94Z"/><path d="M360.89,261.16c-1.1-2.47-1.92-4-1.93-4l1.77-.93c0,.06.86,1.62,2,4.15Z"/><path d="M340.27,264.29c-1.21,0-2.4,0-3.53-.13-2.56-.2-6.43-1.44-6.6-3.45a10.81,10.81,0,0,1,.18-2.51,16.52,16.52,0,0,0,.2-2,27.13,27.13,0,0,0-.55-4.72l2-.36a29.69,29.69,0,0,1,.58,5.11,16.91,16.91,0,0,1-.23,2.26,10.27,10.27,0,0,0-.16,2.05c.22.39,2.27,1.43,4.77,1.63a48.66,48.66,0,0,0,7.24,0l.17,2C343,264.24,341.62,264.29,340.27,264.29Z"/><path d="M327.39,224.91l-1.64-1.15c2.05-2.92,6.94-5.86,9.87-7.61l.51-.3,1.73-.87-.07-6.88,2,0,.08,7.5a1,1,0,0,1-.55.9l-2.67,1.39C334,219.43,329.19,222.33,327.39,224.91Z"/><path d="M358.54,259.17l-1.25-1.56a5.8,5.8,0,0,0,2.06-2.47,16.88,16.88,0,0,0-.66-3.59,29.32,29.32,0,0,1-1-5.71,55.35,55.35,0,0,1,.66-5.5c.53-3.62,1.25-8.58,1-10.45a46.93,46.93,0,0,0-2.76-11.15c-.91-2.59-2.36-3.69-4.86-3.69l-1.31-.06.09-2,1.22.06c3.34,0,5.55,1.63,6.75,5a49,49,0,0,1,2.86,11.58c.25,2.12-.44,6.82-1,11-.33,2.29-.65,4.46-.64,5.17a27.91,27.91,0,0,0,1,5.27c.56,2.32.87,3.68.66,4.55A7.46,7.46,0,0,1,358.54,259.17Z"/><path d="M342.7,228.85a11.12,11.12,0,0,1-5.77-1.6c-2.71-1.63-4.46-4.23-4.45-6.62,0-1.41,1.69-3.32,2.2-3.88l1.46,1.36a7,7,0,0,0-1.66,2.53c0,1.65,1.43,3.66,3.48,4.89a9.77,9.77,0,0,0,9.86,0c3.42-1.84,3.45-5.88,3.17-8.12a2.53,2.53,0,0,0-1.64-1.73l.53-1.93a4.49,4.49,0,0,1,3.09,3.41c.35,2.75.28,7.72-4.2,10.13A12.76,12.76,0,0,1,342.7,228.85Z"/><path d="M347.39,216.65a8.88,8.88,0,0,1-4.6-1.84c-2.76-1.92-4.65-4.57-5.06-7.08l2-.32c.32,2,1.9,4.14,4.22,5.76a6.48,6.48,0,0,0,3.62,1.47,9.46,9.46,0,0,0,5.42-6.76,31,31,0,0,0-.05-9.43l1.94-.5a32.61,32.61,0,0,1,.06,10.34c-1,5-5.13,8-7,8.31A2.45,2.45,0,0,1,347.39,216.65Z"/><polygon class="cls-5" points="407.94 332.36 407.46 332.38 407.55 332.02 407.92 332.02 407.94 332.36"/><path d="M407.93,333.36a1.57,1.57,0,0,1-.81-.22,1.63,1.63,0,0,1-.81-1.4h2a.37.37,0,0,0-.19-.33.37.37,0,0,0-.38,0l15.34-8.86,0-.05a1,1,0,0,1,.32-.26l31.8-31.13a49.34,49.34,0,0,0,11.93-19.3,37.39,37.39,0,0,0,2.35-12c0-29.2-20.58-64.84-45.87-79.44-12.46-7.19-24.43-8.13-32.85-2.57l-16.73,9.66-1-1.73,16.68-9.63c9-6,21.77-5,34.9,2.54,25.84,14.92,46.87,51.33,46.87,81.17a39.36,39.36,0,0,1-2.46,12.62,51.4,51.4,0,0,1-12.42,20.08l-32,31.35-.18.14a1.36,1.36,0,0,1-.29.21l-15.41,8.9A1.57,1.57,0,0,1,407.93,333.36Zm20-69.8a17,17,0,0,1-1.86-.73c-14.24-6.48-25.83-26.56-24.32-42.13a16.9,16.9,0,0,1,.29-1.93l1.95.4a16,16,0,0,0-.25,1.73c-1.42,14.56,9.84,34,23.16,40.11a16.26,16.26,0,0,0,1.66.65Z"/><path d="M407.5,333.38l-.29,0a1.6,1.6,0,0,1-1.17-.91l-27.68-59.18,1.81-.85,27.45,58.7,30.79-30.27a49.45,49.45,0,0,0,11.93-19.31,37.39,37.39,0,0,0,2.35-12c0-29.2-20.58-64.83-45.87-79.44-12.06-7-23.35-8.11-31.78-3.24S362,202.1,362,216c0,3.48.79,8.46,2.37,14.83a182.55,182.55,0,0,0,11.54,32.34l-1.82.84a185,185,0,0,1-11.66-32.7C360.77,224.81,360,219.66,360,216c0-14.67,5-25.63,14.08-30.88s21.08-4.08,33.78,3.25c25.84,14.92,46.87,51.33,46.87,81.17a39.36,39.36,0,0,1-2.46,12.62,51.33,51.33,0,0,1-12.42,20.08l-31.17,30.65A1.65,1.65,0,0,1,407.5,333.38Zm9-59.23a19.63,19.63,0,0,1-9.82-2.95c-12-7-21.77-24-21.86-37.85,0-6.75,2.5-12.1,7-14.68s10.38-2.11,16.2,1.3c12,7,21.77,24,21.86,37.85,0,6.75-2.5,12.1-7,14.68A12.61,12.61,0,0,1,416.48,274.15Zm-8.81-4.68c5.19,3,10.36,3.52,14.19,1.3s6-6.93,6-12.94c-.09-13.24-9.45-29.45-20.87-36.13-5.19-3-10.36-3.52-14.19-1.3s-6,6.93-6,12.94c.09,13.24,9.45,29.45,20.87,36.13Z"/><path d="M375.49,274.93h-.12a23.91,23.91,0,0,1-4.44-.93,13.39,13.39,0,0,1-4.69-3.55l-12.57-4.62.69-1.88,12.81,4.71a1,1,0,0,1,.41.29,11.79,11.79,0,0,0,4.08,3.18,20.26,20.26,0,0,0,3.84.8l1.92-.2.14,0a.92.92,0,0,1,.09-.65,1,1,0,0,1,1-.54.86.86,0,0,1,0-.16,1,1,0,0,1,.52-.86,1,1,0,0,1-.34-.59,1.11,1.11,0,0,1,.11-.72,16,16,0,0,0-1.12-1.48,1,1,0,0,1-.1-1.14,1,1,0,0,1,.31-.33,9,9,0,0,0-3.14-1.45c-1.12,0-3.56.21-3.59.21l-1.93.32a1,1,0,0,1-.58-.08L357.41,260l.84-1.81,11.12,5.14,1.72-.28c.19,0,2.6-.19,3.74-.23,1.58-.06,5.21,2,5.91,3.32a1.34,1.34,0,0,1,0,1.33,1.19,1.19,0,0,1-.31.36,2.79,2.79,0,0,1,.64,1.37,2.17,2.17,0,0,1,0,.26,2.14,2.14,0,0,1,.21.38,1.55,1.55,0,0,1-.09,1.28,3.27,3.27,0,0,1-.26.43,1.45,1.45,0,0,1-.12,1.09,2.13,2.13,0,0,1-1.21,1,2.26,2.26,0,0,1-1.78,1.14l-.13,0-2.1.21Z"/><path d="M352.79,267c-2.66,0-12.33-3.9-16.19-7.29-2.65-2.35-10.74-9.48-12.38-28.24-.6-6.89,1.88-8.32,3-8.61,1.73-.46,3.56.75,4.64,3.09,1.49,3.19,2.7,5.85,3.72,8.09,4,8.79,5.09,11.16,8.37,14.77,1.84,2,5.65,4.05,9.34,6,1.79,1,3.48,1.85,5,2.76a1.69,1.69,0,0,1,.69,1.94c-.41,2.18-4.08,7.15-5.83,7.45A1.42,1.42,0,0,1,352.79,267Zm-24.88-42.23-.2,0c-1,.26-1.85,2.41-1.5,6.5,1.57,18,9.21,24.7,11.71,26.92,4.06,3.57,13.5,6.94,14.85,6.79.92-.37,4.05-4.52,4.21-5.85-1.4-.83-3-1.67-4.66-2.56-3.84-2-7.81-4.15-9.88-6.43-3.49-3.85-4.7-6.5-8.71-15.29-1-2.24-2.23-4.89-3.71-8.08C329.38,225.42,328.52,224.77,327.91,224.77Z"/><path class="cls-3" d="M254.5,73.27a15.22,15.22,0,0,1-7.69-2c-5.53-3.2-8.58-9.85-8.58-18.73,0-17.88,12.6-39.7,28.09-48.65C274-.53,281.29-1.21,286.83,2s8.58,9.85,8.58,18.73c0,17.88-12.6,39.7-28.09,48.65A26,26,0,0,1,254.5,73.27ZM279.14,2a24.12,24.12,0,0,0-11.82,3.65c-14.94,8.62-27.09,29.67-27.09,46.91,0,8.14,2.69,14.17,7.58,17s11.46,2.13,18.51-1.94C281.26,59,293.41,38,293.41,20.71c0-8.14-2.69-14.17-7.58-17A13.24,13.24,0,0,0,279.14,2Z"/><path class="cls-3" d="M265,37.17c0,1.49,1,2.09,2.32,1.35a5.15,5.15,0,0,0,2.33-4c0-1.49-1-2.09-2.33-1.35A5.15,5.15,0,0,0,265,37.17Z"/><rect class="cls-3" x="266.75" y="8.29" width="2" height="3.22"/><rect class="cls-3" x="241.74" y="47.98" width="3.22" height="2" transform="translate(8.1 128.22) rotate(-29.99)"/><rect class="cls-3" x="265.82" y="61.45" width="2" height="3.22"/><rect class="cls-3" x="288.27" y="22.29" width="3.22" height="2" transform="translate(27.18 148.04) rotate(-29.99)"/><path class="cls-3" d="M277.28,30.39l-8.7,6.34V33.29L277.29,30C277.5,29.88,277.5,30.23,277.28,30.39Z"/><path class="cls-3" d="M267.63,19.9,269,34.17l-3.34,1.57,1.63-15.63C267.29,19.84,267.61,19.66,267.63,19.9Z"/><rect x="163.28" y="645.1" width="2" height="2" transform="translate(-476.42 461.86) rotate(-59.69)"/><path d="M159.53,644.49l-3.37-2,1-1.72,3.37,2Zm-6.75-4-3.38-2,1-1.72,3.38,2Z"/><rect x="144.66" y="634.22" width="2" height="2" transform="translate(-476.24 440.39) rotate(-59.69)"/><rect x="315.95" y="609.84" width="2" height="2" transform="translate(-261.29 237.72) rotate(-29.74)"/><path d="M209.43,671.65a12.82,12.82,0,0,1-3.17-.42l.52-1.93a10.1,10.1,0,0,0,2.63.35,6.85,6.85,0,0,0,.9,0l.17,2C210.13,671.63,209.78,671.65,209.43,671.65Zm5.15-1.15-.85-1.81c.25-.12.51-.26.76-.4l2.58-1.48,1,1.74L215.48,670Q215,670.28,214.58,670.5Zm-12.12-1-3.37-2,1-1.73,3.37,2Zm19-2.91-1-1.73,3.4-1.94,1,1.73Zm-25.75-1-3.38-2,1-1.73,3.38,2Zm32.54-2.84-1-1.74,3.4-1.94,1,1.74ZM189,661.61l-3.38-2,1-1.73,3.38,2Zm46.1-2.78-1-1.73,3.39-2,1,1.74Zm-52.86-1.16-3.38-2,1-1.73,3.38,2ZM241.84,655l-1-1.74,3.4-1.94,1,1.73Zm6.8-3.89-1-1.73,3.39-2,1,1.74Zm6.79-3.88-1-1.74,3.4-1.94,1,1.73Zm6.8-3.89-1-1.74,3.4-1.94,1,1.74Zm6.79-3.88-1-1.74,3.39-1.94,1,1.73Zm6.79-3.89-1-1.74,3.4-1.94,1,1.74Zm6.8-3.89-1-1.73L285,628l1,1.73Zm6.79-3.88-1-1.74,3.4-1.94,1,1.74Zm6.8-3.89-1-1.73,3.39-2,1,1.74ZM303,620l-1-1.74,3.4-1.94,1,1.73Zm6.8-3.89-1-1.73,3.4-2,1,1.74Z"/><rect x="174.07" y="651.34" width="2" height="2" transform="translate(-476.46 474.27) rotate(-59.69)"/><path d="M169.67,653.93a10.29,10.29,0,0,1-5-1.22,3.74,3.74,0,0,1,0-7,11,11,0,0,1,10.07,0,3.75,3.75,0,0,1,0,7A10.35,10.35,0,0,1,169.67,653.93Zm0-7.4a8.27,8.27,0,0,0-4,.94c-.87.51-1.38,1.15-1.38,1.75s.51,1.25,1.38,1.75a9.05,9.05,0,0,0,8.07,0,2.28,2.28,0,0,0,1.37-1.75c0-.6-.5-1.24-1.37-1.75A8.34,8.34,0,0,0,169.67,646.53Z"/><path d="M385.8,611.1a25.81,25.81,0,0,1-5.34-.58l.46-1.95a21.23,21.23,0,0,0,8.69.09l.51,1.93A17,17,0,0,1,385.8,611.1Z"/><rect x="549.73" y="511.32" width="3.5" height="2" transform="translate(35.39 1060.28) rotate(-89.61)"/><rect x="83.67" y="432.85" width="2" height="4.12"/><rect x="342.19" y="542.14" width="197.93" height="2" transform="translate(-213.59 296.3) rotate(-30.26)"/><rect x="102.32" y="403.64" width="197.7" height="2" transform="translate(-176.83 157.01) rotate(-30.34)"/><path d="M355.23,201.49s-.19-8-4.1-11.27c-4.67-3.9-8.34-2.67-11.62-1.25-3.71,1.61-5,3.93-5.29,5.44a12.57,12.57,0,0,0,1.29,9.37,1.43,1.43,0,0,1,1.58-1.06A2.75,2.75,0,0,1,339.5,205a2.61,2.61,0,0,1,.06.27c.9-.11,2.64-.41,3-1s-.11-3-.11-3L344,204Z"/><path d="M361.51,423.56c-3.25-2.1-4.54-3.51-6.69-8a11,11,0,0,0-2.19-3.37c-.06.44-.12.85-.16,1.21a2.5,2.5,0,0,1-4.43,1.19,6.46,6.46,0,0,1-.72-2.37,2.14,2.14,0,0,0-.58,1,13.62,13.62,0,0,0-.27,2.38,22.77,22.77,0,0,0,.67,5.16l2.61,1.76v-1.35a22.84,22.84,0,0,0,6.12,5.43,3.61,3.61,0,0,0,4,.2,7,7,0,0,0,2-1.73A1.29,1.29,0,0,0,361.51,423.56Z"/><path d="M319.43,406.16c-2.16-.25-3.89-2.5-2.52-4.16a7,7,0,0,0,.63-1c-1.38,1-3.12,3.9-4.1,5.07s-3.22,2.71-3.76,3.92c-.64,1.42-1.26,4.27-.75,5.49.19.46,1.86,2.32,2.39,2.35,1.23.08,3.58-2.19,4.61-3.17,1.35-1.27,2.51-4.89,3.52-6.44.66-1,2.39-3.6,2.49-4.71a2.17,2.17,0,0,0,0-.36C320.38,405.05,319.43,406.16,319.43,406.16Z"/><path d="M319.43,407.16h-.12a4.51,4.51,0,0,1-3.65-2.65,3,3,0,0,1,.47-3.14c1.59-1.92,5.54-14.17,8.71-24,2.43-7.53,4.73-14.65,6.07-17.68l1.83.81c-1.3,2.94-3.58,10-6,17.49-4.38,13.56-7.37,22.61-9.07,24.67a1,1,0,0,0-.17,1.12,2.51,2.51,0,0,0,1.54,1.31c2.87-3.43,21.09-25.66,25-42.53a20.67,20.67,0,0,0,.24-2.4l2,.14A20.8,20.8,0,0,1,346,363c-4.34,18.71-24.94,42.81-25.82,43.83A1,1,0,0,1,319.43,407.16Z"/><path d="M350,416.56a3.44,3.44,0,0,1-2.73-1.32c-2.66-3.39-2.06-37.82-.56-47.88.26-1.72.54-4.48.82-8l2,.16c-.2,2.47-.51,5.89-.84,8.11-1.77,11.88-1.67,43.94.15,46.35a1.5,1.5,0,0,0,1.6.5,1.4,1.4,0,0,0,1.05-1.18c.52-4.43,2.48-14.19,4.75-25.49,2.08-10.39,4.45-22.17,5.94-31.17.25-1.52.5-3.24.74-5.12l2,.26c-.24,1.89-.5,3.64-.76,5.19-1.5,9-3.86,20.83-5.95,31.23-2.26,11.26-4.21,21-4.73,25.33a3.34,3.34,0,0,1-2.49,2.87A3.27,3.27,0,0,1,350,416.56Z"/><polygon class="cls-5" points="274.58 493.49 274.32 493.5 274.36 493.31 274.57 493.31 274.58 493.49"/><path d="M274.57,494.49a1.34,1.34,0,0,1-1.34-1.34h2a.65.65,0,0,0-.33-.57.63.63,0,0,0-.65,0l8.4-4.85.14-.11,17.55-17.18A26.76,26.76,0,0,0,306.8,460a20.22,20.22,0,0,0,1.27-6.45c0-15.95-11.24-35.42-25.05-43.39-6.82-3.94-13.08-4.44-17.64-1.44L256.14,414l-1-1.73,9.19-5.31c5.1-3.36,12.29-2.86,19.69,1.41,14.36,8.29,26.05,28.53,26.05,45.12a22.08,22.08,0,0,1-1.38,7.11,28.78,28.78,0,0,1-6.95,11.24l-17.65,17.27a.75.75,0,0,1-.14.12l-.21.15-8.49,4.9A1.36,1.36,0,0,1,274.57,494.49ZM285.37,456a9.82,9.82,0,0,1-1-.39c-8-3.64-14.52-14.92-13.67-23.67,0-.38.09-.74.16-1.09l2,.39a8.67,8.67,0,0,0-.13.89C272,440,278,450.49,285.23,453.76a7.61,7.61,0,0,0,.79.31Z"/><path d="M274.34,494.5a1,1,0,0,1-.24,0,1.37,1.37,0,0,1-1-.75l-17.31-37A102.45,102.45,0,0,1,249,437.92a38.36,38.36,0,0,1-1.36-8.55c0-8.25,2.84-14.43,8-17.41s11.92-2.33,19.07,1.79c14.37,8.3,26.05,28.54,26.05,45.13a22.21,22.21,0,0,1-1.37,7.1,29,29,0,0,1-7,11.25l-17.18,16.89A1.32,1.32,0,0,1,274.34,494.5Zm-11.51-82.38a12.07,12.07,0,0,0-6.16,1.58c-4.51,2.6-7,8.16-7,15.67a36.65,36.65,0,0,0,1.3,8.07,101,101,0,0,0,6.64,18.42L274.54,492l16.52-16.24a26.76,26.76,0,0,0,6.46-10.47,20,20,0,0,0,1.27-6.45c0-15.95-11.24-35.42-25.05-43.39A22.22,22.22,0,0,0,262.83,412.12Zm16.46,49.74a11.29,11.29,0,0,1-5.64-1.69c-6.83-4-12.22-13.33-12.27-21.24,0-3.89,1.46-7,4.07-8.49s6-1.24,9.38.72c6.83,4,12.22,13.33,12.27,21.25,0,3.88-1.46,7-4.07,8.48A7.37,7.37,0,0,1,279.29,461.86Zm-10.1-30.39a5.4,5.4,0,0,0-2.74.7c-2,1.14-3.09,3.6-3.07,6.74,0,7.16,5.1,15.92,11.28,19.54,2.71,1.59,5.4,1.85,7.37.71s3.09-3.59,3.07-6.74c-.05-7.16-5.11-15.92-11.28-19.53A9.3,9.3,0,0,0,269.19,431.47Z"/><polygon class="cls-5" points="430.56 476.8 430.29 476.81 430.34 476.61 430.55 476.61 430.56 476.8"/><path d="M430.55,477.8a1.34,1.34,0,0,1-1.34-1.34h2a.66.66,0,0,0-1-.57l8.41-4.85a.81.81,0,0,1,.14-.12l17.54-17.17a26.85,26.85,0,0,0,6.47-10.47,20.22,20.22,0,0,0,1.27-6.45c0-15.95-11.24-35.42-25.06-43.4-6.81-3.93-13.07-4.44-17.63-1.43l-9.25,5.34-1-1.73,9.2-5.31c5.1-3.37,12.29-2.87,19.68,1.4,14.37,8.3,26.06,28.54,26.06,45.13a22.25,22.25,0,0,1-1.38,7.1,28.61,28.61,0,0,1-7,11.24l-17.65,17.28-.14.12a1.15,1.15,0,0,1-.2.15l-8.5,4.9A1.32,1.32,0,0,1,430.55,477.8Zm10.77-38.53c-.31-.11-.63-.24-.95-.38-8-3.64-14.51-14.93-13.66-23.68a10.15,10.15,0,0,1,.22-1.36l1.95.45a6.76,6.76,0,0,0-.18,1.11c-.76,7.86,5.31,18.38,12.5,21.66a8.32,8.32,0,0,0,.78.3Z"/><path d="M430.32,477.81l-.24,0a1.37,1.37,0,0,1-1-.75l-17.31-37A103.08,103.08,0,0,1,405,421.22a38.76,38.76,0,0,1-1.35-8.54c0-8.25,2.84-14.44,8-17.41s11.93-2.34,19.08,1.79c14.36,8.29,26,28.54,26,45.13a22,22,0,0,1-1.38,7.1,28.71,28.71,0,0,1-6.95,11.24l-17.18,16.89A1.37,1.37,0,0,1,430.32,477.81Zm-11.51-82.38a12.23,12.23,0,0,0-6.17,1.57c-4.5,2.6-7,8.17-7,15.68a36.49,36.49,0,0,0,1.3,8.06,100.74,100.74,0,0,0,6.64,18.42l16.92,36.18L447,459.11a26.73,26.73,0,0,0,6.47-10.47,20.27,20.27,0,0,0,1.27-6.45c0-15.95-11.24-35.42-25-43.4A22.33,22.33,0,0,0,418.81,395.43Zm16.46,49.74a11.32,11.32,0,0,1-5.65-1.69c-6.83-4-12.21-13.33-12.26-21.25,0-3.88,1.45-7,4.06-8.48s6-1.25,9.39.72c6.83,4,12.22,13.33,12.26,21.24,0,3.89-1.45,7-4.06,8.49A7.47,7.47,0,0,1,435.27,445.17Zm-10.1-30.39a5.41,5.41,0,0,0-2.75.7c-2,1.14-3.08,3.59-3.06,6.74,0,7.15,5.1,15.92,11.27,19.53,2.72,1.59,5.41,1.85,7.38.72s3.08-3.6,3.06-6.75c0-7.15-5.1-15.91-11.27-19.53A9.28,9.28,0,0,0,425.17,414.78Z"/></g></g></svg>